<svg width="286" height="228" viewBox="0 0 286 228" fill="none" xmlns="http://www.w3.org/2000/svg">
<g opacity="0.86" clip-path="url(#clip0_3390_28142)">
<path d="M241.03 218.302C242.156 218.372 242.778 216.973 241.925 216.158L241.841 215.821C241.852 215.794 241.863 215.767 241.874 215.74C242.546 214.137 244.395 213.379 246.001 214.043C251.079 216.142 245.718 220.965 246.121 224.229C246.262 225.356 250.675 225.418 250.426 226.524C252.772 221.393 254.006 215.791 254.004 210.158C254.004 208.742 253.926 207.327 253.767 205.915C253.636 204.761 253.456 203.613 253.223 202.476C251.964 196.329 249.241 190.475 245.313 185.586C243.426 184.555 244.577 182.942 243.626 181.01C243.284 180.313 240.236 180.297 240.109 179.533C240.246 179.551 242.216 177.505 241.565 176.493C241.137 175.827 241.27 174.98 241.82 174.411C241.874 174.355 241.925 174.296 241.972 174.233C243.597 172.028 245.837 172.412 247.007 175.407C249.505 176.667 249.53 178.757 247.998 180.769C247.023 182.048 246.89 183.779 246.035 185.149C246.123 185.262 246.215 185.371 246.303 185.483C247.917 187.553 249.314 189.778 250.492 192.115C250.158 189.517 250.648 186.387 251.485 184.369C252.444 182.053 254.248 180.105 255.829 178.102C257.716 175.71 261.558 176.796 261.892 179.825C261.895 179.854 261.898 179.883 261.901 179.912C261.667 180.044 261.438 180.184 261.215 180.332C259.94 181.176 260.382 183.153 261.893 183.385L261.927 183.39C261.843 184.232 258.857 186.883 258.646 187.703C260.665 195.503 259.154 196.532 252.941 196.663L252.614 197.127C253.203 198.82 253.677 200.554 254.033 202.31C254.368 203.94 254.601 205.588 254.732 207.242C254.895 209.33 254.881 211.428 254.706 213.513L254.716 213.439C255.163 211.143 256.408 208.999 258.217 207.512C260.913 205.297 264.721 204.48 267.629 202.699C269.029 201.841 270.823 202.948 270.579 204.571L270.567 204.649C270.134 204.825 269.712 205.03 269.304 205.259C269.07 205.391 268.84 205.531 268.617 205.679C267.341 206.523 267.784 208.5 269.295 208.732L269.329 208.737C269.354 208.741 269.375 208.744 269.4 208.748C268.658 210.512 261.585 213 260.29 214.413C259.031 221.225 259.65 221.023 253.852 219.041H253.849C253.216 221.801 252.291 224.498 251.102 227.069L241.279 227.072C241.244 226.963 241.212 226.851 241.18 226.741C242.089 226.798 243.004 226.744 243.898 226.579C243.169 225.685 242.44 224.783 241.711 223.889C241.693 223.872 241.679 223.854 241.665 223.837L241.654 223.823L240.643 220.494C240.722 219.755 240.853 219.023 241.03 218.302Z" fill="#F2F2F2"/>
<path d="M137.226 226.992L50.3055 227.022C45.9388 227.024 42.0273 224.767 39.8427 220.986C38.7502 219.096 38.2038 217.022 38.2031 214.947C38.2024 212.873 38.7476 210.798 39.8385 208.907L83.2712 129.84C85.4535 126.057 89.3635 123.798 93.7302 123.797C98.0969 123.795 102.008 126.052 104.193 129.833L147.686 208.879C148.776 210.765 149.321 212.837 149.321 214.91C149.321 216.983 148.776 219.057 147.685 220.949C145.503 224.731 141.593 226.991 137.226 226.992ZM39.2957 214.946C39.2956 216.834 48.887 212.765 49.8807 214.485C51.8682 217.925 46.3324 225.933 50.3052 225.932C50.3052 225.932 144.756 223.845 146.741 220.404C147.733 218.684 148.229 216.796 148.229 214.909C148.228 213.022 147.731 211.135 146.737 209.415L103.244 130.368C101.262 126.938 97.7033 124.886 93.7306 124.887C89.7597 124.888 39.2959 213.057 39.2957 214.946Z" fill="#3F3D56"/>
<path d="M138.193 225.902C137.104 228.083 188.132 227.413 188.735 227.413C188.735 227.413 203.078 227.096 203.38 226.573C203.53 226.312 203.606 226.025 203.605 225.739C203.605 225.452 203.53 225.166 203.379 224.904L196.774 212.901C196.473 212.38 195.933 212.068 195.33 212.068C195.305 212.068 195.268 212.091 195.22 212.133C186.409 220.007 175.551 225.212 163.736 225.387C151.173 225.574 138.262 225.764 138.193 225.902Z" fill="#3F3D56"/>
<path d="M4.08018e-08 227.353C0.000125415 227.713 0.289145 228.001 0.648931 228.001L285.352 227.903C285.711 227.903 286 227.614 286 227.254C286 226.894 285.711 226.605 285.351 226.605L0.648484 226.704C0.288698 226.704 -0.000125333 226.993 4.08018e-08 227.353Z" fill="#CCCCCC"/>
<path d="M220.157 224.205L215.227 224.206L212.875 205.19L220.152 205.188L220.157 224.205Z" fill="#A0616A"/>
<path d="M203.265 224.099C203.112 224.357 203.031 225.192 203.031 225.493C203.032 226.417 203.781 227.166 204.705 227.165L219.974 227.16C220.604 227.16 221.115 226.649 221.115 226.018L221.115 225.382C221.115 225.382 221.869 223.472 220.314 221.117C220.314 221.117 218.381 222.962 215.492 220.075L214.64 218.532L208.477 223.043L205.06 223.465C204.312 223.557 203.65 223.451 203.265 224.099Z" fill="#2F2E41"/>
<path d="M201.25 207.939L196.58 209.52L188.262 192.258L195.154 189.926L201.25 207.939Z" fill="#A0616A"/>
<path d="M185.215 213.249C185.153 213.544 185.344 214.36 185.44 214.645C185.736 215.52 186.686 215.99 187.562 215.693L202.024 210.798C202.622 210.596 202.942 209.948 202.74 209.351L202.536 208.749C202.536 208.749 202.639 206.697 200.411 204.965C200.411 204.965 199.171 207.331 195.51 205.521L194.208 204.333L189.814 210.58L186.713 212.074C186.034 212.401 185.372 212.513 185.215 213.249Z" fill="#2F2E41"/>
<path d="M193.634 97.6231L184.071 129.294L172.781 157.782L190.654 198.465L197.282 195.517L189.352 158.144L205.982 132.785L213.742 211.951L220.37 211.581L229.358 116.022L230.64 95.2168L193.634 97.6231Z" fill="#2F2E41"/>
<path d="M222.516 27.4648L208.524 30.0473L207.422 36.3076L198.954 40.361L194.551 86.3912C194.551 86.3912 187.19 95.9677 193.083 98.9115L230.641 95.2162C230.641 95.2162 232.48 88.4077 230.638 87.7617C228.797 87.1158 228.791 70.8528 228.791 70.8528L237.249 37.4019L224.728 32.9875L222.516 27.4648Z" fill="#E6E6E6"/>
<path d="M214.264 27.3445C220.504 27.3445 225.562 22.2859 225.562 16.0458C225.562 9.80568 220.504 4.74707 214.264 4.74707C208.023 4.74707 202.965 9.80568 202.965 16.0458C202.965 22.2859 208.023 27.3445 214.264 27.3445Z" fill="#A0616A"/>
<path d="M221.745 17.7226C220.843 18.2162 221.699 20.5728 221.135 20.7765C220.484 21.012 218.109 18.3087 218.08 15.2809C218.071 14.3645 218.282 13.9245 218.079 12.8379C217.813 11.4167 216.999 9.74035 216.245 9.78486C215.799 9.81123 215.362 10.4429 215.33 11.0067C215.284 11.7967 216.052 12.1077 215.941 12.5333C215.731 13.3439 212.508 13.9036 211.361 12.5349C210.461 11.4618 211.151 9.57785 210.749 9.48139C210.452 9.41028 210.134 10.4475 208.917 11.6196C208.459 12.0612 207.777 12.7179 207.391 12.5363C206.833 12.2737 207.238 10.4233 207.085 10.3988C206.957 10.3784 206.878 11.6791 206.169 12.842C205.259 14.3362 203.382 15.4878 202.506 14.9809C201.969 14.6703 201.926 13.8056 201.894 13.1489C201.826 11.7653 199.816 8.58287 200.336 7.10279C201.395 4.09038 203.209 6.21384 204.029 5.20853C205.14 3.84757 206.136 4.57929 207.998 3.06956C209.817 1.5947 209.833 0.112347 211.051 0.0147952C212.148 -0.0730538 212.538 1.09698 213.799 0.929955C214.868 0.788462 215.101 -0.119022 215.937 0.0131C216.702 0.134059 216.752 0.933504 217.769 1.23395C218.419 1.42576 218.561 1.14813 219.296 1.23342C220.826 1.41088 221.853 2.80377 222.045 3.06469C222.787 4.07055 222.499 4.49473 223.267 5.50723C223.93 6.38038 225.398 6.0096 225.95 6.44569C227.754 7.87065 228.529 10.4985 228.545 13.4937C228.556 15.5886 228.283 16.647 227.673 19.2912C227.211 21.2991 225.067 23.8937 223.885 25.0507C223.568 25.3613 222.678 26.232 222.053 25.9675C221.461 25.7169 221.443 24.5897 221.442 24.4408C221.439 23.929 221.575 23.2956 222.662 21.6921C223.804 20.0077 224.258 19.8155 224.188 19.2486C224.066 18.2466 222.464 17.3292 221.745 17.7226Z" fill="#2F2E41"/>
<path d="M182.337 123.063C181.986 126.008 183.22 128.576 185.094 128.8C186.968 129.024 188.772 126.818 189.124 123.873C189.278 122.584 189.128 121.367 188.753 120.387L190.087 107.89L184.209 107.389L183.518 119.762C182.923 120.626 182.491 121.774 182.337 123.063Z" fill="#A0616A"/>
<path d="M199.232 40.0635C199.232 40.0635 196.187 40.1068 194.171 44.0448C193.099 46.1375 187.367 85.2698 187.367 85.2698L182.086 117.327L191.081 117.372L198.091 87.0134L203.987 69.406L199.232 40.0635Z" fill="#E6E6E6"/>
<path d="M224.545 118.359C223.684 121.197 224.45 123.942 226.256 124.49C228.062 125.038 230.224 123.182 231.085 120.344C231.462 119.102 231.528 117.877 231.33 116.847L234.829 104.775L229.13 103.254L226.285 115.316C225.549 116.062 224.922 117.117 224.545 118.359Z" fill="#A0616A"/>
<path d="M230.805 37.9569C230.805 37.9569 235.222 34.6414 238.906 39.7953C242.59 44.9492 244.078 87.2951 244.078 87.2951L233.777 113.443L226.043 110.868L233.396 78.8295L220.5 54.5308L230.805 37.9569Z" fill="#E6E6E6"/>
<path d="M119.093 209.555C141.07 209.555 158.886 191.739 158.886 169.762C158.886 147.785 141.07 129.97 119.093 129.97C97.1165 129.97 79.3008 147.785 79.3008 169.762C79.3008 191.739 97.1165 209.555 119.093 209.555Z" fill="#EF4444"/>
<path d="M119.103 194.156C121.121 194.156 122.756 192.52 122.756 190.502C122.756 188.484 121.121 186.849 119.103 186.849C117.085 186.849 115.449 188.484 115.449 190.502C115.449 192.52 117.085 194.156 119.103 194.156Z" fill="white"/>
<path d="M119.087 145.369C118.751 147.599 119.353 148.066 119.356 157.68C119.359 167.295 121.354 180.185 119.099 180.186C116.844 180.187 116.019 153.583 108.188 151.229C98.9803 148.461 120.173 138.15 119.087 145.369Z" fill="white"/>
<path d="M65.6869 190.079L62.0917 197.676C66.438 194.559 73.2267 191.872 78.6289 190.433C73.5954 188.002 67.4362 184.082 63.7565 180.201L65.8243 188.227C41.5814 183.289 24.1721 164.691 24.1648 143.387L23.2891 143.086C23.2968 165.339 40.4651 185.038 65.6869 190.079Z" fill="#3F3D56"/>
</g>
<defs>
<clipPath id="clip0_3390_28142">
<rect width="286" height="228.001" fill="white"/>
</clipPath>
</defs>
</svg>
