<svg width="24" height="24" viewBox="0 0 24 24" fill="none" xmlns="http://www.w3.org/2000/svg">
<path d="M20.4366 13.3159C20.1576 12.6402 20.1576 11.8914 20.4366 11.234L20.5297 11.0148C21.1249 9.6269 20.4366 8.01983 19.023 7.43544L18.8184 7.34413C18.1302 7.07019 17.5908 6.54059 17.3118 5.86489L17.2374 5.68227C16.6236 4.29434 15.0053 3.6369 13.5731 4.20303L13.3871 4.27608C12.6989 4.55001 11.9363 4.55001 11.2481 4.27608L11.0807 4.20303C9.68563 3.6369 8.0488 4.3126 7.45359 5.70053L7.37919 5.84663C7.10018 6.52233 6.56077 7.05193 5.87256 7.32587L5.70515 7.39891C4.31013 7.9833 3.62191 9.59038 4.21712 10.9783L4.29152 11.1427C4.57053 11.8184 4.57053 12.5671 4.29152 13.2246L4.21712 13.4254C3.62191 14.8134 4.29153 16.4204 5.72375 16.9866L5.90976 17.0596C6.59797 17.3335 7.13738 17.8631 7.41639 18.5388L7.50939 18.7397C8.086 20.1459 9.72283 20.8034 11.1365 20.2372L11.3411 20.1459C12.0293 19.872 12.7919 19.872 13.4801 20.1459L13.6475 20.219C15.0611 20.8034 16.698 20.1277 17.2932 18.7397L17.3676 18.5936C17.6466 17.9179 18.186 17.3883 18.8742 17.1144L19.023 17.0596C20.4552 16.4752 21.1249 14.8864 20.5297 13.4802L20.4366 13.3159ZM11.5829 15.7813L7.9558 12.7863L9.07182 11.4896L11.3783 13.4072L15.4517 8.659L16.7724 9.75474L11.5829 15.7813Z" fill="#1DA1F2"/>
</svg>
