<svg width="35" height="34" viewBox="0 0 35 34" fill="none" xmlns="http://www.w3.org/2000/svg">
<path d="M17.4997 0.5C21.8743 0.505169 26.0682 2.24525 29.1615 5.33853C32.2548 8.43189 33.9949 12.6259 34 17.0006C33.9999 20.2638 33.0322 23.4536 31.2192 26.1669C29.4062 28.8803 26.8293 30.9952 23.8143 32.244C20.7993 33.4928 17.4817 33.8196 14.281 33.1829C11.0803 32.5463 8.14031 30.9748 5.83274 28.6672C3.52518 26.3597 1.95371 23.4197 1.31705 20.219C0.680395 17.0183 1.00715 13.7007 2.25599 10.6857C3.50484 7.67074 5.61969 5.09379 8.3331 3.28075C11.0464 1.46776 14.2364 0.500059 17.4997 0.5ZM18.0155 25.077L18.0155 25.077L18.0187 25.0727L27.7096 11.9216C27.8687 11.7222 27.9864 11.4931 28.0557 11.2475C28.1262 10.9982 28.1454 10.7372 28.1121 10.4802C28.0788 10.2233 27.9938 9.97572 27.8622 9.75256C27.7305 9.52939 27.555 9.33523 27.3462 9.18181C27.1374 9.02839 26.8997 8.9189 26.6474 8.85995C26.3951 8.801 26.1334 8.79382 25.8783 8.83884C25.6231 8.88386 25.3797 8.98015 25.1628 9.12189C24.9495 9.26131 24.7661 9.44186 24.6234 9.65294L16.1169 21.1975L10.7489 16.9029C10.3519 16.5852 9.84502 16.4382 9.33968 16.4943C8.83434 16.5503 8.37197 16.8049 8.05429 17.2018C7.7366 17.5988 7.58963 18.1057 7.6457 18.6111C7.67346 18.8613 7.75024 19.1036 7.87164 19.3241C7.99304 19.5447 8.1567 19.7392 8.35326 19.8965L8.35344 19.8966L15.2781 25.4329L15.2781 25.433L15.2824 25.4363C15.4846 25.5944 15.7162 25.7106 15.9638 25.7781C16.2113 25.8457 16.4698 25.8632 16.7243 25.8298C16.9787 25.7963 17.2239 25.7125 17.4456 25.5833C17.6673 25.4541 17.861 25.2819 18.0155 25.077Z" fill="#22C55E" stroke="#22C55E"/>
</svg>
