<svg width="220" height="230" viewBox="0 0 220 230" fill="none" xmlns="http://www.w3.org/2000/svg">
<g clip-path="url(#clip0_3953_37786)">
<path d="M69.6894 229.907C108.178 229.907 139.379 227.766 139.379 225.124C139.379 222.483 108.178 220.342 69.6894 220.342C31.201 220.342 0 222.483 0 225.124C0 227.766 31.201 229.907 69.6894 229.907Z" fill="#E6E6E6"/>
<path d="M97.474 134.457C98.158 130.616 101.699 128.359 105.229 127.456C109.258 126.424 113.553 126.551 117.654 127.016C125.911 127.953 134.019 130.484 142.399 130.092C149.685 129.725 156.747 127.452 162.88 123.501C169.048 119.536 174.019 113.963 177.258 107.384C180.519 100.762 181.965 93.3935 181.449 86.0301C181.381 85.1147 181.277 84.2031 181.148 83.2944C181.056 82.644 180.068 82.9207 180.16 83.5668C181.157 90.8876 180.127 98.3417 177.18 105.117C174.288 111.824 169.588 117.594 163.605 121.784C157.641 125.95 150.67 128.443 143.417 129.006C135.144 129.61 127.106 127.232 118.976 126.155C114.87 125.611 110.683 125.408 106.583 126.121C102.952 126.753 99.2264 128.377 97.3624 131.741C96.9377 132.502 96.6415 133.328 96.4858 134.185C96.371 134.83 97.3585 135.107 97.4741 134.457H97.474Z" fill="#3F3D56"/>
<path d="M177.3 85.4037C200.883 85.4037 220.001 66.2854 220.001 42.7019C220.001 19.1183 200.883 0 177.3 0C153.716 0 134.598 19.1183 134.598 42.7019C134.598 66.2854 153.716 85.4037 177.3 85.4037Z" fill="#1DA1F2"/>
<path d="M161.244 45.0932C167.282 45.0932 172.176 40.1989 172.176 34.1615C172.176 28.1241 167.282 23.2299 161.244 23.2299C155.207 23.2299 150.312 28.1241 150.312 34.1615C150.312 40.1989 155.207 45.0932 161.244 45.0932Z" fill="white"/>
<path d="M164.668 56.0249C164.757 57.6842 165.479 59.2462 166.685 60.3899C167.89 61.5335 169.488 62.172 171.15 62.174H188.914C190.575 62.172 192.173 61.5335 193.379 60.3899C194.584 59.2462 195.306 57.6842 195.395 56.0249H164.668Z" fill="white"/>
<path d="M157.143 43.5559C160.351 43.5559 162.951 40.9559 162.951 37.7485C162.951 34.5411 160.351 31.941 157.143 31.941C153.936 31.941 151.336 34.5411 151.336 37.7485C151.336 40.9559 153.936 43.5559 157.143 43.5559Z" fill="#3F3D56"/>
<path d="M159.191 36.7236C159.945 36.7236 160.557 36.1119 160.557 35.3572C160.557 34.6025 159.945 33.9907 159.191 33.9907C158.436 33.9907 157.824 34.6025 157.824 35.3572C157.824 36.1119 158.436 36.7236 159.191 36.7236Z" fill="white"/>
<path d="M196.772 45.264C202.809 45.264 207.703 40.3697 207.703 34.3323C207.703 28.2949 202.809 23.4006 196.772 23.4006C190.734 23.4006 185.84 28.2949 185.84 34.3323C185.84 40.3697 190.734 45.264 196.772 45.264Z" fill="white"/>
<path d="M192.671 43.5559C195.878 43.5559 198.478 40.9559 198.478 37.7485C198.478 34.5411 195.878 31.941 192.671 31.941C189.463 31.941 186.863 34.5411 186.863 37.7485C186.863 40.9559 189.463 43.5559 192.671 43.5559Z" fill="#3F3D56"/>
<path d="M194.722 36.7236C195.477 36.7236 196.088 36.1119 196.088 35.3572C196.088 34.6025 195.477 33.9907 194.722 33.9907C193.967 33.9907 193.355 34.6025 193.355 35.3572C193.355 36.1119 193.967 36.7236 194.722 36.7236Z" fill="white"/>
<path d="M177.982 50.559C180.246 50.559 182.082 48.7236 182.082 46.4596C182.082 44.1956 180.246 42.3602 177.982 42.3602C175.718 42.3602 173.883 44.1956 173.883 46.4596C173.883 48.7236 175.718 50.559 177.982 50.559Z" fill="#3F3D56"/>
<path d="M184.129 83.0125H176.613V88.8199H184.129V83.0125Z" fill="#1DA1F2"/>
<path d="M76.2695 197.152C76.2695 197.152 81.0919 211.275 79.0252 216.442L85.2253 221.953L89.0143 217.131C89.0143 217.131 84.8809 212.997 85.2253 209.897C85.5698 206.797 85.9142 195.775 85.9142 195.775L76.2695 197.152Z" fill="#FFB9B9"/>
<path d="M99.3462 224.707C99.0646 224.872 98.796 225.028 98.5491 225.171H77.1694C76.9713 225.057 76.8122 224.886 76.7132 224.68C76.6141 224.475 76.5799 224.244 76.6149 224.018C76.7145 223.507 76.9701 222.467 77.2864 221.271C78.0359 218.443 79.1363 214.738 79.3746 215.133C79.3751 215.133 79.3757 215.133 79.3762 215.133C79.3768 215.133 79.3772 215.134 79.3776 215.134C79.378 215.134 79.3784 215.135 79.3786 215.135C79.3788 215.136 79.3789 215.136 79.3789 215.137C79.7125 215.752 80.4013 218.507 82.1255 218.165C83.8498 217.819 86.6051 217.13 86.6051 217.13C86.6051 217.13 85.6217 214.92 86.5618 214.028C86.7639 213.84 87.02 213.72 87.2939 213.686C89.3604 213.343 89.3604 216.441 89.3604 216.441L96.9375 220.574C97.5907 220.755 98.2281 220.988 98.8437 221.271C100.382 221.991 101.902 223.221 99.3462 224.707Z" fill="#2F2E41"/>
<path d="M62.492 191.986L53.5362 202.664L51.125 208.175L54.2251 210.586L56.9807 209.553C56.9807 209.553 59.3919 203.353 61.8031 202.319C64.2143 201.286 70.07 194.397 70.07 194.397L62.492 191.986Z" fill="#FFB9B9"/>
<path d="M81.2652 183.791L76.6977 192.258L73.4254 198.32C72.3783 198.944 70.9832 198.933 69.4814 198.565C68.7816 198.386 68.0955 198.157 67.4285 197.879C63.3294 196.202 59.1719 192.871 59.1719 192.871L67.0392 183.04L69.6089 179.833L70.2185 179.069L73.1567 180.326L78.3408 182.541L81.2652 183.791Z" fill="#2F2E41"/>
<path d="M60.879 110.68L57.2305 125.646L60.986 144.847C60.986 144.847 61.0785 152.696 64.52 152.1C67.9615 151.504 64.3549 143.588 64.3549 143.588L62.6715 127.845L68.0536 112.291C68.4896 111.032 67.939 109.679 66.6762 108.908C64.5452 107.606 61.5167 108.532 60.879 110.68Z" fill="#FFB9B9"/>
<path d="M73.6863 97.7774L70.5862 107.422L64.7305 104.322C64.7305 104.322 67.1417 97.4329 67.1417 96.3995C67.1417 95.3662 73.6863 97.7774 73.6863 97.7774Z" fill="#FFB9B9"/>
<path d="M71.2765 101.566C75.2715 101.566 78.5101 98.3279 78.5101 94.3329C78.5101 90.3379 75.2715 87.0994 71.2765 87.0994C67.2815 87.0994 64.043 90.3379 64.043 94.3329C64.043 98.3279 67.2815 101.566 71.2765 101.566Z" fill="#FFB9B9"/>
<path d="M73.1696 109.661L71.7917 108.283L71.4473 106.561C71.4473 106.561 66.9694 100.705 63.1804 102.772C61.9963 103.418 61.115 104.905 60.4628 106.644C58.8019 111.189 58.9568 116.2 60.8955 120.634L66.9694 134.806L80.7475 133.428L78.3364 124.473C78.3364 124.473 80.7476 118.961 76.2696 115.172L73.1696 109.661Z" fill="#1DA1F2"/>
<path opacity="0.3" d="M81.2632 183.791L76.6957 192.258L73.4234 198.32C72.3762 198.944 70.9812 198.933 69.4794 198.565C69.2176 196.822 70.7814 187.611 69.5517 180.102L69.6068 179.833L70.2165 179.069L73.1547 180.326L78.3387 182.541L81.2632 183.791Z" fill="black"/>
<path d="M81.2634 132.567C81.2634 132.567 72.3075 127.056 66.1074 133.945L66.4518 136.012C66.4518 136.012 61.285 141.868 64.3851 154.268C67.4852 166.668 72.3075 199.047 72.3075 199.047C72.3075 199.047 83.6745 199.736 88.8414 195.947C88.8414 195.947 87.1191 153.235 81.2634 149.101V132.567Z" fill="#2F2E41"/>
<path d="M62.5882 113.382L72.3072 125.334L89.8744 133.945C89.8744 133.945 96.1837 138.615 97.789 135.513C99.3942 132.411 90.9077 130.501 90.9077 130.501L77.3472 122.327L68.2077 108.64C67.4674 107.531 66.0571 107.152 64.6794 107.692C62.3546 108.604 61.2622 111.576 62.5882 113.382Z" fill="#FFB9B9"/>
<path d="M56.1498 208.796C56.1498 208.796 58.2612 206.141 59.5225 207.814C60.7837 209.487 58.0351 210.921 58.0351 210.921L57.8751 219.551C57.8751 219.551 59.375 226.15 55.3255 223.601C51.276 221.051 51.1167 220.746 50.3201 219.219C49.5236 217.692 47.8776 211.557 46.457 209.579C45.0365 207.6 43.7355 203.617 45.4218 203.126C47.1081 202.635 54.9684 200.886 54.5768 201.468C54.1852 202.051 52.0606 203.936 53.1626 205.304C54.2646 206.672 56.1498 208.796 56.1498 208.796Z" fill="#2F2E41"/>
<path d="M75.0636 88.159C75.0636 88.1502 75.0643 88.1415 75.0643 88.1327C75.0643 86.157 74.4784 84.2257 73.3808 82.583C72.2832 80.9403 70.7231 79.66 68.8978 78.9039C67.0725 78.1479 65.064 77.9501 63.1263 78.3355C61.1886 78.7209 59.4087 79.6723 58.0117 81.0693C56.6147 82.4663 55.6633 84.2462 55.2779 86.1839C54.8924 88.1216 55.0903 90.1301 55.8463 91.9554C56.6024 93.7807 57.8827 95.3408 59.5254 96.4384C61.1681 97.536 63.0994 98.1219 65.0751 98.1219C65.3072 98.1219 66.2248 99.8597 66.4529 99.8441C66.4666 94.5714 69.8774 88.5131 75.0636 88.159Z" fill="#2F2E41"/>
<path d="M54.3962 87.0993C58.0107 87.0993 60.9408 84.1691 60.9408 80.5546C60.9408 76.9401 58.0107 74.01 54.3962 74.01C50.7817 74.01 47.8516 76.9401 47.8516 80.5546C47.8516 84.1691 50.7817 87.0993 54.3962 87.0993Z" fill="#2F2E41"/>
<path d="M54.0977 70.6406C55.6747 70.6307 57.2022 71.1914 58.3984 72.2193C59.5945 73.2471 60.3786 74.6729 60.6061 76.2335C60.8335 77.7941 60.489 79.3844 59.636 80.7109C58.783 82.0374 57.4791 83.0108 55.9648 83.4514C56.9025 83.4499 57.8288 83.2468 58.6811 82.8558C59.5334 82.4649 60.2916 81.8952 60.9043 81.1855C61.5171 80.4757 61.9701 79.6425 62.2326 78.7424C62.4951 77.8422 62.561 76.8961 62.4258 75.9683C62.2905 75.0404 61.9574 74.1525 61.4488 73.3647C60.9403 72.5769 60.2683 71.9077 59.4785 71.4024C58.6886 70.8971 57.7993 70.5676 56.8709 70.4362C55.9425 70.3047 54.9967 70.3745 54.0977 70.6406Z" fill="#2F2E41"/>
<path d="M69.5508 86.0659H74.794C75.9614 86.0659 77.0809 86.5296 77.9063 87.3551C78.7318 88.1805 79.1955 89.3001 79.1955 90.4674V92.2661H69.5508V86.0659Z" fill="#2F2E41"/>
</g>
<defs>
<clipPath id="clip0_3953_37786">
<rect width="220" height="229.907" fill="white"/>
</clipPath>
</defs>
</svg>
