<svg width="28" height="28" viewBox="0 0 28 28" fill="none" xmlns="http://www.w3.org/2000/svg">
<path d="M24.0625 3.0625H3.9375C3.45352 3.0625 3.0625 3.45352 3.0625 3.9375V24.0625C3.0625 24.5465 3.45352 24.9375 3.9375 24.9375H24.0625C24.5465 24.9375 24.9375 24.5465 24.9375 24.0625V3.9375C24.9375 3.45352 24.5465 3.0625 24.0625 3.0625ZM21.5359 9.44727H19.7887C18.4188 9.44727 18.1535 10.098 18.1535 11.0551V13.1633H21.4238L20.9973 16.4637H18.1535V24.9375H14.7438V16.4664H11.8918V13.1633H14.7438V10.7297C14.7438 7.90508 16.4691 6.36563 18.9902 6.36563C20.1988 6.36563 21.2352 6.45586 21.5387 6.49688V9.44727H21.5359Z" fill="#525252"/>
</svg>
