<svg width="20" height="18" viewBox="0 0 20 18" fill="none" xmlns="http://www.w3.org/2000/svg">
<path d="M20 5.99401C20.0005 5.20621 19.8456 4.42605 19.5442 3.69819C19.2428 2.97034 18.8008 2.30909 18.2435 1.75231C17.6861 1.19553 17.0244 0.754165 16.2963 0.453478C15.5681 0.152791 14.7878 -0.00130701 14 8.35025e-06H6C2.687 8.35025e-06 -1.90735e-06 2.69501 -1.90735e-06 5.99401V18H14C17.313 18 20 15.305 20 12.006V5.99401ZM8 8.00001V10H6V8.00001H8ZM14 8.00001V10H12V8.00001H14Z" fill="#525252"/>
</svg>
