<svg width="20" height="20" viewBox="0 0 20 20" fill="none" xmlns="http://www.w3.org/2000/svg">
<path d="M10.0013 18.3337C5.39893 18.3337 1.66797 14.6027 1.66797 10.0003C1.66797 5.39795 5.39893 1.66699 10.0013 1.66699C14.6036 1.66699 18.3346 5.39795 18.3346 10.0003C18.3346 14.6027 14.6036 18.3337 10.0013 18.3337ZM10.0013 16.667C13.6832 16.667 16.668 13.6822 16.668 10.0003C16.668 6.31843 13.6832 3.33366 10.0013 3.33366C6.3194 3.33366 3.33464 6.31843 3.33464 10.0003C3.33464 13.6822 6.3194 16.667 10.0013 16.667ZM9.16797 12.5003H10.8346V14.167H9.16797V12.5003ZM10.8346 11.1296V11.667H9.16797V10.417C9.16797 9.95674 9.54105 9.58366 10.0013 9.58366C10.6916 9.58366 11.2513 9.02399 11.2513 8.33366C11.2513 7.6433 10.6916 7.08366 10.0013 7.08366C9.39489 7.08366 8.8893 7.51552 8.7753 8.08847L7.14073 7.76154C7.40661 6.42465 8.5863 5.41699 10.0013 5.41699C11.6121 5.41699 12.918 6.72283 12.918 8.33366C12.918 9.65491 12.0394 10.771 10.8346 11.1296Z" fill="#737373"/>
</svg>
