<svg width="28" height="28" viewBox="0 0 28 28" fill="none" xmlns="http://www.w3.org/2000/svg">
<path d="M24.4378 9.68887C24.426 8.80527 24.2606 7.93044 23.9489 7.10354C23.6787 6.40605 23.2659 5.7726 22.737 5.24367C22.208 4.71475 21.5746 4.30196 20.8771 4.03171C20.0608 3.72529 19.1985 3.5596 18.3268 3.54171C17.2044 3.49154 16.8486 3.47754 13.9996 3.47754C11.1506 3.47754 10.7854 3.47754 9.67126 3.54171C8.79995 3.55974 7.938 3.72542 7.12209 4.03171C6.42449 4.30178 5.79095 4.71449 5.262 5.24344C4.73305 5.7724 4.32033 6.40594 4.05026 7.10354C3.74323 7.91919 3.5779 8.78133 3.56143 9.65271C3.51126 10.7762 3.49609 11.132 3.49609 13.981C3.49609 16.83 3.49609 17.194 3.56143 18.3094C3.57893 19.182 3.74343 20.043 4.05026 20.8609C4.32078 21.5583 4.73381 22.1915 5.26294 22.7203C5.79207 23.249 6.42567 23.6615 7.12326 23.9315C7.93693 24.2503 8.79903 24.4278 9.67243 24.4565C10.7959 24.5067 11.1518 24.5219 14.0008 24.5219C16.8498 24.5219 17.2149 24.5219 18.3291 24.4565C19.2008 24.4394 20.0632 24.2741 20.8794 23.9677C21.5767 23.6971 22.21 23.2842 22.7389 22.7554C23.2678 22.2265 23.6807 21.5932 23.9513 20.8959C24.2581 20.0792 24.4226 19.2182 24.4401 18.3444C24.4903 17.222 24.5054 16.8662 24.5054 14.016C24.5031 11.167 24.5031 10.8054 24.4378 9.68887ZM13.9926 19.3687C11.0129 19.3687 8.59909 16.9549 8.59909 13.9752C8.59909 10.9955 11.0129 8.58171 13.9926 8.58171C15.423 8.58171 16.7949 9.14995 17.8064 10.1614C18.8179 11.1729 19.3861 12.5448 19.3861 13.9752C19.3861 15.4057 18.8179 16.7775 17.8064 17.789C16.7949 18.8005 15.423 19.3687 13.9926 19.3687ZM19.6008 9.63987C19.4356 9.64003 19.2719 9.6076 19.1193 9.54445C18.9666 9.4813 18.8279 9.38867 18.7111 9.27185C18.5943 9.15504 18.5017 9.01633 18.4385 8.86368C18.3754 8.71102 18.3429 8.54741 18.3431 8.38221C18.3431 8.21712 18.3756 8.05366 18.4388 7.90114C18.502 7.74862 18.5946 7.61004 18.7113 7.49331C18.828 7.37658 18.9666 7.28399 19.1191 7.22081C19.2716 7.15764 19.4351 7.12512 19.6002 7.12512C19.7653 7.12512 19.9287 7.15764 20.0812 7.22081C20.2338 7.28399 20.3723 7.37658 20.4891 7.49331C20.6058 7.61004 20.6984 7.74862 20.7616 7.90114C20.8247 8.05366 20.8573 8.21712 20.8573 8.38221C20.8573 9.07754 20.2949 9.63987 19.6008 9.63987Z" fill="#525252"/>
<path d="M13.9937 17.4787C15.9287 17.4787 17.4972 15.9101 17.4972 13.9752C17.4972 12.0403 15.9287 10.4717 13.9937 10.4717C12.0588 10.4717 10.4902 12.0403 10.4902 13.9752C10.4902 15.9101 12.0588 17.4787 13.9937 17.4787Z" fill="#525252"/>
</svg>
