<svg width="220" height="230" viewBox="0 0 220 230" fill="none" xmlns="http://www.w3.org/2000/svg">
<g clip-path="url(#clip0_3435_30521)">
<path d="M69.6894 229.907C108.178 229.907 139.379 227.766 139.379 225.124C139.379 222.483 108.178 220.342 69.6894 220.342C31.201 220.342 0 222.483 0 225.124C0 227.766 31.201 229.907 69.6894 229.907Z" fill="#E6E6E6"/>
<path d="M97.4721 134.457C98.1561 130.616 101.697 128.359 105.227 127.455C109.256 126.424 113.551 126.551 117.652 127.016C125.909 127.953 134.017 130.484 142.397 130.091C149.683 129.725 156.745 127.452 162.878 123.501C169.046 119.536 174.017 113.963 177.256 107.384C180.517 100.762 181.963 93.3933 181.447 86.03C181.379 85.1146 181.275 84.203 181.146 83.2942C181.054 82.6439 180.066 82.9206 180.158 83.5667C181.155 90.8875 180.125 98.3416 177.178 105.117C174.286 111.824 169.586 117.594 163.603 121.784C157.639 125.949 150.669 128.443 143.415 129.006C135.142 129.61 127.104 127.232 118.974 126.155C114.868 125.611 110.681 125.408 106.581 126.121C102.95 126.753 99.2245 128.377 97.3604 131.741C96.9357 132.502 96.6396 133.327 96.4839 134.185C96.369 134.83 97.3565 135.106 97.4721 134.457H97.4721Z" fill="#3F3D56"/>
<path d="M177.298 85.4037C200.881 85.4037 219.999 66.2854 219.999 42.7019C219.999 19.1183 200.881 0 177.298 0C153.714 0 134.596 19.1183 134.596 42.7019C134.596 66.2854 153.714 85.4037 177.298 85.4037Z" fill="#EF4444"/>
<path d="M161.242 45.0931C167.28 45.0931 172.174 40.1988 172.174 34.1614C172.174 28.124 167.28 23.2297 161.242 23.2297C155.205 23.2297 150.311 28.124 150.311 34.1614C150.311 40.1988 155.205 45.0931 161.242 45.0931Z" fill="white"/>
<path d="M164.668 56.0249C164.757 57.6842 165.479 59.2462 166.685 60.3899C167.89 61.5335 169.488 62.172 171.15 62.174H188.914C190.575 62.172 192.173 61.5335 193.379 60.3899C194.584 59.2462 195.306 57.6842 195.395 56.0249H164.668Z" fill="white"/>
<path d="M157.143 43.5558C160.351 43.5558 162.951 40.9557 162.951 37.7484C162.951 34.541 160.351 31.9409 157.143 31.9409C153.936 31.9409 151.336 34.541 151.336 37.7484C151.336 40.9557 153.936 43.5558 157.143 43.5558Z" fill="#3F3D56"/>
<path d="M159.193 36.7236C159.947 36.7236 160.559 36.1119 160.559 35.3572C160.559 34.6025 159.947 33.9907 159.193 33.9907C158.438 33.9907 157.826 34.6025 157.826 35.3572C157.826 36.1119 158.438 36.7236 159.193 36.7236Z" fill="white"/>
<path d="M196.77 45.264C202.807 45.264 207.701 40.3697 207.701 34.3323C207.701 28.2949 202.807 23.4006 196.77 23.4006C190.732 23.4006 185.838 28.2949 185.838 34.3323C185.838 40.3697 190.732 45.264 196.77 45.264Z" fill="white"/>
<path d="M192.671 43.5558C195.878 43.5558 198.478 40.9557 198.478 37.7484C198.478 34.541 195.878 31.9409 192.671 31.9409C189.463 31.9409 186.863 34.541 186.863 37.7484C186.863 40.9557 189.463 43.5558 192.671 43.5558Z" fill="#3F3D56"/>
<path d="M194.72 36.7236C195.475 36.7236 196.086 36.1119 196.086 35.3572C196.086 34.6025 195.475 33.9907 194.72 33.9907C193.965 33.9907 193.354 34.6025 193.354 35.3572C193.354 36.1119 193.965 36.7236 194.72 36.7236Z" fill="white"/>
<path d="M177.982 50.5591C180.246 50.5591 182.082 48.7238 182.082 46.4597C182.082 44.1957 180.246 42.3604 177.982 42.3604C175.718 42.3604 173.883 44.1957 173.883 46.4597C173.883 48.7238 175.718 50.5591 177.982 50.5591Z" fill="#3F3D56"/>
<path d="M184.131 83.0125H176.615V88.8199H184.131V83.0125Z" fill="#EF4444"/>
<path d="M76.2695 197.152C76.2695 197.152 81.0919 211.275 79.0252 216.442L85.2253 221.953L89.0143 217.131C89.0143 217.131 84.8809 212.997 85.2253 209.897C85.5698 206.797 85.9142 195.775 85.9142 195.775L76.2695 197.152Z" fill="#FFB9B9"/>
<path d="M99.3462 224.707C99.0646 224.872 98.796 225.028 98.5491 225.171H77.1694C76.9713 225.057 76.8122 224.886 76.7132 224.681C76.6141 224.475 76.5799 224.244 76.6149 224.018C76.7145 223.507 76.9701 222.467 77.2864 221.272C78.0359 218.443 79.1363 214.739 79.3746 215.133C79.3751 215.133 79.3757 215.133 79.3762 215.133C79.3768 215.133 79.3772 215.134 79.3776 215.134C79.378 215.134 79.3784 215.135 79.3786 215.135C79.3788 215.136 79.3789 215.137 79.3789 215.137C79.7125 215.752 80.4013 218.508 82.1255 218.165C83.8498 217.819 86.6051 217.13 86.6051 217.13C86.6051 217.13 85.6217 214.921 86.5618 214.028C86.7639 213.84 87.02 213.72 87.2939 213.686C89.3604 213.344 89.3604 216.441 89.3604 216.441L96.9375 220.574C97.5907 220.755 98.2281 220.988 98.8437 221.272C100.382 221.991 101.902 223.221 99.3462 224.707Z" fill="#2F2E41"/>
<path d="M62.492 191.986L53.5362 202.664L51.125 208.175L54.2251 210.586L56.9807 209.553C56.9807 209.553 59.3919 203.353 61.8031 202.319C64.2143 201.286 70.07 194.397 70.07 194.397L62.492 191.986Z" fill="#FFB9B9"/>
<path d="M81.2632 183.791L76.6958 192.258L73.4235 198.32C72.3763 198.944 70.9813 198.933 69.4794 198.565C68.7796 198.386 68.0935 198.157 67.4265 197.879C63.3275 196.202 59.1699 192.871 59.1699 192.871L67.0373 183.04L69.6069 179.833L70.2166 179.069L73.1548 180.326L78.3388 182.541L81.2632 183.791Z" fill="#2F2E41"/>
<path d="M60.879 110.68L57.2305 125.646L60.986 144.847C60.986 144.847 61.0785 152.696 64.52 152.1C67.9615 151.505 64.3549 143.589 64.3549 143.589L62.6715 127.845L68.0536 112.292C68.4896 111.032 67.939 109.679 66.6762 108.908C64.5452 107.606 61.5167 108.532 60.879 110.68Z" fill="#FFB9B9"/>
<path d="M73.6863 97.7774L70.5862 107.422L64.7305 104.322C64.7305 104.322 67.1417 97.4329 67.1417 96.3995C67.1417 95.3662 73.6863 97.7774 73.6863 97.7774Z" fill="#FFB9B9"/>
<path d="M71.2746 101.566C75.2695 101.566 78.5081 98.3279 78.5081 94.3329C78.5081 90.3379 75.2695 87.0994 71.2746 87.0994C67.2796 87.0994 64.041 90.3379 64.041 94.3329C64.041 98.3279 67.2796 101.566 71.2746 101.566Z" fill="#FFB9B9"/>
<path d="M73.1696 109.661L71.7917 108.283L71.4473 106.561C71.4473 106.561 66.9694 100.705 63.1804 102.772C61.9963 103.418 61.115 104.905 60.4628 106.644C58.8019 111.189 58.9568 116.2 60.8955 120.634L66.9694 134.806L80.7475 133.429L78.3364 124.473C78.3364 124.473 80.7476 118.961 76.2696 115.172L73.1696 109.661Z" fill="#EF4444"/>
<path opacity="0.3" d="M81.2632 183.791L76.6957 192.258L73.4234 198.32C72.3762 198.944 70.9812 198.933 69.4794 198.565C69.2176 196.822 70.7814 187.611 69.5517 180.102L69.6068 179.833L70.2165 179.069L73.1547 180.326L78.3387 182.541L81.2632 183.791Z" fill="black"/>
<path d="M81.2634 132.567C81.2634 132.567 72.3075 127.056 66.1074 133.945L66.4518 136.012C66.4518 136.012 61.285 141.868 64.3851 154.268C67.4852 166.668 72.3075 199.047 72.3075 199.047C72.3075 199.047 83.6745 199.736 88.8414 195.947C88.8414 195.947 87.1191 153.235 81.2634 149.101V132.567Z" fill="#2F2E41"/>
<path d="M62.5902 113.382L72.3091 125.334L89.8763 133.945C89.8763 133.945 96.1857 138.615 97.7909 135.513C99.3962 132.411 90.9097 130.501 90.9097 130.501L77.3492 122.327L68.2097 108.64C67.4694 107.531 66.059 107.152 64.6814 107.692C62.3566 108.604 61.2641 111.576 62.5902 113.382Z" fill="#FFB9B9"/>
<path d="M56.1498 208.796C56.1498 208.796 58.2612 206.141 59.5225 207.814C60.7837 209.487 58.0351 210.921 58.0351 210.921L57.8751 219.551C57.8751 219.551 59.375 226.15 55.3255 223.601C51.276 221.051 51.1167 220.746 50.3201 219.219C49.5236 217.692 47.8776 211.557 46.457 209.579C45.0365 207.6 43.7355 203.617 45.4218 203.126C47.1081 202.635 54.9684 200.886 54.5768 201.468C54.1852 202.051 52.0606 203.936 53.1626 205.304C54.2646 206.672 56.1498 208.796 56.1498 208.796Z" fill="#2F2E41"/>
<path d="M75.0636 88.159C75.0636 88.1502 75.0643 88.1415 75.0643 88.1327C75.0643 86.157 74.4784 84.2257 73.3808 82.583C72.2832 80.9403 70.7231 79.66 68.8978 78.9039C67.0725 78.1479 65.064 77.9501 63.1263 78.3355C61.1886 78.7209 59.4087 79.6723 58.0117 81.0693C56.6147 82.4663 55.6633 84.2462 55.2779 86.1839C54.8924 88.1216 55.0903 90.1301 55.8463 91.9554C56.6024 93.7807 57.8827 95.3408 59.5254 96.4384C61.1681 97.536 63.0994 98.1219 65.0751 98.1219C65.3072 98.1219 66.2248 99.8597 66.4529 99.8441C66.4666 94.5714 69.8774 88.5131 75.0636 88.159Z" fill="#2F2E41"/>
<path d="M54.3962 87.0993C58.0107 87.0993 60.9408 84.1691 60.9408 80.5546C60.9408 76.9401 58.0107 74.01 54.3962 74.01C50.7817 74.01 47.8516 76.9401 47.8516 80.5546C47.8516 84.1691 50.7817 87.0993 54.3962 87.0993Z" fill="#2F2E41"/>
<path d="M54.0957 70.6406C55.6728 70.6307 57.2003 71.1914 58.3964 72.2193C59.5925 73.2471 60.3767 74.6729 60.6041 76.2335C60.8316 77.7941 60.487 79.3844 59.634 80.7109C58.7811 82.0374 57.4772 83.0108 55.9628 83.4514C56.9005 83.4499 57.8269 83.2468 58.6791 82.8558C59.5314 82.4649 60.2896 81.8952 60.9024 81.1855C61.5152 80.4757 61.9682 79.6425 62.2307 78.7424C62.4932 77.8422 62.559 76.8961 62.4238 75.9683C62.2886 75.0404 61.9554 74.1525 61.4469 73.3647C60.9384 72.5769 60.2664 71.9077 59.4765 71.4024C58.6867 70.8971 57.7974 70.5676 56.869 70.4362C55.9406 70.3047 54.9948 70.3745 54.0957 70.6406Z" fill="#2F2E41"/>
<path d="M69.5527 86.0659H74.796C75.9633 86.0659 77.0829 86.5296 77.9083 87.3551C78.7337 88.1805 79.1975 89.3001 79.1975 90.4674V92.2661H69.5527V86.0659Z" fill="#2F2E41"/>
</g>
<defs>
<clipPath id="clip0_3435_30521">
<rect width="220" height="229.907" fill="white"/>
</clipPath>
</defs>
</svg>
