<svg width="20" height="20" viewBox="0 0 20 20" fill="none" xmlns="http://www.w3.org/2000/svg">
<path d="M15.418 8.33366L19.0846 17.5003H17.2888L16.288 15.0003H12.8796L11.8805 17.5003H10.0855L13.7513 8.33366H15.418ZM8.33464 1.66699V3.33366H13.3346V5.00033L11.6948 5.00083C11.0367 6.97213 10.0003 8.75507 8.67755 10.2512C9.27997 10.7884 9.93214 11.265 10.6242 11.6736L9.99872 13.2382C9.10438 12.7321 8.2675 12.1273 7.50098 11.4377C6.01299 12.777 4.25892 13.7964 2.33373 14.3948L1.88678 12.7872C3.53339 12.2672 5.03916 11.3951 6.32665 10.2521C5.38694 9.19041 4.59191 7.98353 3.97415 6.66723L5.84034 6.6673C6.30979 7.5327 6.86779 8.33641 7.50103 9.06449C8.52489 7.88789 9.35172 6.51379 9.92589 5.00117L1.66797 5.00033V3.33366H6.66797V1.66699H8.33464ZM14.5846 10.738L13.5455 13.3337H15.6221L14.5846 10.738Z" fill="#737373"/>
</svg>
