<svg width="28" height="28" viewBox="0 0 28 28" fill="none" xmlns="http://www.w3.org/2000/svg">
<path fill-rule="evenodd" clip-rule="evenodd" d="M3.16602 4.92145C3.16602 4.45614 3.35086 4.00989 3.67988 3.68086C4.00891 3.35184 4.45516 3.16699 4.92047 3.16699H22.4097C22.6402 3.16662 22.8686 3.21173 23.0818 3.29974C23.2949 3.38775 23.4886 3.51694 23.6518 3.67991C23.8149 3.84287 23.9443 4.03642 24.0325 4.24946C24.1208 4.4625 24.1661 4.69085 24.166 4.92145V22.4106C24.1663 22.6413 24.121 22.8697 24.0329 23.0828C23.9448 23.296 23.8155 23.4897 23.6525 23.6528C23.4894 23.8159 23.2958 23.9453 23.0827 24.0335C22.8696 24.1218 22.6412 24.1671 22.4106 24.167H4.92047C4.68999 24.167 4.46177 24.1216 4.24885 24.0334C4.03593 23.9451 3.84247 23.8158 3.67955 23.6528C3.51662 23.4898 3.38741 23.2962 3.29929 23.0833C3.21118 22.8703 3.16589 22.6421 3.16602 22.4116V4.92145ZM11.4782 11.1737H14.3218V12.6017C14.7322 11.7808 15.7822 11.042 17.3601 11.042C20.3851 11.042 21.1019 12.6771 21.1019 15.6773V21.2346H18.0407V16.3607C18.0407 14.6521 17.6302 13.688 16.5879 13.688C15.1417 13.688 14.5404 14.7275 14.5404 16.3607V21.2346H11.4782V11.1737ZM6.2282 21.1039H9.29038V11.042H6.2282V21.1029V21.1039ZM9.72852 7.76027C9.73429 8.02245 9.68763 8.28315 9.59129 8.52707C9.49495 8.77098 9.35085 8.99319 9.16746 9.18066C8.98408 9.36813 8.76509 9.51708 8.52336 9.61877C8.28163 9.72046 8.02202 9.77285 7.75977 9.77285C7.49751 9.77285 7.23791 9.72046 6.99617 9.61877C6.75444 9.51708 6.53545 9.36813 6.35207 9.18066C6.16868 8.99319 6.02459 8.77098 5.92824 8.52707C5.8319 8.28315 5.78524 8.02245 5.79102 7.76027C5.80235 7.24563 6.01475 6.75589 6.38272 6.39592C6.7507 6.03596 7.245 5.83439 7.75977 5.83439C8.27453 5.83439 8.76883 6.03596 9.13681 6.39592C9.50479 6.75589 9.71718 7.24563 9.72852 7.76027Z" fill="#525252"/>
</svg>
