<svg width="20" height="20" viewBox="0 0 20 20" fill="none" xmlns="http://www.w3.org/2000/svg">
<path d="M10 0.833008L16.8474 2.35466C17.2287 2.43939 17.5 2.77757 17.5 3.16815V11.4904C17.5 13.1622 16.6645 14.7233 15.2735 15.6507L10 19.1663L4.7265 15.6507C3.33551 14.7233 2.5 13.1622 2.5 11.4904V3.16815C2.5 2.77757 2.77128 2.43939 3.15256 2.35466L10 0.833008ZM10 2.54033L4.16667 3.83662V11.4904C4.16667 12.6049 4.72367 13.6457 5.651 14.2639L10 17.1633L14.349 14.2639C15.2763 13.6457 15.8333 12.6049 15.8333 11.4904V3.83662L10 2.54033ZM13.7103 6.8512L14.8888 8.02971L9.5855 13.333L6.04999 9.79751L7.22851 8.61892L9.58492 10.9754L13.7103 6.8512Z" fill="#737373"/>
</svg>
