<svg width="95" height="78" viewBox="0 0 95 78" fill="none" xmlns="http://www.w3.org/2000/svg">
<path d="M25.6346 65.9729C20.8473 65.9729 16.641 62.7969 15.3301 58.1926L5.21875 22.6754C5.21875 22.6754 7.73871 24.279 12.6641 22.6754C17.5895 21.0718 18.7349 18.7809 18.7349 18.7809L26.2709 46.1002C26.3177 46.2698 26.4719 46.3872 26.6478 46.3872C26.8264 46.3872 26.9824 46.2661 27.0266 46.0931L36.8638 7.59977C38.0065 3.12826 42.0347 0 46.6499 0C51.2601 0 55.2853 3.12156 56.4327 7.58665L66.2578 45.8189C66.3047 46.0017 66.4695 46.1295 66.6583 46.1295C66.8483 46.1295 67.0139 45.9999 67.0596 45.8154L76.9927 5.70979C77.8234 2.35571 80.8337 0 84.2892 0C89.2966 0 92.9041 4.80385 91.508 9.61269L73.2338 72.5585C72.2979 75.7823 69.3448 78 65.9879 78C62.4676 78 59.4151 75.5656 58.6319 72.1335L47.1553 21.8398C47.0952 21.5765 46.8609 21.3897 46.5908 21.3897C46.3306 21.3897 46.1024 21.5632 46.0329 21.8139L35.9585 58.1234C34.6715 62.7621 30.4486 65.9729 25.6346 65.9729Z" fill="url(#paint0_linear_2660_36545)"/>
<path d="M18.0979 10.8776C18.0979 15.8752 14.0465 19.9265 9.04895 19.9265C4.05135 19.9265 0 15.8752 0 10.8776C0 5.87996 4.05135 1.82861 9.04895 1.82861C14.0465 1.82861 18.0979 5.87996 18.0979 10.8776Z" fill="url(#paint1_linear_2660_36545)"/>
<defs>
<linearGradient id="paint0_linear_2660_36545" x1="49.7588" y1="0" x2="49.7588" y2="78" gradientUnits="userSpaceOnUse">
<stop stop-color="#1DA1F2"/>
<stop offset="1" stop-color="#0A65B6"/>
</linearGradient>
<linearGradient id="paint1_linear_2660_36545" x1="9.04895" y1="1.82861" x2="9.04895" y2="19.9265" gradientUnits="userSpaceOnUse">
<stop stop-color="#1DA1F2"/>
<stop offset="1" stop-color="#0A65B6"/>
</linearGradient>
</defs>
</svg>
