<svg width="97" height="90" viewBox="0 0 97 90" fill="none" xmlns="http://www.w3.org/2000/svg">
<g clip-path="url(#clip0_2660_20036)">
<path d="M73.4305 21.3874H72.936V7.84058C72.936 5.76113 72.11 3.76684 70.6396 2.29645C69.1692 0.826059 67.1749 0 65.0954 0H36.3953C34.3158 0 32.3215 0.826059 30.8511 2.29645C29.3807 3.76684 28.5547 5.76113 28.5547 7.84058V82.1594C28.5547 84.2389 29.3807 86.2331 30.8511 87.7035C32.3215 89.1739 34.3158 90 36.3953 90H65.096C67.1754 90 69.1697 89.1739 70.6401 87.7035C72.1105 86.2331 72.9365 84.2389 72.9365 82.1594V31.0302H73.4305V21.3874Z" fill="#3F3D56"/>
<path d="M71.3391 7.31717V82.6857C71.3389 84.2623 70.7126 85.7743 69.5979 86.8892C68.4832 88.0041 66.9714 88.6308 65.3948 88.6314H36.1043C34.527 88.6315 33.0143 88.0051 31.8989 86.89C30.7834 85.7749 30.1566 84.2623 30.1562 82.685V7.31717C30.1567 5.74003 30.7837 4.22766 31.8991 3.11269C33.0145 1.99771 34.5272 1.37145 36.1043 1.37162H39.6573C39.4829 1.80066 39.4165 2.26598 39.464 2.72668C39.5115 3.18738 39.6714 3.62936 39.9298 4.01377C40.1881 4.39819 40.5369 4.71326 40.9455 4.9313C41.3541 5.14934 41.81 5.26367 42.2731 5.26425H58.9718C59.435 5.26362 59.8909 5.14923 60.2995 4.93112C60.7081 4.71302 61.0569 4.39788 61.3152 4.01341C61.5734 3.62893 61.7333 3.18691 61.7807 2.72617C61.8282 2.26544 61.7617 1.80011 61.5871 1.37109H65.3931C66.9696 1.37137 68.4816 1.9977 69.5965 3.11239C70.7114 4.22708 71.338 5.73889 71.3386 7.31545L71.3391 7.31717Z" fill="#E6E6E6"/>
<path d="M68.2185 84.696H33.2773C32.9791 84.6957 32.6931 84.577 32.4822 84.3661C32.2713 84.1552 32.1527 83.8693 32.1523 83.571V10.1152C32.1527 9.81697 32.2713 9.53101 32.4822 9.32011C32.6931 9.1092 32.9791 8.99057 33.2773 8.99023H68.2185C68.5167 8.99057 68.8027 9.1092 69.0136 9.32011C69.2245 9.53101 69.3431 9.81697 69.3435 10.1152V83.571C69.3431 83.8693 69.2245 84.1552 69.0136 84.3661C68.8027 84.577 68.5167 84.6957 68.2185 84.696Z" fill="white"/>
<path d="M50.6151 33.7907C55.9318 33.7907 60.2419 29.4807 60.2419 24.1639C60.2419 18.8472 55.9318 14.5371 50.6151 14.5371C45.2984 14.5371 40.9883 18.8472 40.9883 24.1639C40.9883 29.4807 45.2984 33.7907 50.6151 33.7907Z" fill="#E6E6E6"/>
<path d="M50.4798 32.4869C55.0767 32.4869 58.8033 28.7603 58.8033 24.1634C58.8033 19.5664 55.0767 15.8398 50.4798 15.8398C45.8828 15.8398 42.1562 19.5664 42.1562 24.1634C42.1562 28.7603 45.8828 32.4869 50.4798 32.4869Z" fill="white"/>
<path d="M50.6675 19.4414C49.7289 19.4414 48.8114 19.7197 48.031 20.2412C47.2506 20.7626 46.6423 21.5038 46.2831 22.371C45.9239 23.2381 45.83 24.1923 46.0131 25.1129C46.1962 26.0334 46.6482 26.879 47.3118 27.5427C47.9755 28.2064 48.8211 28.6584 49.7417 28.8415C50.6623 29.0246 51.6164 28.9306 52.4836 28.5714C53.3508 28.2123 54.0919 27.604 54.6134 26.8236C55.1348 26.0432 55.4132 25.1256 55.4132 24.187C55.4132 22.9284 54.9132 21.7214 54.0232 20.8314C53.1332 19.9414 51.9261 19.4414 50.6675 19.4414ZM50.6675 20.8651C50.9491 20.8651 51.2244 20.9486 51.4585 21.1051C51.6926 21.2615 51.8751 21.4839 51.9829 21.744C52.0906 22.0042 52.1188 22.2904 52.0639 22.5666C52.0089 22.8428 51.8733 23.0965 51.6742 23.2956C51.4751 23.4947 51.2214 23.6303 50.9453 23.6852C50.6691 23.7401 50.3828 23.7119 50.1227 23.6042C49.8625 23.4964 49.6402 23.3139 49.4837 23.0798C49.3273 22.8457 49.2438 22.5704 49.2438 22.2888C49.2438 22.1019 49.2806 21.9167 49.3522 21.744C49.4237 21.5713 49.5286 21.4143 49.6608 21.2821C49.793 21.1499 49.95 21.045 50.1227 20.9735C50.2954 20.9019 50.4806 20.8651 50.6675 20.8651ZM50.6675 27.7189C50.1051 27.7163 49.5518 27.5766 49.0556 27.3118C48.5594 27.047 48.1353 26.6651 47.8201 26.1993C47.8429 25.2502 49.7183 24.7277 50.6675 24.7277C51.6168 24.7277 53.4921 25.2502 53.515 26.1993C53.1994 26.6649 52.7753 27.0465 52.2792 27.3113C51.783 27.5762 51.2299 27.7162 50.6675 27.7193V27.7189Z" fill="#1DA1F2"/>
<path d="M58.5574 37.0254H41.9023V38.2772H58.5574V37.0254Z" fill="#E6E6E6"/>
<path d="M60.6362 40.2773H39.6758V41.5291H60.6362V40.2773Z" fill="#E6E6E6"/>
<path d="M65.5115 49.6211H35.9844V79.1482H65.5115V49.6211Z" fill="#E6E6E6"/>
<path d="M64.731 50.2461H36.4531V78.5239H64.731V50.2461Z" fill="white"/>
<path d="M53.2849 52.9766H42.2773V53.8039H53.2849V52.9766Z" fill="#E6E6E6"/>
<path d="M59.2753 55.4062H42.2773V56.2336H59.2753V55.4062Z" fill="#1DA1F2"/>
<path d="M56.3061 57.7188H42.4531V58.5461H56.3061V57.7188Z" fill="#E6E6E6"/>
<path d="M50.3645 60.2559H42.2773V61.0832H50.3645V60.2559Z" fill="#E6E6E6"/>
<path d="M54.4829 62.7344H42.2773V63.5617H54.4829V62.7344Z" fill="#1DA1F2"/>
<path d="M53.2849 65.2305H42.2773V66.0578H53.2849V65.2305Z" fill="#E6E6E6"/>
<path d="M59.2753 67.6582H42.2773V68.4855H59.2753V67.6582Z" fill="#1DA1F2"/>
<path d="M56.3061 69.9727H42.4531V70.8H56.3061V69.9727Z" fill="#E6E6E6"/>
<path d="M50.3645 72.5117H42.2773V73.3391H50.3645V72.5117Z" fill="#E6E6E6"/>
<path d="M54.4829 74.9902H42.2773V75.8176H54.4829V74.9902Z" fill="#E6E6E6"/>
<path d="M91.6895 64.1966C91.6108 64.3344 91.5056 64.4553 91.3802 64.5524C91.2547 64.6495 91.1113 64.721 90.9582 64.7627C90.8051 64.8044 90.6452 64.8156 90.4878 64.7955C90.3304 64.7755 90.1785 64.7246 90.0407 64.6458C89.903 64.5671 89.7821 64.462 89.6849 64.3365C89.5878 64.211 89.5164 64.0676 89.4746 63.9145C89.4329 63.7614 89.4218 63.6015 89.4418 63.4441C89.4619 63.2867 89.5127 63.1348 89.5915 62.997C89.5942 62.9923 89.5969 62.9876 89.5997 62.983C89.6335 62.9263 89.6715 62.8723 89.7135 62.8215L88.697 55.5765L88.6666 55.3594L88.4601 53.8811L88.4297 53.668L88.5422 53.6733L90.5116 53.7633L91.0397 53.7871L91.1059 55.1358L91.4804 62.7183C91.6761 62.9055 91.8031 63.1531 91.8411 63.4212C91.879 63.6894 91.8256 63.9625 91.6895 64.1966Z" fill="#FFB8B8"/>
<path d="M88.6729 55.424L91.1738 55.1946C91.3035 55.1823 91.423 55.1193 91.5064 55.0192C91.5898 54.9191 91.6303 54.7901 91.619 54.6603L91.1558 49.4599C91.1336 49.2119 91.0628 48.9707 90.9475 48.75C90.8321 48.5294 90.6744 48.3336 90.4834 48.1739C90.2924 48.0142 90.0717 47.8936 89.8341 47.8192C89.5965 47.7447 89.3466 47.7178 89.0986 47.7399C88.8506 47.7621 88.6093 47.8329 88.3887 47.9482C88.168 48.0636 87.9722 48.2213 87.8125 48.4123C87.6528 48.6033 87.5323 48.8239 87.4578 49.0616C87.3834 49.2992 87.3565 49.5491 87.3786 49.7971C87.3818 49.8329 87.386 49.8686 87.3912 49.9042L88.1412 55.0051C88.1584 55.122 88.217 55.2287 88.3064 55.306C88.3957 55.3833 88.5098 55.4259 88.628 55.4261C88.643 55.4264 88.658 55.4257 88.6729 55.424Z" fill="#1DA1F2"/>
<path d="M90.5678 51.2213C90.8207 50.5049 90.8325 49.7253 90.6012 49.0016C90.3699 48.2779 89.9083 47.6496 89.2868 47.2126C88.3437 46.5674 87.0533 46.3358 85.6636 47.9902C82.8842 51.299 82.1562 54.9387 82.1562 54.9387L87.8474 55.8652C87.8474 55.8652 89.7828 53.4994 90.5678 51.2213Z" fill="#1DA1F2"/>
<path d="M81.3633 88.4931H79.7406L78.9688 82.2344H81.3635L81.3633 88.4931Z" fill="#FFB8B8"/>
<path d="M76.6133 90.0016H81.713V88.0312H78.5836C78.0611 88.0312 77.5599 88.2388 77.1904 88.6083C76.8209 88.9779 76.6133 89.479 76.6133 90.0016Z" fill="#2F2E41"/>
<path d="M94.7028 87.0792L93.1622 87.5885L90.4648 81.8884L92.7387 81.1367L94.7028 87.0792Z" fill="#FFB8B8"/>
<path d="M90.6659 90.0005L95.508 88.4001L94.8897 86.5293L91.9184 87.5114C91.6727 87.5926 91.4454 87.7214 91.2495 87.8904C91.0536 88.0594 90.893 88.2654 90.7767 88.4965C90.6604 88.7277 90.5907 88.9795 90.5717 89.2375C90.5527 89.4956 90.5847 89.7548 90.6659 90.0005Z" fill="#2F2E41"/>
<path d="M86.9968 45.5717C88.7921 45.5717 90.2475 44.1163 90.2475 42.321C90.2475 40.5257 88.7921 39.0703 86.9968 39.0703C85.2015 39.0703 83.7461 40.5257 83.7461 42.321C83.7461 44.1163 85.2015 45.5717 86.9968 45.5717Z" fill="#FFB8B8"/>
<path d="M84.1487 86.7514L85.6555 76.8058C85.6716 76.6996 85.724 76.6024 85.8039 76.5306C85.8837 76.4589 85.986 76.4171 86.0933 76.4124C86.2005 76.4077 86.3061 76.4404 86.3919 76.5049C86.4777 76.5694 86.5384 76.6617 86.5637 76.7661L88.8584 86.2441C88.8946 86.3893 88.9837 86.5158 89.1083 86.5986C89.2329 86.6815 89.3839 86.7149 89.5318 86.6921L95.8616 85.6748C95.9455 85.6614 96.0256 85.6301 96.0965 85.5831C96.1673 85.5361 96.2273 85.4745 96.2723 85.4024C96.3174 85.3303 96.3465 85.2494 96.3577 85.1651C96.3688 85.0809 96.3618 84.9952 96.3372 84.9138L88.0835 57.7021C88.0601 57.6248 88.0573 57.5426 88.0754 57.4639L88.3502 56.2727C88.3804 56.1436 88.3664 56.0081 88.3106 55.8878C88.2548 55.7675 88.1603 55.6694 88.0422 55.6091C86.9183 55.0356 84.0716 53.8434 81.9234 55.1493C81.8537 55.1918 81.7933 55.2481 81.746 55.3147C81.6987 55.3813 81.6654 55.4568 81.6482 55.5367L75.2006 85.8415C75.183 85.9239 75.1832 86.0091 75.201 86.0914C75.2188 86.1738 75.2539 86.2514 75.3039 86.3192C75.3539 86.387 75.4178 86.4434 75.4912 86.4847C75.5647 86.526 75.646 86.5512 75.73 86.5587L83.5066 87.2551C83.5243 87.2567 83.5419 87.2575 83.5596 87.2575C83.702 87.2573 83.8396 87.2061 83.9475 87.1133C84.0555 87.0204 84.1267 86.892 84.1483 86.7513L84.1487 86.7514Z" fill="#2F2E41"/>
<path d="M89.151 40.0248C88.9059 39.8774 88.6885 39.6884 88.5084 39.4663C88.4195 39.3541 88.361 39.2209 88.3385 39.0795C88.316 38.938 88.3303 38.7932 88.38 38.659C88.5443 38.2966 89.0322 38.1825 89.4105 38.3055C89.7888 38.4284 90.0809 38.7253 90.3572 39.0113C90.6006 39.2628 90.851 39.5264 90.9661 39.8572C91.0811 40.1879 91.0222 40.6073 90.735 40.8081C90.453 41.005 90.0478 40.9244 89.7767 40.7129C89.5057 40.5014 89.3378 40.1875 89.1778 39.8831L89.151 40.0248Z" fill="#2F2E41"/>
<path d="M90.2539 39.0991C90.2719 38.1833 91.3159 37.5264 92.2176 37.6888C93.1193 37.8512 93.8123 38.6199 94.1592 39.4677C94.8922 41.2591 94.342 43.3032 93.6358 45.106C92.9296 46.9087 92.0555 48.7376 92.1586 50.6705C92.2283 51.7152 92.5789 52.7217 93.1733 53.5836C93.7677 54.4456 94.5839 55.131 95.5356 55.5675C94.518 56.0288 93.3017 55.5523 92.4466 54.8332C90.5476 53.2364 89.8146 50.3933 90.7047 48.0774C91.1437 46.9351 91.9174 45.9578 92.5215 44.8935C93.1256 43.8293 93.5688 42.575 93.2569 41.3916C92.9449 40.2083 91.6177 39.2503 90.483 39.7081L90.2539 39.0991Z" fill="#2F2E41"/>
<path d="M86.8027 43.7635C87.086 43.2846 87.3718 42.6559 86.854 42.2373C86.7414 42.1504 86.6125 42.087 86.475 42.0506C86.3375 42.0142 86.1941 42.0057 86.0533 42.0256C85.4693 42.096 84.8334 42.1249 84.2681 41.9128C84.0561 41.8398 83.8609 41.725 83.6941 41.5752C83.5274 41.4253 83.3924 41.2435 83.2973 41.0404C83.0061 40.349 83.3709 39.5089 83.9809 39.0718C84.3541 38.8142 84.7951 38.6725 85.2485 38.6644C85.7019 38.6564 86.1477 38.7824 86.5297 39.0267C87.3199 38.6777 88.2785 38.8329 88.9964 39.3134C89.7143 39.7938 90.2054 40.5632 90.4723 41.3847C90.7181 42.0918 90.7604 42.8537 90.5944 43.5837C90.4609 44.0916 90.2069 44.5597 89.8541 44.9486C89.5012 45.3375 89.0598 45.6356 88.5673 45.8177C88.3755 45.8934 88.1671 45.9173 87.9631 45.8871C87.7592 45.8569 87.5667 45.7737 87.405 45.6457C87.405 45.6457 86.957 45.2546 86.8168 44.7835C86.709 44.4213 86.6514 44.0193 86.8027 43.7635Z" fill="#2F2E41"/>
<path d="M77.1576 46.6665C77.1739 46.7379 77.1845 46.8105 77.1893 46.8836L82.8747 50.1635L84.2566 49.3679L85.7299 51.2966L83.4203 52.9428C83.2337 53.0758 83.009 53.1447 82.7799 53.1392C82.5507 53.1336 82.3296 53.0538 82.1497 52.9118L76.2865 48.2866C76.0218 48.3847 75.7336 48.3998 75.4601 48.33C75.1866 48.2602 74.9409 48.1088 74.7556 47.8959C74.5703 47.683 74.4542 47.4188 74.4227 47.1383C74.3913 46.8578 74.446 46.5744 74.5795 46.3258C74.7131 46.0772 74.9192 45.8751 75.1704 45.7465C75.4217 45.6178 75.7061 45.5687 75.9859 45.6057C76.2657 45.6427 76.5276 45.764 76.7368 45.9535C76.946 46.143 77.0925 46.3917 77.1568 46.6665H77.1576Z" fill="#FFB8B8"/>
<path d="M83.0659 50.3163L84.9035 52.6979C84.9557 52.7655 85.022 52.8212 85.0977 52.8609C85.1734 52.9007 85.2568 52.9238 85.3422 52.9284C85.4275 52.9331 85.5129 52.9194 85.5925 52.8881C85.6721 52.8568 85.7441 52.8088 85.8034 52.7472L87.8836 50.5871C88.2356 50.3251 88.4691 49.9341 88.5328 49.4999C88.5965 49.0658 88.4851 48.6242 88.2231 48.2722C87.9611 47.9202 87.5701 47.6866 87.136 47.623C86.7018 47.5593 86.2602 47.6707 85.9082 47.9327C85.8902 47.9461 85.8725 47.9598 85.8551 47.9739L83.2461 49.4327C83.1714 49.4745 83.1066 49.5319 83.0561 49.601C83.0056 49.6701 82.9706 49.7493 82.9535 49.8331C82.9363 49.917 82.9375 50.0035 82.9568 50.0869C82.9761 50.1703 83.0132 50.2485 83.0655 50.3163L83.0659 50.3163Z" fill="#1DA1F2"/>
<path d="M16.3709 55.9921C16.306 56.0218 16.2435 56.0566 16.1841 56.0963L10.2479 53.5627L10.0361 51.9989L7.66406 51.9844L7.80422 55.5711L15.6395 57.6435C15.656 57.698 15.6758 57.7513 15.6988 57.8034C15.8121 58.0451 15.9943 58.248 16.2225 58.3865C16.4507 58.5251 16.7147 58.5931 16.9815 58.582C17.2482 58.571 17.5057 58.4813 17.7217 58.3244C17.9377 58.1675 18.1025 57.9502 18.1954 57.7C18.2883 57.4497 18.3052 57.1775 18.2439 56.9177C18.1826 56.6579 18.046 56.4219 17.8511 56.2395C17.6561 56.0571 17.4117 55.9363 17.1484 55.8924C16.885 55.8484 16.6146 55.8833 16.371 55.9925L16.3709 55.9921Z" fill="#A0616A"/>
<path d="M6.80105 88.4931H8.42369L9.19557 82.2344H6.80078L6.80105 88.4931Z" fill="#A0616A"/>
<path d="M9.58248 88.028H6.45312V89.9977H11.5528C11.5528 89.4751 11.3452 88.9739 10.9757 88.6044C10.6062 88.2349 10.105 88.0273 9.58248 88.0273H9.58247L9.58248 88.028Z" fill="#2F2E41"/>
<path d="M0.492188 88.0328L2.10689 88.1916L3.48879 82.0388L1.10551 81.8047L0.492188 88.0328Z" fill="#A0616A"/>
<path d="M3.30679 87.8457L0.193093 87.5391L0 89.4995L5.07405 89.9993C5.09941 89.7418 5.07381 89.4819 4.99871 89.2344C4.92362 88.9868 4.8005 88.7565 4.63638 88.5565C4.47226 88.3565 4.27036 88.1908 4.04221 88.0688C3.81406 87.9469 3.56412 87.8711 3.30666 87.8457L3.30679 87.8457Z" fill="#2F2E41"/>
<path d="M6.35228 45.3608C8.1476 45.3608 9.603 43.9054 9.603 42.1101C9.603 40.3148 8.1476 38.8594 6.35228 38.8594C4.55696 38.8594 3.10156 40.3148 3.10156 42.1101C3.10156 43.9054 4.55696 45.3608 6.35228 45.3608Z" fill="#A0616A"/>
<path d="M8.78982 87.2265C8.92932 87.2268 9.06445 87.1779 9.17136 87.0883C9.27828 86.9987 9.3501 86.8742 9.37416 86.7368C10.2134 82.0755 12.9593 66.8309 13.025 66.4083C13.0265 66.3986 13.0272 66.3888 13.0271 66.3789V65.2423C13.0272 65.2009 13.0143 65.1605 12.9902 65.1269L12.6275 64.6189C12.6103 64.5945 12.5877 64.5743 12.5614 64.56C12.5352 64.5456 12.506 64.5375 12.4761 64.5362C10.4085 64.4393 3.63706 64.1552 3.30989 64.5639C2.98139 64.9742 3.09812 66.2192 3.12459 66.4644L3.12327 66.49L0.0811409 85.9458C0.0573109 86.101 0.0955436 86.2593 0.187565 86.3865C0.279586 86.5137 0.417992 86.5996 0.572831 86.6255L2.47289 86.9385C2.6144 86.9612 2.75936 86.9324 2.88142 86.8573C3.00347 86.7821 3.09451 86.6657 3.13796 86.5291C3.72561 84.6513 5.69621 78.3341 6.37915 75.8897C6.38351 75.8743 6.39331 75.861 6.40672 75.8523C6.42013 75.8436 6.43625 75.84 6.45209 75.8422C6.46793 75.8445 6.48243 75.8524 6.49289 75.8645C6.50335 75.8766 6.50907 75.8921 6.50899 75.9081C6.47484 78.2383 6.39238 84.1832 6.3634 86.2365L6.36035 86.4577C6.35909 86.6074 6.41405 86.7521 6.51435 86.8633C6.61466 86.9744 6.75301 87.0439 6.90207 87.058L8.73423 87.224C8.75271 87.2257 8.77126 87.2266 8.78982 87.2265Z" fill="#2F2E41"/>
<path d="M8.41407 46.6382C8.98134 46.9754 9.32082 47.5951 9.51564 48.2264C9.87627 49.3939 10.0933 50.601 10.1621 51.821L10.368 55.4739L12.9164 65.1581C10.7076 67.0271 9.43359 66.6022 6.46015 65.0736C3.48671 63.5449 3.14709 65.5833 3.14709 65.5833L2.55256 57.3432L1.70312 48.339C1.89383 48.1094 2.10968 47.9019 2.34662 47.7204C3.13177 47.1097 4.04528 46.6852 5.01832 46.4789C5.99135 46.2726 6.99852 46.2898 7.96394 46.5292L8.41407 46.6382Z" fill="#E6E6E6"/>
<path d="M9.24019 57.9479C9.17169 57.9735 9.1053 58.0045 9.04166 58.0406L3.17182 55.1023L3.0744 53.5106L0.653143 53.3438L0.523438 56.9719L8.36746 59.566C8.43146 59.8409 8.57763 60.0898 8.78653 60.2796C8.99544 60.4693 9.25717 60.591 9.53691 60.6284C9.81666 60.6657 10.1011 60.617 10.3525 60.4888C10.6039 60.3605 10.8103 60.1587 10.9442 59.9103C11.0781 59.6618 11.1332 59.3785 11.1021 59.098C11.0711 58.8175 10.9554 58.5531 10.7704 58.34C10.5853 58.1268 10.3398 57.9751 10.0665 57.9049C9.7931 57.8347 9.50485 57.8495 9.24006 57.9471L9.24019 57.9479Z" fill="#A0616A"/>
<path d="M1.74549 48.3803C0.301389 48.89 0.046875 54.4122 0.046875 54.4122C1.74589 53.4778 3.78465 55.0068 3.78465 55.0068C3.78465 55.0068 4.20937 53.5626 4.71906 51.6938C4.87297 51.1681 4.89138 50.612 4.77257 50.0773C4.65376 49.5426 4.4016 49.0467 4.03956 48.6356C4.03956 48.6356 3.18973 47.8704 1.74549 48.3803Z" fill="#E6E6E6"/>
<path d="M3.43668 42.9694C3.84168 42.6454 4.39425 43.2341 4.39425 43.2341L4.71825 40.3182C4.71825 40.3182 6.74325 40.5608 8.03951 40.2372C9.33577 39.9136 9.53814 41.4118 9.53814 41.4118C9.60496 40.8067 9.61851 40.1968 9.57864 39.5892C9.49764 38.8602 8.44464 38.1311 6.58151 37.6451C4.71838 37.1591 3.74638 39.2652 3.74638 39.2652C2.4496 39.9131 3.03116 43.2934 3.43668 42.9694Z" fill="#2F2E41"/>
</g>
<defs>
<clipPath id="clip0_2660_20036">
<rect width="96.3637" height="90" fill="white"/>
</clipPath>
</defs>
</svg>
