<svg width="20" height="20" viewBox="0 0 20 20" fill="none" xmlns="http://www.w3.org/2000/svg">
<path d="M9.9987 0.833008L17.9154 5.41634V14.583L9.9987 19.1663L2.08203 14.583V5.41634L9.9987 0.833008ZM9.9987 2.75884L3.7487 6.37727V13.6221L9.9987 17.2405L16.2487 13.6221V6.37727L9.9987 2.75884ZM9.9987 13.333C8.15775 13.333 6.66536 11.8406 6.66536 9.99967C6.66536 8.15872 8.15775 6.66634 9.9987 6.66634C11.8396 6.66634 13.332 8.15872 13.332 9.99967C13.332 11.8406 11.8396 13.333 9.9987 13.333ZM9.9987 11.6663C10.9192 11.6663 11.6654 10.9202 11.6654 9.99967C11.6654 9.07917 10.9192 8.33301 9.9987 8.33301C9.0782 8.33301 8.33203 9.07917 8.33203 9.99967C8.33203 10.9202 9.0782 11.6663 9.9987 11.6663Z" fill="#737373"/>
</svg>
