<svg width="17" height="17" viewBox="0 0 17 17" fill="none" xmlns="http://www.w3.org/2000/svg">
<g opacity="0.7" clip-path="url(#clip0_4174_42563)">
<path d="M2.83268 4.35143V13.4351L6.42039 11.898L10.6704 14.023L14.166 12.5235V3.44052L15.089 3.04527C15.1429 3.02216 15.2017 3.0128 15.2601 3.01803C15.3185 3.02325 15.3747 3.04289 15.4236 3.07519C15.4725 3.10749 15.5127 3.15143 15.5405 3.20308C15.5682 3.25473 15.5827 3.31246 15.5827 3.3711V13.4585L10.6243 15.5835L6.37435 13.4585L1.90972 15.3717C1.85583 15.3948 1.79704 15.4041 1.73864 15.3989C1.68023 15.3937 1.62404 15.3741 1.5751 15.3418C1.52616 15.3095 1.486 15.2655 1.45824 15.2139C1.43047 15.1622 1.41596 15.1045 1.41602 15.0458V4.95848L2.83268 4.35143ZM11.5048 7.96393L8.49935 10.9687L5.49389 7.96393C4.89959 7.36953 4.49489 6.61225 4.33096 5.78785C4.16703 4.96345 4.25124 4.10896 4.57293 3.33241C4.89462 2.55587 5.43936 1.89215 6.13825 1.42519C6.83714 0.958224 7.65881 0.708984 8.49935 0.708984C9.33989 0.708984 10.1616 0.958224 10.8604 1.42519C11.5593 1.89215 12.1041 2.55587 12.4258 3.33241C12.7475 4.10896 12.8317 4.96345 12.6677 5.78785C12.5038 6.61225 12.0991 7.36953 11.5048 7.96393ZM8.49935 8.96552L10.5025 6.96164C10.8988 6.56543 11.1688 6.06058 11.2782 5.51094C11.3876 4.9613 11.3315 4.39157 11.1171 3.8738C10.9027 3.35602 10.5395 2.91347 10.0736 2.6021C9.6076 2.29073 9.05977 2.12454 8.49935 2.12454C7.93893 2.12454 7.3911 2.29073 6.92514 2.6021C6.45919 2.91347 6.09603 3.35602 5.88161 3.8738C5.66718 4.39157 5.61113 4.9613 5.72052 5.51094C5.82991 6.06058 6.09985 6.56543 6.49618 6.96164L8.49935 8.96552Z" fill="black"/>
</g>
<defs>
<clipPath id="clip0_4174_42563">
<rect width="17" height="17" fill="white"/>
</clipPath>
</defs>
</svg>
