<svg width="119" height="100" viewBox="0 0 119 100" fill="none" xmlns="http://www.w3.org/2000/svg">
<g clip-path="url(#clip0_9439_16096)">
<path d="M106.05 93.4892L104.061 95.3205L105.642 92.6679C104.396 90.4092 102.359 88.4572 102.359 88.4572C102.359 88.4572 98.1333 92.5062 98.1333 95.6889C98.1333 98.8717 100.025 99.983 102.359 99.983C104.693 99.983 106.586 98.8717 106.586 95.6889C106.559 94.9268 106.377 94.1782 106.05 93.4892Z" fill="#F0F0F0"/>
<path d="M103.549 95.4196V95.5765C103.54 97.4001 103.232 98.8229 102.629 99.8248C102.62 99.8395 102.611 99.8535 102.603 99.8683L102.535 99.8271L102.471 99.7867C103.14 98.7049 103.377 97.1756 103.385 95.5851C103.386 95.5338 103.387 95.4818 103.386 95.4297C103.384 94.7564 103.343 94.0753 103.277 93.4136C103.272 93.3623 103.267 93.3103 103.261 93.2582C103.17 92.3853 103.038 91.5512 102.902 90.8266C102.893 90.7753 102.883 90.724 102.873 90.6735C102.639 89.448 102.401 88.5603 102.346 88.3638C102.34 88.3397 102.336 88.3265 102.335 88.3234L102.409 88.3024L102.41 88.3017L102.485 88.2807C102.485 88.2838 102.499 88.3281 102.52 88.4104C102.603 88.718 102.819 89.5528 103.031 90.6541C103.041 90.7038 103.051 90.7551 103.06 90.8064C103.17 91.3943 103.278 92.0513 103.364 92.741C103.385 92.9142 103.405 93.085 103.422 93.2536C103.428 93.3056 103.434 93.3576 103.438 93.4089C103.51 94.1242 103.547 94.7944 103.549 95.4196Z" fill="white"/>
<path d="M103.031 90.6541C102.979 90.6611 102.926 90.6681 102.873 90.6736C102.727 90.6885 102.581 90.6961 102.435 90.6961C101.811 90.6969 101.195 90.5578 100.633 90.2891C100.6 90.3303 100.568 90.3715 100.534 90.4134C101.126 90.7023 101.776 90.8521 102.435 90.8514C102.591 90.8514 102.747 90.8431 102.902 90.8266C102.955 90.8211 103.008 90.8141 103.06 90.8064C103.489 90.7448 103.907 90.6183 104.299 90.4312C104.265 90.3885 104.233 90.3466 104.201 90.3054C103.83 90.4786 103.436 90.5961 103.031 90.6541Z" fill="white"/>
<path d="M103.422 93.2536C103.368 93.2567 103.315 93.2582 103.261 93.2582C103.245 93.259 103.228 93.259 103.212 93.259C102.536 93.259 101.87 93.0957 101.272 92.7829C100.673 92.4701 100.159 92.0171 99.7726 91.4626C99.7415 91.5085 99.7105 91.5543 99.6802 91.6009C100.082 92.1619 100.613 92.6191 101.227 92.9344C101.841 93.2498 102.521 93.4143 103.212 93.4143C103.233 93.4143 103.255 93.4143 103.277 93.4136C103.331 93.4128 103.385 93.4112 103.438 93.4089C104.268 93.3664 105.067 93.086 105.741 92.6012C105.716 92.5554 105.691 92.5096 105.666 92.4637C105.011 92.9397 104.231 93.2142 103.422 93.2536Z" fill="white"/>
<path d="M103.549 95.4197C103.495 95.4243 103.441 95.4274 103.386 95.4298C103.328 95.4321 103.27 95.4336 103.212 95.4336C102.304 95.4326 101.421 95.1375 100.695 94.5926C99.9686 94.0477 99.4385 93.2823 99.1839 92.4109C99.1489 92.4738 99.114 92.536 99.0806 92.5989C99.3675 93.4682 99.9211 94.225 100.663 94.7618C101.404 95.2986 102.296 95.588 103.212 95.589C103.27 95.589 103.328 95.5882 103.386 95.5851C103.441 95.5835 103.495 95.5804 103.549 95.5765C104.647 95.4906 105.672 94.9907 106.415 94.1778C106.399 94.1203 106.38 94.0636 106.362 94.0062C105.644 94.8251 104.635 95.3321 103.549 95.4197Z" fill="white"/>
<path d="M89.4161 24.6908L89.4995 23.103L89.9254 24.8682C91.3777 25.3057 93.0367 25.289 93.0367 25.289C93.0367 25.289 93.1489 21.8491 91.8403 20.511C90.5318 19.1728 89.2794 19.4835 88.298 20.4431C87.3167 21.4027 86.9781 22.6478 88.2867 23.986C88.6111 24.2956 88.9954 24.5354 89.4161 24.6908Z" fill="#F0F0F0"/>
<path d="M89.6736 22.851L89.6091 22.785C88.8633 22.0145 88.4076 21.2898 88.2495 20.6205C88.247 20.6108 88.2451 20.6011 88.2427 20.5913L88.288 20.5809L88.3317 20.5714C88.495 21.3015 89.0242 22.0418 89.6745 22.714C89.6953 22.7359 89.7163 22.7581 89.738 22.7797C90.0159 23.0618 90.3132 23.3312 90.613 23.5823C90.636 23.6019 90.6597 23.6216 90.6834 23.6412C91.0808 23.9706 91.4793 24.267 91.834 24.5161C91.859 24.5338 91.8843 24.5512 91.9093 24.5683C92.5115 24.9874 92.9767 25.2626 93.0803 25.3229C93.0928 25.3305 93.0999 25.3344 93.1015 25.3354L93.0791 25.3746V25.3752L93.0564 25.4147C93.0548 25.4137 93.031 25.4005 92.988 25.3748C92.8266 25.2797 92.3926 25.0174 91.8507 24.6416C91.8263 24.6245 91.801 24.6071 91.776 24.5894C91.4879 24.3875 91.1724 24.1557 90.853 23.9008C90.7726 23.837 90.6942 23.7731 90.6177 23.7093C90.5937 23.69 90.57 23.6703 90.547 23.6507C90.2229 23.3793 89.9317 23.1128 89.6736 22.851Z" fill="white"/>
<path d="M91.8509 24.6416C91.8699 24.6173 91.8893 24.5926 91.9096 24.5683C91.9646 24.5022 92.023 24.4389 92.0845 24.3787C92.3463 24.122 92.6623 23.9274 93.0093 23.809C93.0061 23.7783 93.0029 23.7476 92.9997 23.7162C92.6321 23.8381 92.2972 24.0424 92.0206 24.3134C91.955 24.3777 91.8928 24.4453 91.8343 24.5161C91.8143 24.5401 91.795 24.5647 91.7763 24.5894C91.621 24.7919 91.4974 25.0168 91.4097 25.2564C91.4413 25.2606 91.4722 25.2649 91.5025 25.2691C91.5871 25.0439 91.7045 24.8325 91.8509 24.6416Z" fill="white"/>
<path d="M90.618 23.7093C90.6392 23.686 90.6611 23.6633 90.6836 23.6412C90.6902 23.6342 90.6973 23.6272 90.7042 23.6205C90.9882 23.3427 91.3352 23.1378 91.7156 23.0231C92.096 22.9084 92.4984 22.8874 92.8886 22.9619C92.8829 22.9298 92.8771 22.8978 92.8707 22.8657C92.4709 22.7952 92.06 22.821 91.6722 22.9409C91.2843 23.0608 90.9306 23.2714 90.6403 23.5552C90.6312 23.5641 90.622 23.5731 90.6132 23.5823C90.5907 23.605 90.5688 23.6277 90.5472 23.6507C90.216 24.0095 89.9952 24.4561 89.9111 24.937C89.9404 24.9461 89.9697 24.9551 89.9993 24.9639C90.0791 24.4944 90.2941 24.0584 90.618 23.7093Z" fill="white"/>
<path d="M89.6738 22.851C89.6947 22.8267 89.7163 22.803 89.7382 22.7797C89.7617 22.7547 89.7856 22.7301 89.8101 22.7062C90.1922 22.3334 90.6848 22.0944 91.2141 22.025C91.7434 21.9556 92.2809 22.0595 92.7462 22.3211C92.735 22.2803 92.7242 22.2398 92.7124 22.1996C92.2343 21.9521 91.6904 21.8615 91.158 21.9407C90.6255 22.0199 90.1315 22.2649 89.7462 22.6409C89.7217 22.6648 89.6976 22.6891 89.6747 22.714C89.6521 22.7374 89.6305 22.761 89.6093 22.785C89.1829 23.2726 88.9578 23.904 88.9795 24.5513C89.0099 24.5688 89.0411 24.585 89.0726 24.6015C89.0377 23.962 89.2534 23.3341 89.6738 22.851Z" fill="white"/>
<path d="M29.0889 36.4903L29.1724 34.9025L29.5983 36.6677C31.0506 37.1052 32.7095 37.0885 32.7095 37.0885C32.7095 37.0885 32.8217 33.6486 31.5132 32.3105C30.2046 30.9723 28.9522 31.283 27.9709 32.2426C26.9896 33.2022 26.651 34.4473 27.9595 35.7855C28.2839 36.0951 28.6683 36.3349 29.0889 36.4903Z" fill="#F0F0F0"/>
<path d="M29.347 34.6505L29.2825 34.5845C28.5366 33.814 28.081 33.0893 27.9228 32.42C27.9203 32.4103 27.9185 32.4006 27.916 32.3908L27.9613 32.3804L28.0051 32.3708C28.1684 33.101 28.6975 33.8413 29.3478 34.5135C29.3686 34.5354 29.3897 34.5576 29.4114 34.5792C29.6892 34.8613 29.9865 35.1307 30.2863 35.3818C30.3094 35.4014 30.3331 35.4211 30.3567 35.4407C30.7542 35.7701 31.1526 36.0665 31.5073 36.3156C31.5323 36.3333 31.5576 36.3507 31.5826 36.3678C32.1848 36.7869 32.65 37.0621 32.7537 37.1224C32.7662 37.13 32.7732 37.1339 32.7748 37.1349L32.7524 37.1741V37.1747L32.7297 37.2142C32.7281 37.2132 32.7043 37.2 32.6614 37.1743C32.5 37.0792 32.0659 36.8169 31.524 36.4411C31.4997 36.424 31.4744 36.4066 31.4494 36.3889C31.1613 36.187 30.8458 35.9552 30.5263 35.7003C30.4459 35.6365 30.3675 35.5726 30.2911 35.5088C30.2671 35.4895 30.2434 35.4698 30.2203 35.4502C29.8962 35.1788 29.6051 34.9123 29.347 34.6505Z" fill="white"/>
<path d="M31.5238 36.4411C31.5428 36.4168 31.5621 36.3921 31.5824 36.3678C31.6374 36.3017 31.6958 36.2384 31.7573 36.1782C32.0191 35.9215 32.3352 35.7269 32.6822 35.6085C32.679 35.5778 32.6758 35.5471 32.6726 35.5157C32.305 35.6376 31.9701 35.8419 31.6935 36.1129C31.6278 36.1772 31.5656 36.2448 31.5071 36.3156C31.4871 36.3396 31.4678 36.3642 31.4491 36.3889C31.2939 36.5914 31.1702 36.8163 31.0825 37.0559C31.1141 37.0601 31.1451 37.0644 31.1754 37.0686C31.26 36.8434 31.3774 36.632 31.5238 36.4411Z" fill="white"/>
<path d="M30.2908 35.5088C30.312 35.4855 30.3339 35.4628 30.3565 35.4407C30.363 35.4337 30.3702 35.4267 30.377 35.42C30.6611 35.1422 31.0081 34.9373 31.3884 34.8226C31.7688 34.7079 32.1713 34.6869 32.5615 34.7614C32.5557 34.7293 32.5499 34.6973 32.5435 34.6652C32.1437 34.5947 31.7329 34.6205 31.345 34.7404C30.9572 34.8603 30.6035 35.0709 30.3132 35.3547C30.304 35.3636 30.2949 35.3726 30.2861 35.3818C30.2635 35.4045 30.2416 35.4272 30.2201 35.4502C29.8889 35.809 29.6681 36.2556 29.584 36.7365C29.6133 36.7456 29.6426 36.7546 29.6722 36.7634C29.7519 36.2939 29.9669 35.8579 30.2908 35.5088Z" fill="white"/>
<path d="M29.3466 34.6505C29.3676 34.6262 29.3892 34.6025 29.4111 34.5792C29.4346 34.5542 29.4584 34.5296 29.4829 34.5057C29.865 34.1329 30.3576 33.8939 30.8869 33.8245C31.4162 33.7551 31.9538 33.859 32.4191 34.1206C32.4079 34.0798 32.3971 34.0393 32.3852 33.9991C31.9072 33.7516 31.3633 33.661 30.8308 33.7402C30.2983 33.8194 29.8044 34.0644 29.4191 34.4404C29.3946 34.4643 29.3704 34.4886 29.3475 34.5135C29.325 34.5369 29.3034 34.5605 29.2821 34.5845C28.8558 35.0721 28.6306 35.7035 28.6523 36.3508C28.6828 36.3683 28.7139 36.3845 28.7454 36.401C28.7106 35.7615 28.9262 35.1336 29.3466 34.6505Z" fill="white"/>
<path d="M39.1617 16.3448L39.2451 14.757L39.671 16.5222C41.1233 16.9598 42.7823 16.943 42.7823 16.943C42.7823 16.943 42.8945 13.5031 41.5859 12.165C40.2774 10.8268 39.025 11.1375 38.0437 12.0971C37.0624 13.0567 36.7237 14.3018 38.0323 15.64C38.3567 15.9496 38.741 16.1895 39.1617 16.3448Z" fill="#F0F0F0"/>
<path d="M39.4197 14.505L39.3552 14.439C38.6094 13.6685 38.1537 12.9438 37.9955 12.2745C37.9931 12.2648 37.9912 12.2551 37.9888 12.2454L38.0341 12.2349L38.0778 12.2254C38.2411 12.9555 38.7703 13.6958 39.4206 14.3681C39.4413 14.3899 39.4624 14.4121 39.4841 14.4337C39.762 14.7158 40.0593 14.9853 40.3591 15.2363C40.3821 15.256 40.4058 15.2756 40.4295 15.2953C40.8269 15.6246 41.2254 15.921 41.5801 16.1701C41.6051 16.1878 41.6304 16.2052 41.6554 16.2223C42.2576 16.6415 42.7228 16.9167 42.8264 16.9769C42.8389 16.9845 42.846 16.9884 42.8476 16.9894L42.8252 17.0286V17.0292L42.8025 17.0687C42.8009 17.0677 42.7771 17.0545 42.7341 17.0288C42.5727 16.9337 42.1387 16.6715 41.5968 16.2956C41.5724 16.2785 41.5471 16.2611 41.5221 16.2434C41.234 16.0416 40.9185 15.8097 40.599 15.5549C40.5187 15.491 40.4403 15.4271 40.3638 15.3633C40.3398 15.344 40.3161 15.3243 40.2931 15.3047C39.969 15.0333 39.6778 14.7668 39.4197 14.505Z" fill="white"/>
<path d="M41.5965 16.2956C41.6155 16.2713 41.6349 16.2466 41.6552 16.2223C41.7102 16.1562 41.7686 16.0929 41.8301 16.0328C42.0919 15.7761 42.4079 15.5814 42.7549 15.4631C42.7517 15.4323 42.7485 15.4016 42.7453 15.3703C42.3777 15.4921 42.0428 15.6964 41.7662 15.9674C41.7006 16.0317 41.6384 16.0993 41.5798 16.1701C41.5599 16.1941 41.5406 16.2188 41.5219 16.2434C41.3666 16.4459 41.243 16.6708 41.1553 16.9104C41.1869 16.9147 41.2178 16.9189 41.2481 16.9231C41.3327 16.6979 41.4501 16.4865 41.5965 16.2956Z" fill="white"/>
<path d="M40.3635 15.3633C40.3848 15.34 40.4067 15.3173 40.4292 15.2953C40.4358 15.2882 40.4429 15.2812 40.4498 15.2745C40.7338 14.9967 41.0808 14.7918 41.4612 14.6771C41.8416 14.5624 42.244 14.5414 42.6342 14.6159C42.6285 14.5839 42.6227 14.5518 42.6163 14.5198C42.2165 14.4493 41.8056 14.475 41.4178 14.5949C41.0299 14.7148 40.6762 14.9254 40.3859 15.2092C40.3768 15.2181 40.3677 15.2271 40.3588 15.2363C40.3363 15.259 40.3144 15.2817 40.2928 15.3047C39.9617 15.6635 39.7408 16.1101 39.6567 16.5911C39.686 16.6001 39.7153 16.6092 39.7449 16.6179C39.8247 16.1484 40.0397 15.7124 40.3635 15.3633Z" fill="white"/>
<path d="M39.4194 14.505C39.4403 14.4806 39.4619 14.457 39.4838 14.4337C39.5074 14.4087 39.5312 14.3841 39.5557 14.3602C39.9378 13.9874 40.4304 13.7484 40.9597 13.679C41.489 13.6096 42.0265 13.7135 42.4918 13.9751C42.4807 13.9343 42.4698 13.8938 42.458 13.8536C41.9799 13.6061 41.436 13.5155 40.9036 13.5947C40.3711 13.6739 39.8771 13.9189 39.4918 14.2949C39.4673 14.3188 39.4432 14.3431 39.4203 14.368C39.3977 14.3914 39.3762 14.415 39.3549 14.439C38.9285 14.9266 38.7034 15.558 38.7251 16.2053C38.7556 16.2228 38.7867 16.239 38.8182 16.2555C38.7833 15.616 38.999 14.9881 39.4194 14.505Z" fill="white"/>
<path d="M16.2136 88.5896L12.7675 91.7621L15.5062 87.1668C13.3485 83.2541 9.81965 79.8725 9.81965 79.8725C9.81965 79.8725 2.49854 86.8867 2.49854 92.4003C2.49854 97.9139 5.77629 99.8391 9.81965 99.8391C13.8629 99.8391 17.1407 97.9139 17.1407 92.4003C17.1407 91.1731 16.7775 89.8716 16.2136 88.5896Z" fill="#F0F0F0"/>
<path d="M11.8812 91.9338V92.2056C11.8651 95.3646 11.3323 97.8294 10.2869 99.565C10.2721 99.5906 10.256 99.6148 10.2411 99.6404L10.1241 99.5691L10.0124 99.4991C11.1722 97.6249 11.5825 94.9758 11.5973 92.2204C11.5987 92.1316 11.6 92.0414 11.5987 91.9513C11.5946 90.7848 11.5233 89.6049 11.409 88.4586C11.4009 88.3698 11.3915 88.2796 11.3821 88.1895C11.2233 86.6772 10.9946 85.2323 10.7605 83.977C10.7443 83.8882 10.7269 83.7994 10.7094 83.7119C10.3044 81.5889 9.89134 80.051 9.79716 79.7106C9.7864 79.6689 9.77967 79.6461 9.77832 79.6407L9.90614 79.6044L9.90748 79.603L10.0366 79.5667C10.038 79.5721 10.0609 79.6488 10.0985 79.7914C10.2425 80.3242 10.6165 81.7705 10.9838 83.6783C11 83.7644 11.0175 83.8532 11.0336 83.942C11.2247 84.9605 11.4117 86.0987 11.5597 87.2934C11.5973 87.5935 11.631 87.8895 11.6606 88.1814C11.6713 88.2716 11.6808 88.3617 11.6888 88.4505C11.8126 89.6896 11.8767 90.8507 11.8812 91.9338Z" fill="white"/>
<path d="M10.9837 83.6783C10.8936 83.6904 10.8021 83.7026 10.7093 83.712C10.4572 83.7379 10.2039 83.7509 9.95044 83.751C8.87035 83.7524 7.80369 83.5115 6.82906 83.046C6.77256 83.1173 6.71606 83.1886 6.6582 83.2613C7.68347 83.7617 8.80955 84.0213 9.95044 84.0201C10.221 84.02 10.4914 84.0056 10.7604 83.977C10.8519 83.9676 10.9434 83.9555 11.0335 83.942C11.7776 83.8353 12.5012 83.6162 13.1795 83.2922C13.1216 83.2182 13.0651 83.1456 13.0099 83.0742C12.368 83.3743 11.6852 83.5778 10.9837 83.6783Z" fill="white"/>
<path d="M11.6605 88.1815C11.5676 88.1868 11.4748 88.1895 11.382 88.1895C11.3537 88.1909 11.3241 88.1909 11.2959 88.1909C10.1255 88.1909 8.97252 87.9079 7.93517 87.366C6.89782 86.8242 6.00689 86.0395 5.33832 85.0789C5.2845 85.1583 5.23069 85.2377 5.17822 85.3184C5.87507 86.2903 6.79346 87.0823 7.85733 87.6286C8.92119 88.1749 10.0999 88.4599 11.2959 88.46C11.3335 88.46 11.3712 88.46 11.4089 88.4586C11.503 88.4573 11.5959 88.4546 11.6887 88.4505C13.1252 88.377 14.5102 87.8912 15.6779 87.0513C15.6348 86.9719 15.5918 86.8925 15.5474 86.8132C14.4125 87.6378 13.0616 88.1133 11.6605 88.1815Z" fill="white"/>
<path d="M11.8812 91.9338C11.787 91.9419 11.6928 91.9473 11.5987 91.9513C11.4978 91.9554 11.3969 91.9581 11.2959 91.9581C9.72332 91.9562 8.19358 91.4451 6.93577 90.5011C5.67795 89.5571 4.75974 88.2312 4.31859 86.7217C4.25805 86.8307 4.1975 86.9383 4.13965 87.0473C4.6367 88.5533 5.59568 89.8643 6.88036 90.7942C8.16503 91.724 9.71006 92.2254 11.2959 92.2271C11.3969 92.2271 11.4978 92.2258 11.5973 92.2204C11.6928 92.2177 11.787 92.2123 11.8812 92.2056C13.7835 92.0568 15.5582 91.1906 16.8458 89.7825C16.8176 89.6829 16.7853 89.5847 16.753 89.4852C15.5092 90.9038 13.7618 91.7822 11.8812 91.9338Z" fill="white"/>
<path d="M104.721 61.6137C109.715 57.2439 111.918 51.5924 109.642 48.9908C107.365 46.3891 101.471 47.8225 96.4774 52.1923C91.4835 56.5622 89.2805 62.2137 91.557 64.8153C93.8335 67.417 99.7274 65.9836 104.721 61.6137Z" fill="#E4E4E4"/>
<path d="M30.9304 64.8153C33.2069 62.2136 31.0039 56.5621 26.0099 52.1923C21.016 47.8225 15.1221 46.3891 12.8456 48.9907C10.5691 51.5924 12.772 57.2439 17.766 61.6137C22.76 65.9835 28.6539 67.4169 30.9304 64.8153Z" fill="#E4E4E4"/>
<path d="M42.1775 99.7122C48.8134 99.7122 54.1928 96.9098 54.1928 93.4527C54.1928 89.9957 48.8134 87.1932 42.1775 87.1932C35.5416 87.1932 30.1621 89.9957 30.1621 93.4527C30.1621 96.9098 35.5416 99.7122 42.1775 99.7122Z" fill="#E4E4E4"/>
<path d="M80.3103 99.7122C86.9462 99.7122 92.3256 96.9098 92.3256 93.4527C92.3256 89.9957 86.9462 87.1932 80.3103 87.1932C73.6744 87.1932 68.2949 89.9957 68.2949 93.4527C68.2949 96.9098 73.6744 99.7122 80.3103 99.7122Z" fill="#E4E4E4"/>
<path d="M61.2439 91.0784C44.9782 91.0784 31.7451 77.8454 31.7451 61.5797C31.7451 45.314 44.9782 32.0809 61.2439 32.0809C77.5095 32.0809 90.7426 45.314 90.7426 61.5797C90.7426 77.8454 77.5095 91.0784 61.2439 91.0784ZM61.2439 32.3687C45.1369 32.3687 32.0329 45.4727 32.0329 61.5797C32.0329 77.6867 45.1369 90.7906 61.2439 90.7906C77.3509 90.7906 90.4548 77.6867 90.4548 61.5797C90.4548 45.4727 77.3509 32.3687 61.2439 32.3687Z" fill="#3F3D56"/>
<path d="M54.0526 81.2273C48.1016 79.1797 43.0967 75.0405 39.9687 69.5795C36.8407 64.1185 35.8024 57.7074 37.0469 51.5382C35.3959 54.8463 34.4705 58.4689 34.3325 62.1635C34.1946 65.8581 34.8473 69.5396 36.2471 72.9616C37.6468 76.3836 39.7613 79.4672 42.449 82.006C45.1367 84.5448 48.3357 86.4803 51.8318 87.683C55.3279 88.8856 59.0406 89.3277 62.7214 88.9797C66.4022 88.6317 69.9662 87.5015 73.1749 85.6648C76.3836 83.8282 79.1631 81.3274 81.3273 78.3298C83.4915 75.3322 84.9905 71.9069 85.7241 68.2832C82.9099 73.9124 78.1472 78.328 72.3215 80.7089C66.4959 83.0899 60.0038 83.2741 54.0526 81.2273Z" fill="#F0F0F0"/>
<path d="M52.5558 59.2288C51.0625 59.2288 49.8477 57.648 49.8477 55.7049C49.8477 53.7617 51.0625 52.1808 52.5558 52.1808C54.0491 52.1808 55.2639 53.7617 55.2639 55.7049C55.2639 57.648 54.0491 59.2288 52.5558 59.2288Z" fill="#3F3D56"/>
<path d="M68.9596 59.2288C67.4663 59.2288 66.2515 57.648 66.2515 55.7049C66.2515 53.7617 67.4663 52.1808 68.9596 52.1808C70.4529 52.1808 71.6677 53.7617 71.6677 55.7049C71.6677 57.648 70.4529 59.2288 68.9596 59.2288Z" fill="#3F3D56"/>
<path d="M59.3733 5.17228C60.8038 5.17228 61.9635 4.33476 61.9635 3.30162C61.9635 2.26849 60.8038 1.43097 59.3733 1.43097C57.9428 1.43097 56.7832 2.26849 56.7832 3.30162C56.7832 4.33476 57.9428 5.17228 59.3733 5.17228Z" fill="#2F2E41"/>
<path d="M59.3729 2.28635C60.2471 2.28635 60.9558 1.77453 60.9558 1.14318C60.9558 0.511817 60.2471 0 59.3729 0C58.4987 0 57.79 0.511817 57.79 1.14318C57.79 1.77453 58.4987 2.28635 59.3729 2.28635Z" fill="#2F2E41"/>
<path d="M57.5103 4.04909C56.6194 3.15813 56.3374 1.95688 56.7818 1.18384C56.6762 1.24402 56.579 1.31791 56.4928 1.40359C55.7623 2.13412 55.9901 3.54635 57.0016 4.55784C58.0131 5.56938 59.4253 5.79712 60.1558 5.06659C60.2415 4.98036 60.3154 4.88319 60.3756 4.77759C59.6025 5.22202 58.4013 4.94005 57.5103 4.04909Z" fill="#2F2E41"/>
<path d="M32.711 50.3511L31.8013 48.8396L37.1982 44.6112L38.5409 46.8419L32.711 50.3511Z" fill="#FFB6B6"/>
<path d="M31.478 51.6184L28.5444 46.7449L28.6061 46.7078C29.1092 46.405 29.7119 46.3144 30.2818 46.456C30.8517 46.5976 31.3419 46.9597 31.6448 47.4628L33.4366 50.4395L31.478 51.6184Z" fill="#2F2E41"/>
<path d="M89.5682 48.3365L90.478 46.825L85.081 42.5966L83.7383 44.8273L89.5682 48.3365Z" fill="#FFB6B6"/>
<path d="M88.8428 48.425L90.6345 45.4484L90.6345 45.4482C90.9374 44.9452 91.4277 44.583 91.9975 44.4414C92.5674 44.2999 93.1702 44.3904 93.6733 44.6932L93.7349 44.7303L90.8014 49.6039L88.8428 48.425Z" fill="#2F2E41"/>
<path d="M54.2968 28.1654L53.9531 29.5376L44.6819 36.9596L34.7041 46.2843L35.7743 48.7728L59.557 32.8551L86.3694 46.7535L87.5673 44.0101L75.3318 35.8085L65.2132 28.8306L54.2968 28.1654Z" fill="#2F2E41"/>
<path d="M57.4184 13.4843L53.4111 14.799L53.9529 29.396C53.9529 29.396 60.9221 33.5803 65.2129 28.8306V14.2305L62.8199 13.4843H57.4184Z" fill="#1DA1F2"/>
<path d="M64.3237 15.2341L65.2132 14.2305C65.2132 14.2305 67.686 15.1338 67.4798 17.8446C67.2736 20.5554 65.8202 29.1773 65.8202 29.1773L65.5468 34.8012H62.9653L63.9942 20.2571L64.3237 15.2341Z" fill="#1DA1F2"/>
<path d="M54.5384 15.6658L53.649 14.6622C53.649 14.6622 51.1761 15.5655 51.3823 18.2763C51.5886 20.9871 53.0419 29.609 53.0419 29.609L53.3153 35.2328H55.8968L54.868 20.6888L54.5384 15.6658Z" fill="#1DA1F2"/>
<path d="M54.6244 37.549C55.4986 37.549 56.2072 36.8403 56.2072 35.9661C56.2072 35.0919 55.4986 34.3832 54.6244 34.3832C53.7502 34.3832 53.0415 35.0919 53.0415 35.9661C53.0415 36.8403 53.7502 37.549 54.6244 37.549Z" fill="#FFB6B6"/>
<path d="M64.2655 37.549C65.1397 37.549 65.8483 36.8403 65.8483 35.9661C65.8483 35.0919 65.1397 34.3832 64.2655 34.3832C63.3913 34.3832 62.6826 35.0919 62.6826 35.9661C62.6826 36.8403 63.3913 37.549 64.2655 37.549Z" fill="#FFB6B6"/>
<path d="M59.3061 12.2857C61.7271 12.2857 63.6898 10.3231 63.6898 7.90203C63.6898 5.48097 61.7271 3.51831 59.3061 3.51831C56.885 3.51831 54.9224 5.48097 54.9224 7.90203C54.9224 10.3231 56.885 12.2857 59.3061 12.2857Z" fill="#2F2E41"/>
<path d="M59.4385 12.4304C61.3905 12.4304 62.9728 10.8481 62.9728 8.89615C62.9728 6.94424 61.3905 5.36191 59.4385 5.36191C57.4866 5.36191 55.9043 6.94424 55.9043 8.89615C55.9043 10.8481 57.4866 12.4304 59.4385 12.4304Z" fill="#FFB6B6"/>
<path d="M55.7246 6.67312C56.5322 7.22976 57.4908 7.52601 58.4717 7.52209C58.1218 7.76469 57.7235 7.92856 57.3042 8.00241C58.6083 8.28216 59.9561 8.28973 61.2633 8.02466C61.5539 7.97807 61.8343 7.88177 62.0921 7.74C62.2207 7.66823 62.3326 7.57023 62.4208 7.45235C62.5089 7.33447 62.5712 7.19937 62.6037 7.05581C62.6906 6.55958 62.3039 6.10875 61.9021 5.80491C61.2869 5.34681 60.5775 5.03119 59.8253 4.88089C59.0731 4.73058 58.2969 4.74934 57.5529 4.93582C57.0671 5.0614 56.5804 5.27359 56.2648 5.66374C55.9492 6.0539 55.8558 6.65541 56.1564 7.05717L55.7246 6.67312Z" fill="#2F2E41"/>
<path d="M118.139 100H0.143896C0.105733 100 0.069132 99.9848 0.0421462 99.9578C0.0151604 99.9308 0 99.8942 0 99.8561C0 99.8179 0.0151604 99.7813 0.0421462 99.7543C0.069132 99.7274 0.105733 99.7122 0.143896 99.7122H118.139C118.177 99.7122 118.214 99.7274 118.241 99.7543C118.268 99.7813 118.283 99.8179 118.283 99.8561C118.283 99.8942 118.268 99.9308 118.241 99.9578C118.214 99.9848 118.177 100 118.139 100Z" fill="#3F3D56"/>
<path d="M56.7832 73.0914C56.7832 74.16 57.2077 75.1848 57.9633 75.9404C58.7189 76.696 59.7437 77.1205 60.8123 77.1205C61.8809 77.1205 62.9057 76.696 63.6613 75.9404C64.4169 75.1848 64.8414 74.16 64.8414 73.0914H56.7832Z" fill="#3F3D56"/>
<path d="M75.6508 68.055C77.5581 68.055 79.1043 66.5088 79.1043 64.6015C79.1043 62.6942 77.5581 61.148 75.6508 61.148C73.7435 61.148 72.1973 62.6942 72.1973 64.6015C72.1973 66.5088 73.7435 68.055 75.6508 68.055Z" fill="#F0F0F0"/>
<path d="M45.8646 68.055C47.772 68.055 49.3182 66.5088 49.3182 64.6015C49.3182 62.6942 47.772 61.148 45.8646 61.148C43.9573 61.148 42.4111 62.6942 42.4111 64.6015C42.4111 66.5088 43.9573 68.055 45.8646 68.055Z" fill="#F0F0F0"/>
</g>
<defs>
<clipPath id="clip0_9439_16096">
<rect width="118.283" height="100" fill="white"/>
</clipPath>
</defs>
</svg>
