<svg width="36" height="36" viewBox="0 0 36 36" fill="none" xmlns="http://www.w3.org/2000/svg">
<path d="M18 35.5C8.33475 35.5 0.5 27.6652 0.5 18C0.5 8.33475 8.33475 0.5 18 0.5C27.6652 0.5 35.5 8.33475 35.5 18C35.5 27.6652 27.6652 35.5 18 35.5ZM18 32C21.713 32 25.274 30.525 27.8995 27.8995C30.525 25.274 32 21.713 32 18C32 14.287 30.525 10.726 27.8995 8.10051C25.274 5.475 21.713 4 18 4C14.287 4 10.726 5.475 8.10051 8.10051C5.475 10.726 4 14.287 4 18C4 21.713 5.475 25.274 8.10051 27.8995C10.726 30.525 14.287 32 18 32ZM11.875 21.5H21.5C21.7321 21.5 21.9546 21.4078 22.1187 21.2437C22.2828 21.0796 22.375 20.8571 22.375 20.625C22.375 20.3929 22.2828 20.1704 22.1187 20.0063C21.9546 19.8422 21.7321 19.75 21.5 19.75H14.5C13.3397 19.75 12.2269 19.2891 11.4064 18.4686C10.5859 17.6481 10.125 16.5353 10.125 15.375C10.125 14.2147 10.5859 13.1019 11.4064 12.2814C12.2269 11.4609 13.3397 11 14.5 11H16.25V7.5H19.75V11H24.125V14.5H14.5C14.2679 14.5 14.0454 14.5922 13.8813 14.7563C13.7172 14.9204 13.625 15.1429 13.625 15.375C13.625 15.6071 13.7172 15.8296 13.8813 15.9937C14.0454 16.1578 14.2679 16.25 14.5 16.25H21.5C22.6603 16.25 23.7731 16.7109 24.5936 17.5314C25.4141 18.3519 25.875 19.4647 25.875 20.625C25.875 21.7853 25.4141 22.8981 24.5936 23.7186C23.7731 24.5391 22.6603 25 21.5 25H19.75V28.5H16.25V25H11.875V21.5Z" fill="#EF4444"/>
</svg>
