<svg width="270" height="163" viewBox="0 0 270 163" fill="none" xmlns="http://www.w3.org/2000/svg">
<g clip-path="url(#clip0_2660_24077)">
<path d="M45.3067 154.257C45.0904 154.267 44.8762 154.21 44.6932 154.094C44.5103 153.978 44.3673 153.809 44.2838 153.609C44.2002 153.409 44.1801 153.189 44.2262 152.977C44.2722 152.766 44.3822 152.573 44.5412 152.426L44.6136 152.138C44.6041 152.115 44.5945 152.092 44.5848 152.069C44.3669 151.555 44.0017 151.116 43.5351 150.808C43.0686 150.5 42.5214 150.337 41.9624 150.339C41.4034 150.341 40.8575 150.508 40.3932 150.819C39.9289 151.131 39.567 151.572 39.3529 152.089C38.4972 154.15 37.4077 156.214 37.1395 158.393C37.0213 159.357 37.0711 160.333 37.2867 161.279C35.2769 156.895 34.2333 152.13 34.2266 147.307C34.2261 146.097 34.2934 144.887 34.428 143.685C34.5392 142.699 34.6935 141.72 34.8909 140.748C35.9681 135.474 38.281 130.531 41.6395 126.324C43.2651 125.438 44.5797 124.074 45.4062 122.417C45.7056 121.821 45.9172 121.185 46.0344 120.529C45.8511 120.553 45.343 117.76 45.4813 117.589C45.2258 117.201 44.7684 117.008 44.4893 116.63C43.1013 114.748 41.1889 115.077 40.1906 117.634C38.058 118.71 38.0373 120.495 39.3459 122.212C40.1784 123.304 40.2928 124.782 41.0233 125.952C40.9482 126.048 40.87 126.141 40.7948 126.237C39.4211 128.004 38.2237 129.901 37.2199 131.901C37.464 129.66 37.1727 127.394 36.3699 125.287C35.5563 123.325 34.0312 121.672 32.6882 119.975C31.0751 117.936 27.7672 118.826 27.483 121.41C27.4802 121.435 27.4775 121.46 27.4749 121.485C27.6744 121.597 27.8697 121.717 28.0607 121.843C28.3007 122.003 28.4867 122.232 28.5943 122.5C28.7019 122.768 28.726 123.062 28.6636 123.344C28.6011 123.626 28.455 123.882 28.2444 124.08C28.0337 124.277 27.7684 124.406 27.4831 124.45L27.4539 124.455C27.525 125.174 27.6506 125.886 27.8296 126.586C26.1068 133.249 29.8263 135.676 35.1374 135.785C35.2546 135.845 35.3689 135.905 35.4862 135.962C34.4777 138.82 33.8451 141.797 33.6043 144.818C33.468 146.6 33.4761 148.391 33.6284 150.172L33.6194 150.109C33.2346 148.128 32.1781 146.341 30.6283 145.049C28.3265 143.159 25.0745 142.462 22.5913 140.942C22.3274 140.773 22.0206 140.683 21.7069 140.682C21.3933 140.681 21.086 140.77 20.8213 140.938C20.5566 141.106 20.3455 141.347 20.2128 141.631C20.0802 141.915 20.0316 142.231 20.0728 142.542C20.0762 142.564 20.0796 142.586 20.083 142.608C20.4532 142.759 20.8136 142.933 21.1622 143.128C21.3616 143.241 21.5569 143.36 21.748 143.487C21.988 143.647 22.174 143.876 22.2815 144.144C22.3891 144.412 22.4132 144.706 22.3508 144.988C22.2884 145.27 22.1423 145.526 21.9316 145.724C21.721 145.921 21.4556 146.05 21.1703 146.094L21.1411 146.098C21.1201 146.101 21.102 146.104 21.081 146.107C21.7135 147.618 22.6012 149.008 23.7053 150.217C24.7826 156.033 29.4095 156.585 34.3588 154.891H34.3619C34.9049 157.251 35.6917 159.548 36.7096 161.745H45.0966C45.1267 161.652 45.1537 161.556 45.1807 161.463C44.4044 161.511 43.6251 161.465 42.86 161.324C43.4823 160.561 44.1046 159.791 44.7268 159.028C44.7407 159.013 44.7538 158.998 44.7659 158.983C45.0816 158.592 45.4002 158.204 45.7158 157.813L45.716 157.813C45.7328 156.615 45.5954 155.42 45.307 154.257L45.3067 154.257Z" fill="#F2F2F2"/>
<path d="M220.482 154.257C220.698 154.267 220.912 154.21 221.095 154.094C221.278 153.978 221.421 153.809 221.505 153.609C221.588 153.409 221.608 153.189 221.562 152.977C221.516 152.766 221.406 152.573 221.247 152.426L221.175 152.138C221.184 152.115 221.194 152.092 221.204 152.069C221.421 151.555 221.787 151.116 222.253 150.808C222.72 150.5 223.267 150.337 223.826 150.339C224.385 150.341 224.931 150.508 225.395 150.819C225.859 151.131 226.221 151.572 226.435 152.089C227.291 154.15 228.381 156.214 228.649 158.393C228.767 159.357 228.717 160.333 228.502 161.279C230.511 156.895 231.555 152.13 231.562 147.307C231.562 146.097 231.495 144.887 231.36 143.685C231.249 142.699 231.095 141.72 230.897 140.748C229.82 135.474 227.507 130.531 224.149 126.324C222.523 125.438 221.209 124.074 220.382 122.417C220.083 121.821 219.871 121.185 219.754 120.529C219.937 120.553 220.445 117.76 220.307 117.589C220.563 117.201 221.02 117.008 221.299 116.63C222.687 114.748 224.599 115.077 225.598 117.634C227.73 118.71 227.751 120.495 226.442 122.212C225.61 123.304 225.496 124.782 224.765 125.952C224.84 126.048 224.918 126.141 224.994 126.237C226.367 128.004 227.565 129.901 228.568 131.901C228.324 129.66 228.616 127.394 229.418 125.287C230.232 123.325 231.757 121.672 233.1 119.975C234.713 117.936 238.021 118.826 238.305 121.41C238.308 121.435 238.311 121.46 238.313 121.485C238.114 121.597 237.919 121.717 237.728 121.843C237.488 122.003 237.302 122.232 237.194 122.5C237.086 122.768 237.062 123.062 237.125 123.344C237.187 123.626 237.333 123.882 237.544 124.08C237.755 124.277 238.02 124.406 238.305 124.45L238.334 124.455C238.263 125.174 238.138 125.886 237.959 126.586C239.682 133.249 235.962 135.676 230.651 135.785C230.534 135.845 230.419 135.905 230.302 135.962C231.311 138.82 231.943 141.797 232.184 144.818C232.32 146.6 232.312 148.391 232.16 150.172L232.169 150.109C232.554 148.128 233.61 146.341 235.16 145.049C237.462 143.159 240.714 142.462 243.197 140.942C243.461 140.773 243.768 140.683 244.081 140.682C244.395 140.681 244.702 140.77 244.967 140.938C245.232 141.106 245.443 141.347 245.576 141.631C245.708 141.915 245.757 142.231 245.716 142.542C245.712 142.564 245.709 142.586 245.705 142.608C245.335 142.759 244.975 142.933 244.626 143.128C244.427 143.241 244.231 143.36 244.04 143.487C243.8 143.647 243.614 143.876 243.507 144.144C243.399 144.412 243.375 144.706 243.438 144.988C243.5 145.27 243.646 145.526 243.857 145.724C244.067 145.921 244.333 146.05 244.618 146.094L244.647 146.098C244.668 146.101 244.686 146.104 244.707 146.107C244.075 147.618 243.187 149.008 242.083 150.217C241.006 156.033 236.379 156.585 231.43 154.891H231.426C230.883 157.251 230.097 159.548 229.079 161.745H220.692C220.662 161.652 220.635 161.556 220.608 161.463C221.384 161.511 222.163 161.465 222.928 161.324C222.306 160.561 221.684 159.791 221.062 159.028C221.048 159.013 221.035 158.998 221.022 158.983C220.707 158.592 220.388 158.204 220.073 157.813L220.072 157.813C220.056 156.615 220.193 155.42 220.481 154.257L220.482 154.257Z" fill="#F2F2F2"/>
<path d="M54.9531 161.557H68.487C70.8017 153.763 68.4994 135.344 71.5504 127.815C77.4038 113.38 84.8818 98.1495 98.839 91.1013C104.798 88.0917 111.296 86.9162 117.932 86.9803C127.099 87.0672 136.523 89.5279 145.152 92.789C148.681 94.12 152.178 95.5836 155.662 97.0793C168.786 102.719 181.768 108.861 195.882 110.522C213.741 112.621 234.739 104.631 239.617 87.4193C243.34 74.2422 236.635 60.5619 229.604 48.7934C222.572 37.025 214.712 24.4332 215.996 10.8078C216.001 10.7621 216.005 10.7118 216.015 10.6661C216.498 5.77206 219.42 2.25489 223.502 0H205.73C205.495 12.7106 212.849 23.9301 219.466 35.0079C226.497 46.7718 233.202 60.4567 229.479 73.6339C224.602 90.8406 184.21 70.6707 166.351 68.5667C161.307 67.9767 169.319 70.0761 164.51 68.5667C156.968 66.2021 156.131 87.8905 148.792 84.7071C144.222 82.722 139.648 80.7507 135.014 78.999C133.095 78.2717 131.134 77.5902 129.151 76.959C129.146 76.959 129.146 76.959 129.142 76.9544C115.824 72.7374 101.26 71.0954 88.9544 77.1923C88.8716 77.2334 88.7841 77.2746 88.7013 77.3158C74.744 84.3595 67.2661 99.5903 61.4126 114.025C56.5761 125.958 57.3368 148.97 54.9531 161.557Z" fill="#F2F2F2"/>
<path d="M130.25 161.158C164.58 161.158 192.41 133.328 192.41 98.9977C192.41 64.6678 164.58 36.8379 130.25 36.8379C95.9198 36.8379 68.0898 64.6678 68.0898 98.9977C68.0898 133.328 95.9198 161.158 130.25 161.158Z" fill="white"/>
<path d="M130.072 161.556C68.5712 162.969 67.2227 133.751 67.2227 98.9973C67.2227 64.2446 95.4965 35.9707 130.25 35.9707C165.003 35.9707 193.277 64.2446 193.277 98.9973C193.277 133.751 164.825 161.556 130.072 161.556ZM130.25 37.705C96.4525 37.705 69.526 65.2054 68.9569 98.9973C68.4275 130.428 101.817 169.649 130.25 160.291C145.497 143.498 188.606 125.412 191.542 98.9973C195.277 65.4076 164.047 37.705 130.25 37.705V37.705Z" fill="#3F3D56"/>
<path d="M121.772 131.349C120.699 131.349 119.64 131.099 118.68 130.619C117.72 130.139 116.885 129.442 116.241 128.583L99.2831 105.972C98.7378 105.245 98.341 104.419 98.1153 103.539C97.8896 102.659 97.8395 101.743 97.9677 100.844C98.096 99.9451 98.4002 99.08 98.8629 98.2984C99.3255 97.5169 99.9377 96.8341 100.664 96.2892C101.391 95.7442 102.218 95.3478 103.098 95.1225C103.978 94.8972 104.893 94.8475 105.792 94.9762C106.691 95.1049 107.556 95.4095 108.338 95.8725C109.119 96.3356 109.802 96.948 110.346 97.6749L121.441 112.467L149.936 69.7246C150.954 68.1997 152.535 67.1415 154.333 66.7824C156.131 66.4233 157.997 66.7929 159.523 67.8098C161.048 68.8267 162.107 70.4077 162.467 72.2052C162.827 74.0028 162.459 75.8697 161.442 77.3956L127.526 128.27C126.913 129.19 126.087 129.95 125.12 130.485C124.152 131.02 123.07 131.316 121.965 131.347C121.901 131.348 121.836 131.349 121.772 131.349Z" fill="#F2F2F2"/>
<path d="M1.98164e-06 161.606C-0.000173364 161.665 0.0112896 161.723 0.0337281 161.777C0.0561667 161.832 0.08914 161.881 0.13075 161.923C0.172361 161.964 0.221784 161.997 0.276183 162.02C0.330583 162.042 0.388886 162.054 0.44773 162.054H269.552C269.671 162.054 269.785 162.006 269.869 161.922C269.953 161.839 270 161.725 270 161.606C270 161.487 269.953 161.373 269.869 161.289C269.785 161.205 269.671 161.158 269.552 161.158H0.44773C0.388887 161.158 0.330588 161.17 0.276189 161.192C0.22179 161.214 0.172366 161.247 0.130756 161.289C0.0891461 161.331 0.0561731 161.38 0.0337339 161.434C0.0112947 161.489 -0.000171367 161.547 1.98164e-06 161.606Z" fill="#CCCCCC"/>
<path d="M169.945 157.217H166.306L164.574 143.178L169.946 143.178L169.945 157.217Z" fill="#FFB6B6"/>
<path d="M170.072 161.014L158.879 161.014V160.872C158.879 159.717 159.338 158.609 160.155 157.792C160.972 156.975 162.08 156.516 163.235 156.516H163.236L165.28 154.965L169.095 156.516L170.072 156.516L170.072 161.014Z" fill="#2F2E41"/>
<path d="M154.121 139.818L150.759 141.212L143.781 128.907L148.744 126.85L154.121 139.818Z" fill="#FFB6B6"/>
<path d="M155.694 143.276L145.355 147.563L145.301 147.433C144.858 146.365 144.858 145.166 145.3 144.098C145.741 143.031 146.589 142.182 147.656 141.74L147.657 141.74L148.951 139.524L153.069 139.495L153.971 139.121L155.694 143.276Z" fill="#2F2E41"/>
<path d="M174.107 77.3535L148.277 80.0522L144.821 91.6896L132.855 110.919C132.855 110.919 141.205 124.973 140.421 124.82C139.637 124.667 141.204 128.497 142.302 128.275C143.399 128.052 144.541 130.55 143.782 130.994C143.023 131.438 146.067 135.193 146.067 135.193L150.72 131.017C151.71 123.552 150.514 116.908 146.254 111.416L159.585 97.0243L162.112 95.9754L164.119 149.378L171.54 149.5C173.588 138.966 174.617 129.484 173.016 122.721C173.016 122.721 173.246 102.402 174.124 102.624C175.002 102.846 174.258 100.199 174.258 100.199C174.258 100.199 173.489 97.9445 174.433 97.0093C175.378 96.074 174.788 90.5734 174.788 90.5734C176.349 85.3678 175.879 81.0696 174.107 77.3535Z" fill="#2F2E41"/>
<path d="M154.247 34.4087L161.388 32.5583L164.721 27.9609L172.637 28.9341L174.322 35.2049L179.958 38.4762C179.958 38.4762 176.843 71.4221 177.584 73.2312C178.325 75.0402 180.982 74.8909 178.713 77.2228C176.444 79.5548 176.143 78.6155 176.67 81.1544C177.196 83.6932 181.034 86.38 176.67 86.3534C172.306 86.3267 145.97 85.9505 146.723 82.9408C147.475 79.931 147.463 80.6953 148.598 78.8083C149.733 76.9213 150.496 77.9758 150.114 75.1912C149.733 72.4067 150.109 70.5256 150.109 69.0207C150.109 67.5158 151.369 53.8409 151.369 53.8409L154.247 34.4087Z" fill="#E6E6E6"/>
<path d="M168.658 27.1115C173.291 27.1115 177.047 23.3557 177.047 18.7227C177.047 14.0898 173.291 10.334 168.658 10.334C164.025 10.334 160.27 14.0898 160.27 18.7227C160.27 23.3557 164.025 27.1115 168.658 27.1115Z" fill="#FFB6B6"/>
<path d="M159.867 13.6443C160.604 14.2395 160.435 17.1344 161.256 16.6625C162.077 16.1907 162.247 15.3457 163.193 15.3369C163.963 15.3794 164.69 15.7083 165.23 16.2591C165.331 16.35 165.427 16.4453 165.52 16.5395C165.605 16.5097 165.689 16.4827 165.777 16.4606C166.44 16.2987 167.139 16.3972 167.732 16.7358C167.185 16.7749 166.664 16.9849 166.243 17.3362C166.423 17.5384 166.606 17.7417 166.799 17.9296C168.405 19.504 171.699 17.8274 173.914 17.449C172.07 19.4633 172.433 20.5878 172.892 23.2801L172.894 23.4271C172.988 22.8062 174.977 22.8372 174.649 23.661C174.237 24.4749 173.722 25.2322 173.116 25.914C175.826 24.037 178.013 21.4497 178.497 18.3243C178.596 17.6672 178.789 16.9967 178.602 16.356C178.523 16.032 178.338 15.7435 178.077 15.5356C177.816 15.3277 177.494 15.212 177.161 15.2066C177.462 14.2479 177.499 13.2253 177.266 12.2476C177.033 11.2698 176.539 10.3735 175.838 9.65378C175.136 8.93411 174.253 8.41804 173.281 8.16041C172.309 7.90279 171.286 7.91325 170.32 8.19068C169.439 8.50387 168.579 8.87488 167.747 9.30127C166.907 9.72932 165.956 9.89038 165.022 9.76285C164.44 9.64263 163.85 9.3413 163.28 9.51192C162.619 9.71016 162.335 10.4082 162.07 11.0821C162.567 11.2638 162.999 11.5895 163.31 12.0178C162.796 11.8281 162.235 11.8053 161.708 11.9527C161.698 11.9544 161.688 11.957 161.679 11.9604C161.081 13.0329 161.046 13.2959 159.867 13.6443Z" fill="#2F2E41"/>
<path d="M162.633 30.3102C158.336 29.9643 154.413 33.2503 152.625 37.1722C150.836 41.0942 150.719 45.5433 150.632 49.853L150.362 63.2496C150.322 65.2319 150.282 67.2147 150.183 69.195C150.132 71.122 149.89 73.0391 149.46 74.9181C148.584 78.3661 146.657 81.4386 144.758 84.447C149.619 85.9165 154.564 87.0974 159.565 87.9832C162.062 79.9053 164.588 71.5953 163.974 63.1624C163.649 58.7001 162.449 54.3433 161.993 49.8925C161.347 43.5889 162.203 37.2388 163.058 30.96" fill="#3F3D56"/>
<path d="M173.065 31.0645C177.321 31.7488 180.352 35.8724 181.158 40.1069C181.964 44.3414 181.021 48.6912 180.082 52.8982C179.109 57.2573 178.136 61.6165 177.163 65.9756C176.731 67.9108 176.299 69.8463 175.925 71.7934C175.561 73.685 177.084 76.1109 177.101 78.037C177.134 81.5944 176.443 84.5243 177.573 87.8975C172.502 88.1706 167.418 88.1435 162.35 87.8164C161.842 79.3765 161.362 70.7043 163.961 62.6585C165.336 58.4009 167.537 54.4538 169.037 50.2386C171.161 44.2688 171.837 37.897 172.498 31.5948" fill="#3F3D56"/>
<path d="M175.902 91.88C175.585 91.3292 175.497 90.6768 175.654 90.0616C175.812 89.4464 176.203 88.917 176.745 88.586C176.857 88.5205 176.973 88.4643 177.094 88.4179L176.551 69.9397L182.43 68.4434L180.188 89.9712C180.341 90.4858 180.32 91.0367 180.128 91.5379C179.935 92.0391 179.582 92.4624 179.124 92.7419C178.861 92.8984 178.57 93.0017 178.268 93.0458C177.966 93.09 177.658 93.0742 177.361 92.9993C177.065 92.9244 176.787 92.7919 176.542 92.6093C176.297 92.4268 176.09 92.1978 175.934 91.9354C175.923 91.9171 175.912 91.8986 175.902 91.88Z" fill="#FFB6B6"/>
<path d="M175.474 38.4459C175.474 38.4459 179.577 34.9756 183.03 41.9144C186.483 48.8531 184.554 64.7048 184.068 65.5508C183.581 66.3968 183.285 65.2183 183.551 67.4733C183.768 69.3074 182.48 69.078 182.942 69.4694C184.16 70.5014 180.75 70.6189 182.501 71.5283C184.252 72.4376 176.415 72.6079 176.415 72.6079C176.415 72.6079 175.467 71.9309 176.125 69.3778C176.495 67.9439 177.421 67.4193 176.433 66.7558C175.446 66.0922 177.453 64.0409 177.455 63.5908C177.456 63.1407 174.324 53.2963 174.324 53.2963L175.474 38.4459Z" fill="#3F3D56"/>
<path d="M141.514 123.926C140.441 123.926 139.382 123.676 138.422 123.196C137.462 122.716 136.627 122.019 135.983 121.16L119.025 98.5488C118.48 97.8225 118.083 96.9958 117.857 96.116C117.632 95.2362 117.582 94.3206 117.71 93.4214C117.838 92.5223 118.142 91.6572 118.605 90.8756C119.068 90.094 119.68 89.4113 120.407 88.8663C121.133 88.3214 121.96 87.925 122.84 87.6997C123.72 87.4744 124.635 87.4247 125.535 87.5534C126.434 87.6821 127.299 87.9866 128.08 88.4497C128.861 88.9127 129.544 89.5252 130.088 90.2521L141.183 105.044L169.678 62.3017C170.182 61.5462 170.829 60.8973 171.584 60.392C172.338 59.8867 173.185 59.535 174.075 59.3569C174.966 59.1789 175.882 59.1779 176.773 59.3541C177.664 59.5303 178.511 59.8803 179.267 60.384C180.022 60.8876 180.671 61.5352 181.177 62.2897C181.682 63.0442 182.034 63.8908 182.212 64.7812C182.39 65.6716 182.391 66.5883 182.214 67.4791C182.038 68.3699 181.688 69.2172 181.185 69.9727L147.268 120.847C146.655 121.767 145.83 122.527 144.862 123.062C143.894 123.598 142.812 123.893 141.707 123.924C141.643 123.925 141.579 123.926 141.514 123.926Z" fill="#1DA1F2"/>
<path d="M154.442 88.6699C154.788 88.1374 154.912 87.4908 154.789 86.8679C154.666 86.2449 154.304 85.6947 153.781 85.3342C153.674 85.2627 153.561 85.2001 153.443 85.1472L155.006 66.7272L149.219 64.9082L150.267 86.5271C150.086 87.0324 150.077 87.5836 150.241 88.0947C150.406 88.6057 150.735 89.048 151.177 89.3523C151.431 89.5231 151.715 89.6423 152.014 89.7031C152.314 89.7639 152.622 89.7651 152.922 89.7067C153.222 89.6483 153.508 89.5314 153.762 89.3627C154.017 89.1939 154.236 88.9767 154.407 88.7233C154.419 88.7057 154.43 88.6878 154.442 88.6699Z" fill="#FFB6B6"/>
<path d="M157.83 35.3804C157.83 35.3804 153.924 31.6887 150.093 38.426C146.262 45.1633 147.312 61.0973 147.751 61.9689C148.189 62.8405 148.551 61.6802 148.16 63.9171C147.843 65.7364 149.141 65.5785 148.658 65.9438C147.385 66.9069 150.783 67.2127 148.984 68.0239C147.186 68.835 155.002 69.4382 155.002 69.4382C155.002 69.4382 155.986 68.8146 155.47 66.2291C155.18 64.7769 154.284 64.202 155.307 63.594C156.33 62.9861 154.439 60.8269 154.462 60.3774C154.486 59.9279 158.157 50.2716 158.157 50.2716L157.83 35.3804Z" fill="#3F3D56"/>
</g>
<defs>
<clipPath id="clip0_2660_24077">
<rect width="270" height="162.053" fill="white"/>
</clipPath>
</defs>
</svg>
