<svg width="252" height="266" viewBox="0 0 252 266" fill="none" xmlns="http://www.w3.org/2000/svg">
<g clip-path="url(#clip0_6991_6547)">
<path d="M70.1275 261.1C60.0663 261.101 44.4412 253.163 30.0878 239.879C28.4934 238.393 26.9781 236.825 25.548 235.181C25.4428 235.061 25.3722 234.915 25.3441 234.759C25.3159 234.602 25.3312 234.441 25.3882 234.293C25.4433 234.141 25.5388 234.008 25.6645 233.907C25.7901 233.805 25.9411 233.74 26.1012 233.718L32.3794 232.815C32.5058 232.797 32.6216 232.735 32.706 232.639C32.7903 232.543 32.8377 232.421 32.8397 232.294C32.8416 232.166 32.798 232.042 32.7166 231.944C32.6352 231.846 32.5214 231.78 32.3956 231.758L21.6594 229.878C21.4272 229.838 21.2202 229.708 21.0832 229.517C9.76991 213.769 3.59863 194.19 1.97668 188.564C1.9338 188.416 1.92995 188.26 1.9655 188.111C2.00105 187.961 2.07479 187.823 2.17955 187.711C2.28431 187.598 2.41653 187.514 2.56334 187.468C2.71015 187.421 2.86655 187.413 3.01734 187.445C4.75214 187.805 8.36017 188.607 13.033 189.925C13.1844 189.967 13.3218 190.049 13.4317 190.161C13.5415 190.274 13.6198 190.413 13.6588 190.565L13.9937 191.882C14.0251 192.005 14.0996 192.113 14.2038 192.187C14.3081 192.261 14.4352 192.295 14.5623 192.283C14.6895 192.272 14.8085 192.216 14.8978 192.125C14.9872 192.034 15.0411 191.914 15.0499 191.787L15.0594 191.649C15.0686 191.515 15.108 191.385 15.1746 191.268C15.2412 191.151 15.3333 191.051 15.444 190.975C15.5548 190.898 15.6814 190.848 15.8144 190.827C15.9475 190.806 16.0835 190.815 16.2125 190.854C21.3494 192.405 26.4018 194.222 31.3491 196.298C31.477 196.352 31.5907 196.435 31.6812 196.54C31.7718 196.645 31.8368 196.77 31.8713 196.904L33.6847 204.035C33.7161 204.158 33.7906 204.267 33.8948 204.34C33.999 204.414 34.1261 204.448 34.2534 204.437C34.3806 204.425 34.4995 204.369 34.5889 204.278C34.6782 204.187 34.7321 204.067 34.7409 203.94L35.0624 199.282C35.0722 199.136 35.1175 198.996 35.1942 198.872C35.2709 198.748 35.3768 198.645 35.5025 198.572C35.6283 198.498 35.7703 198.456 35.916 198.45C36.0617 198.443 36.2067 198.473 36.3386 198.535C44.5238 202.428 51.2826 206.817 56.4274 211.578C75.7413 229.454 85.5464 250.344 78.2845 258.146C76.4195 260.15 73.6047 261.099 70.1275 261.1Z" fill="#F2F2F2"/>
<path d="M72.5108 260.987C62.5033 260.988 49.7224 243.652 42.9722 220.194C42.3777 218.1 41.8933 215.976 41.5211 213.832C41.493 213.676 41.5082 213.514 41.5652 213.366C41.6223 213.217 41.7189 213.087 41.8447 212.99C41.9703 212.888 42.1214 212.823 42.2814 212.801C42.4414 212.779 42.6044 212.802 42.7527 212.865L48.5953 215.329C48.7129 215.378 48.8444 215.384 48.9662 215.346C49.0879 215.308 49.192 215.227 49.2597 215.119C49.3274 215.011 49.3542 214.883 49.3354 214.757C49.3166 214.631 49.2535 214.516 49.1572 214.432L40.9409 207.288C40.7629 207.134 40.6529 206.917 40.6348 206.682C39.1131 187.37 43.9793 167.428 45.507 161.776C45.5468 161.628 45.6244 161.492 45.7324 161.382C45.8403 161.273 45.9748 161.193 46.1229 161.15C46.2709 161.108 46.4275 161.104 46.5773 161.14C46.7271 161.176 46.8651 161.25 46.9778 161.354C48.2778 162.559 50.9533 165.107 54.2664 168.64C54.3737 168.754 54.449 168.895 54.4848 169.048C54.5206 169.201 54.5155 169.36 54.4702 169.511L54.0742 170.811C54.0372 170.932 54.0449 171.063 54.096 171.18C54.147 171.297 54.2381 171.392 54.3529 171.447C54.4677 171.503 54.5987 171.516 54.7223 171.484C54.8459 171.453 54.9542 171.378 55.0275 171.274L55.107 171.161C55.1843 171.051 55.2855 170.96 55.4031 170.894C55.5206 170.828 55.6514 170.79 55.7858 170.782C55.9203 170.773 56.0549 170.795 56.1796 170.846C56.3044 170.896 56.4161 170.974 56.5066 171.074C60.0998 175.05 63.4829 179.21 66.6421 183.537C66.7235 183.649 66.7778 183.779 66.8009 183.915C66.8239 184.052 66.8151 184.192 66.7751 184.325L64.6311 191.364C64.594 191.486 64.6016 191.617 64.6527 191.734C64.7038 191.85 64.7949 191.945 64.9097 192.001C65.0245 192.057 65.1554 192.07 65.2791 192.038C65.4027 192.006 65.5109 191.931 65.5843 191.827L68.2743 188.005C68.3569 187.884 68.4687 187.786 68.5994 187.719C68.7301 187.653 68.8755 187.62 69.0222 187.624C69.1676 187.626 69.3103 187.664 69.4378 187.733C69.5653 187.803 69.6738 187.903 69.7538 188.024C74.7426 195.576 78.2537 202.816 80.1897 209.544C87.4575 234.802 85.0226 257.739 74.7617 260.675C74.0297 260.883 73.272 260.988 72.5108 260.987Z" fill="#F2F2F2"/>
<path d="M126 266C195.588 266 252 263.123 252 259.575C252 256.026 195.588 253.15 126 253.15C56.4121 253.15 0 256.026 0 259.575C0 263.123 56.4121 266 126 266Z" fill="#E6E6E6"/>
<path d="M199.613 61.7342H198.181V22.6316C198.181 16.6293 195.79 10.8729 191.534 6.62864C187.278 2.3844 181.505 7.57365e-06 175.486 0H92.4099C86.3908 -1.23071e-05 80.6182 2.38436 76.3621 6.62859C72.106 10.8728 69.7149 16.6292 69.7148 22.6315V237.152C69.7148 243.154 72.1059 248.91 76.362 253.155C80.6182 257.399 86.3907 259.783 92.4098 259.783H175.486C181.505 259.783 187.278 257.399 191.534 253.155C195.79 248.91 198.181 243.154 198.181 237.152V89.5681H199.613L199.613 61.7342Z" fill="#3F3D56"/>
<path d="M193.354 22.7895V236.994C193.354 241.477 191.568 245.775 188.389 248.945C185.211 252.115 180.9 253.896 176.405 253.896H92.9296C88.4344 253.896 84.1234 252.115 80.9448 248.945C77.7663 245.776 75.9805 241.477 75.9805 236.994V22.7895C75.9806 18.3069 77.7663 14.0079 80.9448 10.8382C84.1234 7.66854 88.4344 5.88779 92.9296 5.88771H103.056C102.559 7.10705 102.369 8.42965 102.504 9.73916C102.64 11.0487 103.096 12.305 103.832 13.3975C104.568 14.4901 105.563 15.3855 106.728 16.0049C107.893 16.6243 109.192 16.9487 110.512 16.9497H158.106C159.426 16.9487 160.726 16.6243 161.891 16.0049C163.056 15.3855 164.05 14.4901 164.786 13.3975C165.523 12.305 165.979 11.0487 166.114 9.73916C166.249 8.42965 166.06 7.10705 165.562 5.88771H176.405C180.9 5.88779 185.211 7.66853 188.389 10.8382C191.568 14.0079 193.354 18.3069 193.354 22.7895Z" fill="white"/>
<path d="M180.818 47.3746H88.5156C86.9498 47.3767 85.4488 47.9979 84.3416 49.102C83.2345 50.2061 82.6115 51.7029 82.6094 53.2643V160.35C82.6115 161.912 83.2344 163.409 84.3416 164.513C85.4488 165.617 86.9498 166.238 88.5156 166.24H180.818C181.838 166.24 182.84 165.976 183.727 165.474C184.614 164.973 185.356 164.25 185.879 163.377C185.975 163.224 186.063 163.066 186.141 162.903C186.445 162.274 186.632 161.595 186.695 160.9C186.716 160.718 186.725 160.534 186.724 160.35V53.2643C186.722 51.7027 186.1 50.2055 184.992 49.1013C183.885 47.9971 182.384 47.3761 180.818 47.3746Z" fill="#E6E6E6"/>
<path d="M134.665 231.027C145.934 231.027 155.069 221.918 155.069 210.681C155.069 199.444 145.934 190.335 134.665 190.335C123.397 190.335 114.262 199.444 114.262 210.681C114.262 221.918 123.397 231.027 134.665 231.027Z" fill="#1DA1F2"/>
<path d="M186.695 147.504V160.9C186.633 161.595 186.445 162.274 186.141 162.903C186.063 163.066 185.976 163.224 185.879 163.377L182.268 160.061L162.097 141.518L162.093 141.514L144.242 125.101L156.66 115.506L170.953 130.734L186.695 147.504Z" fill="#ABABAB"/>
<path d="M146.503 87.2298C152.953 80.7981 152.953 70.3703 146.503 63.9387C140.054 57.507 129.597 57.507 123.147 63.9387C116.697 70.3703 116.697 80.7981 123.147 87.2298C129.597 93.6614 140.054 93.6614 146.503 87.2298Z" fill="#ABABAB"/>
<path d="M146.059 166.419H101.242L101.314 166.187C103.461 159.27 104.582 148.184 104.646 133.236C104.666 128.814 104.591 124.061 104.424 119.11C104.129 110.074 103.582 101.931 103.175 96.6907C103.107 95.8111 103.22 94.9269 103.505 94.0917C103.79 93.2566 104.242 92.4878 104.834 91.8321C105.426 91.1763 106.145 90.6472 106.948 90.2768C107.751 89.9064 108.621 89.7024 109.505 89.6771C112.659 89.601 115.787 90.2696 118.632 91.6282C122.744 93.5998 127.077 95.0741 131.54 96.0197C139.88 97.731 147.695 101.384 154.35 106.68L154.853 107.084C162.452 113.181 168.13 121.331 171.209 130.56L171.239 130.649L163.079 141.392C162.968 141.538 162.815 141.646 162.641 141.702C162.467 141.758 162.28 141.76 162.104 141.707L161.995 141.671L153.986 139.213C148.015 151.245 152.87 158.241 153.907 159.525C153.979 159.616 154.022 159.662 154.025 159.665L154.133 159.782L154.029 159.903C151.771 162.496 149.09 164.691 146.1 166.395L146.059 166.419Z" fill="#1DA1F2"/>
<path d="M186.695 160.782V160.9C186.633 161.595 186.445 162.274 186.141 162.903C186.063 163.066 185.976 163.224 185.879 163.377C185.356 164.25 184.614 164.973 183.727 165.474C182.84 165.976 181.838 166.24 180.818 166.24H118.648L151.877 159.783C151.877 159.783 152.565 159.719 153.771 159.637C158.499 159.301 171.25 158.626 182.267 160.061C183.785 160.261 185.271 160.497 186.695 160.782Z" fill="#2F2E41"/>
<path d="M109.738 120.2L108.013 134.746L104.272 166.24H92.1875L93.8842 128.057L94.3782 116.916L104.605 119.104L109.738 120.2Z" fill="#ABABAB"/>
<path d="M122.212 141.675L89.7327 125.319C89.3787 125.141 89.1031 124.84 88.9585 124.471C88.8139 124.103 88.8107 123.695 88.9493 123.325L100.184 93.2511C100.705 91.8544 102.067 90.6497 104.017 89.8586C106.63 88.7992 109.803 88.6952 111.734 89.605L111.871 89.6698L111.126 92.2705L122.212 141.675Z" fill="#1DA1F2"/>
</g>
<defs>
<clipPath id="clip0_6991_6547">
<rect width="252" height="266" fill="white"/>
</clipPath>
</defs>
</svg>
