<svg width="148" height="104" viewBox="0 0 148 104" fill="none" xmlns="http://www.w3.org/2000/svg">
<g clip-path="url(#clip0_4047_41527)">
<path d="M75.2468 103.61C79.6782 103.61 83.2705 100.018 83.2705 95.5862C83.2705 91.1548 79.6782 87.5625 75.2468 87.5625C70.8155 87.5625 67.2231 91.1548 67.2231 95.5862C67.2231 100.018 70.8155 103.61 75.2468 103.61Z" fill="#6C63FF"/>
<path d="M123.181 103.159C127.669 101.811 132.442 100.405 136.001 97.2003C139.183 94.3365 141.33 89.9634 140.012 85.6686C138.697 81.3826 134.758 78.5247 130.691 77.1033C128.384 76.2971 125.971 75.8498 123.558 75.4985C120.936 75.1166 118.302 74.8036 115.669 74.5025C105.008 73.2832 94.3073 72.5383 83.5664 72.2679C78.2665 72.1344 72.9676 72.1376 67.6669 72.2146C62.9331 72.2833 57.9474 72.2816 53.5559 70.2696C50.1409 68.705 47.0414 65.8586 46.0898 62.118C44.9914 57.8001 47.0174 53.4029 49.9237 50.2758C51.4557 48.6274 53.2461 47.2401 55.0931 45.9644C57.0968 44.5804 59.1704 43.2945 61.2889 42.0942C65.4614 39.7311 69.8236 37.7201 74.3303 36.0819C76.5534 35.2735 78.8097 34.5761 81.0854 33.9327C83.0071 33.3894 84.9348 32.8454 86.792 32.1051C90.3823 30.6742 93.7972 28.2503 94.7101 24.2766C95.5753 20.5104 94.1165 16.422 91.559 13.6242C88.6002 10.3874 84.139 8.96842 79.8619 8.73884C75.0602 8.48109 70.3691 9.68284 65.8559 11.208C61.0423 12.8347 56.3324 14.7051 51.4171 16.0228C46.5429 17.3281 41.5744 18.2517 36.5566 18.7851C34.1003 19.0467 31.5697 19.342 29.0988 19.1418C27.0279 18.9739 24.9676 18.3649 23.4414 16.8952C22.1327 15.635 21.3532 13.9031 21.6212 12.0753C21.6699 11.7434 22.1741 11.8845 22.1258 12.2145C21.7995 14.4393 23.3119 16.4894 25.1755 17.5396C27.3293 18.7533 29.9503 18.755 32.3483 18.6162C37.5478 18.3021 42.7121 17.5556 47.7876 16.3843C52.7749 15.2452 57.5841 13.6167 62.3879 11.8772C66.9502 10.2251 71.6145 8.61267 76.4886 8.25483C80.7178 7.94434 85.1667 8.56047 88.851 10.7706C92.0891 12.713 94.4702 15.9524 95.2289 19.6696C95.9703 23.302 94.9435 26.958 92.1939 29.4928C89.347 32.1173 85.4434 33.2394 81.8056 34.2728C77.1916 35.5835 72.6765 37.1156 68.3062 39.105C63.8763 41.1157 59.6279 43.5042 55.6078 46.244C51.7275 48.8957 47.898 52.2322 46.6708 56.9628C46.0991 59.1663 46.2047 61.5035 47.1612 63.5848C48.0117 65.4355 49.4125 66.9922 51.0442 68.1929C54.9376 71.0578 59.8446 71.646 64.5474 71.7045C69.8293 71.7703 75.1114 71.592 80.395 71.6787C91.1629 71.8555 101.909 72.5109 112.632 73.645C115.32 73.9294 118.003 74.2438 120.684 74.5881C123.095 74.8979 125.513 75.2057 127.884 75.7559C132.098 76.7341 136.199 78.615 138.819 82.1884C139.982 83.7373 140.702 85.5728 140.903 87.499C141.086 89.5091 140.594 91.5229 139.685 93.3111C137.674 97.2689 133.906 99.7863 129.905 101.44C127.761 102.326 125.538 102.997 123.32 103.663C122.996 103.761 122.858 103.256 123.181 103.159L123.181 103.159Z" fill="#F2F2F2"/>
<path d="M21.9592 16.3081C24.2712 16.3081 26.1455 14.4338 26.1455 12.1218C26.1455 9.8098 24.2712 7.93555 21.9592 7.93555C19.6472 7.93555 17.7729 9.8098 17.7729 12.1218C17.7729 14.4338 19.6472 16.3081 21.9592 16.3081Z" fill="#F2F2F2"/>
<path d="M51.0014 24.2456C53.3135 24.2456 55.1877 22.3713 55.1877 20.0593C55.1877 17.7473 53.3135 15.873 51.0014 15.873C48.6894 15.873 46.8152 17.7473 46.8152 20.0593C46.8152 22.3713 48.6894 24.2456 51.0014 24.2456Z" fill="#F2F2F2"/>
<path d="M75.5957 8.37252C77.9077 8.37252 79.7819 6.49827 79.7819 4.18626C79.7819 1.87425 77.9077 0 75.5957 0C73.2837 0 71.4094 1.87425 71.4094 4.18626C71.4094 6.49827 73.2837 8.37252 75.5957 8.37252Z" fill="#F2F2F2"/>
<path d="M90.9453 26.1635C93.2573 26.1635 95.1316 24.2893 95.1316 21.9773C95.1316 19.6653 93.2573 17.791 90.9453 17.791C88.6333 17.791 86.759 19.6653 86.759 21.9773C86.759 24.2893 88.6333 26.1635 90.9453 26.1635Z" fill="#F2F2F2"/>
<path d="M70.1885 46.7475C72.5005 46.7475 74.3747 44.8733 74.3747 42.5613C74.3747 40.2493 72.5005 38.375 70.1885 38.375C67.8765 38.375 66.0022 40.2493 66.0022 42.5613C66.0022 44.8733 67.8765 46.7475 70.1885 46.7475Z" fill="#F2F2F2"/>
<path d="M43.8498 56.6889C46.1618 56.6889 48.0361 54.8147 48.0361 52.5027C48.0361 50.1907 46.1618 48.3164 43.8498 48.3164C41.5378 48.3164 39.6636 50.1907 39.6636 52.5027C39.6636 54.8147 41.5378 56.6889 43.8498 56.6889Z" fill="#F2F2F2"/>
<path d="M71.7583 72.2124C74.0703 72.2124 75.9445 70.3381 75.9445 68.0261C75.9445 65.7141 74.0703 63.8398 71.7583 63.8398C69.4463 63.8398 67.572 65.7141 67.572 68.0261C67.572 70.3381 69.4463 72.2124 71.7583 72.2124Z" fill="#F2F2F2"/>
<path d="M101.76 80.935C104.072 80.935 105.946 79.0608 105.946 76.7488C105.946 74.4368 104.072 72.5625 101.76 72.5625C99.4477 72.5625 97.5735 74.4368 97.5735 76.7488C97.5735 79.0608 99.4477 80.935 101.76 80.935Z" fill="#F2F2F2"/>
<path d="M136.82 79.0151C139.132 79.0151 141.006 77.1408 141.006 74.8288C141.006 72.5168 139.132 70.6426 136.82 70.6426C134.508 70.6426 132.634 72.5168 132.634 74.8288C132.634 77.1408 134.508 79.0151 136.82 79.0151Z" fill="#F2F2F2"/>
<path d="M74.3873 11.8619C61.8474 11.9505 51.5799 22.1409 51.4017 34.6799C51.4001 34.7957 51.3993 35.6097 51.3994 36.6744C51.3995 38.2354 52.0196 39.7325 53.1234 40.8363C54.2272 41.9402 55.7242 42.5604 57.2853 42.5606H57.2853C58.0591 42.5604 58.8253 42.4078 59.5401 42.1114C60.255 41.815 60.9044 41.3806 61.4512 40.8331C61.9981 40.2857 62.4318 39.6358 62.7274 38.9207C63.023 38.2055 63.1748 37.4392 63.1742 36.6653C63.1736 35.9411 63.1732 35.4398 63.1732 35.4091C63.1728 33.4712 63.6769 31.5666 64.6358 29.8826C65.5948 28.1986 66.9756 26.7932 68.6424 25.8048C70.3092 24.8163 72.2047 24.2787 74.1422 24.245C76.0798 24.2112 77.9928 24.6825 79.6931 25.6123C81.3933 26.5421 82.8222 27.8986 83.8392 29.5481C84.8562 31.1977 85.4263 33.0836 85.4934 35.0203C85.5604 36.9571 85.1222 38.8779 84.2218 40.5939C83.3213 42.3098 81.9897 43.7619 80.3578 44.8071L80.3599 44.8096C80.3599 44.8096 71.9824 50.2028 69.4284 57.6013L69.4305 57.6018C68.9814 59.1175 68.7539 60.6901 68.7549 62.2709C68.7549 62.9207 68.7931 68.6063 68.867 73.221C68.8928 74.8133 69.5435 76.3316 70.6788 77.4483C71.8141 78.5651 73.3429 79.1907 74.9353 79.1904H74.9353C75.7355 79.1903 76.5278 79.0321 77.2666 78.7247C78.0053 78.4173 78.676 77.9669 79.2401 77.3993C79.8041 76.8318 80.2504 76.1583 80.5532 75.4176C80.8559 74.6769 81.0093 73.8837 81.0043 73.0836C80.9787 68.8573 80.9648 63.9363 80.9648 63.5791C80.9648 59.0362 85.3473 54.5098 88.9473 51.558C93.0927 48.1589 96.0757 43.5269 97.2739 38.3017C97.539 37.2259 97.6852 36.1243 97.7099 35.0166C97.7099 31.9617 97.1054 28.937 95.9312 26.1168C94.7571 23.2966 93.0365 20.7366 90.8686 18.5843C88.7007 16.432 86.1283 14.73 83.2997 13.5762C80.4711 12.4225 77.4421 11.8399 74.3873 11.8619Z" fill="#6C63FF"/>
<path opacity="0.1" d="M147.127 103.829H0.207576C0.152598 103.829 0.099927 103.807 0.0611078 103.768C0.0222887 103.729 0.000488281 103.677 0.000488281 103.622C0.000488281 103.567 0.0222887 103.514 0.0611078 103.475C0.099927 103.436 0.152598 103.414 0.207576 103.414H147.127C147.182 103.414 147.235 103.436 147.274 103.475C147.313 103.514 147.335 103.567 147.335 103.622C147.335 103.677 147.313 103.73 147.274 103.769C147.235 103.808 147.182 103.829 147.127 103.829Z" fill="#3F3D56"/>
<path d="M109.619 47.618C112.509 47.618 114.852 45.2752 114.852 42.3852C114.852 39.4952 112.509 37.1523 109.619 37.1523C106.729 37.1523 104.386 39.4952 104.386 42.3852C104.386 45.2752 106.729 47.618 109.619 47.618Z" fill="#2F2E41"/>
<path d="M99.949 101.539H97.8107L96.7932 93.291H99.9495L99.949 101.539Z" fill="#A0616A"/>
<path d="M96.2832 100.928H100.407V103.524H93.6865C93.6865 103.183 93.7537 102.846 93.8842 102.531C94.0147 102.216 94.2059 101.929 94.4471 101.688C94.6882 101.447 94.9744 101.256 95.2895 101.125C95.6045 100.995 95.9422 100.928 96.2832 100.928Z" fill="#2F2E41"/>
<path d="M116.52 101.539H114.381L113.364 93.291H116.52L116.52 101.539Z" fill="#A0616A"/>
<path d="M112.854 100.928H116.978V103.524H110.257C110.257 103.183 110.324 102.846 110.455 102.531C110.585 102.216 110.777 101.929 111.018 101.688C111.259 101.447 111.545 101.256 111.86 101.125C112.175 100.995 112.513 100.928 112.854 100.928Z" fill="#2F2E41"/>
<path d="M108.824 47.6483C111.19 47.6483 113.108 45.7303 113.108 43.3642C113.108 40.9981 111.19 39.0801 108.824 39.0801C106.458 39.0801 104.54 40.9981 104.54 43.3642C104.54 45.7303 106.458 47.6483 108.824 47.6483Z" fill="#A0616A"/>
<path d="M111.377 61.4698L113.294 57.0655C113.759 56.0323 113.893 54.88 113.676 53.7678C113.459 52.6555 112.902 51.6381 112.082 50.8559C111.913 50.6894 111.734 50.5338 111.546 50.3901C110.6 49.6502 109.435 49.2469 108.234 49.2441C107.426 49.2473 106.629 49.4246 105.896 49.7639C105.834 49.7918 105.773 49.8215 105.71 49.8512C105.589 49.9087 105.471 49.9715 105.356 50.036C104.605 50.4672 103.966 51.0688 103.49 51.7923C103.014 52.5159 102.715 53.3411 102.617 54.2014L101.771 61.2901C101.558 61.8465 93.9673 81.9406 96.6222 97.2815C96.6504 97.4453 96.7303 97.5958 96.8502 97.711C96.9701 97.8262 97.1236 97.9 97.2885 97.9216L99.9799 98.2879C100.176 98.3148 100.376 98.2662 100.538 98.152C100.7 98.0377 100.813 97.8663 100.854 97.6722L105.37 76.1461C105.398 76.0124 105.47 75.8919 105.575 75.804C105.679 75.7161 105.81 75.6658 105.947 75.6612C106.084 75.6566 106.218 75.6979 106.328 75.7785C106.439 75.8591 106.519 75.9744 106.556 76.106L112.936 98.7432C112.982 98.9077 113.08 99.0527 113.216 99.156C113.352 99.2594 113.517 99.3153 113.688 99.3153C113.739 99.315 113.79 99.3103 113.84 99.3014L117.128 98.6682C117.319 98.6325 117.49 98.5266 117.607 98.3714C117.724 98.2162 117.779 98.0228 117.761 97.8292C117.278 92.4411 114.71 65.452 111.377 61.4698Z" fill="#2F2E41"/>
<path d="M92.1744 46.9298C92.1447 47.1845 92.1712 47.4426 92.252 47.6859C92.3328 47.9293 92.466 48.152 92.6422 48.3383C92.8184 48.5246 93.0332 48.67 93.2717 48.7643C93.5102 48.8586 93.7664 48.8994 94.0224 48.8839L96.4171 54.6387L98.2285 51.9535L95.6767 46.9004C95.6223 46.4721 95.4126 46.0787 95.0874 45.7947C94.7623 45.5107 94.3442 45.3558 93.9125 45.3594C93.4808 45.3631 93.0654 45.5249 92.7451 45.8143C92.4248 46.1038 92.2217 46.5006 92.1744 46.9298L92.1744 46.9298Z" fill="#A0616A"/>
<path d="M108.586 67.2631C108.841 67.2327 109.085 67.1468 109.303 67.0115C109.521 66.8762 109.707 66.6948 109.847 66.48C109.987 66.2653 110.078 66.0224 110.114 65.7686C110.15 65.5147 110.13 65.256 110.056 65.0107L115.094 61.341L112.061 60.2051L107.741 63.864C107.338 64.0168 107.004 64.3124 106.803 64.6947C106.603 65.0771 106.55 65.5197 106.654 65.9387C106.758 66.3577 107.012 66.7239 107.368 66.968C107.724 67.2121 108.158 67.3171 108.586 67.2631Z" fill="#A0616A"/>
<path d="M100.372 58.4759C100.179 58.4757 99.9866 58.4568 99.7972 58.4192C99.3389 58.332 98.9091 58.1334 98.5457 57.8409C98.1822 57.5484 97.8963 57.1709 97.7132 56.7419L94.3582 52.651C94.2873 52.5645 94.2356 52.4639 94.2068 52.3558C94.1779 52.2477 94.1725 52.1348 94.1908 52.0244C94.2092 51.9141 94.2509 51.8089 94.3132 51.716C94.3755 51.6231 94.4569 51.5446 94.552 51.4857L96.9389 50.0082C97.027 49.9536 97.1251 49.9171 97.2274 49.9006C97.3298 49.8841 97.4343 49.8881 97.5351 49.9123C97.6359 49.9364 97.7309 49.9803 97.8147 50.0414C97.8984 50.1025 97.9692 50.1795 98.023 50.2681L100.388 54.1638L104.916 50.8171C105.277 50.6281 105.693 50.5751 106.09 50.6678C106.486 50.7605 106.836 50.9927 107.075 51.322C107.314 51.6513 107.427 52.0558 107.393 52.4614C107.359 52.8671 107.18 53.2469 106.889 53.5315L102.369 57.6544C101.838 58.1808 101.12 58.4761 100.372 58.4759Z" fill="#2F2E41"/>
<path d="M112.609 64.6286C112.603 64.6286 112.596 64.6286 112.59 64.6284C112.48 64.6257 112.372 64.6 112.272 64.5528C112.173 64.5056 112.085 64.438 112.013 64.3545L109.891 61.8788C109.818 61.7945 109.765 61.6958 109.733 61.5892C109.702 61.4827 109.694 61.3707 109.709 61.2607C109.724 61.1507 109.763 61.0451 109.822 60.9511C109.881 60.857 109.959 60.7765 110.051 60.7149L114.025 58.0657L110.425 53.7378C110.216 53.3886 110.139 52.9758 110.209 52.5748C110.278 52.1737 110.49 51.8111 110.805 51.5533C111.12 51.2955 111.518 51.1596 111.925 51.1705C112.332 51.1815 112.721 51.3384 113.022 51.6128L117.397 55.8885C117.741 56.203 118.004 56.5965 118.163 57.035C118.322 57.4735 118.372 57.944 118.309 58.4062C118.246 58.8683 118.072 59.3082 117.801 59.6882C117.531 60.0681 117.172 60.3768 116.756 60.5876L113.18 64.3821C113.107 64.4599 113.018 64.5219 112.92 64.5642C112.822 64.6066 112.716 64.6285 112.609 64.6286Z" fill="#2F2E41"/>
<path d="M107.734 55.5044C107.7 55.5044 107.666 55.5022 107.632 55.4979C107.485 55.48 107.345 55.42 107.23 55.3251C107.116 55.2302 107.031 55.1044 106.985 54.9626L105.391 50.0736C105.351 49.9499 105.357 49.816 105.408 49.6966C105.459 49.5772 105.552 49.4803 105.669 49.4239L105.72 49.3994C105.767 49.3771 105.814 49.3551 105.861 49.3339C106.605 48.9891 107.414 48.8092 108.234 48.8066C109.298 48.8086 110.338 49.1212 111.227 49.7061C111.347 49.7854 111.43 49.9084 111.459 50.0485C111.489 50.1886 111.462 50.3346 111.385 50.4552L108.393 55.1417C108.323 55.2529 108.226 55.3446 108.111 55.408C107.995 55.4715 107.866 55.5046 107.734 55.5044Z" fill="#E6E6E6"/>
<path d="M113.744 40.0496C114.69 40.0496 115.457 39.283 115.457 38.3373C115.457 37.3916 114.69 36.625 113.744 36.625C112.799 36.625 112.032 37.3916 112.032 38.3373C112.032 39.283 112.799 40.0496 113.744 40.0496Z" fill="#2F2E41"/>
<path d="M107.874 36.4551C106.672 36.4551 105.518 36.9329 104.668 37.7834C103.817 38.6339 103.339 39.7874 103.339 40.9902V42.9089H105.699L106.828 40.9902L107.167 42.9089H114.328L112.41 40.9902C112.41 39.7874 111.932 38.6339 111.081 37.7834C110.231 36.9329 109.077 36.4551 107.874 36.4551Z" fill="#2F2E41"/>
<path d="M114.625 37.1638C114.814 36.5717 115.206 36.0653 115.732 35.7337C116.257 35.402 116.883 35.2664 117.499 35.3505C118.59 35.5329 119.453 36.4101 119.967 37.3897C120.481 38.3694 120.719 39.4659 121.064 40.5169C121.41 41.5679 121.9 42.6246 122.772 43.3049C123.645 43.9853 124.984 44.1698 125.841 43.4699C125.743 44.1993 125.418 44.8795 124.912 45.4142C124.407 45.9489 123.746 46.3111 123.023 46.4496C122.3 46.5881 121.552 46.4959 120.885 46.1859C120.217 45.876 119.664 45.3641 119.304 44.7225C118.851 43.9181 118.735 42.9753 118.601 42.0624C118.467 41.1494 118.292 40.2047 117.753 39.4563C117.213 38.7079 116.202 38.2191 115.345 38.56L114.625 37.1638Z" fill="#2F2E41"/>
<path d="M58.9471 39.7757C57.386 39.7755 55.889 39.1553 54.7852 38.0515C53.6814 36.9476 53.0613 35.4505 53.0612 33.8895C53.0611 32.8248 53.0619 32.0108 53.0635 31.895C53.1131 28.2484 54.0315 24.6661 55.7425 21.4453C52.9313 25.2937 51.3856 29.9206 51.3192 34.6859C51.3176 34.8017 51.3168 35.6157 51.3169 36.6803C51.317 38.2414 51.9371 39.7385 53.0409 40.8423C54.1447 41.9462 55.6418 42.5664 57.2028 42.5666C58.4856 42.5661 59.7331 42.1469 60.7559 41.3727C61.7787 40.5986 62.5208 39.5117 62.8696 38.2773C61.7918 39.2437 60.3947 39.7775 58.9471 39.7757Z" fill="#3F3D56"/>
<path d="M74.7864 24.2646C76.591 24.3508 78.3478 24.8737 79.9059 25.7884C81.4639 26.7031 82.7767 27.9823 83.7315 29.5161C84.6863 31.0499 85.2546 32.7925 85.3875 34.5944C85.5205 36.3962 85.2142 38.2033 84.4949 39.8607C85.5353 38.6388 86.3 37.2069 86.7369 35.6626C87.1738 34.1183 87.2726 32.498 87.0265 30.9121C86.7804 29.3262 86.1952 27.812 85.3109 26.4728C84.4266 25.1335 83.2639 24.0007 81.902 23.1515C80.5402 22.3024 79.0113 21.7568 77.4195 21.5521C75.8278 21.3474 74.2106 21.4883 72.6782 21.9653C71.1458 22.4422 69.7343 23.244 68.5399 24.3159C67.3455 25.3878 66.3962 26.7046 65.7568 28.1766C66.8619 26.8767 68.2507 25.8479 69.8163 25.1696C71.3818 24.4914 73.0822 24.1817 74.7864 24.2646Z" fill="#3F3D56"/>
<path d="M76.5971 76.406C75.0046 76.4064 73.4758 75.7807 72.3406 74.6639C71.2053 73.5472 70.5546 72.0289 70.5287 70.4367C70.4549 65.822 70.4166 60.1363 70.4166 59.4865C70.4156 57.9057 70.6432 56.3331 71.0923 54.8175L71.0902 54.8169C71.3554 54.0562 71.6757 53.3158 72.0485 52.6016C70.904 54.1268 69.9931 55.8141 69.3459 57.6078L69.348 57.6083C68.8989 59.124 68.6713 60.6966 68.6724 62.2774C68.6724 62.9272 68.7106 68.6128 68.7845 73.2275C68.8103 74.8198 69.461 76.338 70.5963 77.4548C71.7316 78.5715 73.2603 79.1972 74.8528 79.1968C76.1658 79.1966 77.4433 78.7707 78.4938 77.9829C79.5442 77.1952 80.311 76.0881 80.679 74.8277C79.5632 75.8451 78.1071 76.4081 76.5971 76.406Z" fill="#3F3D56"/>
<path d="M22.0723 101.62L24.2106 101.619L25.228 93.3711L22.0718 93.3713L22.0723 101.62Z" fill="#FFB8B8"/>
<path d="M28.3347 103.604L21.6139 103.604L21.6138 101.007L25.7379 101.007C26.4266 101.007 27.0871 101.28 27.5741 101.767C28.0611 102.254 28.3347 102.915 28.3347 103.604L28.3347 103.604Z" fill="#2F2E41"/>
<path d="M14.3975 101.62L16.5358 101.619L17.5532 93.3711L14.397 93.3713L14.3975 101.62Z" fill="#FFB8B8"/>
<path d="M20.6599 103.604L13.9391 103.604L13.939 101.007L18.0631 101.007C18.7518 101.007 19.4123 101.28 19.8993 101.767C20.3863 102.254 20.6599 102.915 20.6599 103.604L20.6599 103.604Z" fill="#2F2E41"/>
<path d="M16.2662 99.0819L14.1774 98.9721C14.0697 98.9664 13.9642 98.9394 13.867 98.8927C13.7698 98.8459 13.6828 98.7804 13.6111 98.6998C13.5395 98.6192 13.4845 98.5252 13.4494 98.4232C13.4143 98.3212 13.3998 98.2133 13.4067 98.1057L15.9032 70.4648L27.3999 73.5671L28.5076 73.265L25.0437 97.7345C25.0142 97.9186 24.9228 98.0871 24.7846 98.2122C24.6464 98.3373 24.4697 98.4115 24.2836 98.4225L22.0319 98.5275C21.9193 98.5337 21.8066 98.5165 21.701 98.477C21.5954 98.4375 21.4991 98.3765 21.4183 98.2979C21.3375 98.2193 21.2738 98.1248 21.2314 98.0203C21.1889 97.9158 21.1686 97.8037 21.1717 97.691L21.5797 83.0048C21.5816 82.9369 21.558 82.8707 21.5136 82.8193C21.4691 82.768 21.407 82.7351 21.3395 82.7272C21.2721 82.7193 21.2041 82.737 21.149 82.7768C21.0939 82.8165 21.0557 82.8755 21.0419 82.942L17.1074 98.4333C17.0702 98.6171 16.9705 98.7824 16.8251 98.9009C16.6798 99.0194 16.4979 99.0838 16.3104 99.0832C16.2957 99.0832 16.281 99.0828 16.2662 99.0819Z" fill="#2F2E41"/>
<path d="M22.4562 47.8495C24.8223 47.8495 26.7404 45.9314 26.7404 43.5654C26.7404 41.1993 24.8223 39.2812 22.4562 39.2812C20.0902 39.2812 18.1721 41.1993 18.1721 43.5654C18.1721 45.9314 20.0902 47.8495 22.4562 47.8495Z" fill="#FFB8B8"/>
<path d="M15.3234 56.1508L15.7945 66.3143L15.9648 70.0119C15.9716 70.1729 16.0262 70.3282 16.1217 70.4579C16.2173 70.5876 16.3493 70.6859 16.501 70.7402L27.5486 74.7422C27.6378 74.7753 27.7324 74.7919 27.8276 74.7911C27.9364 74.7916 28.0442 74.7702 28.1445 74.7281C28.2449 74.6861 28.3358 74.6242 28.4117 74.5463C28.4876 74.4683 28.5471 74.3759 28.5865 74.2744C28.6259 74.173 28.6444 74.0647 28.641 73.9559L28.1881 55.6816C28.1584 54.1823 27.6065 52.7404 26.6275 51.6044C25.6486 50.4683 24.304 49.7095 22.8256 49.4585C22.7187 49.4422 22.61 49.4259 22.5013 49.4114C21.5845 49.2976 20.6539 49.3861 19.775 49.6706C18.8961 49.9551 18.0903 50.4288 17.4141 51.0582C16.7139 51.7022 16.1638 52.4921 15.8025 53.3721C15.4413 54.2521 15.2777 55.2007 15.3234 56.1508L15.3234 56.1508Z" fill="#CCCCCC"/>
<path d="M32.8259 72.7146C32.5646 72.6335 32.3259 72.4925 32.1288 72.3028C31.9317 72.113 31.7816 71.8798 31.6907 71.6218C31.5997 71.3638 31.5703 71.0881 31.6048 70.8167C31.6393 70.5453 31.7368 70.2857 31.8894 70.0587L28.1431 65.077L31.3759 64.877L34.4379 69.6383C34.7657 69.8917 34.9938 70.2525 35.0822 70.6573C35.1706 71.0621 35.1137 71.4851 34.9213 71.8521C34.729 72.2191 34.4136 72.5067 34.0305 72.6644C33.6473 72.8221 33.2208 72.8399 32.8259 72.7146H32.8259Z" fill="#FFB8B8"/>
<path d="M30.1918 69.1574C30.0925 69.1172 30.0023 69.0576 29.9262 68.9822C29.8501 68.9068 29.7897 68.817 29.7486 68.7181L24.1044 55.2708C23.9936 55.0075 23.9359 54.725 23.9344 54.4393C23.9329 54.1537 23.9876 53.8706 24.0956 53.6061C24.2036 53.3417 24.3626 53.1011 24.5636 52.8982C24.7646 52.6952 25.0036 52.5339 25.2669 52.4233C25.5303 52.3128 25.8129 52.2552 26.0985 52.2539C26.3841 52.2526 26.6672 52.3077 26.9316 52.4158C27.1959 52.524 27.4364 52.6832 27.6392 52.8843C27.842 53.0855 28.0032 53.3246 28.1135 53.5881L33.7577 67.0356C33.8411 67.235 33.842 67.4593 33.7602 67.6594C33.6785 67.8595 33.5207 68.0189 33.3215 68.1028L30.8158 69.1544C30.7171 69.1962 30.6112 69.218 30.5041 69.2185C30.397 69.219 30.2908 69.1983 30.1918 69.1575L30.1918 69.1574Z" fill="#CCCCCC"/>
<path d="M21.0786 68.6838L26.4997 58.3038C26.6043 58.1042 26.7837 57.9542 26.9987 57.8867C27.2137 57.8192 27.4467 57.8398 27.6466 57.9439L35.5153 62.0534C35.7149 62.158 35.8649 62.3374 35.9324 62.5524C35.9998 62.7674 35.9793 63.0004 35.8752 63.2003L30.4541 73.5802C30.3496 73.7799 30.1701 73.9299 29.9551 73.9973C29.7401 74.0648 29.5071 74.0443 29.3073 73.9402L21.4386 69.8306C21.2389 69.7261 21.0889 69.5466 21.0215 69.3316C20.954 69.1166 20.9746 68.8836 21.0786 68.6838Z" fill="#3F3D56"/>
<path d="M24.7143 63.9404C24.6179 63.6844 24.463 63.4544 24.262 63.2689C24.0609 63.0833 23.8193 62.9473 23.5564 62.8717C23.2934 62.7962 23.0165 62.7831 22.7476 62.8336C22.4787 62.884 22.2253 62.9967 22.0077 63.1625L16.8135 59.7168L16.8047 62.9559L21.7385 65.7313C22.0109 66.0436 22.3845 66.25 22.7938 66.3143C23.2031 66.3787 23.622 66.2968 23.977 66.0832C24.3321 65.8695 24.6005 65.5377 24.7353 65.1459C24.8701 64.7541 24.8627 64.3273 24.7143 63.9404Z" fill="#FFB8B8"/>
<path d="M18.1471 64.6697L13.9021 61.3072C13.4429 61.153 13.0279 60.8896 12.6929 60.5398C12.3578 60.1899 12.1127 59.764 11.9785 59.2985C11.8443 58.833 11.8251 58.342 11.9224 57.8674C12.0198 57.3929 12.2309 56.9491 12.5375 56.5741L16.3919 51.5227C16.6597 51.1954 17.0364 50.9754 17.4531 50.903C17.8697 50.8305 18.2986 50.9105 18.6612 51.1282C19.0238 51.3459 19.2959 51.6868 19.4279 52.0886C19.5598 52.4904 19.5427 52.9263 19.3797 53.3166L16.3301 58.3052L20.8118 60.4309C20.916 60.4804 21.0086 60.5513 21.0833 60.6392C21.1581 60.727 21.2133 60.8297 21.2455 60.9405C21.2776 61.0513 21.2858 61.1676 21.2696 61.2818C21.2535 61.396 21.2132 61.5055 21.1516 61.603L19.3425 64.4661C19.2813 64.5627 19.2006 64.6454 19.1054 64.7089C19.0103 64.7723 18.9029 64.815 18.7901 64.8343C18.7857 64.8351 18.7812 64.8358 18.7767 64.8365C18.6659 64.8532 18.5529 64.847 18.4446 64.8184C18.3363 64.7897 18.2351 64.7391 18.1471 64.6697Z" fill="#CCCCCC"/>
<path d="M19.219 46.4344C19.2007 46.3807 19.1948 46.3234 19.202 46.267C19.2092 46.2106 19.2291 46.1567 19.2604 46.1092C19.2916 46.0617 19.3334 46.0221 19.3823 45.9932C19.4313 45.9643 19.4862 45.9471 19.5428 45.9427C19.6589 45.949 19.7724 45.9788 19.8766 46.0302C19.9808 46.0816 20.0736 46.1536 20.1492 46.2419C20.3042 46.4206 20.4847 46.5756 20.6849 46.7018C20.8921 46.8063 21.1732 46.7914 21.2913 46.5923C21.4023 46.4052 21.3262 46.1548 21.2591 45.9375C21.0882 45.3848 20.9925 44.8116 20.9748 44.2334C20.9554 43.588 21.0465 42.9144 21.4038 42.411C21.865 41.7613 22.6896 41.5146 23.47 41.5325C24.2504 41.5504 25.0181 41.7913 25.7911 41.9436C26.058 41.9961 26.3717 42.023 26.5501 41.8162C26.7399 41.5963 26.6702 41.2403 26.5895 40.9434C26.38 40.1729 26.1578 39.3762 25.6711 38.7539C25.1449 38.1073 24.3931 37.6841 23.5674 37.5695C22.7746 37.4713 21.9698 37.5627 21.2192 37.8361C19.9962 38.2216 18.9201 38.9712 18.1348 39.9848C17.3252 41.0628 16.9754 42.4174 17.1618 43.7525C17.3439 44.9153 17.9601 45.9659 18.8862 46.6924L19.219 46.4344Z" fill="#2F2E41"/>
<path d="M73.4791 101.653C72.3392 101.157 71.3304 100.402 70.5322 99.4492C69.7339 98.4961 69.1681 97.3705 68.8793 96.1612C68.5906 94.952 68.5868 93.6922 68.8684 92.4813C69.1499 91.2704 69.709 90.1414 70.5015 89.1836C69.5826 89.8545 68.8169 90.7132 68.2552 91.7027C67.6936 92.6921 67.3488 93.7898 67.2437 94.9227C67.1387 96.0556 67.2758 97.1979 67.646 98.2737C68.0162 99.3496 68.6109 100.334 69.3908 101.163C70.1707 101.991 71.1179 102.644 72.1694 103.079C73.221 103.513 74.353 103.719 75.4901 103.682C76.6273 103.646 77.7437 103.368 78.7653 102.867C79.7868 102.366 80.6901 101.654 81.4153 100.777C80.2843 101.603 78.9564 102.119 77.564 102.273C76.1716 102.427 74.7632 102.213 73.4791 101.653Z" fill="#3F3D56"/>
</g>
<defs>
<clipPath id="clip0_4047_41527">
<rect width="147.335" height="103.83" fill="white"/>
</clipPath>
</defs>
</svg>
