<svg width="20" height="20" viewBox="0 0 20 20" fill="none" xmlns="http://www.w3.org/2000/svg">
<path d="M7.94667 10.8333L6.10747 10.8341C5.76407 11.8047 4.83823 12.5 3.75 12.5C2.36928 12.5 1.25 11.3807 1.25 10C1.25 8.61925 2.36928 7.5 3.75 7.5C4.83854 7.5 5.76459 8.19571 6.10777 9.16675L7.94667 9.16667L10.8334 4.16667L13.4755 4.16674C13.8188 3.19571 14.7448 2.5 15.8333 2.5C17.214 2.5 18.3333 3.61929 18.3333 5C18.3333 6.38071 17.214 7.5 15.8333 7.5C14.7451 7.5 13.8193 6.80468 13.4759 5.83408L11.795 5.83333L9.39002 9.99917L11.7958 14.1667L13.4755 14.1667C13.8188 13.1957 14.7448 12.5 15.8333 12.5C17.214 12.5 18.3333 13.6192 18.3333 15C18.3333 16.3807 17.214 17.5 15.8333 17.5C14.7451 17.5 13.8193 16.8047 13.4759 15.8341L10.8334 15.8333L7.94667 10.8333ZM15.8333 14.1667C15.3731 14.1667 15 14.5398 15 15C15 15.4602 15.3731 15.8333 15.8333 15.8333C16.2936 15.8333 16.6667 15.4602 16.6667 15C16.6667 14.5398 16.2936 14.1667 15.8333 14.1667ZM3.75 9.16667C3.28976 9.16667 2.91667 9.53975 2.91667 10C2.91667 10.4602 3.28976 10.8333 3.75 10.8333C4.21023 10.8333 4.58333 10.4602 4.58333 10C4.58333 9.53975 4.21023 9.16667 3.75 9.16667ZM15.8333 4.16667C15.3731 4.16667 15 4.53977 15 5C15 5.46023 15.3731 5.83333 15.8333 5.83333C16.2936 5.83333 16.6667 5.46023 16.6667 5C16.6667 4.53977 16.2936 4.16667 15.8333 4.16667Z" fill="#737373"/>
</svg>
