<svg width="25" height="24" viewBox="0 0 25 24" fill="none" xmlns="http://www.w3.org/2000/svg">
<path d="M6.32877 4.5332C5.72877 5.8772 5.96577 8.2852 6.06177 9.9692C5.41377 10.3282 4.58177 9.6982 4.11077 9.6982C3.62077 9.6982 3.03577 10.0202 2.94377 10.5002C2.87777 10.8462 3.03277 11.3502 4.14477 11.7892C4.57477 11.9592 5.59777 12.1592 5.83477 12.7172C6.16777 13.5012 4.12477 17.1202 0.91677 17.6482C0.795652 17.6682 0.686199 17.7323 0.60942 17.8281C0.532642 17.9239 0.493949 18.0446 0.50077 18.1672C0.55677 19.1422 2.74277 19.5242 3.71177 19.6742C3.81077 19.8082 3.89077 20.3742 4.01777 20.8052C4.07477 20.9982 4.22177 21.2292 4.59977 21.2292C5.09277 21.2292 5.91177 20.8492 7.33777 21.0852C8.73577 21.3182 10.0498 23.3002 12.5728 23.3002C14.9178 23.3002 16.3168 21.3092 17.6628 21.0852C18.4418 20.9562 19.1108 20.9972 19.8588 21.1432C20.3738 21.2442 20.8358 21.3002 20.9828 20.7942C21.1118 20.3572 21.1908 19.8022 21.2878 19.6712C22.2478 19.5222 24.4438 19.1412 24.4988 18.1662C24.5056 18.0436 24.4669 17.9229 24.3901 17.8271C24.3133 17.7313 24.2039 17.6672 24.0828 17.6472C20.9288 17.1272 18.8238 13.5192 19.1648 12.7162C19.4008 12.1592 20.4168 11.9612 20.8548 11.7882C21.6688 11.4672 22.0768 11.0722 22.0678 10.6152C22.0568 10.0302 21.3528 9.6812 20.8348 9.6812C20.3078 9.6812 19.5508 10.3052 18.9378 9.9672C19.0338 8.2692 19.2698 5.8722 18.6708 4.5292C17.5358 1.9862 15.0108 0.700195 12.4868 0.700195C9.97877 0.700195 7.47277 1.9682 6.32877 4.5332Z" fill="#525252"/>
</svg>
