<svg width="20" height="20" viewBox="0 0 20 20" fill="none" xmlns="http://www.w3.org/2000/svg">
<path d="M15.3023 12.9462L14.1237 11.7677L15.3023 10.5892C16.9294 8.962 16.9294 6.32381 15.3023 4.69662C13.675 3.06944 11.0369 3.06944 9.4097 4.69662L8.23118 5.87514L7.05267 4.69662L8.23118 3.51811C10.5093 1.24006 14.2027 1.24006 16.4808 3.51811C18.7588 5.79617 18.7588 9.48966 16.4808 11.7677L15.3023 12.9462ZM12.9452 15.3032L11.7667 16.4817C9.4887 18.7598 5.7952 18.7598 3.51714 16.4817C1.23908 14.2037 1.23908 10.5102 3.51714 8.23216L4.69565 7.05365L5.87415 8.23216L4.69565 9.41066C3.06846 11.0378 3.06846 13.6761 4.69565 15.3032C6.32283 16.9304 8.96103 16.9304 10.5882 15.3032L11.7667 14.1247L12.9452 15.3032ZM12.3559 6.46439L13.5344 7.64291L7.64192 13.5355L6.46341 12.3569L12.3559 6.46439Z" fill="#737373"/>
</svg>
