<svg width="250" height="185" viewBox="0 0 250 185" fill="none" xmlns="http://www.w3.org/2000/svg">
<g clip-path="url(#clip0_3971_37776)">
<path opacity="0.1" d="M2.69141 88.412C6.63906 103.669 14.9889 116.857 28.1841 123.25C55.6154 136.536 117.48 129.684 163.652 121.818C187.536 117.75 208.529 106.523 223.778 90.7233L2.69141 88.412Z" fill="#1DA1F2"/>
<path opacity="0.1" d="M244.814 16.5974H219.48C218.278 16.5974 217.292 15.7065 217.292 14.6179C217.292 13.5293 218.278 12.6361 219.48 12.6361H223.862C222.657 12.6361 221.673 11.7452 221.673 10.6544C221.673 9.56346 222.657 8.67484 223.862 8.67484H220.735C219.53 8.67484 218.544 7.78395 218.544 6.69306C218.544 5.60217 219.53 4.71355 220.735 4.71355H233.957C231.023 3.47948 227.594 2.60223 223.641 2.14087C187.585 -2.04769 174.713 0.722715 170.172 3.57039C164.512 7.16407 158.225 9.65763 151.64 10.9203C129.395 15.0725 87.7939 20.0678 50.0877 9.32938C31.3472 3.98175 17.4179 13.0066 9.07031 28.0927H249.214C248.9 23.7087 247.961 19.6587 246.239 16.1156C245.831 16.4306 245.329 16.6002 244.814 16.5974Z" fill="#1DA1F2"/>
<path opacity="0.1" d="M0.541293 56.5671C-0.431767 65.4401 -0.100995 74.4077 1.52309 83.1848L223.946 90.5461C230.069 84.1959 235.271 77.0186 239.401 69.2237L0.541293 56.5671ZM88.5124 75.5554H84.1329C85.3375 75.5554 86.3238 76.4486 86.3238 77.5372C86.3238 78.6258 85.3375 79.5167 84.1329 79.5167H58.7993C57.5971 79.5167 56.6107 78.6258 56.6107 77.5372C56.6107 76.4486 57.5971 75.5554 58.7993 75.5554H63.1811C61.9765 75.5554 60.9925 74.6645 60.9925 73.5759C60.9925 72.4873 61.9765 71.5941 63.1811 71.5941H60.0516C58.847 71.5941 57.8607 70.7032 57.8607 69.6146C57.8607 68.526 58.847 67.6328 60.0516 67.6328H85.3852C86.5897 67.6328 87.5738 68.5237 87.5738 69.6146C87.5738 70.7055 86.5897 71.5941 85.3852 71.5941H88.5124C89.7169 71.5941 90.701 72.485 90.701 73.5759C90.701 74.6668 89.7169 75.5554 88.5124 75.5554Z" fill="#1DA1F2"/>
<path opacity="0.1" d="M249.222 28.229L6.39002 33.5698C3.43553 40.4402 1.47648 48.2082 0.574219 56.2581H244.967C246.558 51.5484 247.738 46.71 248.495 41.797C249.224 37.0675 249.515 32.4926 249.222 28.229ZM49.8779 45.7401H45.4984C46.7029 45.7401 47.6893 46.6332 47.6893 47.7219C47.6893 48.8105 46.7029 49.7036 45.4984 49.7036H20.1648C18.9625 49.7036 17.9762 48.8105 17.9762 47.7219C17.9762 46.6332 18.9625 45.7401 20.1648 45.7401H24.5465C23.342 45.7401 22.3579 44.8492 22.3579 43.7606C22.3579 42.672 23.342 41.7788 24.5465 41.7788H21.417C20.2125 41.7788 19.2261 40.8879 19.2261 39.7993C19.2261 38.7107 20.2125 37.8175 21.417 37.8175H46.7506C47.9552 37.8175 48.9392 38.7084 48.9392 39.7993C48.9392 40.8902 47.9552 41.7788 46.7506 41.7788H49.8779C51.0824 41.7788 52.0665 42.672 52.0665 43.7606C52.0665 44.8492 51.0824 45.7401 49.8779 45.7401Z" fill="#1DA1F2"/>
<path opacity="0.1" d="M123.881 177.515C179.985 177.515 225.466 173.331 225.466 168.17C225.466 163.008 179.985 158.824 123.881 158.824C67.7778 158.824 22.2969 163.008 22.2969 168.17C22.2969 173.331 67.7778 177.515 123.881 177.515Z" fill="#1DA1F2"/>
<path d="M227.413 90.9802C227.412 90.9643 227.412 90.9483 227.413 90.9324C227.413 90.9074 227.413 90.8847 227.413 90.862C227.368 90.6017 227.27 90.3534 227.125 90.1324C226.605 89.3 225.88 88.6146 225.02 88.1416C223.52 87.3189 221.459 86.9666 220.859 85.3962C220.675 84.9098 220.67 84.3803 220.579 83.8712C220.42 83.078 220.055 82.3406 219.521 81.7331C218.987 81.1255 218.303 80.6692 217.536 80.4099C216.823 80.1713 216.052 80.1054 215.359 79.8099C213.809 79.1508 212.991 77.5259 212.298 76.0236C211.401 74.0842 210.504 72.1441 209.607 70.2033C208.925 70.5464 208.043 70.3851 207.405 69.9555C206.789 69.4974 206.299 68.8917 205.98 68.1942C205.055 66.3988 204.657 64.3647 203.571 62.6557C202.484 60.9466 200.314 59.5966 198.396 60.3398C198.021 60.5269 197.634 60.6872 197.237 60.8193C195.593 61.2034 193.775 59.3262 192.369 60.2375C192.135 60.3874 191.944 60.5958 191.816 60.8421C191.815 60.8269 191.815 60.8117 191.816 60.7966C191.633 61.1663 191.531 61.5707 191.516 61.983C191.516 62.067 191.516 62.1489 191.516 62.2284C191.516 62.242 191.516 62.2557 191.516 62.2693C191.516 62.5966 191.537 62.9284 191.541 63.2602C191.546 63.5389 191.525 63.8174 191.478 64.092V64.0693C191.451 64.2238 191.412 64.3759 191.359 64.5238C190.994 65.5056 189.98 66.1488 189.505 67.0715V67.026C189.451 67.1264 189.405 67.2305 189.366 67.3374C189.282 67.5793 189.238 67.8335 189.237 68.0897C189.196 69.8237 191.034 71.4555 191.248 73.3168C191.4 74.635 191.703 75.0577 192.823 75.8032L193.069 75.9668C192.971 75.9668 192.871 75.9804 192.759 75.9827C192.716 75.9835 192.673 75.9881 192.63 75.9963C192.432 75.9419 192.225 75.932 192.023 75.9674C191.821 76.0028 191.629 76.0825 191.462 76.2009C190.603 76.8827 188.571 76.3577 187.669 76.2009C186.766 76.0441 183.676 76.4668 183.244 78.1804C182.812 79.894 182.071 83.4303 182.071 83.4303C182.071 83.4303 182.071 85.6734 181.796 86.0916C181.785 86.121 181.785 86.1531 181.796 86.1825C181.796 86.812 181.819 90.5961 181.21 91.5711C181.06 91.7983 181.071 92.3006 181.182 92.9188C180.541 93.7437 179.939 94.7074 180.046 95.3392C180.241 96.6323 182.864 100.698 186.623 98.5209C186.623 98.5209 188.762 94.6096 186.071 92.5301L186.187 92.0756C187 93.0756 187.603 93.7937 187.603 93.7937C187.603 93.7937 187.635 93.8778 187.685 94.021H187.603C187.954 94.9767 188.167 95.9777 188.235 96.9937C188.224 97.3662 188.157 97.7349 188.035 98.0868H188.105C188.085 98.1641 188.062 98.2414 188.035 98.3141C187.902 98.6979 187.656 99.0319 187.328 99.2709C185.448 100.603 183.296 110.114 183.296 110.114C183.296 110.114 179.032 125.489 178.18 126.364C177.476 127.082 181.903 129.104 185.225 128.864C185.689 128.836 186.148 128.749 186.589 128.604C186.61 128.832 186.632 129.059 186.655 129.266C186.725 129.948 186.798 130.579 186.844 130.777C186.962 131.273 187.196 136.332 187.196 136.332C187.196 136.332 186.716 139.618 186.832 141.904C186.832 142.061 186.853 142.211 186.866 142.359L186.453 142.422C185.825 143.831 188.41 155.588 188.762 156.577C188.995 157.356 189.127 158.162 189.153 158.974C189.153 158.974 188.925 159.811 189.114 160.268C189.232 160.547 189.308 160.841 189.341 161.143C189.341 161.143 189.187 161.902 189.421 162.397C189.655 162.892 189.382 163.761 189.382 163.761C189.382 163.761 189.305 167.186 188.6 169.049C188.409 169.551 188.353 170.094 188.439 170.624C188.524 171.154 188.749 171.652 189.089 172.067C189.138 172.132 189.191 172.194 189.248 172.251C189.248 172.251 193.134 172.283 193.819 172.251H193.907C194.182 172.213 194.887 169.131 194.259 167.647C193.632 166.163 194.182 164.336 194.182 164.336V161.636C194.182 161.636 194.887 160.986 194.182 159.59C193.478 158.195 193.594 157.772 193.594 157.772C193.594 157.772 194.378 155.527 193.555 154.804C192.732 154.081 193.712 151.34 193.712 151.34L193.989 142.204C193.844 142.157 193.696 142.119 193.546 142.091C193.53 141.941 193.514 141.786 193.498 141.622C193.337 139.968 193.198 137.718 193.557 137.077C193.916 136.436 194.089 130.841 194.146 126.952L197.728 127.089C197.803 128.907 197.882 130.566 197.932 130.777C198.05 131.273 198.287 136.332 198.287 136.332C198.287 136.332 197.805 139.618 197.921 141.904C197.921 142.061 197.941 142.211 197.955 142.359L197.541 142.422C196.914 143.831 199.498 155.588 199.85 156.577C200.084 157.356 200.216 158.162 200.243 158.974C200.243 158.974 200.016 159.811 200.203 160.268C200.32 160.547 200.397 160.841 200.43 161.143C200.43 161.143 200.275 161.902 200.509 162.397C200.743 162.892 200.471 163.761 200.471 163.761C200.471 163.761 200.393 167.186 199.689 169.049C199.5 169.551 199.447 170.095 199.536 170.624C199.624 171.153 199.851 171.649 200.193 172.063C200.242 172.128 200.296 172.189 200.352 172.247C200.352 172.247 204.239 172.279 204.923 172.247H205.011C205.286 172.208 205.991 169.126 205.364 167.642C204.737 166.158 205.286 164.331 205.286 164.331V161.636C205.286 161.636 205.991 160.986 205.286 159.59C204.582 158.195 204.698 157.772 204.698 157.772C204.698 157.772 205.482 155.527 204.659 154.804C203.837 154.081 204.816 151.34 204.816 151.34L205.098 142.204C204.949 142.156 204.797 142.118 204.643 142.091C204.627 141.941 204.612 141.786 204.596 141.622C204.434 139.968 204.296 137.718 204.655 137.077C204.943 136.552 205.109 133.17 205.184 129.868C205.184 129.641 205.184 129.414 205.202 129.186C206.848 129.118 208.487 128.934 210.107 128.636C210.107 128.636 208.191 121.861 208.777 120.759C209.03 120.284 208.666 117.755 208.168 115.03C208.862 115.592 209.725 115.904 210.618 115.916C211.475 117.564 214.082 121.355 215.55 121.939C217.273 122.62 215.979 116.575 215.159 115.7C214.771 115.222 214.444 114.698 214.186 114.139C214.209 114.112 214.234 114.089 214.257 114.064C214.28 114.039 214.298 107.632 213.905 107.748C213.511 107.864 213.043 106.796 213.043 106.796L211.83 96.1437L211.32 91.6847C211.745 91.9983 212.25 92.1983 212.684 92.5097C213.866 93.3756 214.252 94.896 214.77 96.2414C215.198 97.3482 215.798 98.4459 216.782 99.1414C217.766 99.8368 219.209 100.021 220.191 99.3164C221.1 98.655 221.368 97.4619 221.568 96.3732C223.218 96.9528 225.22 95.4028 225.007 93.7097C224.954 93.2915 224.8 92.8347 225.018 92.4688C225.454 91.7461 226.836 92.1665 227.291 91.4529C227.367 91.3294 227.407 91.1867 227.404 91.0415C227.411 91.0097 227.413 90.9961 227.413 90.9802ZM205.343 96.8391C205.318 97.246 205.877 100.514 206.332 103.1C205.959 101.489 205.212 99.7686 203.739 98.5891C203.739 98.5891 203.739 98.5073 203.721 98.3618H203.739C203.739 98.3618 203.677 97.7119 203.668 96.7869C203.671 95.9669 203.732 95.1482 203.85 94.3369V94.3165H203.821C203.821 94.2483 203.839 94.1778 203.85 94.1096C203.94 93.425 204.126 92.7564 204.402 92.1233C204.524 91.8752 204.665 91.6367 204.823 91.4097C205.066 93.6074 205.366 96.4278 205.343 96.8391ZM206.566 104.412C206.766 105.528 206.909 106.312 206.909 106.312L208.116 114.598V114.637C207.466 111.139 206.636 107.453 206.636 107.453C206.721 106.439 206.697 105.42 206.566 104.412Z" fill="url(#paint0_linear_3971_37776)"/>
<path d="M191.777 73.7714C191.55 71.6714 189.277 69.8601 189.959 67.8624C190.33 66.7738 191.489 66.1079 191.88 65.0261C192.139 64.3124 192.023 63.5284 192.025 62.7693C192.027 62.0102 192.205 61.1625 192.836 60.7421C194.2 59.833 195.954 61.7034 197.545 61.3216C197.93 61.19 198.304 61.0305 198.666 60.8443C200.523 60.1057 202.623 61.4511 203.666 63.1511C204.709 64.8511 205.1 66.8783 205.995 68.6646C206.301 69.3545 206.774 69.9568 207.372 70.4169C207.991 70.8441 208.836 71.0055 209.504 70.6646L212.106 76.46C212.788 77.9531 213.57 79.5713 215.061 80.2281C215.729 80.5212 216.475 80.5871 217.165 80.8258C217.916 81.0906 218.584 81.5481 219.103 82.1524C219.622 82.7566 219.972 83.4865 220.12 84.2689C220.209 84.778 220.211 85.3052 220.39 85.7893C220.97 87.3529 222.963 87.7029 224.415 88.5165C225.255 88.9903 225.96 89.6719 226.461 90.4961C226.688 90.8892 226.883 91.4051 226.64 91.7915C226.202 92.5006 224.868 92.0824 224.445 92.8028C224.231 93.1665 224.381 93.621 224.445 94.0392C224.652 95.7232 222.713 97.2664 221.118 96.6891C220.924 97.7732 220.663 98.9618 219.786 99.6186C218.843 100.323 217.445 100.137 216.493 99.4459C215.54 98.755 214.963 97.6618 214.55 96.5596C214.047 95.2187 213.672 93.7051 212.529 92.8437C212.116 92.5347 211.62 92.3347 211.216 92.0233C210.306 91.3279 209.852 90.1802 209.527 89.0688C209.107 87.6825 208.772 86.2575 208.163 84.9484C207.554 83.6394 206.591 82.4212 205.27 81.8235C204.032 81.2667 202.604 81.303 201.325 80.8508C199.123 80.0735 197.493 78.2213 195.302 77.3486C194.602 77.0542 193.938 76.6789 193.325 76.2304C192.223 75.5054 191.923 75.085 191.777 73.7714Z" fill="#3F3D56"/>
<g opacity="0.1">
<path d="M191.98 64.5807C192.027 64.4918 192.068 64.3999 192.103 64.3057C192.36 63.592 192.246 62.808 192.249 62.0489C192.249 61.7957 192.272 61.5431 192.319 61.2943C192.109 61.7434 192.007 62.2352 192.021 62.7307C192.019 63.342 192.092 63.9829 191.98 64.5807Z" fill="black"/>
<path d="M219.999 98.905C219.056 99.6073 217.658 99.4232 216.706 98.73C215.754 98.0368 215.174 96.9482 214.772 95.8414C214.27 94.5005 213.897 92.9869 212.752 92.1256C212.34 91.8165 211.843 91.6142 211.44 91.3052C210.531 90.6097 210.077 89.462 209.749 88.362C209.329 86.9757 208.997 85.5507 208.386 84.2416C207.774 82.9326 206.815 81.7144 205.493 81.1167C204.256 80.5599 202.829 80.5963 201.55 80.144C199.345 79.3667 197.716 77.5145 195.527 76.6418C194.826 76.3465 194.162 75.9713 193.547 75.5236C192.47 74.7805 192.184 74.36 192.025 73.0487C191.797 71.0805 189.797 69.3646 190.109 67.5101C190.058 67.6105 190.013 67.7137 189.975 67.8192C189.293 69.8192 191.566 71.6305 191.793 73.7282C191.941 75.0395 192.247 75.46 193.316 76.2032C193.93 76.6508 194.594 77.0261 195.295 77.3213C197.484 78.194 199.113 80.0485 201.318 80.8235C202.597 81.2781 204.024 81.2394 205.261 81.7962C206.584 82.394 207.534 83.6144 208.154 84.9212C208.774 86.228 209.106 87.6484 209.518 89.0416C209.852 90.1415 210.29 91.2892 211.208 91.9847C211.62 92.2938 212.118 92.496 212.52 92.8051C213.656 93.6665 214.038 95.1801 214.54 96.521C214.954 97.6232 215.533 98.7141 216.486 99.405C217.438 100.096 218.836 100.282 219.779 99.58C220.381 99.1255 220.688 98.4323 220.89 97.6891C220.71 98.1685 220.402 98.5891 219.999 98.905Z" fill="black"/>
<path d="M224.671 92.0892C224.584 92.2523 224.546 92.437 224.562 92.621C225.076 92.1142 226.235 92.412 226.639 91.7597C226.733 91.5985 226.77 91.4103 226.744 91.2256C226.217 91.7256 225.058 91.4279 224.671 92.0892Z" fill="black"/>
<path d="M221.332 95.9755C221.289 96.2028 221.246 96.446 221.191 96.6823C222.582 97.1164 224.189 96.0005 224.416 94.5915C223.864 95.6755 222.5 96.4005 221.332 95.9755Z" fill="black"/>
</g>
<path d="M194.714 74.8645C194.714 74.8645 195.47 76.3918 193.236 76.4236C191.002 76.4554 194.675 86.3416 194.675 86.3416L198.389 91.0688L203.009 88.5688L203.275 81.6735L203.616 77.5077C203.616 77.5077 199.298 76.1054 200.093 74.2509C200.889 72.3964 194.714 74.8645 194.714 74.8645Z" fill="#FBBEBE"/>
<path d="M208.125 115.173C208.125 115.173 210.852 117.857 214.034 114.296L211.591 111.702H208.5L208.125 115.173Z" fill="#575A89"/>
<path opacity="0.1" d="M208.418 111.702L208.043 115.173C208.043 115.173 210.77 117.857 213.952 114.296" fill="black"/>
<path d="M213.006 112.175C213.006 112.175 214.104 115.055 214.899 115.925C215.695 116.796 216.945 122.818 215.279 122.136C213.613 121.455 210.431 116.38 210.24 115.509C210.049 114.639 209.977 112.175 209.977 112.175H213.006Z" fill="#FBBEBE"/>
<path d="M189.184 126.948L203.879 127.516L202.174 121.302L194.772 121.152L189.184 126.948Z" fill="#575A89"/>
<path opacity="0.1" d="M191.227 126.948L205.924 127.516L204.22 121.302L196.815 121.152L191.227 126.948Z" fill="black"/>
<path d="M193.991 137.204C193.643 137.852 193.777 140.093 193.934 141.75C194.034 142.804 194.143 143.616 194.143 143.616C194.143 143.616 188.65 145.32 187.818 143.843C187.607 143.468 187.502 142.811 187.466 142.041C187.352 139.768 187.818 136.493 187.818 136.493C187.818 136.493 187.591 131.457 187.477 130.964C187.432 130.766 187.361 130.139 187.293 129.459C187.193 128.45 187.098 127.327 187.098 127.327L194.598 123.35C194.598 123.35 194.598 124.095 194.584 125.243C194.543 128.848 194.423 136.409 193.991 137.204Z" fill="#FBBEBE"/>
<path opacity="0.1" d="M194.146 143.616C194.146 143.616 188.653 145.32 187.821 143.843C187.61 143.468 187.505 142.811 187.469 142.041C188.605 141.868 192.064 141.391 193.937 141.75C194.037 142.804 194.146 143.616 194.146 143.616Z" fill="black"/>
<path d="M194.332 172.251H194.246C193.585 172.276 189.826 172.251 189.826 172.251C189.771 172.194 189.719 172.133 189.671 172.07C189.339 171.654 189.119 171.159 189.034 170.634C188.948 170.108 188.999 169.57 189.182 169.07C189.864 167.213 189.939 163.804 189.939 163.804C189.939 163.804 190.205 162.933 189.978 162.44C189.751 161.947 189.901 161.19 189.901 161.19C189.866 160.891 189.789 160.598 189.673 160.32C189.485 159.865 189.712 159.031 189.712 159.031C189.686 158.223 189.559 157.421 189.332 156.645C188.992 155.661 186.492 143.956 187.098 142.554C187.098 142.554 192.401 141.645 194.41 142.327L194.144 151.418C194.144 151.418 193.196 154.145 193.991 154.865C194.787 155.586 194.03 157.82 194.03 157.82C194.03 157.82 193.916 158.236 194.598 159.638C195.28 161.04 194.598 161.683 194.598 161.683V164.372C194.598 164.372 194.069 166.19 194.673 167.667C195.278 169.145 194.598 172.204 194.332 172.251Z" fill="#3F3D56"/>
<path d="M204.741 137.204C204.393 137.852 204.527 140.093 204.684 141.75C204.784 142.804 204.893 143.616 204.893 143.616C204.893 143.616 199.4 145.32 198.568 143.843C198.357 143.468 198.252 142.811 198.216 142.041C198.102 139.768 198.568 136.493 198.568 136.493C198.568 136.493 198.341 131.457 198.227 130.964C198.166 130.698 198.059 128.161 197.975 125.886C197.904 123.945 197.848 122.191 197.848 122.191L205.348 123.35C205.348 123.35 205.348 126.648 205.254 130.036C205.173 133.323 205.02 136.691 204.741 137.204Z" fill="#FBBEBE"/>
<path opacity="0.1" d="M204.892 143.616C204.892 143.616 199.399 145.32 198.567 143.843C198.356 143.468 198.251 142.811 198.215 142.041C199.351 141.868 202.81 141.391 204.683 141.75C204.783 142.804 204.892 143.616 204.892 143.616Z" fill="black"/>
<path d="M205.081 172.251H204.995C204.334 172.276 200.575 172.251 200.575 172.251C200.52 172.194 200.468 172.133 200.42 172.07C200.088 171.654 199.868 171.159 199.783 170.634C199.697 170.108 199.748 169.57 199.931 169.07C200.613 167.204 200.681 163.795 200.681 163.795C200.681 163.795 200.947 162.924 200.72 162.431C200.493 161.938 200.643 161.181 200.643 161.181C200.608 160.882 200.531 160.589 200.416 160.311C200.227 159.856 200.454 159.022 200.454 159.022C200.428 158.214 200.301 157.412 200.075 156.636C199.734 155.652 197.234 143.947 197.841 142.545C197.841 142.545 203.143 141.636 205.152 142.318L204.886 151.409C204.886 151.409 203.938 154.136 204.734 154.856C205.529 155.577 204.772 157.811 204.772 157.811C204.772 157.811 204.659 158.227 205.34 159.629C206.022 161.031 205.34 161.674 205.34 161.674V164.363C205.34 164.363 204.811 166.181 205.415 167.658C206.02 169.136 205.347 172.204 205.081 172.251Z" fill="#3F3D56"/>
<path opacity="0.1" d="M197.665 76.6509C200.615 76.6509 203.006 74.2597 203.006 71.31C203.006 68.3604 200.615 65.9692 197.665 65.9692C194.715 65.9692 192.324 68.3604 192.324 71.31C192.324 74.2597 194.715 76.6509 197.665 76.6509Z" fill="black"/>
<path d="M197.665 76.4236C200.615 76.4236 203.006 74.0324 203.006 71.0828C203.006 68.1331 200.615 65.742 197.665 65.742C194.715 65.742 192.324 68.1331 192.324 71.0828C192.324 74.0324 194.715 76.4236 197.665 76.4236Z" fill="#FBBEBE"/>
<path opacity="0.1" d="M187.098 127.327L194.598 123.35C194.598 123.35 194.598 124.095 194.584 125.243C193.488 125.898 191.836 126.882 190.248 127.811C189.384 128.318 188.541 128.809 187.818 129.22C187.65 129.312 187.474 129.388 187.293 129.448C187.193 128.45 187.098 127.327 187.098 127.327Z" fill="black"/>
<path opacity="0.1" d="M205.346 123.341C205.346 123.341 205.346 126.639 205.253 130.027H205.226C204.665 130.047 204.104 130.03 203.546 129.975C202.567 129.87 201.783 129.611 201.501 129.098C200.93 128.098 199.333 126.825 197.983 125.877C197.912 123.936 197.855 122.182 197.855 122.182L205.346 123.341Z" fill="black"/>
<path d="M203.951 94.4574C203.761 95.9367 203.724 97.4318 203.842 98.9186C207.287 101.76 206.644 107.743 206.644 107.743C206.644 107.743 209.296 119.866 208.728 120.964C208.16 122.061 210.014 128.804 210.014 128.804C208.434 129.104 206.833 129.288 205.226 129.354C204.665 129.374 204.104 129.357 203.546 129.302C202.567 129.198 201.783 128.939 201.501 128.425C200.442 126.57 195.858 123.805 195.858 123.805C195.858 123.805 192.953 125.545 190.249 127.129C189.385 127.636 188.542 128.127 187.819 128.539C187.233 128.85 186.585 129.027 185.922 129.059C182.706 129.298 178.422 127.284 179.104 126.57C179.938 125.698 184.067 110.396 184.067 110.396C184.067 110.396 186.149 100.925 187.967 99.6005C188.286 99.3597 188.524 99.0275 188.649 98.6482C189.272 96.9187 188.231 94.146 188.231 94.146C188.231 94.146 182.36 86.912 182.624 86.4939C182.888 86.0757 182.89 83.8439 182.89 83.8439C182.89 83.8439 183.61 80.3213 184.026 78.6167C184.442 76.9122 187.435 76.4941 188.306 76.6463C189.176 76.7986 191.144 77.3281 191.976 76.6463C192.808 75.9645 194.212 76.9122 194.212 76.9122L197.662 77.8622L200.765 76.0441C200.765 76.0441 203.874 76.2032 204.139 76.6191C204.405 77.035 208.496 77.8327 208.496 77.8327C210.578 79.2326 210.503 85.9007 210.503 85.9007C210.503 85.9007 205.503 90.2552 204.48 92.4915C204.215 93.1197 204.037 93.7811 203.951 94.4574Z" fill="#575A89"/>
<path d="M209.373 84.978L210.509 85.8871L211.684 96.4551L212.857 107.062C212.857 107.062 213.311 108.123 213.691 108.009C214.07 107.896 214.032 114.296 214.032 114.296C214.032 114.296 209.682 111.621 208.123 115.173L206.909 106.607C206.909 106.607 205.354 97.8573 205.393 97.1755C205.432 96.4937 204.598 89.1075 204.598 89.1075L209.373 84.978Z" fill="#575A89"/>
<path d="M183.463 85.4712L182.629 86.4939C182.629 86.4939 182.706 90.887 182.061 91.9483C181.415 93.0097 183.843 99.2209 184.752 98.8414C185.661 98.4618 187.706 88.7666 187.706 88.6529C187.706 88.5393 183.463 85.4712 183.463 85.4712Z" fill="#575A89"/>
<path d="M183.387 91.721C183.387 91.721 180.735 94.4096 180.924 95.6982C181.112 96.9869 183.651 101.035 187.287 98.8595C187.287 98.8595 190.66 92.5165 183.387 91.721Z" fill="#575A89"/>
<path opacity="0.1" d="M194.247 172.258C193.585 172.283 189.826 172.258 189.826 172.258C189.771 172.201 189.72 172.14 189.672 172.076C190.633 171.749 192.71 171.258 194.247 172.258Z" fill="black"/>
<path opacity="0.1" d="M204.997 172.258C204.335 172.283 200.576 172.258 200.576 172.258C200.521 172.201 200.47 172.14 200.422 172.076C201.379 171.749 203.456 171.258 204.997 172.258Z" fill="black"/>
<path opacity="0.1" d="M190.518 105.639C189.938 111.198 190.129 122.23 190.25 127.129C189.386 127.636 188.543 128.127 187.82 128.539C187.234 128.85 186.586 129.027 185.923 129.059C185.682 127.577 189.018 112.357 190.518 105.639Z" fill="black"/>
<path opacity="0.1" d="M191.225 102.484C191.209 102.564 190.934 103.773 190.516 105.639C190.679 104.046 190.907 102.903 191.225 102.484Z" fill="black"/>
<path opacity="0.1" d="M200.453 101.885C200.453 101.885 203.673 122.111 194.137 124.611C194.134 124.602 200.734 123.6 200.453 101.885Z" fill="black"/>
<path opacity="0.1" d="M205.225 129.354C204.664 129.374 204.103 129.357 203.545 129.302L200.973 101.646C202.614 102.719 204.577 122.345 205.225 129.354Z" fill="black"/>
<path opacity="0.1" d="M193.69 67.9419C193.861 67.9284 194.032 67.9461 194.197 67.9942C194.438 68.1144 194.655 68.2777 194.838 68.476C195.134 68.7237 195.488 68.8922 195.867 68.9657C196.247 69.0392 196.638 69.0154 197.006 68.8965C197.265 68.7806 197.54 68.704 197.822 68.6692C198.256 68.6692 198.631 68.9874 198.856 69.351C199.081 69.7146 199.197 70.1464 199.39 70.5351C199.583 70.9237 199.892 71.2919 200.317 71.3873C200.521 71.3952 200.721 71.4415 200.908 71.5237C201.022 71.6166 201.11 71.7381 201.162 71.8759C201.517 72.6418 201.799 73.5464 202.556 73.9214C202.834 74.0504 203.137 74.1163 203.444 74.1145C203.756 74.1374 204.069 74.0812 204.353 73.9509C204.633 73.7947 204.864 73.5642 205.022 73.285C205.494 72.5032 205.549 71.535 205.437 70.6282C205.299 69.4843 204.891 68.3894 204.249 67.4328C203.572 66.4654 202.65 65.695 201.578 65.2003C200.506 64.7056 199.322 64.5043 198.147 64.617C197.736 64.6631 197.33 64.7391 196.931 64.8443C195.485 65.2306 194.067 65.9533 193.19 67.1647C192.978 67.467 192.745 67.7541 192.492 68.0237C192.89 67.9851 193.29 67.951 193.69 67.9419Z" fill="black"/>
<path d="M193.69 67.7147C193.861 67.7011 194.032 67.7188 194.197 67.7669C194.438 67.8871 194.655 68.0504 194.838 68.2487C195.134 68.4964 195.488 68.6649 195.867 68.7384C196.247 68.812 196.638 68.7881 197.006 68.6692C197.265 68.5533 197.54 68.4768 197.822 68.4419C198.256 68.4419 198.631 68.7601 198.856 69.1237C199.081 69.4874 199.197 69.9192 199.39 70.3078C199.583 70.6964 199.892 71.0646 200.317 71.1601C200.521 71.168 200.721 71.2142 200.908 71.2964C201.022 71.3894 201.11 71.5109 201.162 71.6487C201.517 72.4146 201.799 73.3191 202.556 73.6941C202.834 73.8231 203.137 73.8891 203.444 73.8873C203.756 73.9102 204.069 73.8539 204.353 73.7236C204.633 73.5674 204.864 73.337 205.022 73.0577C205.494 72.2759 205.549 71.3078 205.437 70.401C205.299 69.257 204.891 68.1621 204.249 67.2056C203.572 66.2381 202.65 65.4677 201.578 64.973C200.506 64.4783 199.322 64.277 198.147 64.3897C197.736 64.4359 197.33 64.5118 196.931 64.617C195.485 65.0033 194.067 65.7261 193.19 66.9374C192.978 67.2398 192.745 67.5268 192.492 67.7965C192.89 67.7578 193.29 67.7238 193.69 67.7147Z" fill="#3F3D56"/>
<path opacity="0.1" d="M187.894 80.4326C187.894 80.4326 188.159 82.5553 187.25 83.0848C186.341 83.6144 187.894 80.4326 187.894 80.4326Z" fill="black"/>
<path opacity="0.1" d="M207.172 96.8732C207.172 96.8732 209.331 93.6915 209.635 94.6005C209.94 95.5096 207.172 96.8732 207.172 96.8732Z" fill="black"/>
<path opacity="0.1" d="M207.324 97.9323C207.324 97.9323 209.454 95.3187 209.658 96.3414C209.863 97.3641 207.324 97.9323 207.324 97.9323Z" fill="black"/>
<path opacity="0.1" d="M201.071 94.821C200.298 94.8319 199.545 94.5839 198.93 94.1165H198.743C198.106 94.699 197.268 95.0139 196.405 94.996C195.956 95.0064 195.509 94.9256 195.092 94.7584C194.676 94.5912 194.297 94.3411 193.98 94.0233H193.732C193.078 94.5562 192.256 94.8401 191.412 94.8247C190.568 94.8093 189.757 94.4956 189.123 93.9392L188.234 93.9233C188.234 93.9233 189.275 96.696 188.653 98.4255L203.841 98.6959C203.723 97.209 203.76 95.714 203.95 94.2346V94.2142L203.116 94.1983C202.516 94.6144 201.801 94.8322 201.071 94.821Z" fill="black"/>
<path opacity="0.1" d="M201.071 95.2755C200.298 95.2864 199.545 95.0384 198.93 94.571H198.743C198.106 95.1536 197.268 95.4685 196.405 95.4505C195.956 95.4609 195.509 95.3801 195.092 95.2129C194.676 95.0457 194.297 94.7956 193.98 94.4778H193.732C193.078 95.0107 192.256 95.2947 191.412 95.2793C190.568 95.2639 189.757 94.9501 189.123 94.3937L188.234 94.3778C188.234 94.3778 189.275 97.1505 188.653 98.88L203.841 99.1504C203.723 97.6636 203.76 96.1685 203.95 94.6892V94.6687L203.116 94.6528C202.516 95.0689 201.801 95.2867 201.071 95.2755Z" fill="black"/>
<path d="M201.071 95.0483C200.298 95.0592 199.545 94.8111 198.93 94.3437H198.743C198.106 94.9263 197.268 95.2412 196.405 95.2233C195.956 95.2337 195.509 95.1528 195.092 94.9856C194.676 94.8184 194.297 94.5683 193.98 94.2505H193.732C193.078 94.7834 192.256 95.0674 191.412 95.052C190.568 95.0366 189.757 94.7229 189.123 94.1665L188.234 94.1505C188.234 94.1505 189.275 96.9232 188.653 98.6527L203.841 98.9232C203.723 97.4363 203.76 95.9413 203.95 94.4619V94.4414L203.116 94.4255C202.516 94.8417 201.801 95.0594 201.071 95.0483Z" fill="#3F3D56"/>
<path opacity="0.1" d="M200.395 79.894C200.395 79.894 203.592 80.0985 203.613 80.5531C203.633 81.0076 200.395 79.894 200.395 79.894Z" fill="black"/>
<path opacity="0.1" d="M192.628 77.9554C192.628 77.9554 189.431 78.1599 189.41 78.6145C189.39 79.069 192.628 77.9554 192.628 77.9554Z" fill="black"/>
<path opacity="0.1" d="M204.848 87.2484C204.816 87.2257 204.784 87.2075 204.752 87.187C205.57 87.9234 205.434 89.5324 204.429 90.8597C203.425 92.1869 201.9 92.7392 200.973 92.1438C201.002 92.1688 201.027 92.196 201.059 92.221C201.968 92.9165 203.559 92.371 204.609 90.9983C205.659 89.6256 205.761 87.9461 204.848 87.2484Z" fill="black"/>
<path opacity="0.1" d="M187.283 90.6893C186.474 89.2302 186.578 87.6189 187.494 87.0075C187.46 87.0234 187.424 87.0371 187.39 87.0552C186.385 87.6143 186.253 89.2893 187.085 90.7983C187.917 92.3074 189.417 93.071 190.421 92.521C190.455 92.502 190.486 92.4807 190.517 92.4574C189.515 92.9119 188.092 92.1483 187.283 90.6893Z" fill="black"/>
<path opacity="0.1" d="M188.365 78.3849L188.072 78.8395L187.324 78.4418L187.717 77.8372C187.977 77.9601 188.201 78.149 188.365 78.3849Z" fill="black"/>
<path d="M183.615 95.2051C183.615 95.2051 184.281 92.0733 183.388 91.0779C182.495 90.0824 182.781 84.8644 184.145 84.978C185.508 85.0916 187.554 89.2188 187.213 90.0915C186.872 90.9642 185.583 95.4323 185.583 95.4323L183.615 95.2051Z" fill="#FBBEBE"/>
<path opacity="0.1" d="M205 72.61C204.843 72.8893 204.611 73.1197 204.332 73.2759C204.047 73.4062 203.734 73.4625 203.423 73.4396C203.116 73.4414 202.812 73.3754 202.534 73.2464C201.777 72.8691 201.495 71.9646 201.141 71.201C201.096 71.0632 201.016 70.9395 200.909 70.8419C200.725 70.7582 200.527 70.7096 200.325 70.6987C199.9 70.6033 199.593 70.2328 199.398 69.8465C199.202 69.4601 199.086 69.0328 198.864 68.6624C198.641 68.2919 198.264 67.967 197.829 67.9806C197.547 68.018 197.272 68.0985 197.014 68.2192C196.646 68.3372 196.254 68.3603 195.875 68.2864C195.496 68.2125 195.142 68.044 194.845 67.7965C194.663 67.5982 194.446 67.4349 194.205 67.3147C194.04 67.2666 193.868 67.2488 193.698 67.2624C193.436 67.2624 193.177 67.2874 192.916 67.3079C192.786 67.4776 192.648 67.64 192.5 67.7942C192.898 67.7601 193.298 67.726 193.698 67.717C193.868 67.7034 194.04 67.7211 194.205 67.7692C194.446 67.8894 194.663 68.0527 194.845 68.251C195.142 68.4985 195.496 68.6671 195.875 68.741C196.254 68.8149 196.646 68.7918 197.014 68.6738C197.272 68.553 197.547 68.4726 197.829 68.4351C198.264 68.4351 198.639 68.7533 198.864 69.1169C199.089 69.4806 199.204 69.9124 199.398 70.301C199.591 70.6896 199.9 71.0578 200.325 71.1533C200.527 71.1642 200.725 71.2127 200.909 71.2964C201.023 71.3894 201.111 71.5109 201.163 71.6487C201.518 72.4146 201.8 73.3191 202.557 73.6941C202.835 73.8231 203.138 73.8891 203.445 73.8873C203.757 73.9102 204.07 73.8539 204.354 73.7237C204.634 73.5674 204.865 73.337 205.022 73.0578C205.375 72.4154 205.533 71.684 205.477 70.9533C205.46 71.5369 205.296 72.1067 205 72.61Z" fill="black"/>
<path d="M184.624 97.6891C185.753 97.6891 186.669 97.0684 186.669 96.3028C186.669 95.5371 185.753 94.9164 184.624 94.9164C183.494 94.9164 182.578 95.5371 182.578 96.3028C182.578 97.0684 183.494 97.6891 184.624 97.6891Z" fill="#575A89"/>
<path d="M117.948 173.472C156.67 173.472 188.061 142.081 188.061 103.359C188.061 64.6375 156.67 33.2471 117.948 33.2471C79.2263 33.2471 47.8359 64.6375 47.8359 103.359C47.8359 142.081 79.2263 173.472 117.948 173.472Z" fill="#1DA1F2"/>
<path d="M154.74 138.593C154.74 149.661 137.34 139.538 118.686 139.538C100.032 139.538 81.1641 149.243 81.1641 138.175C81.1641 131.863 87.1776 123.086 95.8047 116.711C102.305 111.907 110.286 108.466 118.304 108.466C126.55 108.466 134.627 112.191 141.07 117.305C149.201 123.752 154.74 132.416 154.74 138.593Z" fill="#444053"/>
<path d="M141.068 117.3C131.152 115.807 113.218 113.987 95.8047 116.707C102.305 111.903 110.286 108.462 118.304 108.462C126.547 108.462 134.624 112.187 141.068 117.3Z" fill="#F6F8FB"/>
<path opacity="0.05" d="M81.1632 53.8672C81.1632 53.8672 60.0432 67.3692 60.2159 88.4893C60.3886 109.609 81.1632 53.8672 81.1632 53.8672Z" fill="black"/>
<path d="M188.037 15.7338C188.037 15.7338 168.901 14.5815 171.158 27.9904C171.158 27.9904 170.703 30.3585 172.858 31.4358C172.858 31.4358 172.892 30.4426 174.819 30.779C175.506 30.8939 176.204 30.9275 176.898 30.879C177.837 30.8152 178.729 30.4465 179.439 29.829C179.439 29.829 184.819 27.6086 186.912 18.8156C186.912 18.8156 188.46 16.8974 188.398 16.4065L185.169 17.7838C185.169 17.7838 186.271 20.1133 185.396 22.0496C185.396 22.0496 185.291 17.8701 184.671 17.9588C184.546 17.9792 182.994 18.7656 182.994 18.7656C182.994 18.7656 184.891 22.8246 183.448 25.7723C183.448 25.7723 183.992 20.7723 182.389 19.0587L180.117 20.386C180.117 20.386 182.335 24.5768 180.83 27.9972C180.83 27.9972 181.217 22.7519 179.639 20.7087L177.578 22.3155C177.578 22.3155 179.662 26.4472 178.392 29.2836C178.392 29.2836 178.226 23.1768 177.133 22.7155C177.133 22.7155 175.33 24.3064 175.055 24.9586C175.055 24.9586 176.483 27.9563 175.598 29.5381C175.598 29.5381 175.055 25.47 174.61 25.4473C174.61 25.4473 172.814 28.1427 172.626 29.9926C172.626 29.9926 172.705 27.2427 174.173 25.1904C174.173 25.1904 172.437 25.4882 171.426 26.6154C171.426 26.6154 171.705 24.7086 174.608 24.5427C174.608 24.5427 176.092 22.4973 176.489 22.3746C176.489 22.3746 173.592 22.1314 171.835 22.9109C171.835 22.9109 173.38 21.1132 177.019 21.9291L179.064 20.2701C179.064 20.2701 175.251 19.7474 173.633 20.3246C173.633 20.3246 175.494 18.7337 179.612 19.8928L181.828 18.5678C181.828 18.5678 178.576 17.8679 176.637 18.1133C176.637 18.1133 178.683 17.011 182.476 18.2065L184.067 17.4951C184.067 17.4951 181.682 17.027 180.985 16.9542C180.287 16.8815 180.251 16.6861 180.251 16.6861C181.765 16.4399 183.317 16.6201 184.735 17.2065C184.735 17.2065 188.094 15.9452 188.037 15.7338Z" fill="#1DA1F2"/>
<path d="M168.408 9.77255C168.408 9.77255 159.772 9.24983 160.781 15.3088C160.781 15.3088 160.579 16.3792 161.549 16.8656C161.549 16.8656 161.563 16.4111 162.436 16.5702C162.746 16.6212 163.061 16.6364 163.374 16.6156C163.799 16.5853 164.202 16.4187 164.524 16.1406C164.524 16.1406 166.954 15.1361 167.899 11.1634C167.899 11.1634 168.599 10.2975 168.581 10.0748L167.122 10.6975C167.122 10.6975 167.622 11.7498 167.229 12.6248C167.229 12.6248 167.181 10.7362 166.902 10.7816C166.845 10.7816 166.142 11.1453 166.142 11.1453C166.142 11.1453 167.002 12.9793 166.354 14.3111C166.354 14.3111 166.599 12.0521 165.877 11.2771L164.849 11.8771C164.849 11.8771 165.852 13.7725 165.172 15.3179C165.172 15.3179 165.345 12.9475 164.633 12.0248L163.702 12.7498C163.702 12.7498 164.643 14.6156 164.07 15.8974C164.07 15.8974 163.995 13.1384 163.499 12.9293C163.499 12.9293 162.686 13.6475 162.561 13.9429C162.561 13.9429 163.206 15.3065 162.806 16.0133C162.806 16.0133 162.561 14.1747 162.352 14.1679C162.352 14.1679 161.54 15.3838 161.456 16.2133C161.495 15.4414 161.736 14.6931 162.154 14.0429C161.686 14.1314 161.255 14.355 160.913 14.6861C160.913 14.6861 161.038 13.8247 162.354 13.7497C162.354 13.7497 163.024 12.827 163.204 12.7702C163.204 12.7702 161.895 12.6611 161.102 13.0134C161.102 13.0134 161.799 12.1998 163.445 12.5589L164.354 11.8111C164.354 11.8111 162.631 11.5839 161.899 11.8339C161.899 11.8339 162.74 11.1157 164.602 11.6407L165.602 11.0407C165.602 11.0407 164.133 10.7248 163.256 10.8384C163.256 10.8384 164.181 10.3407 165.895 10.8816L166.611 10.5589C166.611 10.5589 165.533 10.3475 165.22 10.3157C164.906 10.2839 164.886 10.1953 164.886 10.1953C165.568 10.0818 166.268 10.1605 166.908 10.4225C166.908 10.4225 168.433 9.868 168.408 9.77255Z" fill="#1DA1F2"/>
<path opacity="0.1" d="M243.878 165.908C247.258 165.908 249.998 165.445 249.998 164.874C249.998 164.303 247.258 163.84 243.878 163.84C240.498 163.84 237.758 164.303 237.758 164.874C237.758 165.445 240.498 165.908 243.878 165.908Z" fill="#1DA1F2"/>
<path opacity="0.1" d="M10.6282 183.11C14.0083 183.11 16.7485 182.647 16.7485 182.076C16.7485 181.505 14.0083 181.042 10.6282 181.042C7.24798 181.042 4.50781 181.505 4.50781 182.076C4.50781 182.647 7.24798 183.11 10.6282 183.11Z" fill="#1DA1F2"/>
<path opacity="0.1" d="M46.1594 184.408C49.5396 184.408 52.2797 183.945 52.2797 183.374C52.2797 182.803 49.5396 182.34 46.1594 182.34C42.7792 182.34 40.0391 182.803 40.0391 183.374C40.0391 183.945 42.7792 184.408 46.1594 184.408Z" fill="#1DA1F2"/>
<path d="M230.486 177.501C235.533 177.501 239.625 176.809 239.625 175.956C239.625 175.102 235.533 174.41 230.486 174.41C225.439 174.41 221.348 175.102 221.348 175.956C221.348 176.809 225.439 177.501 230.486 177.501Z" fill="#1DA1F2"/>
<path d="M234.263 173.431C234.68 173.091 234.985 172.632 235.136 172.115C235.247 171.595 235.025 170.967 234.527 170.776C233.968 170.563 233.37 170.951 232.918 171.342C232.466 171.733 231.945 172.179 231.352 172.097C231.657 171.821 231.885 171.47 232.014 171.079C232.143 170.688 232.169 170.271 232.088 169.867C232.062 169.7 231.992 169.543 231.884 169.413C231.572 169.081 231.011 169.222 230.638 169.483C229.457 170.315 229.127 171.92 229.12 173.365C229.002 172.845 229.102 172.301 229.1 171.774C229.098 171.247 228.95 170.638 228.5 170.358C228.221 170.209 227.907 170.135 227.591 170.145C227.059 170.124 226.468 170.176 226.104 170.565C225.65 171.049 225.77 171.858 226.163 172.383C226.557 172.908 227.152 173.249 227.7 173.615C228.141 173.877 228.517 174.235 228.8 174.663C228.833 174.723 228.86 174.786 228.882 174.851H232.211C232.956 174.473 233.646 173.995 234.263 173.431Z" fill="#1DA1F2"/>
<path d="M13.4862 154.374C13.4862 154.374 14.7339 156.006 12.909 158.465C11.084 160.924 9.5795 163.011 10.1818 164.547C10.1818 164.547 12.934 159.97 15.1817 159.904C17.4294 159.838 15.9498 157.127 13.4862 154.374Z" fill="#1DA1F2"/>
<path opacity="0.1" d="M13.4869 154.374C13.5953 154.532 13.681 154.704 13.7415 154.886C15.9278 157.454 17.0914 159.852 14.9915 159.911C13.0324 159.968 10.6734 163.467 10.1211 164.352C10.1404 164.42 10.1632 164.488 10.1893 164.554C10.1893 164.554 12.9415 159.977 15.1892 159.911C17.4369 159.845 15.9505 157.127 13.4869 154.374Z" fill="black"/>
<path d="M15.8082 156.454C15.8082 157.029 15.7423 157.495 15.6627 157.495C15.5832 157.495 15.5195 157.04 15.5195 156.454C15.5195 155.868 15.5991 156.149 15.6809 156.149C15.7627 156.149 15.8082 155.879 15.8082 156.454Z" fill="#FFD037"/>
<path d="M16.5939 157.14C16.0893 157.415 15.6507 157.581 15.6121 157.511C15.5734 157.44 15.953 157.163 16.4575 156.888C16.9621 156.613 16.7621 156.813 16.8007 156.888C16.8393 156.963 17.1075 156.865 16.5939 157.14Z" fill="#FFD037"/>
<path d="M6.89064 154.374C6.89064 154.374 5.64293 156.006 7.46563 158.465C9.28832 160.924 10.7951 163.011 10.1929 164.547C10.1929 164.547 7.43836 159.97 5.19294 159.904C2.94753 159.838 4.42478 157.127 6.89064 154.374Z" fill="#1DA1F2"/>
<path opacity="0.1" d="M6.89003 154.374C6.78068 154.532 6.69493 154.704 6.63549 154.886C4.44916 157.454 3.28328 159.852 5.38551 159.911C7.34229 159.968 9.70361 163.467 10.2536 164.352C10.2351 164.42 10.2131 164.488 10.1877 164.554C10.1877 164.554 7.4332 159.977 5.18779 159.911C2.94237 159.845 4.42416 157.127 6.89003 154.374Z" fill="black"/>
<path d="M4.57031 156.454C4.57031 157.029 4.63395 157.495 4.71349 157.495C4.79304 157.495 4.85667 157.04 4.85667 156.454C4.85667 155.868 4.77713 156.149 4.69758 156.149C4.61804 156.149 4.57031 155.879 4.57031 156.454Z" fill="#FFD037"/>
<path d="M3.77444 157.14C4.27898 157.415 4.71988 157.581 4.75852 157.511C4.79715 157.44 4.41761 157.163 3.91308 156.888C3.40854 156.613 3.60627 156.813 3.5699 156.888C3.53354 156.963 3.26991 156.865 3.77444 157.14Z" fill="#FFD037"/>
<path d="M4.96875 164.34C4.96875 164.34 8.4596 164.233 9.51412 163.483C10.5686 162.733 14.8845 161.84 15.1458 163.029C15.4072 164.217 20.3912 169.006 16.4504 169.038C12.5095 169.07 7.29371 168.422 6.24373 167.783C5.19375 167.145 4.96875 164.34 4.96875 164.34Z" fill="#A8A8A8"/>
<path opacity="0.2" d="M16.5163 168.631C12.5754 168.663 7.35962 168.015 6.30963 167.376C5.50965 166.89 5.19147 165.142 5.08466 164.336H4.96875C4.96875 164.336 5.19602 167.151 6.23918 167.79C7.28235 168.429 12.505 169.076 16.4458 169.045C17.5822 169.045 17.9753 168.629 17.9549 168.031C17.7958 168.397 17.364 168.624 16.5163 168.631Z" fill="black"/>
<path d="M93.0241 94.1665C94.3582 94.0915 100.638 93.6187 104.626 91.3438C105.267 90.9669 105.99 90.7538 106.733 90.7233C108.001 90.687 109.46 91.2165 108.526 94.1801C107.013 99.0277 98.224 104.482 92.7696 104.18C87.5242 103.889 81.3016 101.775 77.1926 94.3437C76.7989 93.6287 76.605 92.8209 76.6313 92.0051C76.679 90.5052 77.2244 88.6256 80.0403 90.7211C83.8448 93.5506 91.0628 94.0869 92.5105 94.1665C92.6816 94.1756 92.853 94.1756 93.0241 94.1665Z" fill="#444053"/>
<path d="M143.477 94.1665C144.811 94.0915 151.091 93.6187 155.079 91.3438C155.72 90.9669 156.444 90.7538 157.186 90.7233C158.454 90.687 159.913 91.2165 158.979 94.1801C157.466 99.0277 148.677 104.482 143.223 104.18C137.977 103.889 131.755 101.775 127.646 94.3437C127.252 93.6287 127.058 92.8209 127.084 92.0051C127.132 90.5052 127.678 88.6256 130.493 90.7211C134.298 93.5506 141.516 94.0869 142.964 94.1665C143.135 94.1756 143.306 94.1756 143.477 94.1665Z" fill="#444053"/>
</g>
<defs>
<linearGradient id="paint0_linear_3971_37776" x1="202.755" y1="172.267" x2="202.755" y2="59.9875" gradientUnits="userSpaceOnUse">
<stop stop-color="#808080" stop-opacity="0.25"/>
<stop offset="0.54" stop-color="#808080" stop-opacity="0.12"/>
<stop offset="1" stop-color="#808080" stop-opacity="0.1"/>
</linearGradient>
<clipPath id="clip0_3971_37776">
<rect width="250" height="184.408" fill="white"/>
</clipPath>
</defs>
</svg>
