<svg width="40" height="40" viewBox="0 0 40 40" fill="none" xmlns="http://www.w3.org/2000/svg">
    <circle cx="20" cy="20" r="20" fill="currentColor" />
    <path
        d="M19.1705 26.1591C18.3902 26.1591 17.6932 26.0246 17.0795 25.7557C16.4697 25.4867 15.9867 25.1136 15.6307 24.6364C15.2784 24.1553 15.089 23.5985 15.0625 22.9659H16.8466C16.8693 23.3106 16.9848 23.6098 17.1932 23.8636C17.4053 24.1136 17.6818 24.3068 18.0227 24.4432C18.3636 24.5795 18.7424 24.6477 19.1591 24.6477C19.6174 24.6477 20.0227 24.5682 20.375 24.4091C20.7311 24.25 21.0095 24.0284 21.2102 23.7443C21.411 23.4564 21.5114 23.125 21.5114 22.75C21.5114 22.3598 21.411 22.017 21.2102 21.7216C21.0133 21.4223 20.7235 21.1875 20.3409 21.017C19.9621 20.8466 19.5038 20.7614 18.9659 20.7614H17.983V19.3295H18.9659C19.3977 19.3295 19.7765 19.2519 20.1023 19.0966C20.4318 18.9413 20.6894 18.7254 20.875 18.4489C21.0606 18.1686 21.1534 17.8409 21.1534 17.4659C21.1534 17.1061 21.072 16.7936 20.9091 16.5284C20.75 16.2595 20.5227 16.0492 20.2273 15.8977C19.9356 15.7462 19.5909 15.6705 19.1932 15.6705C18.8144 15.6705 18.4602 15.7405 18.1307 15.8807C17.8049 16.017 17.5398 16.214 17.3352 16.4716C17.1307 16.7254 17.0208 17.0303 17.0057 17.3864H15.3068C15.3258 16.7576 15.5114 16.2045 15.8636 15.7273C16.2197 15.25 16.6894 14.8769 17.2727 14.608C17.8561 14.339 18.5038 14.2045 19.2159 14.2045C19.9621 14.2045 20.6061 14.3504 21.1477 14.642C21.6932 14.9299 22.1136 15.3144 22.4091 15.7955C22.7083 16.2765 22.8561 16.803 22.8523 17.375C22.8561 18.0265 22.6742 18.5795 22.3068 19.0341C21.9432 19.4886 21.4583 19.7936 20.8523 19.9489V20.0398C21.625 20.1572 22.2235 20.464 22.6477 20.9602C23.0758 21.4564 23.2879 22.072 23.2841 22.8068C23.2879 23.447 23.1098 24.0208 22.75 24.5284C22.3939 25.036 21.9072 25.4356 21.2898 25.7273C20.6723 26.0152 19.9659 26.1591 19.1705 26.1591Z"
        fill="white" />
</svg>