<svg width="40" height="40" viewBox="0 0 40 40" fill="none" xmlns="http://www.w3.org/2000/svg">
    <circle cx="20" cy="20" r="20" fill="currentColor" />
    <path
        d="M16.1193 26V24.7273L20.0568 20.6477C20.4773 20.2045 20.8239 19.8163 21.0966 19.483C21.3731 19.1458 21.5795 18.8258 21.7159 18.5227C21.8523 18.2197 21.9205 17.8977 21.9205 17.5568C21.9205 17.1705 21.8295 16.8371 21.6477 16.5568C21.4659 16.2727 21.2178 16.0549 20.9034 15.9034C20.589 15.7481 20.2348 15.6705 19.8409 15.6705C19.4242 15.6705 19.0606 15.7557 18.75 15.9261C18.4394 16.0966 18.2008 16.3371 18.0341 16.6477C17.8674 16.9583 17.7841 17.322 17.7841 17.7386H16.108C16.108 17.0303 16.2708 16.411 16.5966 15.8807C16.9223 15.3504 17.3693 14.9394 17.9375 14.6477C18.5057 14.3523 19.1515 14.2045 19.875 14.2045C20.6061 14.2045 21.25 14.3504 21.8068 14.642C22.3674 14.9299 22.8049 15.3239 23.1193 15.8239C23.4337 16.3201 23.5909 16.8807 23.5909 17.5057C23.5909 17.9375 23.5095 18.3598 23.3466 18.7727C23.1875 19.1856 22.9091 19.6458 22.5114 20.1534C22.1136 20.6572 21.5606 21.2689 20.8523 21.9886L18.5398 24.4091V24.4943H23.7784V26H16.1193Z"
        fill="white" />
</svg>