<svg width="286" height="218" viewBox="0 0 286 218" fill="none" xmlns="http://www.w3.org/2000/svg">
<g clip-path="url(#clip0_3388_27599)">
<path d="M114.441 45.1246H113.398V16.5425C113.398 14.3701 112.97 12.219 112.139 10.212C111.307 8.20496 110.089 6.38132 108.553 4.8452C107.017 3.30909 105.193 2.09057 103.186 1.25923C101.179 0.42789 99.0278 1.84062e-06 96.8554 0H36.3004C31.913 -8.36379e-06 27.7054 1.74285 24.603 4.84517C21.5007 7.94749 19.7578 12.1551 19.7578 16.5425V173.346C19.7578 175.518 20.1857 177.67 21.017 179.677C21.8484 181.684 23.0669 183.507 24.603 185.043C26.1391 186.579 27.9627 187.798 29.9698 188.629C31.9768 189.461 34.1279 189.889 36.3003 189.889H96.8553C101.243 189.889 105.45 188.146 108.553 185.043C111.655 181.941 113.398 177.733 113.398 173.346V65.4698H114.441V45.1246Z" fill="#3F3D56"/>
<path d="M97.5246 4.30371H89.6202C89.9837 5.19491 90.1225 6.16182 90.0242 7.11928C89.926 8.07673 89.5939 8.99534 89.057 9.79418C88.5201 10.593 87.7951 11.2476 86.9457 11.7002C86.0962 12.1528 85.1485 12.3896 84.1861 12.3896H49.4949C48.5324 12.3896 47.5847 12.1528 46.7353 11.7002C45.8859 11.2476 45.1608 10.593 44.6239 9.79419C44.0871 8.99534 43.7549 8.07674 43.6567 7.11928C43.5585 6.16183 43.6973 5.19491 44.0608 4.30371H36.678C35.0557 4.30371 33.4492 4.62325 31.9504 5.24408C30.4516 5.86492 29.0897 6.77489 27.9426 7.92204C26.7954 9.06919 25.8854 10.4311 25.2646 11.9299C24.6438 13.4287 24.3242 15.0352 24.3242 16.6575V173.231C24.3242 174.853 24.6438 176.46 25.2646 177.958C25.8854 179.457 26.7954 180.819 27.9426 181.966C29.0897 183.113 30.4516 184.023 31.9504 184.644C33.4492 185.265 35.0557 185.585 36.678 185.585H97.5246C99.1469 185.585 100.753 185.265 102.252 184.644C103.751 184.023 105.113 183.113 106.26 181.966C107.407 180.819 108.317 179.457 108.938 177.958C109.559 176.46 109.878 174.853 109.878 173.231V16.6575C109.878 15.0352 109.559 13.4287 108.938 11.9299C108.317 10.4311 107.407 9.0692 106.26 7.92204C105.113 6.77489 103.751 5.86492 102.252 5.24408C100.753 4.62325 99.1469 4.30371 97.5246 4.30371Z" fill="white"/>
<path d="M133.852 189.916H0.350398C0.257466 189.916 0.168341 189.879 0.102629 189.813C0.0369165 189.747 0 189.658 0 189.565C0 189.472 0.0369165 189.383 0.102629 189.317C0.168341 189.252 0.257466 189.215 0.350398 189.215H133.852C133.945 189.215 134.034 189.252 134.1 189.317C134.165 189.383 134.202 189.472 134.202 189.565C134.202 189.658 134.165 189.747 134.1 189.813C134.034 189.879 133.945 189.916 133.852 189.916Z" fill="#CBCBCB"/>
<path d="M67.1015 121.126C83.4434 121.126 96.6912 107.878 96.6912 91.5361C96.6912 75.1941 83.4434 61.9463 67.1015 61.9463C50.7595 61.9463 37.5117 75.1941 37.5117 91.5361C37.5117 107.878 50.7595 121.126 67.1015 121.126Z" fill="#1DA1F2"/>
<path d="M64.1684 102.823C63.5027 102.824 62.8547 102.609 62.3221 102.209L62.2891 102.184L55.3351 96.8649C55.013 96.6179 54.7427 96.31 54.5397 95.9586C54.3366 95.6073 54.2048 95.2194 54.1516 94.817C54.0985 94.4147 54.1251 94.0058 54.23 93.6138C54.3348 93.2218 54.5159 92.8542 54.7628 92.5321C55.0097 92.2101 55.3176 91.9398 55.669 91.7367C56.0204 91.5337 56.4083 91.4018 56.8106 91.3487C57.2129 91.2955 57.6218 91.3221 58.0138 91.427C58.4059 91.5319 58.7734 91.7129 59.0955 91.9598L63.5997 95.4139L74.2435 81.528C74.4903 81.206 74.7981 80.9358 75.1493 80.7329C75.5005 80.5299 75.8883 80.3981 76.2905 80.345C76.6926 80.2918 77.1013 80.3185 77.4932 80.4233C77.8851 80.5281 78.2525 80.7091 78.5744 80.9559L78.5753 80.9566L78.5092 81.0483L78.5771 80.9566C79.2266 81.4557 79.6515 82.1922 79.7586 83.0043C79.8658 83.8164 79.6463 84.6379 79.1485 85.2884L66.6291 101.614C66.3395 101.99 65.9671 102.295 65.5408 102.504C65.1145 102.713 64.6458 102.821 64.1711 102.819L64.1684 102.823Z" fill="white"/>
<path d="M243.262 192.824C243.622 192.242 244.045 191.702 244.525 191.214C244.723 191.008 244.932 190.815 245.147 190.627C246.455 189.462 248.05 188.667 249.767 188.324C251.485 187.98 253.263 188.1 254.918 188.671C256.574 189.242 258.048 190.244 259.188 191.574C260.328 192.903 261.094 194.512 261.406 196.236C262.851 190.892 259.089 185.627 255.307 181.584C251.523 177.542 247.197 173.107 247.219 167.568C247.23 164.486 248.737 161.737 251.014 159.698C251.084 159.637 251.154 159.575 251.226 159.515C253.977 157.157 257.517 155.924 261.138 156.061C267.865 156.421 273.739 160.943 277.818 166.306C284.385 174.935 287.262 187.048 282.665 196.872C278.622 205.511 269.999 210.641 261.198 214.766C259.969 215.342 258.742 215.901 257.518 216.442C257.51 216.444 257.502 216.45 257.493 216.452C257.434 216.478 257.376 216.504 257.32 216.531C257.068 216.642 256.815 216.753 256.565 216.864L256.681 216.939L257.042 217.174C256.917 217.098 256.793 217.024 256.667 216.948C256.63 216.925 256.591 216.903 256.553 216.88C252.231 214.287 247.848 211.543 244.862 207.494C241.765 203.29 240.52 197.268 243.262 192.824Z" fill="#F1F1F1"/>
<path d="M272.099 183.061C273.056 185.238 273.69 187.543 273.982 189.904C274.212 192.009 274.126 194.136 273.726 196.215C272.868 200.488 270.996 204.493 268.268 207.892C266.21 210.472 263.834 212.782 261.196 214.766C259.967 215.342 258.741 215.901 257.517 216.442C257.509 216.444 257.5 216.45 257.492 216.452C257.433 216.478 257.374 216.504 257.319 216.531C257.066 216.642 256.813 216.754 256.563 216.864L256.679 216.94L257.041 217.174C256.915 217.098 256.791 217.024 256.666 216.948C256.628 216.925 256.589 216.904 256.552 216.881C257.503 213.553 257.643 210.046 256.96 206.654C256.276 203.261 254.79 200.082 252.625 197.382C250.448 194.716 247.672 192.603 244.523 191.214C244.721 191.009 244.93 190.815 245.145 190.627C246.358 191.184 247.519 191.847 248.615 192.609C252.535 195.318 255.479 199.218 257.01 203.73C258.377 207.824 258.548 212.223 257.502 216.411C257.719 216.269 257.937 216.123 258.149 215.978C262.176 213.263 265.887 210.002 268.682 206.002C271.093 202.622 272.636 198.701 273.175 194.585C273.711 190.088 272.585 185.666 270.578 181.653C268.361 177.361 265.567 173.391 262.275 169.855C258.968 166.222 255.228 163.007 251.14 160.282C251.048 160.22 250.984 160.124 250.96 160.016C250.936 159.907 250.955 159.794 251.012 159.699C251.056 159.612 251.132 159.547 251.224 159.516C251.271 159.504 251.32 159.503 251.367 159.512C251.414 159.522 251.459 159.542 251.497 159.571C252.002 159.908 252.502 160.248 252.997 160.597C257.114 163.513 260.852 166.928 264.127 170.765C267.292 174.463 270.171 178.572 272.099 183.061Z" fill="white"/>
<path d="M183.972 13.739C187.442 13.739 190.256 10.9255 190.256 7.45495C190.256 3.98437 187.442 1.1709 183.972 1.1709C180.501 1.1709 177.688 3.98437 177.688 7.45495C177.688 10.9255 180.501 13.739 183.972 13.739Z" fill="#F1F1F1"/>
<path d="M262.113 97.8344C264.228 97.8344 265.944 96.1191 265.944 94.0031C265.944 91.8872 264.228 90.1719 262.113 90.1719C259.997 90.1719 258.281 91.8872 258.281 94.0031C258.281 96.1191 259.997 97.8344 262.113 97.8344Z" fill="#F1F1F1"/>
<path d="M149.984 108.347C152.1 108.347 153.815 106.632 153.815 104.516C153.815 102.4 152.1 100.685 149.984 100.685C147.868 100.685 146.152 102.4 146.152 104.516C146.152 106.632 147.868 108.347 149.984 108.347Z" fill="#F1F1F1"/>
<path d="M152.147 217.597H285.649C285.742 217.597 285.831 217.56 285.897 217.495C285.962 217.429 285.999 217.34 285.999 217.247C285.999 217.154 285.962 217.065 285.897 216.999C285.831 216.933 285.742 216.896 285.649 216.896H152.147C152.054 216.896 151.965 216.933 151.9 216.999C151.834 217.065 151.797 217.154 151.797 217.247C151.797 217.34 151.834 217.429 151.9 217.495C151.965 217.56 152.054 217.597 152.147 217.597Z" fill="#CBCBCB"/>
<path d="M270.915 33.8609C271.09 32.6163 270.803 31.3506 270.107 30.3038C269.412 29.2569 268.357 28.5015 267.141 28.1807C265.926 27.86 264.635 27.9962 263.514 28.5635C262.392 29.1308 261.518 30.0898 261.056 31.2587L250.223 43.6783L253.401 52.5563L264.296 38.0445C265.007 38.2722 265.759 38.3413 266.5 38.2469C267.24 38.1524 267.951 37.8968 268.582 37.4979C269.213 37.099 269.749 36.5666 270.152 35.9383C270.555 35.3099 270.816 34.6007 270.915 33.8609Z" fill="#FFB7B7"/>
<path d="M226.009 82.185L261.97 43.8063L257.12 36.0947L212.016 74.2404L226.009 82.185Z" fill="#3F3D56"/>
<path d="M217.985 58.8663C224.952 58.8663 230.6 53.2187 230.6 46.252C230.6 39.2853 224.952 33.6377 217.985 33.6377C211.019 33.6377 205.371 39.2853 205.371 46.252C205.371 53.2187 211.019 58.8663 217.985 58.8663Z" fill="#2F2E41"/>
<path d="M219 39.1268C221.714 36.3742 224.999 34.2501 228.623 32.904C230.949 32.0422 233.481 31.5098 235.913 31.9992C238.345 32.4886 240.645 34.171 241.323 36.5571C241.878 38.5082 241.305 40.609 240.444 42.4457C239.583 44.2824 238.434 45.9856 237.738 47.8908C237.027 49.8349 236.813 51.9255 237.116 53.9731C237.419 56.0206 238.228 57.9601 239.47 59.6157C240.712 61.2712 242.348 62.5902 244.229 63.4531C246.111 64.3159 248.178 64.6952 250.243 64.5566C247.853 64.877 245.651 65.9999 243.315 66.5976C240.98 67.1953 238.223 67.1547 236.487 65.4815C234.651 63.7111 234.614 60.8327 234.703 58.2834C234.835 54.4939 234.967 50.7044 235.099 46.9148C235.166 44.9822 235.224 42.9877 234.527 41.1839C233.83 39.38 232.173 37.8005 230.24 37.8169C228.774 37.8294 227.477 38.7172 226.302 39.5928C225.126 40.4683 223.882 41.4025 222.423 41.5327C220.963 41.6629 219.296 40.5826 219.405 39.1211L219 39.1268Z" fill="#2F2E41"/>
<path d="M170.075 130.952C168.864 131.288 167.571 131.169 166.443 130.616C165.314 130.063 164.427 129.116 163.95 127.953C163.473 126.79 163.44 125.493 163.856 124.306C164.271 123.12 165.108 122.128 166.207 121.518L177.104 109.154L186.321 111.146L173.358 123.843C173.676 124.518 173.843 125.255 173.846 126.002C173.849 126.748 173.689 127.486 173.376 128.164C173.063 128.842 172.605 129.443 172.035 129.924C171.464 130.406 170.795 130.757 170.075 130.952Z" fill="#FFB7B7"/>
<path d="M205.929 86.6899L178.767 120.784L170.488 116.982L202.413 67.2803L205.929 86.6899Z" fill="#3F3D56"/>
<path d="M184.255 189.639L177.781 189.537L178.56 211.6H184.253L184.255 189.639Z" fill="#FFB7B7"/>
<path d="M185.707 209.742L174.494 209.741H174.494C172.598 209.741 170.781 210.494 169.441 211.834C168.101 213.174 167.348 214.992 167.348 216.887V217.119L185.707 217.12L185.707 209.742Z" fill="#2F2E41"/>
<path d="M227.114 183.787L220.043 188.327L234.188 205.344L238.979 202.268L227.114 183.787Z" fill="#FFB7B7"/>
<path d="M239.198 199.919L229.762 205.977L229.762 205.977C228.167 207.001 227.044 208.617 226.641 210.468C226.237 212.32 226.585 214.256 227.609 215.851L227.735 216.046L243.184 206.128L239.198 199.919Z" fill="#2F2E41"/>
<path d="M229.636 116.417C229.636 116.417 213.924 64.2327 208.875 63.5276C203.826 62.8224 195.69 76.9173 195.69 76.9173C185.142 90.3755 174.266 133.969 174.266 133.969C174.266 133.969 192.398 135.104 205.652 142.156C218.906 149.208 234.548 141.799 234.548 141.799L229.636 116.417Z" fill="#3F3D56"/>
<path opacity="0.1" d="M229.636 116.416C229.636 116.416 213.924 64.2325 208.875 63.5273C203.826 62.8221 197.757 77.0601 197.757 77.0601C192.501 98.7848 174.266 133.969 174.266 133.969C174.266 133.969 192.398 135.104 205.652 142.156C218.906 149.207 234.548 141.799 234.548 141.799L229.636 116.416Z" fill="black"/>
<path d="M216.744 100.803V127.025L219.83 165.009L235.247 193.742L227.889 198.998L206.865 171.667L198.55 144.529L185.491 204.604L175.68 203.904L182.494 120.61L195.424 97.165L216.744 100.803Z" fill="#2F2E41"/>
<path d="M200.902 75.4409C195.997 80.3464 200.552 85.6024 200.552 85.6024L194.945 98.2167L217.02 104.173L224.735 69.702L219.479 64.0956C208.967 63.7452 208.961 63.5273 208.961 63.5273C207.119 65.3297 200.902 75.4409 200.902 75.4409Z" fill="#1DA1F2"/>
<path d="M225.625 66.1302C224.622 65.3901 223.483 64.8563 222.272 64.5598C221.062 64.2632 219.805 64.2097 218.574 64.4024C217.342 64.5951 216.162 65.0302 215.1 65.6824C214.038 66.3346 213.116 67.1911 212.388 68.2021C206.838 75.9292 201.707 88.4065 208.777 103.968C220.129 128.955 230.009 141.746 234.025 141.744C234.2 141.746 234.375 141.719 234.541 141.663C237.013 140.825 240.588 136.641 241.235 132.955C241.466 131.636 241.411 129.798 239.833 128.536C235.301 124.91 227.164 113.622 224.625 98.7646C223.222 90.5549 225.943 83.0766 228.472 78.2489C229.54 76.2513 229.853 73.9356 229.352 71.7263C228.852 69.517 227.572 67.5622 225.747 66.22L225.625 66.1302Z" fill="#3F3D56"/>
<path d="M218.634 57.6276C223.133 55.1677 224.787 49.5258 222.327 45.026C219.868 40.5261 214.226 38.8724 209.726 41.3322C205.226 43.792 203.572 49.434 206.032 53.9338C208.492 58.4336 214.134 60.0874 218.634 57.6276Z" fill="#FFB7B7"/>
<path d="M201.121 48.778H214.529L214.667 46.8529L215.354 48.778H217.419L217.691 44.9627L219.054 48.778H223.049V48.5889C223.046 45.9328 221.989 43.3862 220.111 41.508C218.233 39.6298 215.686 38.5733 213.03 38.5703H211.14C208.484 38.5733 205.937 39.6298 204.059 41.508C202.181 43.3862 201.124 45.9328 201.121 48.5889V48.778Z" fill="#2F2E41"/>
<path d="M221.023 55.6972L226.745 53.8405V39.9453H215.938L216.205 40.2125C219.928 43.9305 224.068 57.1216 221.023 55.6972Z" fill="#2F2E41"/>
</g>
<defs>
<clipPath id="clip0_3388_27599">
<rect width="286" height="217.597" fill="white"/>
</clipPath>
</defs>
</svg>
