<svg width="287" height="237" viewBox="0 0 287 237" fill="none" xmlns="http://www.w3.org/2000/svg">
<path d="M55.3503 169.702C54.7118 169.938 54.0216 169.998 53.3521 169.875C52.6826 169.752 52.0584 169.451 51.5451 169.003L45.5237 163.741C44.7672 163.079 44.3039 162.143 44.2354 161.139C44.1669 160.134 44.4989 159.144 45.1584 158.384L88.9281 108.102C89.5892 107.344 90.5234 106.88 91.5258 106.811C92.5281 106.742 93.5167 107.075 94.2746 107.736L100.296 112.998C101.053 113.66 101.516 114.596 101.584 115.6C101.653 116.604 101.321 117.595 100.661 118.354L56.8917 168.637C56.4755 169.116 55.9453 169.482 55.3503 169.702Z" fill="#1DA1F2"/>
<path d="M115.507 114.371C115.114 114.37 114.722 114.309 114.347 114.188C113.872 114.038 113.432 113.795 113.052 113.473C112.672 113.151 112.359 112.757 112.132 112.313L108.471 105.198C108.011 104.303 107.925 103.262 108.231 102.303C108.537 101.344 109.21 100.546 110.102 100.084L169.291 69.5095C170.184 69.0492 171.224 68.9628 172.181 69.2693C173.137 69.5758 173.934 70.2501 174.395 71.1443L178.057 78.2592C178.516 79.1543 178.602 80.1955 178.297 81.1543C177.991 82.1131 177.318 82.9112 176.425 83.3733L117.237 113.948C116.702 114.225 116.109 114.37 115.507 114.371Z" fill="#1DA1F2"/>
<path d="M114.441 116.092C113.737 116.092 113.047 115.896 112.447 115.525C111.848 115.155 111.363 114.625 111.046 113.995L107.462 106.841C107.057 106.034 106.953 105.109 107.168 104.232C107.192 104.136 107.22 104.039 107.251 103.943C107.324 103.724 107.403 103.383 107.494 102.989C107.784 101.73 108.146 100.164 108.882 99.7934L134.89 83.9998C135.333 83.7735 135.816 83.6369 136.312 83.5977C136.808 83.5585 137.307 83.6176 137.78 83.7715C138.253 83.9254 138.691 84.1711 139.069 84.4947C139.447 84.8183 139.758 85.2133 139.984 85.6573L139.995 85.6791L146.556 99.227C147.004 100.127 147.079 101.168 146.762 102.123C146.446 103.078 145.764 103.868 144.868 104.32L116.111 115.695C115.593 115.956 115.021 116.092 114.441 116.092Z" fill="#2F2E41"/>
<path d="M103.644 80.9793C119.645 80.9793 132.616 67.9834 132.616 51.9521C132.616 35.9208 119.645 22.9248 103.644 22.9248C87.6431 22.9248 74.6719 35.9208 74.6719 51.9521C74.6719 67.9834 87.6431 80.9793 103.644 80.9793Z" fill="#1DA1F2"/>
<path d="M97.9979 236.274H90.0081C89.0035 236.273 88.0403 235.873 87.3299 235.161C86.6195 234.449 86.2199 233.484 86.2188 232.478V164.674C86.2199 163.667 86.6195 162.702 87.3299 161.991C88.0403 161.279 89.0035 160.879 90.0081 160.877H97.9979C99.0026 160.879 99.9658 161.279 100.676 161.991C101.387 162.702 101.786 163.667 101.787 164.674V232.478C101.786 233.484 101.387 234.449 100.676 235.161C99.9657 235.873 99.0026 236.273 97.9979 236.274Z" fill="#1DA1F2"/>
<path d="M132.423 204.717C131.82 204.718 131.225 204.575 130.688 204.299C130.15 204.023 129.687 203.622 129.336 203.13L90.6038 148.857C90.0203 148.038 89.7851 147.02 89.9498 146.027C90.1145 145.034 90.6656 144.147 91.4823 143.561L97.9818 138.905C98.7997 138.32 99.8156 138.084 100.807 138.249C101.798 138.414 102.683 138.966 103.268 139.785L142 194.058C142.584 194.877 142.819 195.895 142.654 196.888C142.489 197.881 141.938 198.768 141.122 199.354L134.622 204.01C133.981 204.471 133.212 204.718 132.423 204.717Z" fill="#1DA1F2"/>
<path d="M122.146 235.267C121.349 235.253 120.566 235.057 119.857 234.693L112.704 231.125C110.834 230.192 109.803 228.445 110.407 227.23L128.841 190.132C129.445 188.918 131.457 188.689 133.328 189.621L140.481 193.189C141.314 193.585 142.023 194.203 142.531 194.975C142.751 195.275 142.89 195.627 142.933 195.997C142.977 196.367 142.923 196.741 142.778 197.084L124.344 234.182C123.991 234.893 123.154 235.267 122.146 235.267Z" fill="#1DA1F2"/>
<path d="M87.3733 136.837C86.6983 137.084 85.9672 137.134 85.2648 136.982C84.5624 136.83 83.9175 136.481 83.4049 135.976L72.5653 125.556C72.2106 125.206 71.9281 124.79 71.7339 124.331C71.5398 123.872 71.4378 123.379 71.4337 122.881C71.4297 122.382 71.5237 121.888 71.7103 121.426C71.897 120.964 72.1727 120.543 72.5216 120.188L72.5246 120.185L95.5631 100.229C96.1256 99.6544 97.7245 99.793 99.0088 99.9033C99.4118 99.9381 99.7598 99.9681 99.9898 99.9663C100.091 99.9655 100.191 99.9691 100.29 99.9763C101.189 100.041 102.036 100.425 102.677 101.06L108.367 106.679C109.081 107.387 109.487 108.35 109.494 109.356C109.501 110.363 109.109 111.331 108.405 112.049L88.7797 135.921C88.3844 136.327 87.904 136.64 87.3733 136.837Z" fill="#2F2E41"/>
<path d="M99.7879 62.7102L99.7578 61.6254C101.772 61.5693 103.548 61.4427 104.882 60.466C105.26 60.1734 105.571 59.8025 105.794 59.3787C106.016 58.9549 106.145 58.4881 106.171 58.01C106.195 57.7178 106.15 57.4242 106.042 57.152C105.934 56.8797 105.765 56.6361 105.547 56.4401C104.661 55.6906 103.236 55.9332 102.197 56.4104L101.301 56.822L103.019 44.2441L104.092 44.3914L102.631 55.0905C103.229 54.8682 103.873 54.7994 104.505 54.8904C105.136 54.9815 105.735 55.2294 106.246 55.6117C106.59 55.9126 106.86 56.289 107.034 56.7117C107.209 57.1343 107.284 57.5917 107.253 58.0482C107.221 58.6905 107.05 59.3182 106.751 59.8873C106.451 60.4563 106.032 60.9528 105.521 61.3421C103.806 62.5974 101.578 62.6599 99.7879 62.7102Z" fill="#2F2E41"/>
<path d="M115.229 45.3145H109.398V46.3992H115.229V45.3145Z" fill="#2F2E41"/>
<path d="M96.8232 45.3145H90.9922V46.3992H96.8232V45.3145Z" fill="#2F2E41"/>
<path d="M58.8582 173.109C58.1914 173.109 57.5364 172.932 56.9592 172.598C56.3821 172.263 55.9032 171.782 55.5709 171.203C55.2385 170.624 55.0645 169.967 55.0664 169.299C55.0683 168.631 55.246 167.975 55.5815 167.398L100.642 89.2013C100.972 88.6234 101.447 88.143 102.022 87.8087C102.596 87.4745 103.248 87.2982 103.912 87.2979H103.957C104.62 87.2987 105.272 87.4753 105.846 87.8098C106.42 88.1443 106.895 88.6248 107.224 89.2026L137.057 140.972C138.686 143.8 139.566 146.999 139.612 150.264C139.659 153.529 138.869 156.751 137.32 159.624C135.771 162.497 133.513 164.924 130.762 166.675C128.011 168.426 124.858 169.442 121.604 169.625C94.7004 171.145 59.2417 173.089 58.8867 173.108L58.8724 173.109H58.8582Z" fill="#2F2E41"/>
<path d="M105.836 22.5675C102.623 9.66489 90.1695 -0.241974 76.8257 0.0045003C70.2195 0.190209 63.8491 2.50452 58.6594 6.60412C56.0433 8.64417 53.7908 11.1133 51.9975 13.9069C50.071 17.0992 48.635 20.5638 47.7377 24.1843C45.7456 31.4237 44.8068 39.6157 39.7515 45.5278C37.6553 47.921 35.0707 49.8355 32.1725 51.1418C29.2742 52.4481 26.1299 53.1159 22.9519 53.0999C19.7501 53.05 16.6033 52.258 13.7581 50.786C10.9128 49.314 8.44632 47.202 6.55184 44.6154C2.74658 39.5325 0.87319 32.5027 3.07157 26.3682C4.15035 23.3579 6.47003 20.5144 9.78765 20.0125C11.3007 19.8073 12.8405 20.0499 14.2177 20.7103C15.5949 21.3708 16.7492 22.4203 17.5387 23.7296C19.0307 26.3525 18.5535 29.8524 16.6843 32.1659C15.9492 32.9952 15.0419 33.6533 14.0259 34.0939C13.01 34.5345 11.9102 34.747 10.8036 34.7164C9.697 34.6858 8.61049 34.4129 7.62036 33.9169C6.63022 33.4209 5.76045 32.7137 5.0721 31.8451C4.42317 31.0241 3.27306 32.1752 3.9153 32.9877C4.94455 34.2244 6.27347 35.1757 7.77479 35.7503C9.2761 36.325 10.8995 36.5039 12.4896 36.2699C14.0764 36.0294 15.5667 35.357 16.7982 34.326C18.0296 33.295 18.9549 31.945 19.4731 30.4233C20.0412 28.9146 20.1902 27.2797 19.9043 25.6928C19.6184 24.1059 18.9083 22.6264 17.8496 21.4118C16.7465 20.2099 15.3539 19.3119 13.8053 18.8035C12.2566 18.2952 10.6036 18.1936 9.00449 18.5085C5.57884 19.2351 3.09106 22.058 1.79997 25.1859C0.527779 28.4355 0.192143 31.9778 0.831299 35.4092C1.42112 38.7205 2.7004 41.8701 4.58582 44.6531C6.47124 47.4361 8.92054 49.79 11.7742 51.5616C17.5496 55.1146 24.7582 55.6034 31.094 53.3211C34.2597 52.1992 37.151 50.4154 39.576 48.0882C42.1819 45.4395 44.1763 42.2504 45.4187 38.7457C48.2752 31.2522 48.6937 22.867 52.7355 15.8232C56.261 9.84229 61.8219 5.3367 68.3969 3.134C74.9334 0.871349 82.0883 1.21546 88.3785 4.095C94.633 6.9972 99.6709 12.0089 102.612 18.2544C103.313 19.7762 103.867 21.3615 104.267 22.9887C104.328 23.1906 104.466 23.3607 104.65 23.4632C104.834 23.5656 105.051 23.5923 105.254 23.5376C105.458 23.483 105.632 23.3512 105.741 23.1702C105.849 22.9892 105.883 22.7731 105.835 22.5674L105.836 22.5675Z" fill="#2F2E41"/>
<path d="M110.288 95.1942H98.3781C97.4452 95.1931 96.5508 94.8213 95.8911 94.1604C95.2315 93.4995 94.8604 92.6034 94.8594 91.6688V90.584C94.8604 89.6493 95.2315 88.7532 95.8911 88.0923C96.5508 87.4314 97.4452 87.0597 98.3781 87.0586H110.288C111.22 87.0597 112.115 87.4314 112.774 88.0923C113.434 88.7532 113.805 89.6493 113.806 90.584V91.6688C113.805 92.6034 113.434 93.4995 112.774 94.1604C112.115 94.8213 111.22 95.1931 110.288 95.1942Z" fill="#2F2E41"/>
<path d="M167.619 55.699L167.612 55.7117C166.305 55.1082 164.815 55.0317 163.453 55.4981C162.091 55.9646 160.96 56.9381 160.295 58.2171C159.63 59.4961 159.481 60.9825 159.879 62.3684C160.278 63.7543 161.193 64.9334 162.436 65.6615L162.43 65.6742L172.386 70.873L177.575 60.8979C178.262 59.5752 178.397 58.0333 177.949 56.611C177.502 55.1888 176.51 54.0027 175.19 53.3135C173.87 52.6243 172.331 52.4885 170.911 52.9358C169.491 53.3831 168.307 54.3771 167.619 55.699Z" fill="#1DA1F2"/>
<path d="M237.638 127.851L237.634 127.87C235.745 127.46 233.772 127.793 232.122 128.801C230.473 129.809 229.273 131.414 228.773 133.284C228.272 135.154 228.508 137.145 229.433 138.845C230.358 140.545 231.899 141.823 233.739 142.415L233.734 142.434L248.289 146.346L252.193 131.763C252.45 130.805 252.515 129.807 252.387 128.824C252.258 127.841 251.937 126.893 251.442 126.034C250.444 124.3 248.798 123.034 246.868 122.516C244.938 121.997 242.881 122.268 241.15 123.268C239.42 124.269 238.156 125.917 237.638 127.851V127.851Z" fill="#CACACA"/>
<path d="M282.666 198.249L282.645 198.246C283.401 197.835 284.074 197.289 284.631 196.634C284.811 196.437 284.945 196.202 285.022 195.947C285.1 195.691 285.119 195.421 285.078 195.157C284.996 194.896 284.861 194.655 284.679 194.45C284.498 194.245 284.276 194.08 284.026 193.968C283.239 193.573 282.389 193.317 281.514 193.212C280.33 193.047 279.134 192.991 277.94 193.044C276.609 193.096 275.283 193.235 273.971 193.461C272.641 193.685 271.326 193.993 270.034 194.384C268.842 194.739 267.682 195.192 266.565 195.739L266.548 195.733L251.5 203.783L267.655 206.465C268.912 206.656 270.186 206.724 271.456 206.667C272.885 206.611 274.308 206.456 275.715 206.203C277.132 205.954 278.53 205.607 279.899 205.166C281.137 204.774 282.336 204.267 283.48 203.651C284.326 203.217 285.089 202.637 285.734 201.937C285.94 201.731 286.099 201.482 286.199 201.208C286.3 200.935 286.34 200.642 286.316 200.352C286.25 200.073 286.122 199.814 285.943 199.591C285.763 199.369 285.536 199.19 285.278 199.067C284.464 198.638 283.579 198.361 282.666 198.249Z" fill="#F0F0F0"/>
<path d="M270.54 178.09H270.525C270.455 176.649 269.835 175.291 268.792 174.296C267.75 173.301 266.366 172.747 264.926 172.747C263.487 172.747 262.102 173.301 261.06 174.296C260.017 175.291 259.397 176.649 259.327 178.09H259.312V189.338H270.54C272.029 189.338 273.456 188.746 274.509 187.691C275.562 186.636 276.153 185.206 276.153 183.714C276.153 182.222 275.562 180.792 274.509 179.737C273.456 178.682 272.029 178.09 270.54 178.09Z" fill="#CACACA"/>
<path d="M210.161 91.0073L210.165 91.0208C208.823 91.5433 207.734 92.5628 207.122 93.8683C206.51 95.1737 206.422 96.665 206.878 98.0332C207.333 99.4013 208.297 100.542 209.568 101.218C210.84 101.894 212.322 102.054 213.708 101.665L213.713 101.678L224.363 98.1191L220.811 87.4483C220.578 86.7475 220.209 86.0995 219.726 85.5414C219.243 84.9833 218.655 84.5261 217.996 84.1957C217.336 83.8654 216.618 83.6684 215.883 83.6162C215.147 83.5639 214.409 83.6573 213.709 83.891C213.01 84.1247 212.363 84.4942 211.806 84.9783C211.249 85.4625 210.793 86.0518 210.464 86.7126C210.134 87.3735 209.938 88.0929 209.886 88.8298C209.834 89.5666 209.927 90.3066 210.161 91.0073Z" fill="#CACACA"/>
<path d="M268.601 237H0.666472C0.489535 237 0.320025 236.929 0.195093 236.803C0.0701604 236.678 0 236.508 0 236.33C0 236.153 0.0701604 235.983 0.195093 235.857C0.320025 235.732 0.489535 235.661 0.666472 235.661H268.601C268.778 235.661 268.948 235.732 269.073 235.857C269.198 235.983 269.268 236.153 269.268 236.33C269.268 236.508 269.198 236.678 269.073 236.803C268.948 236.929 268.778 237 268.601 237Z" fill="#3F3D56"/>
</svg>
