<svg width="28" height="28" viewBox="0 0 28 28" fill="none" xmlns="http://www.w3.org/2000/svg">
<g clip-path="url(#clip0_2660_17844)">
<path d="M13.1409 0.519407C14.3951 0.5 15.6422 0.511501 16.8879 0.5C16.9634 1.96705 17.491 3.46141 18.5648 4.49862C19.6365 5.56171 21.1525 6.04833 22.6274 6.21293V10.0721C21.2452 10.0268 19.8565 9.73931 18.6022 9.14415C18.0559 8.89688 17.547 8.57846 17.0489 8.25285C17.0424 11.0533 17.0604 13.8501 17.0309 16.639C16.9562 17.9788 16.5141 19.3121 15.735 20.4162C14.4814 22.2541 12.3056 23.4523 10.0709 23.4897C8.70018 23.5681 7.33089 23.1943 6.16286 22.5057C4.22716 21.3643 2.86506 19.2748 2.66667 17.0321C2.64168 16.5572 2.63784 16.0814 2.65517 15.6061C2.82768 13.7825 3.72976 12.038 5.12996 10.8513C6.71704 9.46904 8.94026 8.81063 11.0219 9.20021C11.0413 10.6198 10.9845 12.038 10.9845 13.4576C10.0335 13.15 8.92229 13.2362 8.09137 13.8134C7.48345 14.2139 7.02404 14.8031 6.78389 15.4903C6.5855 15.9762 6.64229 16.516 6.65379 17.0321C6.88165 18.6048 8.39398 19.9267 10.0084 19.7837C11.0787 19.7722 12.1044 19.1511 12.6621 18.2419C12.8426 17.9234 13.0445 17.5978 13.0553 17.2233C13.1495 15.509 13.1121 13.8019 13.1236 12.0876C13.1315 8.2241 13.1121 4.37139 13.1416 0.520126L13.1409 0.519407Z" fill="#525252"/>
</g>
<defs>
<clipPath id="clip0_2660_17844">
<rect width="28" height="28" fill="white"/>
</clipPath>
</defs>
</svg>
