<svg width="66" height="63" viewBox="0 0 66 63" fill="none" xmlns="http://www.w3.org/2000/svg">
<path d="M60.3076 47.8459L63.2332 48.3147C64.2235 47.0853 64.9062 45.6266 65.2219 44.0652C63.0826 45.8607 59.8294 44.9066 57.2355 45.8869C56.4287 46.199 55.7008 46.6932 55.1056 47.333C54.5105 47.9727 54.0634 48.7416 53.7974 49.5826L52.3677 51.1599C53.6619 51.6853 55.0518 51.9167 56.4417 51.8383C57.8315 51.7598 59.1883 51.3733 60.4184 50.7054C61.1049 50.3238 61.7418 49.8549 62.3141 49.3101C61.2904 48.6491 60.3076 47.8459 60.3076 47.8459Z" fill="#F2F2F2"/>
<path d="M59.2687 43.0483L62.0911 42.13C62.4427 40.5767 62.4193 38.959 62.0227 37.4171C60.889 40.0024 57.5622 40.6361 55.6669 42.6997C55.0805 43.3479 54.644 44.1232 54.3896 44.9679C54.1352 45.8127 54.0694 46.7054 54.1972 47.5797L53.6035 49.6453C54.9904 49.5237 56.3351 49.0952 57.545 48.3894C58.7548 47.6836 59.8011 46.7173 60.6116 45.5569C61.0601 44.9014 61.4262 44.1905 61.7014 43.4412C60.4977 43.3177 59.2687 43.0483 59.2687 43.0483Z" fill="#F2F2F2"/>
<path d="M65.2374 52.1154C65.2375 52.1309 65.2345 52.1462 65.2288 52.1605C65.223 52.1748 65.2146 52.1878 65.2039 52.1988C65.1932 52.2097 65.1805 52.2184 65.1666 52.2243C65.1526 52.2302 65.1377 52.2332 65.1226 52.2332H0.137319C0.106857 52.2332 0.0776418 52.2208 0.0561018 52.1987C0.0345618 52.1766 0.0224609 52.1466 0.0224609 52.1154C0.0224609 52.0842 0.0345618 52.0542 0.0561018 52.0321C0.0776418 52.01 0.106857 51.9976 0.137319 51.9976H65.1226C65.1377 51.9976 65.1526 52.0006 65.1666 52.0065C65.1805 52.0124 65.1932 52.0211 65.2039 52.032C65.2146 52.043 65.223 52.056 65.2288 52.0703C65.2345 52.0846 65.2375 52.0999 65.2374 52.1154Z" fill="#CCCCCC"/>
<path d="M26.9508 47.0945C38.4116 47.0945 47.7024 37.5681 47.7024 25.8166C47.7024 14.0651 38.4116 4.5387 26.9508 4.5387C15.49 4.5387 6.19922 14.0651 6.19922 25.8166C6.19922 37.5681 15.49 47.0945 26.9508 47.0945Z" fill="#E6E6E6"/>
<path d="M44.8072 25.8167C44.8093 28.6735 44.1585 31.4911 42.9069 34.0435C41.6553 36.5959 39.8378 38.8121 37.6002 40.5143C37.4506 40.6291 37.2981 40.7409 37.1446 40.8498C34.1523 42.9825 30.5954 44.1256 26.9512 44.1256C23.3071 44.1256 19.7501 42.9825 16.7579 40.8498C16.6044 40.7409 16.4519 40.6291 16.3023 40.5143C14.0662 38.8106 12.2498 36.5941 10.9984 34.0421C9.74698 31.49 9.09521 28.6731 9.09521 25.8167C9.09521 22.9602 9.74698 20.1433 10.9984 17.5912C12.2498 15.0392 14.0662 12.8227 16.3023 11.1191C16.4519 11.0043 16.6044 10.8924 16.7579 10.7836C19.7501 8.65083 23.3071 7.50774 26.9512 7.50774C30.5954 7.50774 34.1523 8.65083 37.1446 10.7836C37.2981 10.8924 37.4506 11.0043 37.6002 11.1191C39.8378 12.8212 41.6553 15.0374 42.9069 17.5898C44.1585 20.1422 44.8093 22.9598 44.8072 25.8167Z" fill="white"/>
<path d="M26.9509 42.5421C35.9596 42.5421 43.2626 35.0538 43.2626 25.8166C43.2626 16.5794 35.9596 9.09121 26.9509 9.09121C17.9422 9.09121 10.6392 16.5794 10.6392 25.8166C10.6392 35.0538 17.9422 42.5421 26.9509 42.5421Z" fill="#EF4444"/>
<path opacity="0.2" d="M26.9938 9.13797C26.7465 9.13797 26.5008 9.1446 26.2562 9.15577C30.3789 9.52723 34.2097 11.4917 36.9725 14.6511C39.7354 17.8106 41.2237 21.9288 41.1359 26.1714C41.048 30.414 39.3907 34.4637 36.4996 37.5001C33.6085 40.5365 29.6998 42.3325 25.5654 42.5243C26.0362 42.5662 26.5124 42.5888 26.9938 42.5888C31.3199 42.5888 35.4689 40.8267 38.5279 37.6901C41.5869 34.5534 43.3055 30.2993 43.3055 25.8634C43.3055 21.4275 41.5869 17.1734 38.5279 14.0367C35.4689 10.9001 31.3199 9.13797 26.9938 9.13797V9.13797Z" fill="black"/>
<path d="M26.9991 7.90361C26.8584 7.90386 26.7235 7.96129 26.624 8.06332C26.5245 8.16534 26.4685 8.30364 26.4683 8.44793V10.8231C26.4683 10.9675 26.5242 11.1059 26.6237 11.208C26.7233 11.3101 26.8583 11.3675 26.9991 11.3675C27.1399 11.3675 27.2749 11.3101 27.3745 11.208C27.474 11.1059 27.53 10.9675 27.53 10.8231V8.44793C27.5297 8.30364 27.4737 8.16534 27.3742 8.06332C27.2747 7.96129 27.1398 7.90386 26.9991 7.90361Z" fill="white"/>
<path d="M37.5999 11.119C37.4503 11.0042 37.2978 10.8924 37.1444 10.7835C37.0523 10.7774 36.9602 10.796 36.8773 10.8375C36.7943 10.8789 36.7234 10.9419 36.6714 11.0201L35.3674 12.9826C35.2882 13.1019 35.2585 13.2486 35.2847 13.3904C35.3109 13.5322 35.3911 13.6575 35.5074 13.7387C35.6237 13.8199 35.7668 13.8505 35.9051 13.8235C36.0434 13.7966 36.1656 13.7145 36.2448 13.5952L37.5488 11.6327C37.5984 11.5582 37.6291 11.4722 37.638 11.3825C37.6469 11.2928 37.6338 11.2022 37.5999 11.119Z" fill="white"/>
<path d="M43.5242 20.0677C43.498 20.0015 43.4593 19.9413 43.4104 19.8904C43.3614 19.8396 43.3032 19.7991 43.239 19.7714C43.1749 19.7436 43.106 19.7291 43.0363 19.7287C42.9667 19.7282 42.8976 19.7418 42.8331 19.7688L40.6865 20.6624C40.5562 20.7169 40.4523 20.8221 40.3977 20.955C40.343 21.088 40.342 21.2377 40.395 21.3714C40.448 21.505 40.5505 21.6116 40.6801 21.6678C40.8097 21.724 40.9557 21.7251 41.0861 21.6709L43.2327 20.7772C43.3629 20.7225 43.4667 20.6172 43.5213 20.4842C43.576 20.3512 43.577 20.2014 43.5242 20.0677Z" fill="white"/>
<path d="M18.5345 12.9826L17.2305 11.0201C17.1786 10.9419 17.1076 10.8789 17.0247 10.8375C16.9417 10.796 16.8497 10.7774 16.7576 10.7835C16.6041 10.8924 16.4516 11.0042 16.302 11.119C16.2681 11.2022 16.255 11.2928 16.264 11.3825C16.2729 11.4722 16.3036 11.5582 16.3532 11.6327L17.6571 13.5952C17.7364 13.7145 17.8586 13.7966 17.9969 13.8235C18.1352 13.8505 18.2782 13.8199 18.3946 13.7387C18.5109 13.6575 18.591 13.5322 18.6173 13.3904C18.6435 13.2486 18.6137 13.1019 18.5345 12.9826Z" fill="white"/>
<path d="M13.2155 20.6624L11.0689 19.7687C10.9385 19.7144 10.7924 19.7155 10.6627 19.7716C10.533 19.8278 10.4304 19.9344 10.3774 20.0682C10.3244 20.2019 10.3254 20.3517 10.3802 20.4847C10.4349 20.6176 10.5389 20.7229 10.6693 20.7772L12.8159 21.6709C12.9463 21.7251 13.0923 21.7239 13.2219 21.6678C13.3515 21.6116 13.454 21.505 13.507 21.3713C13.5599 21.2377 13.559 21.0879 13.5043 20.955C13.4497 20.8221 13.3458 20.7168 13.2155 20.6624V20.6624Z" fill="white"/>
<path d="M26.9991 40.2658C26.8584 40.2661 26.7235 40.3235 26.624 40.4255C26.5245 40.5275 26.4685 40.6658 26.4683 40.8101V43.1853C26.4683 43.3297 26.5242 43.4681 26.6237 43.5702C26.7233 43.6723 26.8583 43.7297 26.9991 43.7297C27.1399 43.7297 27.2749 43.6723 27.3745 43.5702C27.474 43.4681 27.53 43.3297 27.53 43.1853V40.8101C27.5297 40.6658 27.4737 40.5275 27.3742 40.4255C27.2747 40.3235 27.1398 40.2661 26.9991 40.2658Z" fill="white"/>
<path d="M37.5488 40.0006L36.2448 38.0381C36.2056 37.979 36.1554 37.9284 36.0971 37.8892C36.0388 37.8501 35.9736 37.823 35.9051 37.8097C35.8366 37.7964 35.7663 37.797 35.698 37.8116C35.6298 37.8261 35.565 37.8543 35.5074 37.8946C35.4498 37.9348 35.4005 37.9863 35.3623 38.046C35.324 38.1058 35.2977 38.1727 35.2847 38.2429C35.2717 38.3131 35.2723 38.3853 35.2865 38.4552C35.3007 38.5252 35.3282 38.5916 35.3674 38.6507L36.6714 40.6132C36.7234 40.6914 36.7943 40.7543 36.8773 40.7958C36.9602 40.8373 37.0523 40.8559 37.1444 40.8497C37.2978 40.7409 37.4503 40.629 37.5999 40.5142C37.6338 40.431 37.6469 40.3404 37.638 40.2507C37.6291 40.161 37.5984 40.075 37.5488 40.0006Z" fill="white"/>
<path d="M43.233 30.856L41.0865 29.9624C40.956 29.9081 40.8099 29.9091 40.6803 29.9652C40.5506 30.0214 40.448 30.128 40.395 30.2618C40.342 30.3955 40.343 30.5453 40.3977 30.6783C40.4525 30.8112 40.5565 30.9165 40.6869 30.9708L42.8335 31.8645C42.9638 31.9187 43.1099 31.9176 43.2395 31.8614C43.3691 31.8052 43.4716 31.6986 43.5246 31.5649C43.5775 31.4313 43.5766 31.2815 43.5219 31.1486C43.4672 31.0157 43.3633 30.9104 43.233 30.856V30.856Z" fill="white"/>
<path d="M18.3945 37.8946C18.2782 37.8134 18.1352 37.7829 17.9969 37.8098C17.8586 37.8367 17.7364 37.9188 17.6572 38.0381L16.3532 40.0006C16.3036 40.075 16.2729 40.161 16.264 40.2507C16.255 40.3404 16.2681 40.431 16.302 40.5142C16.4516 40.629 16.6041 40.7409 16.7576 40.8497C16.8497 40.8559 16.9417 40.8373 17.0247 40.7958C17.1076 40.7543 17.1786 40.6914 17.2305 40.6132L18.5345 38.6507C18.5737 38.5916 18.6012 38.5252 18.6154 38.4552C18.6296 38.3853 18.6303 38.3131 18.6173 38.2429C18.6043 38.1727 18.5779 38.1058 18.5397 38.046C18.5015 37.9862 18.4522 37.9348 18.3945 37.8946Z" fill="white"/>
<path d="M13.5071 30.2613C13.4809 30.1951 13.4422 30.1349 13.3933 30.084C13.3443 30.0332 13.2861 29.9928 13.2219 29.965C13.1578 29.9372 13.0889 29.9227 13.0192 29.9223C12.9496 29.9218 12.8805 29.9355 12.816 29.9624L10.6694 30.8561C10.5391 30.9105 10.4352 31.0157 10.3806 31.1487C10.3259 31.2816 10.3249 31.4313 10.3779 31.565C10.4309 31.6986 10.5334 31.8053 10.663 31.8614C10.7926 31.9176 10.9386 31.9187 11.069 31.8645L13.2156 30.9709C13.3458 30.9162 13.4496 30.8108 13.5043 30.6778C13.5589 30.5448 13.5599 30.395 13.5071 30.2613Z" fill="white"/>
<path d="M27.6882 25.5466C27.7373 25.8441 27.6692 26.1494 27.4989 26.3955C27.3287 26.6417 27.0702 26.8085 26.7801 26.8594L17.3601 28.5024C17.2164 28.5275 17.0693 28.5233 16.9271 28.49C16.785 28.4568 16.6507 28.3952 16.5318 28.3087C16.4129 28.2223 16.3118 28.1126 16.2342 27.9861C16.1566 27.8596 16.1041 27.7186 16.0797 27.5712C16.0552 27.4239 16.0593 27.2731 16.0917 27.1273C16.1242 26.9816 16.1842 26.8439 16.2686 26.722C16.3529 26.6001 16.4598 26.4964 16.5832 26.4168C16.7066 26.3373 16.8441 26.2835 16.9878 26.2584L26.4079 24.6154C26.698 24.5651 26.9958 24.635 27.2358 24.8095C27.4759 24.9841 27.6386 25.2492 27.6882 25.5466Z" fill="#3F3D56"/>
<path d="M37.6025 36.2479C37.4672 36.3875 37.2834 36.4663 37.0914 36.4671C36.8995 36.4679 36.7151 36.3905 36.5787 36.2521L26.4382 25.9359C26.3021 25.7972 26.2253 25.6087 26.2246 25.412C26.2239 25.2153 26.2995 25.0263 26.4346 24.8866C26.5698 24.747 26.7534 24.668 26.9453 24.6672C27.1372 24.6663 27.3215 24.7436 27.4579 24.882L37.5984 35.1983C37.7345 35.337 37.8114 35.5255 37.8122 35.7222C37.8129 35.919 37.7375 36.1081 37.6025 36.2479Z" fill="#3F3D56"/>
<path d="M26.951 27.1032C27.644 27.1032 28.2058 26.5272 28.2058 25.8167C28.2058 25.1061 27.644 24.5301 26.951 24.5301C26.2581 24.5301 25.6963 25.1061 25.6963 25.8167C25.6963 26.5272 26.2581 27.1032 26.951 27.1032Z" fill="#CCCCCC"/>
<path d="M18.3083 3.50738C16.3823 6.61222 13.4436 8.67273 9.81951 10.0264C9.7479 10.0814 9.66642 10.1214 9.57974 10.1441C9.49305 10.1668 9.40285 10.1718 9.31428 10.1587C9.22572 10.1457 9.14052 10.1149 9.06356 10.0681C8.98661 10.0213 8.91939 9.95943 8.86576 9.886C6.89716 7.19088 7.34167 3.33903 9.9398 1.27965C10.5679 0.782625 11.2861 0.418492 12.0526 0.208387C12.8191 -0.00171747 13.6187 -0.0536085 14.4049 0.055728C15.1911 0.165064 15.9483 0.43345 16.6326 0.845302C17.3168 1.25716 17.9145 1.80427 18.3908 2.45489L18.4452 2.52943C18.4989 2.60286 18.5379 2.68641 18.56 2.77529C18.5822 2.86418 18.587 2.95667 18.5743 3.04748C18.5616 3.13829 18.5316 3.22564 18.4859 3.30455C18.4403 3.38346 18.3799 3.45238 18.3083 3.50738Z" fill="#E6E6E6"/>
<path d="M35.5112 2.45489C35.9876 1.80427 36.5852 1.25715 37.2694 0.845301C37.9537 0.433449 38.7109 0.165065 39.4971 0.0557284C40.2833 -0.0536081 41.0829 -0.00171856 41.8494 0.208386C42.6159 0.418491 43.3341 0.782624 43.9622 1.27965C46.5604 3.33903 47.0049 7.19088 45.0363 9.886C44.9826 9.95943 44.9154 10.0213 44.8385 10.0681C44.7615 10.1149 44.6763 10.1457 44.5877 10.1587C44.4992 10.1718 44.409 10.1668 44.3223 10.1441C44.2356 10.1214 44.1541 10.0814 44.0825 10.0264C40.7181 8.70562 37.9591 6.42007 35.5937 3.50738C35.4491 3.39631 35.3534 3.23088 35.3277 3.04747C35.302 2.86407 35.3485 2.67773 35.4568 2.52943L35.5112 2.45489Z" fill="#E6E6E6"/>
<path d="M34.6673 44.251C34.5446 44.3217 34.4543 44.4394 34.416 44.5782C34.3778 44.7171 34.3948 44.8658 34.4633 44.9918L37.527 50.6055C37.5957 50.7314 37.7105 50.8242 37.8459 50.8634C37.9814 50.9026 38.1265 50.8851 38.2494 50.8146C38.3722 50.7441 38.4627 50.6265 38.501 50.4876C38.5393 50.3487 38.5222 50.1998 38.4535 50.0739L35.3898 44.4602C35.3208 44.3344 35.2061 44.2418 35.0707 44.2026C34.9353 44.1634 34.7902 44.1808 34.6673 44.251Z" fill="#E6E6E6"/>
<path d="M18.5126 44.4603L15.4489 50.0739C15.3802 50.1999 15.3631 50.3487 15.4013 50.4876C15.4396 50.6265 15.5301 50.7442 15.653 50.8146C15.7758 50.8851 15.9209 50.9027 16.0564 50.8635C16.1919 50.8243 16.3066 50.7315 16.3754 50.6056L19.4391 44.9919C19.4732 44.9295 19.4949 44.8609 19.5031 44.7899C19.5113 44.7189 19.5057 44.6469 19.4868 44.5781C19.4679 44.5093 19.4359 44.445 19.3927 44.3889C19.3495 44.3327 19.296 44.2859 19.2351 44.251C19.1743 44.2161 19.1073 44.1938 19.0381 44.1854C18.9688 44.177 18.8987 44.1827 18.8316 44.2022C18.7645 44.2216 18.7018 44.2544 18.647 44.2987C18.5923 44.343 18.5466 44.3979 18.5126 44.4603H18.5126Z" fill="#E6E6E6"/>
<path d="M38.1472 52.0429C39.0534 52.0429 39.788 51.2896 39.788 50.3604C39.788 49.4313 39.0534 48.678 38.1472 48.678C37.241 48.678 36.5063 49.4313 36.5063 50.3604C36.5063 51.2896 37.241 52.0429 38.1472 52.0429Z" fill="#E6E6E6"/>
<path d="M39.3054 8.99224C40.2116 8.99224 40.9462 8.23899 40.9462 7.3098C40.9462 6.38062 40.2116 5.62737 39.3054 5.62737C38.3992 5.62737 37.6646 6.38062 37.6646 7.3098C37.6646 8.23899 38.3992 8.99224 39.3054 8.99224Z" fill="#E6E6E6"/>
<path d="M26.8547 5.03357C27.7609 5.03357 28.4955 4.28032 28.4955 3.35113C28.4955 2.42195 27.7609 1.66869 26.8547 1.66869C25.9485 1.66869 25.2139 2.42195 25.2139 3.35113C25.2139 4.28032 25.9485 5.03357 26.8547 5.03357Z" fill="#E6E6E6"/>
<path d="M14.9826 8.79432C15.8888 8.79432 16.6234 8.04106 16.6234 7.11188C16.6234 6.18269 15.8888 5.42944 14.9826 5.42944C14.0764 5.42944 13.3418 6.18269 13.3418 7.11188C13.3418 8.04106 14.0764 8.79432 14.9826 8.79432Z" fill="#E6E6E6"/>
<path d="M16.0446 52.0429C16.9508 52.0429 17.6855 51.2896 17.6855 50.3604C17.6855 49.4313 16.9508 48.678 16.0446 48.678C15.1384 48.678 14.4038 49.4313 14.4038 50.3604C14.4038 51.2896 15.1384 52.0429 16.0446 52.0429Z" fill="#E6E6E6"/>
<path d="M36.8604 35.3017C36.925 35.4056 37.0111 35.4936 37.1126 35.5596C37.214 35.6257 37.3284 35.6681 37.4476 35.6839C37.5667 35.6997 37.6878 35.6886 37.8023 35.6512C37.9168 35.6138 38.022 35.5512 38.1103 35.4677L40.685 36.8822L40.5469 35.3323L38.1231 34.2266C37.9764 34.0837 37.7837 34.001 37.5815 33.9941C37.3793 33.9872 37.1817 34.0565 37.026 34.1891C36.8704 34.3216 36.7675 34.508 36.737 34.7131C36.7065 34.9182 36.7504 35.1276 36.8604 35.3017H36.8604Z" fill="#FFB7B7"/>
<path d="M38.7363 35.8427L39.7453 34.4146L44.606 36.7707L50.6545 35.607C50.9535 35.5495 51.2612 35.5601 51.5557 35.6383C51.8502 35.7164 52.1243 35.86 52.3586 36.059C52.5928 36.2579 52.7815 36.5073 52.9112 36.7895C53.0409 37.0716 53.1084 37.3796 53.109 37.6915C53.1094 38.2548 52.8919 38.7954 52.5041 39.1945C52.1163 39.5936 51.5899 39.8187 51.0405 39.8203L44.1089 39.8335L38.7363 35.8427Z" fill="#3F3D56"/>
<path d="M37.182 60.5078L36.1611 60.0072L37.5635 55.6321L39.07 56.371L37.182 60.5078Z" fill="#FFB7B7"/>
<path d="M44.026 59.8026C43.9518 59.8502 43.8776 59.8971 43.8026 59.944C43.6534 60.0378 43.5026 60.1301 43.3519 60.2208C43.2762 60.2662 43.1997 60.3116 43.124 60.3561V60.3584L43.1195 60.3592L43.118 60.36L43.0025 60.3892L42.8368 59.9402L42.7603 59.7334L42.6523 59.4404L42.4544 58.9046L41.4121 56.0829L43.0325 55.6731L43.0932 55.9276H43.094L43.124 56.0537L43.6901 58.4079L43.8056 58.8892L43.8093 58.9038L43.8791 59.1913L43.939 59.4405L44.0058 59.7188L44.026 59.8026Z" fill="#FFB7B7"/>
<path d="M53.6922 49.8935C53.5895 50.0626 53.4845 50.231 53.3788 50.3979C53.1824 50.7085 52.9806 51.0145 52.7737 51.3159C52.7737 51.3166 52.7729 51.3166 52.7722 51.3174C52.6515 51.4321 52.5181 51.5319 52.3748 51.615C52.3688 51.6196 52.362 51.6226 52.356 51.6265C52.2505 51.6863 52.1382 51.7325 52.0216 51.7641C51.9796 51.7749 51.9369 51.7856 51.8949 51.7964C51.7434 51.8333 51.5935 51.8648 51.4442 51.8925C51.1788 51.9409 50.9164 51.9755 50.6554 51.9971C50.6344 51.9994 50.6134 52.0009 50.5924 52.0024C49.5194 52.0832 48.4749 51.9532 47.3847 51.7403C46.8463 51.6357 46.2967 51.5104 45.7275 51.3804C45.5416 51.3374 45.3549 51.2951 45.1659 51.2528C45.1517 51.2497 45.1367 51.2459 45.1217 51.2428C44.8517 51.1821 44.5773 51.1221 44.2961 51.0629C43.9422 50.9883 43.577 50.9161 43.1976 50.8476L43.2246 51.3958C43.2471 51.8175 43.3326 52.2332 43.4781 52.6283C43.64 53.1142 43.7682 53.4986 43.4975 54.299L43.3671 54.6865C43.4347 54.8789 43.4579 55.0848 43.4349 55.288C43.4119 55.4911 43.3432 55.6861 43.2344 55.8575L43.2081 55.8982L44.2961 58.7206L44.3666 58.9036H43.8095L43.1241 58.9044H41.9626L40.2868 55.4569L40.2065 55.2924V55.2839L40.3798 48.6587C40.382 48.6003 40.3865 48.5411 40.394 48.4827C40.4245 48.217 40.5064 47.9603 40.6347 47.7274C40.7631 47.4946 40.9354 47.2903 41.1416 47.1264C41.3392 46.9681 41.5655 46.8516 41.8073 46.7838C42.0492 46.7159 42.3018 46.6981 42.5505 46.7312L43.1241 46.8073L44.2961 46.9627L45.1217 47.0726L45.1382 47.0749L47.5729 47.3978L47.7476 46.6674L47.7798 46.6551L48.8049 46.2699L52.35 44.9375L52.359 44.9344L52.5922 44.8468L52.62 44.8929C52.6282 44.9067 52.6365 44.9206 52.644 44.9344C52.8745 45.3581 53.0621 45.8048 53.2041 46.2676C53.4428 47.0236 53.6393 47.7929 53.7927 48.5719C53.7995 48.6057 53.8055 48.6364 53.8107 48.6641L53.813 48.6726C53.8152 48.6856 53.8167 48.6941 53.8175 48.6964C53.8992 49.0455 53.8422 49.4714 53.6922 49.8935Z" fill="#2F2E41"/>
<path d="M53.8419 47.4519C53.8306 47.4027 53.8164 47.3527 53.8014 47.3043C53.6823 46.9374 53.5436 46.5776 53.386 46.2263C53.209 45.8265 52.9968 45.3983 52.7441 44.9347C52.6219 44.7102 52.4904 44.4767 52.3497 44.2343C52.2792 44.1128 52.206 43.989 52.13 43.8629C52.127 43.8571 52.1238 43.8515 52.1203 43.846L52.0985 43.8091L48.5908 44.2904L47.2846 44.4695L47.2066 45.1369L47.1879 45.3022C47.1871 45.3022 47.1871 45.3022 47.1879 45.303L47.1354 45.7535V45.7543L47.0657 46.3494L47.0597 46.3486L45.1213 46.091L43.1238 45.8258L42.0508 45.6836C41.8021 45.6503 41.5495 45.6682 41.3076 45.736C41.0657 45.8038 40.8394 45.9204 40.6419 46.0787C40.4357 46.2426 40.2634 46.447 40.1351 46.6798C40.0067 46.9127 39.9249 47.1694 39.8943 47.435C39.8875 47.4888 39.883 47.5442 39.8808 47.5988L38.8685 50.0583C38.2628 51.5292 37.877 53.0855 37.7243 54.6745L36.9819 57.1079L37.0877 57.1179L38.6608 57.2678L39.0762 57.3078L39.991 55.9385C40.0952 55.7824 40.1942 55.6217 40.2864 55.4572C40.4383 55.1884 40.5733 54.9101 40.6906 54.6237L42.6694 49.7954C42.8224 49.8223 42.9738 49.8479 43.1238 49.8722C43.8174 49.9876 44.4832 50.0816 45.1213 50.1544C47.1961 50.392 48.9927 50.4104 50.5921 50.209C51.0412 50.1529 51.4754 50.0791 51.8946 49.9876C52.0483 49.9545 52.2 49.9189 52.3497 49.8807C52.3849 49.8722 52.4194 49.8638 52.4539 49.8546C52.7638 49.7726 53.0487 49.6123 53.2825 49.3882C53.5164 49.1642 53.6917 48.8836 53.7924 48.5721C53.9126 48.2112 53.9298 47.8225 53.8419 47.4519Z" fill="#2F2E41"/>
<path d="M37.5083 59.7934L36.4038 59.2506L36.2305 59.1653L35.9539 59.8619L34.0223 60.2978C33.9268 60.3193 33.8405 60.3715 33.776 60.4469C33.7115 60.5222 33.6722 60.6167 33.6638 60.7166C33.6554 60.8165 33.6784 60.9165 33.7294 61.002C33.7804 61.0876 33.8568 61.1541 33.9473 61.192L35.8346 61.9816L36.4337 61.4288L36.2868 62.1707L36.9976 62.4683L37.7767 59.9257L37.5083 59.7934Z" fill="#2F2E41"/>
<path d="M44.2959 58.7206L44.366 58.9036H44.2959V58.7206Z" fill="#2F2E41"/>
<path d="M43.9116 58.9427L42.7542 59.3538L42.5726 59.4181L42.854 60.1127L41.7806 61.8161C41.7275 61.9002 41.702 61.9996 41.7079 62.0997C41.7137 62.1997 41.7507 62.2953 41.8132 62.3723C41.8758 62.4493 41.9608 62.5038 42.0557 62.5278C42.1507 62.5517 42.2506 62.5439 42.3409 62.5055L44.2239 61.705L44.2702 60.8799L44.6749 61.5132L45.3842 61.2117L44.193 58.843L43.9116 58.9427Z" fill="#2F2E41"/>
<path d="M53.5533 48.5658C53.4846 48.5657 53.4169 48.5485 53.3561 48.5156L47.249 45.2435L47.1784 44.9473L47.0454 44.0099L47.0472 44.0011L47.6281 41.2555C47.6174 41.2319 47.5952 41.1932 47.57 41.1496C47.3107 40.6991 46.5216 39.328 48.0277 37.4402L50.6718 34.2793L52.9413 34.1792L52.9671 34.2126C53.5739 34.9936 53.9832 35.9161 54.1585 36.8984C54.3337 37.8806 54.2697 38.892 53.9719 39.8427L53.7356 44.2187L53.989 45.1024C54.1372 45.6218 54.1127 46.1769 53.9194 46.6804L53.9775 48.1114C53.9797 48.17 53.9705 48.2285 53.9502 48.2834C53.9299 48.3383 53.8991 48.3885 53.8595 48.4309C53.8199 48.4733 53.7724 48.5071 53.7198 48.5303C53.6672 48.5535 53.6106 48.5655 53.5533 48.5658L53.5533 48.5658Z" fill="#3F3D56"/>
<path d="M48.2558 52.1747C48.3592 52.1121 48.448 52.0269 48.5159 51.9252C48.5838 51.8236 48.6291 51.7079 48.6487 51.5863C48.6683 51.4647 48.6616 51.3402 48.6292 51.2216C48.5967 51.1029 48.5393 50.993 48.461 50.8996L49.9293 48.3104L48.4138 48.398L47.2518 50.8433C47.1074 50.9887 47.0201 51.1832 47.0063 51.3902C46.9925 51.5972 47.0533 51.8021 47.177 51.9663C47.3008 52.1304 47.4789 52.2422 47.6778 52.2807C47.8766 52.3191 48.0822 52.2814 48.2557 52.1747L48.2558 52.1747Z" fill="#FFB7B7"/>
<path d="M48.848 50.2712L47.4912 49.1876L49.9567 44.2886L49.0329 38.0499C48.9872 37.7415 49.0083 37.4266 49.0947 37.1275C49.1811 36.8284 49.3306 36.5525 49.5327 36.3194C49.7347 36.0862 49.9844 35.9016 50.2639 35.7785C50.5434 35.6554 50.8459 35.5969 51.1499 35.6071C51.6991 35.6263 52.2183 35.868 52.5938 36.2793C52.9693 36.6906 53.1704 37.2378 53.1529 37.8009L52.9246 44.9045L48.848 50.2712Z" fill="#3F3D56"/>
<path d="M49.2158 32.9658V30.6632C49.2153 29.8449 49.5319 29.0598 50.0958 28.4808C50.6598 27.9018 51.425 27.5762 52.2231 27.5757C53.0211 27.5752 53.7867 27.8997 54.3514 28.478C54.9161 29.0563 55.2337 29.8409 55.2342 30.6592V30.6632C55.7645 31.7964 55.4327 32.3352 55.2342 32.9658C55.234 33.0756 55.1914 33.1809 55.1156 33.2586C55.0399 33.3362 54.9372 33.3799 54.8301 33.3801H49.6201C49.5129 33.38 49.4102 33.3363 49.3344 33.2586C49.2586 33.181 49.216 33.0757 49.2158 32.9658Z" fill="#2F2E41"/>
<path d="M51.2388 33.2305C52.4828 33.2305 53.4913 32.1965 53.4913 30.9209C53.4913 29.6453 52.4828 28.6113 51.2388 28.6113C49.9948 28.6113 48.9863 29.6453 48.9863 30.9209C48.9863 32.1965 49.9948 33.2305 51.2388 33.2305Z" fill="#FFB7B7"/>
<path d="M53.5958 31.5264C53.5754 31.5231 53.555 31.5187 53.5346 31.5153C53.1832 31.4515 52.8319 31.3887 52.4816 31.3236L52.4494 30.5095L52.025 31.2388C51.0569 31.5682 50.1511 31.382 49.299 30.9711C49.018 30.8343 48.7453 30.6801 48.4824 30.5095C48.554 30.0592 48.7228 29.631 48.9766 29.2562C49.2304 28.8815 49.5626 28.5696 49.9491 28.3435C49.9813 28.3248 50.0125 28.3082 50.0447 28.2917C50.0449 28.2917 50.045 28.2917 50.0451 28.2916C50.0453 28.2916 50.0454 28.2915 50.0455 28.2914C50.0456 28.2913 50.0456 28.2912 50.0457 28.291C50.0458 28.2909 50.0458 28.2907 50.0458 28.2906C50.1006 28.2642 50.1565 28.2388 50.2123 28.2157C50.6497 28.0404 51.1267 27.996 51.5877 28.0877C52.0488 28.1793 52.475 28.4033 52.8168 28.7335C53.5045 29.4067 53.814 30.5183 53.5958 31.5264Z" fill="#2F2E41"/>
</svg>
