<svg width="23" height="24" viewBox="0 0 23 24" fill="none" xmlns="http://www.w3.org/2000/svg">
<g clip-path="url(#clip0_5060_1458)">
<path d="M2.33301 11H20.6663V20C20.6663 20.2652 20.5698 20.5196 20.3979 20.7071C20.2259 20.8946 19.9928 21 19.7497 21H3.24967C3.00656 21 2.7734 20.8946 2.60149 20.7071C2.42958 20.5196 2.33301 20.2652 2.33301 20V11ZM16.083 3H19.7497C19.9928 3 20.2259 3.10536 20.3979 3.29289C20.5698 3.48043 20.6663 3.73478 20.6663 4V9H2.33301V4C2.33301 3.73478 2.42958 3.48043 2.60149 3.29289C2.7734 3.10536 3.00656 3 3.24967 3H6.91634V1H8.74967V3H14.2497V1H16.083V3Z" fill="currentColor"/>
</g>
<defs>
<clipPath id="clip0_5060_1458">
<rect width="22" height="24" fill="currentColor" transform="translate(0.5)"/>
</clipPath>
</defs>
</svg>
