<svg width="28" height="28" viewBox="0 0 28 28" fill="none" xmlns="http://www.w3.org/2000/svg">
<path d="M22.75 3.5H5.25C4.78587 3.5 4.34075 3.68437 4.01256 4.01256C3.68437 4.34075 3.5 4.78587 3.5 5.25V21C3.5 21.4641 3.68437 21.9092 4.01256 22.2374C4.34075 22.5656 4.78587 22.75 5.25 22.75H7V26.25C6.99953 26.4157 7.04671 26.578 7.13592 26.7176C7.22512 26.8573 7.35259 26.9683 7.50312 27.0375C7.61735 27.0985 7.74554 27.1287 7.875 27.125C8.0804 27.128 8.27945 27.0539 8.43281 26.9172L13.4422 22.75H18.0578C18.4658 22.751 18.861 22.6077 19.1734 22.3453L23.8656 18.4297C24.064 18.2685 24.2239 18.0651 24.3337 17.8342C24.4434 17.6034 24.5002 17.3509 24.5 17.0953V5.25C24.5 4.78587 24.3156 4.34075 23.9874 4.01256C23.6592 3.68437 23.2141 3.5 22.75 3.5ZM14 14.875C14 15.1071 13.9078 15.3296 13.7437 15.4937C13.5796 15.6578 13.3571 15.75 13.125 15.75C12.8929 15.75 12.6704 15.6578 12.5063 15.4937C12.3422 15.3296 12.25 15.1071 12.25 14.875V9.625C12.25 9.39294 12.3422 9.17038 12.5063 9.00628C12.6704 8.84219 12.8929 8.75 13.125 8.75C13.3571 8.75 13.5796 8.84219 13.7437 9.00628C13.9078 9.17038 14 9.39294 14 9.625V14.875ZM19.25 14.875C19.25 15.1071 19.1578 15.3296 18.9937 15.4937C18.8296 15.6578 18.6071 15.75 18.375 15.75C18.1429 15.75 17.9204 15.6578 17.7563 15.4937C17.5922 15.3296 17.5 15.1071 17.5 14.875V9.625C17.5 9.39294 17.5922 9.17038 17.7563 9.00628C17.9204 8.84219 18.1429 8.75 18.375 8.75C18.6071 8.75 18.8296 8.84219 18.9937 9.00628C19.1578 9.17038 19.25 9.39294 19.25 9.625V14.875Z" fill="#525252"/>
</svg>
