<svg width="20" height="20" viewBox="0 0 20 20" fill="none" xmlns="http://www.w3.org/2000/svg">
<path d="M1.66797 18.333C1.66797 14.6511 4.65274 11.6663 8.33464 11.6663C12.0166 11.6663 15.0013 14.6511 15.0013 18.333H13.3346C13.3346 15.5716 11.0961 13.333 8.33464 13.333C5.57321 13.333 3.33464 15.5716 3.33464 18.333H1.66797ZM8.33464 10.833C5.57214 10.833 3.33464 8.59551 3.33464 5.83301C3.33464 3.07051 5.57214 0.833008 8.33464 0.833008C11.0971 0.833008 13.3346 3.07051 13.3346 5.83301C13.3346 8.59551 11.0971 10.833 8.33464 10.833ZM8.33464 9.16634C10.1763 9.16634 11.668 7.67467 11.668 5.83301C11.668 3.99134 10.1763 2.49967 8.33464 2.49967C6.49297 2.49967 5.0013 3.99134 5.0013 5.83301C5.0013 7.67467 6.49297 9.16634 8.33464 9.16634ZM15.2377 12.252C17.555 13.2964 19.168 15.6263 19.168 18.333H17.5013C17.5013 16.303 16.2916 14.5556 14.5536 13.7723L15.2377 12.252ZM14.6648 2.84402C16.33 3.53053 17.5013 5.16935 17.5013 7.08301C17.5013 9.47484 15.6715 11.4373 13.3346 11.6477V9.97017C14.7486 9.76817 15.8346 8.55301 15.8346 7.08301C15.8346 5.93247 15.1693 4.93803 14.2021 4.4633L14.6648 2.84402Z" fill="#737373"/>
</svg>
