<svg width="269" height="317" viewBox="0 0 269 317" fill="none" xmlns="http://www.w3.org/2000/svg">
<g clip-path="url(#clip0_3974_44709)">
<path d="M77.7 266.021L75.0391 317C75.0391 317 187.592 210.105 201.615 178.829C215.637 147.553 189.242 70.1855 189.242 70.1855L130.679 102.285L77.7 266.021Z" fill="url(#paint0_linear_3974_44709)"/>
<path d="M250.279 48.7852L267.6 50.4313C267.6 50.4313 276.673 70.1846 248.629 71.8308L250.279 48.7852Z" fill="#E8E8E8"/>
<path d="M250.279 79.2383L267.6 80.8844C267.6 80.8844 276.673 100.638 248.629 102.284L250.279 79.2383Z" fill="#E8E8E8"/>
<path d="M250.279 112.162L267.6 113.808C267.6 113.808 276.673 133.562 248.629 135.208L250.279 112.162Z" fill="#E8E8E8"/>
<path d="M245.329 145.084L262.651 146.73C262.651 146.73 271.724 166.483 243.68 168.13L245.329 145.084Z" fill="#E8E8E8"/>
<path d="M258.711 56.7215H257.397V20.7939C257.397 18.0632 256.858 15.3593 255.81 12.8364C254.763 10.3136 253.228 8.02131 251.293 6.09041C249.358 4.15951 247.061 2.62785 244.533 1.58285C242.004 0.537858 239.295 2.09214e-06 236.558 0H160.276C157.54 -5.5789e-06 154.83 0.537841 152.302 1.58283C149.773 2.62781 147.476 4.15948 145.541 6.09037C143.606 8.02126 142.071 10.3136 141.024 12.8364C139.977 15.3592 139.438 18.0632 139.438 20.7939V217.895C139.437 220.626 139.977 223.33 141.024 225.853C142.071 228.376 143.606 230.668 145.541 232.599C147.476 234.53 149.773 236.062 152.302 237.107C154.83 238.152 157.54 238.689 160.276 238.689H236.558C242.085 238.689 247.385 236.499 251.293 232.599C255.201 228.699 257.397 223.41 257.397 217.896V82.2954H258.711V56.7215Z" fill="#3F3D56"/>
<path d="M252.96 20.9377V217.751C252.96 219.79 252.558 221.809 251.776 223.693C250.994 225.577 249.847 227.289 248.402 228.731C246.957 230.173 245.242 231.316 243.354 232.097C241.466 232.877 239.442 233.278 237.399 233.278H160.748C158.705 233.278 156.681 232.877 154.793 232.096C152.905 231.316 151.19 230.172 149.745 228.73C148.3 227.288 147.154 225.577 146.372 223.693C145.59 221.809 145.187 219.79 145.188 217.751V20.9377C145.187 18.8985 145.59 16.8794 146.372 14.9954C147.154 13.1115 148.3 11.3997 149.745 9.95785C151.19 8.51596 152.905 7.37222 154.793 6.59192C156.681 5.81162 158.705 5.41006 160.748 5.41016H170.051C169.593 6.53027 169.418 7.74562 169.541 8.94912C169.665 10.1526 170.083 11.3073 170.759 12.3115C171.436 13.3157 172.349 14.1385 173.419 14.7075C174.489 15.2765 175.683 15.5741 176.895 15.5742H220.598C221.81 15.5733 223.003 15.2752 224.072 14.706C225.142 14.1368 226.055 13.314 226.731 12.3101C227.407 11.3062 227.825 10.1518 227.949 8.94861C228.073 7.74543 227.899 6.53031 227.442 5.41016H237.399C239.442 5.41006 241.466 5.81163 243.354 6.59193C245.242 7.37223 246.957 8.51597 248.402 9.95786C249.847 11.3997 250.993 13.1115 251.775 14.9954C252.557 16.8794 252.96 18.8985 252.96 20.9377Z" fill="#F1F1F1"/>
<path opacity="0.2" d="M267.507 50.1815L257.305 53.9316L257.489 54.43L267.691 50.6799L267.507 50.1815Z" fill="black"/>
<path opacity="0.2" d="M267.507 80.9823L257.305 84.7324L257.489 85.2308L267.691 81.4807L267.507 80.9823Z" fill="black"/>
<path opacity="0.2" d="M267.507 113.906L257.305 117.656L257.489 118.155L267.691 114.404L267.507 113.906Z" fill="black"/>
<path opacity="0.2" d="M262.162 146.84L257.195 149.219L257.426 149.697L262.393 147.319L262.162 146.84Z" fill="black"/>
<path d="M162.723 138.691L156.523 152.344L145.188 177.308V133.152L162.723 138.691Z" fill="#E8E8E8"/>
<path d="M231.613 82.8133C231.613 101.508 214.29 98.6805 192.92 98.6805C171.55 98.6805 154.227 101.508 154.227 82.8133C154.227 64.1185 162.689 30.9805 192.92 30.9805C224.193 30.9805 231.613 64.1184 231.613 82.8133Z" fill="#2F2E41"/>
<path d="M251.551 148.328L252.961 157.122V217.751C252.967 220.431 252.272 223.067 250.944 225.398L236.778 200.614L231.674 148.711L230.402 135.748L249.598 136.152L251.551 148.328Z" fill="#E8E8E8"/>
<path d="M252.96 146.193C252.278 143.984 251.124 140.251 249.799 136.088C247.468 128.754 244.615 120.072 242.923 115.935C239.692 108.038 223.232 111.203 223.232 111.203L166.837 109.095C166.837 109.095 164.735 108.819 155.278 107.566C151.313 107.04 147.859 112.584 145.188 119.206V140.049L158.327 141.048C157.27 144.726 156.664 148.519 156.523 152.343C156.374 157.574 157.3 163.42 161.297 167.047C169.913 174.885 172.685 210.167 172.685 210.167L166.624 233.278H237.399C239.442 233.278 241.466 232.877 243.354 232.097C245.242 231.317 246.958 230.173 248.403 228.731C249.848 227.289 250.994 225.577 251.776 223.693C252.558 221.809 252.96 219.79 252.96 217.751V209.19C248.495 201.979 244.828 198.352 244.828 198.352L232.167 148.663L251.549 148.328L252.96 148.302V146.193Z" fill="#2F2E41"/>
<path d="M213.034 89.1487C223.202 79.0025 223.202 62.5522 213.034 52.406C202.866 42.2598 186.38 42.2598 176.212 52.406C166.044 62.5522 166.044 79.0025 176.212 89.1487C186.38 99.2949 202.866 99.2949 213.034 89.1487Z" fill="#E8E8E8"/>
<path d="M162.707 70.1184H173.005L177.548 57.4246L178.457 70.1184H183.379L186.029 62.7137L186.559 70.1184H223.132C223.132 62.8241 220.229 55.8285 215.06 50.6707C209.891 45.5129 202.88 42.6152 195.57 42.6152H190.269C182.959 42.6152 175.949 45.5129 170.78 50.6707C165.611 55.8285 162.707 62.8241 162.707 70.1184Z" fill="#2F2E41"/>
<path d="M0 292.572L92.3229 187.47L95.6222 119.98L130.265 62.3655L140.163 37.6738C140.163 37.6738 163.258 40.143 144.287 87.0573L136.451 112.16C143.515 127.341 141.852 143.877 141.852 160.614V218.138C141.852 231.683 82.4875 305.463 74.9578 316.734L0 292.572Z" fill="url(#paint1_linear_3974_44709)"/>
<path opacity="0.2" d="M137.446 67.2484L130.559 63.871L130.793 63.3941L137.157 66.515L146.762 41.3848L147.26 41.5743L137.446 67.2484Z" fill="black"/>
<path d="M199.806 223.746C207.742 223.746 214.175 217.327 214.175 209.408C214.175 201.49 207.742 195.07 199.806 195.07C191.871 195.07 185.438 201.49 185.438 209.408C185.438 217.327 191.871 223.746 199.806 223.746Z" fill="#1DA1F2"/>
<path d="M166.28 219.608C171.632 219.608 175.97 215.279 175.97 209.939C175.97 204.599 171.632 200.27 166.28 200.27C160.928 200.27 156.59 204.599 156.59 209.939C156.59 215.279 160.928 219.608 166.28 219.608Z" fill="white"/>
<path d="M166.279 220.029C164.28 220.029 162.325 219.437 160.662 218.329C158.999 217.22 157.703 215.644 156.938 213.8C156.172 211.957 155.972 209.928 156.362 207.971C156.752 206.014 157.715 204.216 159.13 202.805C160.544 201.394 162.345 200.433 164.307 200.043C166.268 199.654 168.301 199.854 170.149 200.618C171.997 201.381 173.576 202.675 174.687 204.334C175.798 205.993 176.391 207.944 176.391 209.939C176.388 212.614 175.322 215.179 173.426 217.07C171.53 218.962 168.96 220.026 166.279 220.029ZM166.279 200.69C164.446 200.69 162.654 201.233 161.13 202.249C159.606 203.265 158.418 204.71 157.716 206.4C157.015 208.09 156.831 209.95 157.189 211.744C157.546 213.538 158.429 215.186 159.725 216.479C161.022 217.773 162.673 218.654 164.471 219.01C166.269 219.367 168.133 219.184 169.826 218.484C171.52 217.784 172.968 216.599 173.986 215.078C175.005 213.557 175.548 211.769 175.548 209.939C175.545 207.487 174.568 205.136 172.83 203.402C171.093 201.669 168.737 200.693 166.279 200.69Z" fill="#CBCBCB"/>
<path d="M168.354 213.303H158.91C158.898 213.303 158.887 213.302 158.875 213.3L163.342 205.58C163.369 205.532 163.409 205.492 163.456 205.464C163.504 205.437 163.559 205.422 163.614 205.422C163.669 205.422 163.724 205.437 163.771 205.464C163.819 205.492 163.859 205.532 163.886 205.58L166.884 210.761L167.027 211.009L168.354 213.303Z" fill="#E5E5E5"/>
<path d="M173.614 213.303H165.445L167.028 211.009L167.142 210.844L169.205 207.854C169.241 207.809 169.287 207.771 169.339 207.744C169.391 207.717 169.448 207.701 169.506 207.698C169.565 207.695 169.623 207.703 169.678 207.724C169.733 207.745 169.783 207.776 169.824 207.818C169.835 207.829 169.845 207.841 169.854 207.854L173.614 213.303Z" fill="#E5E5E5"/>
<path d="M232.8 219.608C238.151 219.608 242.49 215.279 242.49 209.939C242.49 204.599 238.151 200.27 232.8 200.27C227.448 200.27 223.109 204.599 223.109 209.939C223.109 215.279 227.448 219.608 232.8 219.608Z" fill="white"/>
<path d="M232.799 220.029C230.799 220.029 228.844 219.437 227.181 218.329C225.518 217.22 224.222 215.644 223.457 213.8C222.692 211.957 222.492 209.928 222.882 207.971C223.272 206.014 224.235 204.216 225.649 202.805C227.063 201.394 228.865 200.433 230.826 200.043C232.788 199.654 234.821 199.854 236.668 200.618C238.516 201.381 240.095 202.675 241.206 204.334C242.317 205.993 242.91 207.944 242.91 209.939C242.907 212.614 241.841 215.179 239.945 217.07C238.05 218.962 235.48 220.026 232.799 220.029ZM232.799 200.69C230.966 200.69 229.174 201.233 227.649 202.249C226.125 203.265 224.937 204.71 224.236 206.4C223.534 208.09 223.351 209.95 223.708 211.744C224.066 213.538 224.949 215.186 226.245 216.479C227.541 217.773 229.193 218.654 230.991 219.01C232.789 219.367 234.652 219.184 236.346 218.484C238.04 217.784 239.487 216.599 240.506 215.078C241.524 213.557 242.068 211.769 242.068 209.939C242.065 207.487 241.088 205.136 239.35 203.402C237.612 201.669 235.256 200.693 232.799 200.69Z" fill="#CBCBCB"/>
<path d="M236.805 208.912L236.49 209.227V206.95C236.49 206.828 236.442 206.711 236.355 206.625C236.269 206.539 236.151 206.49 236.029 206.49H229.115C229.054 206.49 228.994 206.502 228.938 206.525C228.882 206.548 228.831 206.582 228.788 206.624C228.745 206.667 228.711 206.718 228.688 206.774C228.664 206.83 228.652 206.89 228.652 206.95C228.652 207.011 228.664 207.071 228.688 207.127C228.711 207.182 228.745 207.233 228.788 207.276C228.831 207.319 228.882 207.353 228.938 207.376C228.994 207.399 229.054 207.41 229.115 207.41H235.568V209.227L235.253 208.912C235.189 208.848 235.107 208.804 235.017 208.786C234.928 208.768 234.835 208.778 234.751 208.812C234.667 208.847 234.595 208.906 234.544 208.982C234.493 209.057 234.466 209.146 234.466 209.237V209.26C234.466 209.382 234.515 209.499 234.601 209.585L235.703 210.685C235.746 210.728 235.797 210.762 235.853 210.785C235.909 210.808 235.969 210.82 236.029 210.82C236.09 210.82 236.15 210.808 236.206 210.785C236.262 210.762 236.312 210.728 236.355 210.685L237.457 209.585C237.544 209.499 237.592 209.382 237.592 209.26V209.237C237.592 209.146 237.565 209.057 237.514 208.982C237.464 208.906 237.392 208.847 237.308 208.812C237.223 208.778 237.131 208.768 237.041 208.786C236.952 208.804 236.87 208.848 236.805 208.912Z" fill="#E5E5E5"/>
<path d="M236.489 212.47H230.036V210.654L230.351 210.968C230.415 211.032 230.497 211.076 230.587 211.094C230.676 211.112 230.769 211.103 230.853 211.068C230.937 211.033 231.009 210.974 231.06 210.898C231.111 210.823 231.138 210.734 231.138 210.643V210.62C231.138 210.498 231.089 210.381 231.003 210.295L229.901 209.195C229.858 209.153 229.807 209.119 229.751 209.096C229.695 209.072 229.635 209.061 229.575 209.061C229.514 209.061 229.454 209.072 229.398 209.096C229.342 209.119 229.292 209.153 229.249 209.195L228.147 210.295C228.06 210.381 228.012 210.498 228.012 210.62V210.643C228.012 210.734 228.039 210.823 228.089 210.899C228.14 210.974 228.212 211.033 228.296 211.068C228.381 211.103 228.473 211.112 228.563 211.094C228.652 211.076 228.734 211.032 228.799 210.968L229.114 210.654V212.93C229.114 213.052 229.162 213.169 229.249 213.255C229.335 213.342 229.452 213.39 229.575 213.39H236.489C236.55 213.39 236.61 213.378 236.666 213.355C236.722 213.332 236.773 213.299 236.816 213.256C236.859 213.213 236.893 213.162 236.916 213.106C236.94 213.051 236.952 212.991 236.952 212.93C236.952 212.87 236.94 212.81 236.916 212.754C236.893 212.698 236.859 212.647 236.816 212.604C236.773 212.562 236.722 212.528 236.666 212.505C236.61 212.482 236.55 212.47 236.489 212.47V212.47Z" fill="#E5E5E5"/>
<path d="M174.775 24.1973H150.996V25.2593H174.775V24.1973Z" fill="white"/>
<path d="M210.962 24.1973H187.184V25.2593H210.962V24.1973Z" fill="white"/>
<path d="M247.15 24.1973H223.371V25.2593H247.15V24.1973Z" fill="white"/>
<path d="M174.775 186.695H150.996V187.757H174.775V186.695Z" fill="white"/>
<path d="M210.962 186.695H187.184V187.757H210.962V186.695Z" fill="white"/>
<path d="M247.15 186.695H223.371V187.757H247.15V186.695Z" fill="white"/>
</g>
<defs>
<linearGradient id="paint0_linear_3974_44709" x1="140.38" y1="70.1855" x2="140.38" y2="317" gradientUnits="userSpaceOnUse">
<stop stop-color="#E8E8E8"/>
<stop offset="1" stop-color="white" stop-opacity="0.01"/>
</linearGradient>
<linearGradient id="paint1_linear_3974_44709" x1="75.8841" y1="37.6738" x2="75.8841" y2="316.734" gradientUnits="userSpaceOnUse">
<stop stop-color="#E8E8E8"/>
<stop offset="1" stop-color="white" stop-opacity="0.01"/>
</linearGradient>
<clipPath id="clip0_3974_44709">
<rect width="269" height="317" fill="white"/>
</clipPath>
</defs>
</svg>
