<svg width="335" height="280" viewBox="0 0 335 280" fill="none" xmlns="http://www.w3.org/2000/svg">
<g clip-path="url(#clip0_2660_36460)">
<path d="M157.3 280C230.345 280 289.561 276.972 289.561 273.236C289.561 269.501 230.345 266.473 157.3 266.473C84.2542 266.473 25.0391 269.501 25.0391 273.236C25.0391 276.972 84.2542 280 157.3 280Z" fill="#F2F2F2"/>
<path d="M234.575 64.9834H233.073V23.8227C233.073 17.5045 230.563 11.4451 226.095 6.97752C221.627 2.50989 215.568 6.97573e-06 209.25 0H122.045C115.727 -1.19583e-05 109.668 2.50985 105.2 6.97746C100.733 11.4451 98.2227 17.5044 98.2227 23.8226V249.633C98.2227 255.951 100.733 262.011 105.2 266.478C109.668 270.946 115.727 273.456 122.045 273.456H209.25C215.568 273.456 221.627 270.946 226.095 266.478C230.563 262.011 233.072 255.952 233.072 249.633V94.2822H234.575L234.575 64.9834Z" fill="#3F3D56"/>
<path d="M228.002 23.9891V249.467C228.002 254.186 226.128 258.711 222.791 262.048C219.455 265.384 214.93 267.259 210.211 267.259H122.588C117.87 267.259 113.344 265.384 110.008 262.048C106.671 258.711 104.797 254.186 104.797 249.467V23.9891C104.797 19.2706 106.671 14.7453 110.008 11.4088C113.344 8.07231 117.87 6.19784 122.588 6.19775H133.218C132.696 7.48127 132.497 8.87348 132.639 10.2519C132.781 11.6303 133.259 12.9528 134.032 14.1028C134.805 15.2529 135.849 16.1954 137.072 16.8474C138.295 17.4994 139.659 17.8409 141.045 17.842H191.003C192.389 17.8409 193.753 17.4994 194.976 16.8474C196.199 16.1954 197.242 15.2529 198.015 14.1028C198.788 12.9527 199.267 11.6303 199.409 10.2519C199.551 8.87348 199.352 7.48127 198.83 6.19775H210.211C214.93 6.19784 219.455 8.07231 222.791 11.4088C226.128 14.7453 228.002 19.2706 228.002 23.9891Z" fill="white"/>
<path d="M199.773 121.214C199.191 121.519 198.598 121.807 197.996 122.078C197.447 122.326 196.89 122.559 196.324 122.777C196.117 122.856 195.907 122.935 195.697 123.014C194.033 123.617 192.324 124.088 190.586 124.423C189.726 124.592 188.854 124.725 187.971 124.821C187.242 124.904 186.506 124.963 185.762 124.998C185.232 125.024 184.702 125.035 184.169 125.035C182.056 125.036 179.947 124.839 177.871 124.446C177.33 124.348 176.801 124.231 176.271 124.104C173.708 123.489 171.227 122.574 168.88 121.376C168.669 121.271 168.459 121.158 168.249 121.049C167.937 120.884 167.632 120.711 167.328 120.53C167.475 120.327 167.632 120.128 167.794 119.933C169.552 117.754 171.75 115.97 174.244 114.697C176.737 113.425 179.471 112.692 182.267 112.546C185.063 112.401 187.859 112.847 190.471 113.854C193.083 114.861 195.454 116.408 197.429 118.392C198.114 119.08 198.749 119.816 199.33 120.594C199.484 120.797 199.63 121.004 199.773 121.214Z" fill="#1DA1F2"/>
<path d="M184.917 104.709C194.029 104.709 201.415 97.3221 201.415 88.2101C201.415 79.0981 194.029 71.7114 184.917 71.7114C175.805 71.7114 168.418 79.0981 168.418 88.2101C168.418 97.3221 175.805 104.709 184.917 104.709Z" fill="#2F2E41"/>
<path d="M189.305 104.732C195.255 101.479 197.442 94.0182 194.189 88.0675C190.937 82.1168 183.475 79.9298 177.525 83.1828C171.574 86.4357 169.387 93.8968 172.64 99.8475C175.893 105.798 183.354 107.985 189.305 104.732Z" fill="#A0616A"/>
<path d="M196.319 86.2338C193.513 88.1679 190.182 89.1972 186.774 89.1835C187.99 90.0264 189.374 90.5958 190.831 90.8524C186.3 91.8243 181.617 91.8507 177.075 90.9297C176.065 90.7678 175.091 90.4332 174.195 89.9407C173.749 89.6913 173.36 89.3508 173.054 88.9412C172.747 88.5317 172.531 88.0623 172.418 87.5635C172.116 85.8394 173.46 84.273 174.856 83.2173C176.993 81.6257 179.458 80.5291 182.071 80.0068C184.685 79.4846 187.382 79.5498 189.967 80.1977C191.655 80.634 193.346 81.3712 194.442 82.7268C195.538 84.0824 195.863 86.1723 194.819 87.5682L196.319 86.2338Z" fill="#2F2E41"/>
<path d="M184.168 57.4019C176.793 57.4008 169.62 59.811 163.742 64.2653C157.864 68.7195 153.604 74.9734 151.61 82.0739C149.617 89.1743 149.999 96.7318 152.7 103.595C155.4 110.457 160.271 116.249 166.569 120.087L166.787 120.214C166.967 120.323 167.147 120.429 167.328 120.53C167.632 120.71 167.936 120.883 168.248 121.049C168.458 121.158 168.669 121.27 168.879 121.376C171.227 122.574 173.707 123.489 176.27 124.103C176.8 124.231 177.33 124.348 177.871 124.445C179.947 124.839 182.055 125.036 184.168 125.035C184.702 125.035 185.232 125.024 185.761 124.998C186.505 124.964 187.242 124.905 187.971 124.821C188.854 124.723 189.726 124.591 190.586 124.423C192.324 124.088 194.032 123.617 195.696 123.014C195.906 122.935 196.117 122.856 196.324 122.777C196.891 122.559 197.448 122.326 197.995 122.078C198.597 121.808 199.189 121.52 199.773 121.214C205.622 118.151 210.457 113.456 213.69 107.699C213.705 107.668 213.724 107.638 213.739 107.608C215.464 104.513 216.688 101.164 217.365 97.685C218.316 92.7882 218.172 87.7417 216.943 82.907C215.715 78.0723 213.433 73.5689 210.261 69.7194C207.089 65.8698 203.104 62.7693 198.593 60.6399C194.082 58.5104 189.157 57.4047 184.168 57.4019H184.168ZM213.123 107.169C213.093 107.221 213.067 107.274 213.036 107.323C209.868 112.995 205.101 117.61 199.329 120.594C198.754 120.895 198.17 121.176 197.575 121.439C197.082 121.661 196.579 121.871 196.072 122.067C195.857 122.15 195.64 122.232 195.422 122.307C193.984 122.832 192.512 123.254 191.014 123.57C189.904 123.806 188.781 123.983 187.651 124.1C186.956 124.175 186.25 124.227 185.54 124.254C185.085 124.272 184.627 124.284 184.168 124.284C182.123 124.286 180.083 124.096 178.074 123.716C176.852 123.491 175.643 123.195 174.455 122.83C172.646 122.271 170.887 121.558 169.199 120.699C169.003 120.598 168.808 120.496 168.616 120.391C168.342 120.245 168.064 120.094 167.793 119.933C167.59 119.82 167.388 119.7 167.189 119.579C167.072 119.512 166.956 119.44 166.839 119.369C161.317 115.978 156.913 111.041 154.172 105.169C151.431 99.2978 150.474 92.7508 151.419 86.3404C152.365 79.9301 155.172 73.9385 159.493 69.109C163.813 64.2795 169.456 60.8246 175.721 59.173C181.987 57.5214 188.6 57.7456 194.739 59.818C200.879 61.8904 206.275 65.7197 210.258 70.8309C214.24 75.942 216.635 82.11 217.144 88.5697C217.654 95.0294 216.255 101.497 213.123 107.169H213.123Z" fill="#3F3D56"/>
<path d="M176.563 71.9393C176.385 70.0726 174.098 68.9234 172.31 69.4872C170.522 70.0511 169.348 71.8517 168.993 73.6929C168.822 74.4684 168.806 75.2699 168.946 76.0515C169.085 76.8331 169.378 77.5795 169.806 78.2478C170.71 79.5487 172.371 80.3606 173.921 80.0304C175.689 79.6534 176.915 77.9264 177.265 76.1523C177.616 74.3783 177.268 72.5492 176.92 70.7746L176.563 71.9393Z" fill="#2F2E41"/>
<path d="M201.731 74.6058C201.553 72.7391 199.266 71.5899 197.478 72.1538C195.69 72.7176 194.516 74.5183 194.161 76.3595C193.99 77.1349 193.974 77.9364 194.114 78.718C194.253 79.4996 194.546 80.246 194.974 80.9143C195.878 82.2152 197.539 83.0271 199.089 82.6969C200.857 82.3199 202.083 80.5929 202.433 78.8188C202.784 77.0448 202.436 75.2157 202.088 73.4411L201.731 74.6058Z" fill="#2F2E41"/>
<path d="M125.717 104.733C125.483 104.733 125.252 104.684 125.038 104.589C124.824 104.495 124.632 104.356 124.474 104.183L105.829 83.8431C105.618 83.6128 105.361 83.4289 105.074 83.303C104.788 83.177 104.479 83.1118 104.166 83.1115H5.6396C4.1444 83.1098 2.71092 82.5151 1.65365 81.4578C0.596387 80.4005 0.00167873 78.9671 0 77.4719V41.9409C0.00167774 40.4457 0.596387 39.0122 1.65365 37.9549C2.71092 36.8977 4.1444 36.3029 5.6396 36.3013H133.288C134.783 36.3029 136.217 36.8977 137.274 37.9549C138.331 39.0122 138.926 40.4457 138.928 41.9409V77.4719C138.926 78.9671 138.331 80.4006 137.274 81.4578C136.217 82.5151 134.783 83.1098 133.288 83.1115H129.669C129.071 83.1122 128.498 83.3501 128.075 83.7731C127.652 84.1961 127.414 84.7696 127.413 85.3677V103.04C127.415 103.381 127.312 103.715 127.12 103.996C126.927 104.278 126.653 104.494 126.335 104.617C126.138 104.694 125.928 104.733 125.717 104.733Z" fill="white"/>
<path d="M125.717 104.733C125.483 104.733 125.252 104.684 125.038 104.589C124.824 104.495 124.632 104.356 124.474 104.183L105.829 83.8431C105.618 83.6128 105.361 83.4289 105.074 83.303C104.788 83.177 104.479 83.1118 104.166 83.1115H5.6396C4.1444 83.1098 2.71092 82.5151 1.65365 81.4578C0.596387 80.4005 0.00167873 78.9671 0 77.4719V41.9409C0.00167774 40.4457 0.596387 39.0122 1.65365 37.9549C2.71092 36.8977 4.1444 36.3029 5.6396 36.3013H133.288C134.783 36.3029 136.217 36.8977 137.274 37.9549C138.331 39.0122 138.926 40.4457 138.928 41.9409V77.4719C138.926 78.9671 138.331 80.4006 137.274 81.4578C136.217 82.5151 134.783 83.1098 133.288 83.1115H129.669C129.071 83.1122 128.498 83.3501 128.075 83.7731C127.652 84.1961 127.414 84.7696 127.413 85.3677V103.04C127.415 103.381 127.312 103.715 127.12 103.996C126.927 104.278 126.653 104.494 126.335 104.617C126.138 104.694 125.928 104.733 125.717 104.733ZM5.6396 37.0528C4.34364 37.0542 3.10117 37.5697 2.18479 38.4861C1.26841 39.4025 0.752945 40.6449 0.751482 41.9409V77.4719C0.752947 78.7678 1.26841 80.0103 2.1848 80.9267C3.10118 81.8431 4.34364 82.3585 5.6396 82.36H104.166C104.583 82.3605 104.995 82.4474 105.377 82.6152C105.759 82.7831 106.101 83.0283 106.383 83.3353L125.028 103.675C125.156 103.815 125.324 103.913 125.508 103.956C125.693 103.999 125.886 103.985 126.062 103.916C126.239 103.848 126.391 103.727 126.497 103.571C126.604 103.415 126.662 103.229 126.662 103.04V85.3677C126.663 84.5703 126.98 83.8058 127.544 83.2419C128.107 82.6781 128.872 82.3609 129.669 82.36H133.288C134.584 82.3585 135.827 81.8431 136.743 80.9267C137.659 80.0103 138.175 78.7678 138.176 77.4719V41.9409C138.175 40.6449 137.659 39.4025 136.743 38.4861C135.827 37.5697 134.584 37.0542 133.288 37.0528H5.6396Z" fill="#3F3D56"/>
<path d="M13.8333 51.9752C16.5588 51.9752 18.7682 49.7658 18.7682 47.0403C18.7682 44.3149 16.5588 42.1055 13.8333 42.1055C11.1079 42.1055 8.89844 44.3149 8.89844 47.0403C8.89844 49.7658 11.1079 51.9752 13.8333 51.9752Z" fill="#1DA1F2"/>
<path d="M127.531 74.3464H11.3968C11.0509 74.3468 10.7083 74.279 10.3886 74.1469C10.069 74.0149 9.77844 73.8211 9.53371 73.5766C9.28898 73.3322 9.09483 73.0419 8.96236 72.7224C8.8299 72.4028 8.76172 72.0603 8.76172 71.7145C8.76172 71.3686 8.8299 71.0261 8.96236 70.7065C9.09483 70.387 9.28898 70.0967 9.53371 69.8523C9.77844 69.6078 10.069 69.414 10.3886 69.282C10.7083 69.1499 11.0509 69.0821 11.3968 69.0825H127.531C128.228 69.0834 128.897 69.361 129.39 69.8545C129.883 70.348 130.16 71.017 130.16 71.7145C130.16 72.4119 129.883 73.0809 129.39 73.5744C128.897 74.0679 128.228 74.3455 127.531 74.3464Z" fill="#E6E6E6"/>
<path d="M89.6968 63.1608H11.3968C11.0509 63.1613 10.7083 63.0935 10.3886 62.9614C10.069 62.8293 9.77844 62.6355 9.53371 62.3911C9.28898 62.1466 9.09483 61.8564 8.96236 61.5368C8.8299 61.2173 8.76172 60.8748 8.76172 60.5289C8.76172 60.183 8.8299 59.8405 8.96236 59.521C9.09483 59.2015 9.28898 58.9112 9.53371 58.6667C9.77844 58.4223 10.069 58.2285 10.3886 58.0964C10.7083 57.9643 11.0509 57.8966 11.3968 57.897H89.6968C90.3948 57.897 91.0642 58.1743 91.5578 58.6679C92.0514 59.1614 92.3287 59.8309 92.3287 60.5289C92.3287 61.2269 92.0514 61.8964 91.5578 62.39C91.0642 62.8835 90.3948 63.1608 89.6968 63.1608Z" fill="#E6E6E6"/>
<path d="M208.562 225.229C208.243 225.107 207.97 224.891 207.777 224.609C207.584 224.328 207.482 223.994 207.483 223.653V205.981C207.483 205.382 207.245 204.809 206.822 204.386C206.399 203.963 205.825 203.725 205.227 203.724H201.608C200.113 203.723 198.68 203.128 197.622 202.071C196.565 201.013 195.97 199.58 195.969 198.085V162.554C195.97 161.058 196.565 159.625 197.622 158.568C198.68 157.51 200.113 156.916 201.608 156.914H329.257C330.752 156.916 332.186 157.51 333.243 158.568C334.3 159.625 334.895 161.058 334.897 162.554V198.085C334.895 199.58 334.3 201.013 333.243 202.071C332.186 203.128 330.752 203.723 329.257 203.724H230.73C230.418 203.725 230.108 203.79 229.822 203.916C229.536 204.042 229.279 204.226 229.067 204.456L210.422 224.796C210.265 224.969 210.073 225.107 209.859 225.202C209.645 225.297 209.414 225.346 209.18 225.346C208.968 225.346 208.759 225.306 208.562 225.229Z" fill="white"/>
<path d="M208.562 225.229C208.243 225.107 207.97 224.891 207.777 224.609C207.584 224.328 207.482 223.994 207.483 223.653V205.981C207.483 205.382 207.245 204.809 206.822 204.386C206.399 203.963 205.825 203.725 205.227 203.724H201.608C200.113 203.723 198.68 203.128 197.622 202.071C196.565 201.013 195.97 199.58 195.969 198.085V162.554C195.97 161.058 196.565 159.625 197.622 158.568C198.68 157.51 200.113 156.916 201.608 156.914H329.257C330.752 156.916 332.186 157.51 333.243 158.568C334.3 159.625 334.895 161.058 334.897 162.554V198.085C334.895 199.58 334.3 201.013 333.243 202.071C332.186 203.128 330.752 203.723 329.257 203.724H230.73C230.418 203.725 230.108 203.79 229.822 203.916C229.536 204.042 229.279 204.226 229.067 204.456L210.422 224.796C210.265 224.969 210.073 225.107 209.859 225.202C209.645 225.297 209.414 225.346 209.18 225.346C208.968 225.346 208.759 225.306 208.562 225.229ZM201.608 157.666C200.312 157.667 199.07 158.182 198.154 159.099C197.237 160.015 196.722 161.258 196.72 162.554V198.085C196.722 199.381 197.237 200.623 198.154 201.539C199.07 202.456 200.312 202.971 201.608 202.973H205.227C206.025 202.974 206.789 203.291 207.353 203.855C207.917 204.419 208.234 205.183 208.235 205.981V223.653C208.235 223.842 208.292 224.027 208.399 224.184C208.506 224.34 208.658 224.46 208.834 224.529C209.011 224.598 209.204 224.612 209.389 224.569C209.573 224.526 209.74 224.428 209.868 224.288L228.513 203.948C228.795 203.641 229.138 203.396 229.52 203.228C229.901 203.06 230.313 202.973 230.73 202.973H329.257C330.553 202.971 331.795 202.456 332.712 201.539C333.628 200.623 334.144 199.381 334.145 198.085V162.554C334.144 161.258 333.628 160.015 332.712 159.099C331.795 158.182 330.553 157.667 329.257 157.666H201.608Z" fill="#3F3D56"/>
<path d="M168.774 236.232C163.54 239.584 157.475 241.412 151.26 241.511C145.044 241.61 138.925 239.976 133.586 236.792C134.525 235.044 135.715 233.443 137.118 232.039C139.283 229.864 141.917 228.214 144.819 227.216C147.721 226.218 150.813 225.899 153.858 226.282C156.902 226.666 159.818 227.742 162.382 229.429C164.946 231.115 167.089 233.367 168.646 236.011C168.688 236.082 168.733 236.157 168.774 236.232Z" fill="#1DA1F2"/>
<path d="M149.71 218.264C158.882 218.264 166.318 210.828 166.318 201.656C166.318 192.483 158.882 185.047 149.71 185.047C140.537 185.047 133.102 192.483 133.102 201.656C133.102 210.828 140.537 218.264 149.71 218.264Z" fill="#2F2E41"/>
<path d="M162.071 213.37C165.346 207.38 163.144 199.869 157.154 196.595C151.164 193.32 143.653 195.522 140.378 201.512C137.104 207.502 139.305 215.013 145.296 218.288C151.286 221.562 158.796 219.361 162.071 213.37Z" fill="#FFB8B8"/>
<path d="M138.234 199.666C141.059 201.613 144.412 202.649 147.842 202.636C146.619 203.484 145.226 204.057 143.759 204.315C148.32 205.294 153.034 205.32 157.606 204.393C158.623 204.23 159.603 203.894 160.505 203.398C160.955 203.147 161.346 202.804 161.654 202.392C161.963 201.979 162.181 201.507 162.294 201.005C162.598 199.269 161.246 197.692 159.84 196.63C157.689 195.027 155.207 193.924 152.577 193.398C149.946 192.872 147.231 192.938 144.629 193.59C142.93 194.029 141.227 194.771 140.124 196.136C139.02 197.501 138.693 199.604 139.745 201.009L138.234 199.666Z" fill="#2F2E41"/>
<path d="M150.729 241.891C142.595 241.888 134.735 238.953 128.59 233.624C122.446 228.295 118.428 220.929 117.275 212.877C116.122 204.825 117.911 196.628 122.313 189.788C126.715 182.948 133.436 177.925 141.242 175.64C149.048 173.355 157.417 173.961 164.812 177.347C172.208 180.732 178.135 186.671 181.506 194.074C184.877 201.476 185.466 209.846 183.165 217.647C180.864 225.449 175.828 232.16 168.979 236.548C163.533 240.04 157.199 241.895 150.729 241.891ZM150.729 175.009C144.189 175.008 137.795 176.947 132.356 180.581C126.918 184.214 122.679 189.378 120.176 195.421C117.672 201.464 117.017 208.113 118.293 214.528C119.569 220.943 122.719 226.835 127.343 231.46C131.968 236.085 137.861 239.234 144.276 240.51C150.691 241.786 157.34 241.131 163.382 238.628C169.425 236.124 174.589 231.886 178.223 226.447C181.856 221.008 183.795 214.615 183.795 208.074C183.785 199.308 180.298 190.903 174.099 184.704C167.9 178.506 159.496 175.019 150.729 175.009Z" fill="#3F3D56"/>
<path d="M211.849 172.213C214.574 172.213 216.784 170.003 216.784 167.278C216.784 164.552 214.574 162.343 211.849 162.343C209.123 162.343 206.914 164.552 206.914 167.278C206.914 170.003 209.123 172.213 211.849 172.213Z" fill="#1DA1F2"/>
<path d="M325.546 194.584H209.412C209.067 194.584 208.724 194.516 208.404 194.384C208.085 194.252 207.794 194.058 207.549 193.814C207.305 193.569 207.11 193.279 206.978 192.96C206.846 192.64 206.777 192.298 206.777 191.952C206.777 191.606 206.846 191.263 206.978 190.944C207.11 190.624 207.305 190.334 207.549 190.09C207.794 189.845 208.085 189.651 208.404 189.519C208.724 189.387 209.067 189.319 209.412 189.32H325.546C326.244 189.32 326.914 189.597 327.407 190.091C327.901 190.584 328.178 191.254 328.178 191.952C328.178 192.65 327.901 193.319 327.407 193.813C326.914 194.306 326.244 194.584 325.546 194.584Z" fill="#E6E6E6"/>
<path d="M287.712 183.398H209.412C209.067 183.399 208.724 183.331 208.404 183.199C208.085 183.067 207.794 182.873 207.549 182.628C207.305 182.384 207.11 182.094 206.978 181.774C206.846 181.455 206.777 181.112 206.777 180.766C206.777 180.42 206.846 180.078 206.978 179.758C207.11 179.439 207.305 179.148 207.549 178.904C207.794 178.66 208.085 178.466 208.404 178.334C208.724 178.202 209.067 178.134 209.412 178.134H287.712C288.41 178.135 289.079 178.413 289.571 178.906C290.064 179.4 290.341 180.069 290.341 180.766C290.341 181.464 290.064 182.133 289.571 182.626C289.079 183.12 288.41 183.397 287.712 183.398Z" fill="#E6E6E6"/>
<path d="M208.402 228.594C213.487 228.594 217.61 228.136 217.61 227.572C217.61 227.007 213.487 226.55 208.402 226.55C203.317 226.55 199.195 227.007 199.195 227.572C199.195 228.136 203.317 228.594 208.402 228.594Z" fill="#F2F2F2"/>
<path d="M126.113 108.356C131.198 108.356 135.321 107.899 135.321 107.334C135.321 106.77 131.198 106.312 126.113 106.312C121.028 106.312 116.906 106.77 116.906 107.334C116.906 107.899 121.028 108.356 126.113 108.356Z" fill="#F2F2F2"/>
</g>
<defs>
<clipPath id="clip0_2660_36460">
<rect width="334.896" height="280" fill="white"/>
</clipPath>
</defs>
</svg>
