<svg width="375" height="280" viewBox="0 0 375 280" fill="none" xmlns="http://www.w3.org/2000/svg">
<g clip-path="url(#clip0_2660_36404)">
<path d="M21.3359 279.159C21.3359 273.415 23.6175 267.907 27.6787 263.846C31.7398 259.785 37.248 257.503 42.9914 257.503C48.7348 257.503 54.2429 259.785 58.3041 263.846C62.3653 267.907 64.6468 273.415 64.6468 279.159" fill="#F2F2F2"/>
<path d="M42.9915 279.159C42.8363 279.159 42.6874 279.097 42.5777 278.987C42.4679 278.878 42.4062 278.729 42.4062 278.573V267.16C42.4062 267.005 42.4679 266.856 42.5777 266.747C42.6874 266.637 42.8363 266.575 42.9915 266.575C43.1468 266.575 43.2956 266.637 43.4054 266.747C43.5151 266.856 43.5768 267.005 43.5768 267.16V278.573C43.5768 278.729 43.5151 278.878 43.4054 278.987C43.2956 279.097 43.1468 279.159 42.9915 279.159Z" fill="#CCCCCC"/>
<path d="M42.9898 275.237C42.85 275.237 42.7148 275.187 42.6089 275.096L35.5855 269.068C35.5267 269.018 35.4783 268.957 35.4432 268.888C35.408 268.819 35.3868 268.744 35.3807 268.668C35.3746 268.591 35.3838 268.513 35.4077 268.44C35.4317 268.367 35.4698 268.299 35.5201 268.24C35.5703 268.182 35.6316 268.134 35.7005 268.099C35.7694 268.064 35.8444 268.043 35.9214 268.038C35.9983 268.032 36.0756 268.042 36.1488 268.066C36.222 268.09 36.2897 268.129 36.3479 268.179L43.3713 274.207C43.4621 274.285 43.5268 274.389 43.5567 274.505C43.5867 274.621 43.5805 274.743 43.5389 274.855C43.4973 274.967 43.4225 275.064 43.3243 275.132C43.2261 275.2 43.1094 275.237 42.9898 275.237Z" fill="#CCCCCC"/>
<path d="M88.0586 279.159C88.0586 273.415 90.3401 267.907 94.4013 263.846C98.4625 259.785 103.971 257.503 109.714 257.503C115.457 257.503 120.966 259.785 125.027 263.846C129.088 267.907 131.369 273.415 131.369 279.159" fill="#F2F2F2"/>
<path d="M109.714 279.159C109.559 279.159 109.41 279.097 109.3 278.987C109.191 278.878 109.129 278.729 109.129 278.573V267.16C109.129 267.005 109.191 266.856 109.3 266.747C109.41 266.637 109.559 266.575 109.714 266.575C109.869 266.575 110.018 266.637 110.128 266.747C110.238 266.856 110.299 267.005 110.299 267.16V278.573C110.299 278.729 110.238 278.878 110.128 278.987C110.018 279.097 109.869 279.159 109.714 279.159Z" fill="#CCCCCC"/>
<path d="M109.714 275.237C109.574 275.237 109.439 275.187 109.333 275.096L102.31 269.068C102.192 268.967 102.119 268.823 102.107 268.668C102.095 268.514 102.146 268.36 102.247 268.243C102.348 268.125 102.492 268.052 102.646 268.04C102.801 268.028 102.954 268.079 103.072 268.18L110.095 274.208C110.186 274.286 110.251 274.389 110.281 274.505C110.311 274.621 110.305 274.743 110.263 274.855C110.221 274.967 110.147 275.064 110.048 275.132C109.95 275.201 109.833 275.237 109.714 275.237Z" fill="#CCCCCC"/>
<path d="M133.123 102.074C137.972 102.074 141.902 98.1435 141.902 93.2949C141.902 88.4462 137.972 84.5156 133.123 84.5156C128.274 84.5156 124.344 88.4462 124.344 93.2949C124.344 98.1435 128.274 102.074 133.123 102.074Z" fill="white"/>
<path d="M133.123 84.5156C131.387 84.5156 129.689 85.0305 128.246 85.9952C126.802 86.9599 125.677 88.331 125.012 89.9352C124.348 91.5394 124.174 93.3046 124.512 95.0076C124.851 96.7106 125.687 98.2749 126.915 99.5027C128.143 100.731 129.707 101.567 131.41 101.905C133.113 102.244 134.878 102.07 136.483 101.406C138.087 100.741 139.458 99.6161 140.423 98.1723C141.387 96.7286 141.902 95.0312 141.902 93.2949C141.902 90.9665 140.977 88.7334 139.331 87.087C137.684 85.4406 135.451 84.5156 133.123 84.5156ZM131.021 97.128C131.021 97.1936 130.995 97.2565 130.948 97.3029C130.902 97.3493 130.839 97.3753 130.774 97.3753H128.795C128.73 97.3753 128.667 97.3493 128.62 97.3029C128.574 97.2565 128.548 97.1936 128.548 97.128V92.4293C128.548 92.3637 128.574 92.3008 128.62 92.2544C128.667 92.208 128.73 92.182 128.795 92.182H130.774C130.839 92.182 130.902 92.208 130.948 92.2544C130.995 92.3008 131.021 92.3637 131.021 92.4293V97.128ZM137.698 93.4185C137.698 93.6153 137.62 93.804 137.481 93.9431C137.342 94.0823 137.153 94.1604 136.956 94.1604V94.1729C137.096 94.2014 137.221 94.2773 137.311 94.3877C137.402 94.498 137.451 94.6362 137.451 94.7787C137.451 94.9212 137.402 95.0593 137.311 95.1697C137.221 95.2801 137.096 95.356 136.956 95.3845V95.6442C137.087 95.6442 137.213 95.6964 137.306 95.7891C137.399 95.8819 137.451 96.0077 137.451 96.1388C137.451 96.27 137.399 96.3958 137.306 96.4886C137.213 96.5813 137.087 96.6335 136.956 96.6335H132.01C131.945 96.6335 131.882 96.6074 131.835 96.561C131.789 96.5146 131.763 96.4517 131.763 96.3861V92.4293C131.763 91.1928 133.741 89.4617 133.741 89.4617V88.8588C133.741 88.6754 133.808 88.4984 133.93 88.3613C134.051 88.2241 134.219 88.1364 134.401 88.1148C134.583 88.0931 134.767 88.139 134.917 88.2438C135.068 88.3486 135.175 88.5049 135.217 88.6832L135.225 88.7198C135.321 89.5912 135.109 90.4688 134.624 91.1996H136.147C136.169 91.1975 136.191 91.1928 136.214 91.1928H136.956C136.759 91.5863 136.727 92.0419 136.866 92.4593C137.005 92.8767 137.305 93.2218 137.698 93.4185Z" fill="#1DA1F2"/>
<path d="M146.002 54.6663C152.79 54.6663 158.293 49.1635 158.293 42.3754C158.293 35.5873 152.79 30.0845 146.002 30.0845C139.214 30.0845 133.711 35.5873 133.711 42.3754C133.711 49.1635 139.214 54.6663 146.002 54.6663Z" fill="white"/>
<path d="M146.002 30.0845C143.571 30.0845 141.195 30.8053 139.173 32.1559C137.152 33.5064 135.577 35.426 134.647 37.6719C133.716 39.9177 133.473 42.389 133.947 44.7732C134.421 47.1574 135.592 49.3475 137.311 51.0664C139.03 52.7853 141.22 53.9559 143.604 54.4302C145.988 54.9044 148.46 54.661 150.705 53.7307C152.951 52.8005 154.871 51.2251 156.221 49.2039C157.572 47.1826 158.293 44.8063 158.293 42.3754C158.293 39.1156 156.998 35.9894 154.693 33.6844C152.388 31.3794 149.262 30.0845 146.002 30.0845ZM143.059 47.7419C143.059 47.8337 143.022 47.9217 142.958 47.9867C142.893 48.0516 142.805 48.0881 142.713 48.0881H139.943C139.851 48.0881 139.763 48.0516 139.698 47.9867C139.633 47.9217 139.597 47.8337 139.597 47.7419V41.1636C139.597 41.0718 139.633 40.9837 139.698 40.9188C139.763 40.8539 139.851 40.8174 139.943 40.8174H142.713C142.805 40.8174 142.893 40.8539 142.958 40.9188C143.023 40.9837 143.059 41.0718 143.059 41.1636V47.7419ZM152.407 42.5485C152.407 42.824 152.298 43.0881 152.103 43.2829C151.908 43.4777 151.644 43.5872 151.368 43.5872V43.6046C151.564 43.6445 151.74 43.7507 151.866 43.9053C151.992 44.0598 152.061 44.2532 152.061 44.4527C152.061 44.6522 151.992 44.8456 151.866 45.0002C151.74 45.1547 151.564 45.2609 151.368 45.3008V45.6645C151.552 45.6645 151.728 45.7375 151.858 45.8673C151.988 45.9972 152.061 46.1733 152.061 46.357C152.061 46.5406 151.988 46.7167 151.858 46.8466C151.728 46.9764 151.552 47.0494 151.368 47.0494H144.444C144.352 47.0494 144.264 47.0129 144.199 46.948C144.134 46.8831 144.098 46.795 144.098 46.7032V41.1636C144.098 39.4325 146.867 37.0089 146.867 37.0089V36.1649C146.867 35.9082 146.961 35.6604 147.131 35.4684C147.302 35.2764 147.537 35.1536 147.791 35.1232C148.046 35.0929 148.303 35.1572 148.514 35.3039C148.725 35.4506 148.874 35.6695 148.934 35.919C148.938 35.9359 148.941 35.953 148.945 35.9703C149.291 37.7014 148.104 39.442 148.104 39.442H150.235C150.267 39.4391 150.297 39.4325 150.33 39.4325H151.368C151.644 39.4325 151.908 39.5419 152.103 39.7367C152.298 39.9315 152.407 40.1957 152.407 40.4712C152.407 40.7466 152.298 41.0108 152.103 41.2056C151.908 41.4004 151.644 41.5098 151.368 41.5098C151.644 41.5098 151.908 41.6193 152.103 41.8141C152.298 42.0089 152.407 42.273 152.407 42.5485V42.5485Z" fill="#1DA1F2"/>
<path d="M173.366 174.18C174.261 173.972 175.1 173.57 175.823 173.003C176.547 172.436 177.137 171.717 177.552 170.897C177.968 170.077 178.198 169.176 178.228 168.257C178.257 167.338 178.085 166.424 177.723 165.58L200.901 113.213L187.642 109.874L169.028 162.398C167.649 163.1 166.575 164.284 166.01 165.725C165.445 167.166 165.429 168.764 165.964 170.216C166.498 171.668 167.547 172.874 168.911 173.604C170.276 174.335 171.861 174.54 173.366 174.18V174.18Z" fill="#A0616A"/>
<path d="M194.25 129.602L181.354 123.565C180.988 123.394 180.662 123.145 180.4 122.836C180.138 122.527 179.945 122.165 179.836 121.775C179.726 121.385 179.702 120.976 179.764 120.576C179.827 120.176 179.975 119.794 180.199 119.456L188.036 107.62C188.926 105.749 190.522 104.307 192.473 103.61C194.424 102.913 196.572 103.018 198.446 103.902C200.32 104.786 201.768 106.377 202.471 108.326C203.174 110.275 203.076 112.423 202.199 114.3L198.146 127.857C198.03 128.245 197.832 128.603 197.564 128.908C197.297 129.212 196.968 129.456 196.598 129.621C196.228 129.787 195.827 129.871 195.422 129.868C195.017 129.864 194.617 129.774 194.25 129.602H194.25Z" fill="#1DA1F2"/>
<path d="M149.412 122.867L163.629 132.933C163.812 133.065 164.031 133.136 164.256 133.136C164.481 133.136 164.7 133.065 164.883 132.933L168.724 130.048C168.852 129.955 168.957 129.834 169.032 129.694C169.106 129.555 169.148 129.4 169.155 129.242C169.162 129.084 169.132 128.926 169.07 128.781C169.007 128.636 168.913 128.506 168.793 128.403L157.853 118.647C157.709 118.521 157.535 118.436 157.347 118.4C157.16 118.363 156.966 118.377 156.786 118.44L149.667 120.988C149.484 121.055 149.323 121.171 149.201 121.323C149.079 121.475 149.001 121.658 148.975 121.851C148.948 122.044 148.975 122.241 149.052 122.42C149.129 122.599 149.254 122.753 149.412 122.867H149.412Z" fill="#3F3D56"/>
<path d="M150.705 122.091L163.518 131.162C163.582 131.21 163.66 131.237 163.741 131.238C163.821 131.238 163.9 131.213 163.965 131.166L167.421 128.572C167.46 128.543 167.493 128.508 167.519 128.467C167.545 128.426 167.562 128.38 167.57 128.332C167.578 128.285 167.576 128.236 167.565 128.189C167.554 128.141 167.534 128.097 167.505 128.058C167.489 128.036 167.471 128.017 167.451 127.999L157.584 119.2C157.532 119.155 157.47 119.126 157.403 119.113C157.337 119.101 157.268 119.107 157.204 119.129L150.792 121.424C150.727 121.448 150.671 121.49 150.629 121.544C150.586 121.599 150.559 121.663 150.55 121.731C150.541 121.8 150.551 121.869 150.578 121.932C150.606 121.996 150.649 122.05 150.705 122.091V122.091Z" fill="white"/>
<path d="M201.23 272.936L194.054 272.936L190.641 245.259L201.231 245.259L201.23 272.936Z" fill="#A0616A"/>
<path d="M203.062 279.892L179.926 279.891V279.599C179.926 278.416 180.159 277.245 180.611 276.152C181.064 275.06 181.727 274.067 182.563 273.231C183.4 272.395 184.392 271.731 185.485 271.279C186.578 270.826 187.749 270.593 188.931 270.593H188.932L203.063 270.594L203.062 279.892Z" fill="#2F2E41"/>
<path d="M225.226 272.936L218.05 272.936L214.637 245.259L225.227 245.259L225.226 272.936Z" fill="#A0616A"/>
<path d="M227.058 279.892L203.922 279.891V279.599C203.922 278.416 204.155 277.245 204.607 276.152C205.06 275.06 205.723 274.067 206.56 273.231C207.396 272.395 208.388 271.731 209.481 271.279C210.574 270.826 211.745 270.593 212.927 270.593H212.928L227.059 270.594L227.058 279.892Z" fill="#2F2E41"/>
<path d="M224.899 265.237C224.834 265.237 224.769 265.235 224.704 265.23L216.452 264.619C215.887 264.575 215.351 264.35 214.922 263.978C214.494 263.606 214.197 263.107 214.074 262.553L199.746 183.907C199.698 183.69 199.57 183.499 199.387 183.372C199.204 183.246 198.98 183.193 198.76 183.226C198.54 183.258 198.34 183.373 198.201 183.547C198.063 183.721 197.995 183.942 198.013 184.163L203.1 261.65C203.129 262.013 203.082 262.377 202.963 262.72C202.844 263.063 202.655 263.378 202.408 263.645C202.162 263.911 201.863 264.124 201.53 264.27C201.197 264.415 200.838 264.491 200.475 264.491H194.191C193.661 264.491 193.143 264.331 192.706 264.032C192.268 263.734 191.93 263.31 191.737 262.816C175.934 221.433 181.657 140.348 181.703 139.533L182.288 138.947L213.763 144.382L213.83 144.447C224.584 152.346 229.238 244.852 227.528 262.449C227.517 263.196 227.242 263.916 226.75 264.479C226.257 264.965 225.592 265.237 224.899 265.237Z" fill="#2F2E41"/>
<path d="M185.332 91.513C193.271 91.513 199.707 85.077 199.707 77.1378C199.707 69.1987 193.271 62.7627 185.332 62.7627C177.393 62.7627 170.957 69.1987 170.957 77.1378C170.957 85.077 177.393 91.513 185.332 91.513Z" fill="#A0616A"/>
<path d="M218.302 157.736C218.155 157.736 218.009 157.722 217.866 157.692L180.947 152.955C179.626 152.688 178.682 151.278 178.754 149.673L182.287 130.168C177.605 124.315 182.029 109.2 184.89 105.378L183.784 102.384C183.499 101.606 183.481 100.755 183.735 99.967C183.952 99.2246 184.451 98.5967 185.125 98.2172L200.108 90.2566C201.436 89.5507 202.995 90.2731 203.583 91.8652L206.521 99.8169L206.476 99.8402C213.511 103.611 219.745 107.342 215.063 127.241L220.933 154.724C220.913 155.591 220.564 156.417 219.957 157.035C219.518 157.476 218.924 157.728 218.302 157.736Z" fill="#1DA1F2"/>
<path d="M166.21 125.517C166.446 125.739 166.664 125.979 166.862 126.235L195.819 124.234L198.926 117.904L209.092 121.343L204.682 133.084C204.325 134.033 203.671 134.84 202.817 135.385C201.963 135.93 200.955 136.183 199.944 136.107L167.016 133.61C166.287 134.622 165.267 135.389 164.092 135.807C162.917 136.226 161.642 136.277 160.437 135.953C159.232 135.63 158.154 134.947 157.347 133.996C156.539 133.045 156.041 131.87 155.917 130.629C155.793 129.387 156.05 128.138 156.654 127.046C157.258 125.954 158.18 125.072 159.298 124.517C160.415 123.962 161.675 123.761 162.91 123.939C164.144 124.118 165.296 124.668 166.21 125.517Z" fill="#A0616A"/>
<path d="M195.3 122.838C195.156 122.488 195.089 122.112 195.104 121.733C195.118 121.355 195.214 120.985 195.386 120.647L201.357 108.854C201.968 107.016 203.283 105.497 205.014 104.627C206.744 103.758 208.748 103.611 210.587 104.217C212.426 104.823 213.95 106.134 214.824 107.862C215.698 109.589 215.851 111.593 215.25 113.434L212.95 126.495C212.885 126.867 212.739 127.222 212.525 127.533C212.31 127.845 212.03 128.106 211.705 128.3C211.38 128.494 211.017 128.615 210.641 128.656C210.264 128.697 209.884 128.656 209.525 128.537L196.904 124.335C196.544 124.216 196.215 124.02 195.938 123.762C195.662 123.503 195.444 123.189 195.3 122.838Z" fill="#1DA1F2"/>
<path d="M150.107 113.209C149.988 113.32 149.832 113.381 149.669 113.381C149.507 113.381 149.351 113.32 149.232 113.209L148.896 112.905C146.146 110.382 144.559 108.743 144.559 106.7C144.559 105.033 145.614 103.745 147.268 103.745C147.726 103.747 148.178 103.849 148.593 104.044C149.008 104.239 149.376 104.521 149.671 104.872C149.965 104.521 150.332 104.239 150.747 104.044C151.161 103.849 151.613 103.747 152.071 103.745C153.728 103.745 154.78 105.028 154.78 106.7C154.78 108.739 153.193 110.378 150.443 112.905L150.107 113.209Z" fill="#FF6584"/>
<path d="M130.022 78.2515C129.795 78.4636 129.495 78.5816 129.184 78.5816C128.873 78.5816 128.573 78.4636 128.345 78.2515L127.702 77.6693C122.433 72.8352 119.391 69.6946 119.391 65.779C119.391 62.585 121.412 60.1167 124.581 60.1167C125.46 60.1217 126.326 60.3175 127.121 60.6906C127.916 61.0637 128.621 61.6052 129.186 62.2775C129.75 61.6053 130.454 61.0638 131.248 60.6907C132.042 60.3176 132.908 60.1218 133.786 60.1167C136.96 60.1167 138.977 62.5768 138.977 65.779C138.977 69.6864 135.935 72.8271 130.666 77.6693L130.022 78.2515Z" fill="#FF6584"/>
<path d="M130.859 23.5539C130.564 23.8294 130.174 23.9826 129.77 23.9826C129.366 23.9826 128.977 23.8294 128.681 23.5539L127.845 22.7977C121.002 16.5191 117.051 12.44 117.051 7.35428C117.051 3.20585 119.676 0 123.793 0C124.933 0.00650426 126.059 0.260857 127.091 0.745436C128.124 1.23002 129.039 1.93325 129.773 2.80644C130.506 1.93338 131.42 1.23017 132.452 0.74557C133.483 0.260967 134.608 0.00655869 135.748 0C139.87 0 142.49 3.1952 142.49 7.35428C142.49 12.4293 138.538 16.5085 131.695 22.7977L130.859 23.5539Z" fill="#FF6584"/>
<path d="M375.507 280H-1.41472C-1.56994 280 -1.7188 279.939 -1.82857 279.829C-1.93833 279.719 -2 279.57 -2 279.415C-2 279.26 -1.93833 279.111 -1.82857 279.001C-1.7188 278.891 -1.56994 278.83 -1.41472 278.83H375.507C375.662 278.83 375.811 278.891 375.921 279.001C376.031 279.111 376.092 279.26 376.092 279.415C376.092 279.57 376.031 279.719 375.921 279.829C375.811 279.939 375.662 280 375.507 280Z" fill="#CCCCCC"/>
<path d="M193.409 65.7868C199.874 65.7868 205.114 60.546 205.114 54.0811C205.114 47.6163 199.874 42.3755 193.409 42.3755C186.944 42.3755 181.703 47.6163 181.703 54.0811C181.703 60.546 186.944 65.7868 193.409 65.7868Z" fill="#2F2E41"/>
<path d="M171.725 78.9149C170.581 79.0357 169.365 79.1444 168.336 78.631C167.786 78.3188 167.317 77.8812 166.967 77.3538C166.618 76.8263 166.397 76.2239 166.324 75.5954C164.143 61.1043 176.466 62.2963 177.923 61.6687C178.903 61.2468 179.625 60.3976 180.5 59.7881C182.415 58.4552 184.9 58.3578 187.233 58.3075C190.002 58.2478 192.872 58.2067 195.413 59.3077C197.699 60.3785 199.598 62.129 200.851 64.3199C202.091 66.5014 203 68.8553 203.547 71.3042C204.252 74.1058 204.731 77.0695 204.006 79.8659C203.407 81.9914 202.159 83.8765 200.436 85.2574C198.713 86.6383 196.601 87.4459 194.396 87.5671C195.342 84.2273 193.278 80.5247 190.215 78.8903C187.744 77.675 184.933 77.3402 182.246 77.9413C180.503 78.2944 178.736 78.5145 176.959 78.5996C175.216 78.6649 173.124 78.767 171.725 78.9149Z" fill="#2F2E41"/>
<path d="M359.477 123.937C359.477 95.6895 336.562 28.6587 308.295 28.6587C280.028 28.6587 257.113 95.6895 257.113 123.937C257.124 137.505 262.52 150.513 272.118 160.103C281.715 169.693 294.728 175.081 308.295 175.081C321.863 175.081 334.875 169.693 344.473 160.103C354.07 150.513 359.467 137.505 359.477 123.937Z" fill="#F2F2F2"/>
<path d="M308.296 279.415C308.141 279.415 307.992 279.353 307.882 279.243C307.773 279.134 307.711 278.985 307.711 278.829V117.209C307.711 117.054 307.773 116.905 307.882 116.795C307.992 116.686 308.141 116.624 308.296 116.624C308.451 116.624 308.6 116.686 308.71 116.795C308.82 116.905 308.882 117.054 308.882 117.209V278.829C308.881 278.985 308.82 279.134 308.71 279.243C308.6 279.353 308.451 279.415 308.296 279.415Z" fill="#CCCCCC"/>
<path d="M308.294 139.532C308.21 139.532 308.127 139.515 308.051 139.48C307.974 139.445 307.906 139.394 307.851 139.331L278.416 105.384C278.314 105.267 278.264 105.114 278.275 104.96C278.286 104.805 278.358 104.661 278.475 104.56C278.592 104.458 278.745 104.407 278.9 104.418C279.054 104.429 279.198 104.5 279.3 104.617L308.736 138.564C308.809 138.648 308.857 138.752 308.873 138.863C308.889 138.975 308.873 139.088 308.826 139.19C308.779 139.292 308.705 139.378 308.61 139.439C308.516 139.5 308.406 139.532 308.294 139.532Z" fill="#CCCCCC"/>
<path d="M308.296 159.123C308.18 159.123 308.067 159.089 307.971 159.025C307.875 158.96 307.8 158.869 307.755 158.762C307.711 158.655 307.7 158.537 307.722 158.424C307.745 158.31 307.8 158.206 307.882 158.124L324.608 141.398C324.663 141.344 324.727 141.301 324.798 141.271C324.869 141.242 324.945 141.227 325.022 141.227C325.099 141.227 325.175 141.242 325.246 141.271C325.317 141.301 325.382 141.344 325.436 141.398C325.49 141.452 325.533 141.517 325.563 141.588C325.592 141.659 325.607 141.735 325.607 141.812C325.607 141.889 325.592 141.965 325.563 142.036C325.533 142.107 325.49 142.171 325.436 142.226L308.71 158.952C308.656 159.006 308.591 159.049 308.52 159.079C308.449 159.108 308.373 159.123 308.296 159.123Z" fill="#CCCCCC"/>
<path d="M308.296 223.504C308.18 223.504 308.067 223.47 307.971 223.405C307.875 223.341 307.8 223.25 307.755 223.143C307.711 223.036 307.7 222.918 307.722 222.805C307.745 222.691 307.8 222.587 307.882 222.505L324.608 205.779C324.718 205.669 324.867 205.607 325.022 205.607C325.177 205.607 325.326 205.669 325.436 205.779C325.546 205.889 325.607 206.037 325.607 206.193C325.607 206.348 325.546 206.497 325.436 206.606L308.71 223.333C308.656 223.387 308.591 223.43 308.52 223.46C308.449 223.489 308.373 223.504 308.296 223.504Z" fill="#CCCCCC"/>
</g>
<defs>
<clipPath id="clip0_2660_36404">
<rect width="378.092" height="280" fill="white" transform="translate(-2)"/>
</clipPath>
</defs>
</svg>
