<svg width="158" height="280" viewBox="0 0 158 280" fill="none" xmlns="http://www.w3.org/2000/svg">
<g clip-path="url(#clip0_2660_36503)">
<path d="M122.303 262.75H38.742C35.697 262.75 32.6818 262.151 29.8686 260.985C27.0554 259.82 24.4992 258.112 22.3461 255.959C20.1929 253.806 18.485 251.25 17.3197 248.437C16.1544 245.623 15.5547 242.608 15.5547 239.563V23.1874C15.5616 17.0398 18.0068 11.1461 22.3538 6.79911C26.7008 2.45214 32.5945 0.00695931 38.742 0H122.303C128.45 0.00694024 134.344 2.45211 138.691 6.79908C143.038 11.146 145.483 17.0398 145.49 23.1874V62.2682H146.93V91.063H145.49V239.563C145.49 245.713 143.047 251.61 138.699 255.959C134.351 260.307 128.453 262.75 122.303 262.75ZM38.742 0.720083C32.7854 0.726809 27.0747 3.09605 22.8627 7.30802C18.6507 11.52 16.2815 17.2307 16.2748 23.1874V239.563C16.2747 242.514 16.8558 245.435 17.9849 248.161C19.114 250.887 20.7689 253.364 22.8552 255.45C24.9414 257.536 27.4182 259.191 30.1441 260.32C32.8699 261.449 35.7915 262.03 38.7419 262.03H122.303C128.262 262.03 133.976 259.663 138.19 255.45C142.403 251.237 144.77 245.522 144.77 239.563V90.3429H146.21V62.9883H144.77V23.1874C144.763 17.2307 142.394 11.52 138.182 7.30802C133.97 3.09605 128.26 0.72681 122.303 0.720083H38.742Z" fill="#3F3D56"/>
<path d="M123.221 256.812H39.2596C34.6444 256.807 30.2197 254.971 26.9562 251.707C23.6927 248.444 21.8569 244.019 21.8516 239.404V23.3465C21.8569 18.7313 23.6927 14.3066 26.9562 11.0431C30.2197 7.77959 34.6444 5.94382 39.2596 5.93848H49.9805L49.7787 6.43424C49.3005 7.60948 49.1183 8.88424 49.2484 10.1464C49.3784 11.4085 49.8166 12.6194 50.5244 13.6725C51.2322 14.7255 52.1879 15.5885 53.3075 16.1855C54.4271 16.7825 55.6763 17.0953 56.9451 17.0962H104.816C106.085 17.0952 107.334 16.7825 108.453 16.1854C109.573 15.5884 110.529 14.7254 111.237 13.6724C111.944 12.6193 112.383 11.4085 112.513 10.1463C112.643 8.88421 112.46 7.60947 111.982 6.43424L111.78 5.93848H123.221C127.837 5.94384 132.261 7.77962 135.525 11.0431C138.788 14.3066 140.624 18.7313 140.629 23.3465V239.404C140.624 244.019 138.788 248.444 135.525 251.707C132.261 254.971 127.837 256.807 123.221 256.812ZM39.2596 6.65856C34.8353 6.66367 30.5936 8.4235 27.4651 11.552C24.3366 14.6805 22.5768 18.9222 22.5716 23.3465V239.404C22.5768 243.828 24.3366 248.07 27.4651 251.198C30.5936 254.327 34.8353 256.087 39.2596 256.092H123.221C127.646 256.087 131.887 254.327 135.016 251.199C138.144 248.07 139.904 243.828 139.909 239.404V23.3465C139.904 18.9222 138.144 14.6805 135.016 11.552C131.887 8.42353 127.646 6.66369 123.221 6.65856H112.833C113.261 7.93087 113.379 9.28653 113.179 10.6137C112.979 11.9408 112.466 13.2014 111.683 14.2913C110.9 15.3812 109.869 16.2693 108.675 16.8822C107.481 17.4951 106.158 17.8153 104.816 17.8163H56.9448C55.6027 17.8153 54.28 17.4952 53.086 16.8823C51.892 16.2694 50.8609 15.3813 50.0777 14.2914C49.2945 13.2014 48.7818 11.9409 48.5818 10.6137C48.3817 9.28658 48.5002 7.9309 48.9274 6.65856H39.2596Z" fill="#CCCCCC"/>
<path d="M149.866 140.692H7.60516C5.58884 140.69 3.65575 139.888 2.23 138.462C0.804247 137.037 0.00226897 135.103 0 133.087V87.4562C0.00226897 85.4399 0.804247 83.5068 2.23 82.0811C3.65575 80.6553 5.58884 79.8533 7.60516 79.8511H149.866C151.883 79.8533 153.816 80.6553 155.242 82.0811C156.667 83.5068 157.469 85.4399 157.472 87.4562V133.087C157.469 135.103 156.667 137.037 155.242 138.462C153.816 139.888 151.883 140.69 149.866 140.692Z" fill="white"/>
<path d="M149.866 140.692H7.60516C5.58884 140.69 3.65575 139.888 2.23 138.462C0.804247 137.037 0.00226897 135.103 0 133.087V87.4562C0.00226897 85.4399 0.804247 83.5068 2.23 82.0811C3.65575 80.6553 5.58884 79.8533 7.60516 79.8511H149.866C151.883 79.8533 153.816 80.6553 155.242 82.0811C156.667 83.5068 157.469 85.4399 157.472 87.4562V133.087C157.469 135.103 156.667 137.037 155.242 138.462C153.816 139.888 151.883 140.69 149.866 140.692ZM7.60516 80.7458C5.82606 80.7478 4.12041 81.4555 2.86239 82.7135C1.60438 83.9715 0.896737 85.6771 0.894721 87.4562V133.087C0.896737 134.866 1.60438 136.572 2.86239 137.83C4.12041 139.088 5.82606 139.796 7.60516 139.798H149.866C151.645 139.796 153.351 139.088 154.609 137.83C155.867 136.572 156.575 134.866 156.577 133.087V87.4562C156.575 85.6771 155.867 83.9715 154.609 82.7135C153.351 81.4555 151.645 80.7478 149.866 80.7458H7.60516Z" fill="#3F3D56"/>
<path d="M97.3924 107.811H47.7352C46.786 107.811 45.8757 107.434 45.2045 106.763C44.5333 106.092 44.1563 105.181 44.1562 104.232C44.1563 103.283 44.5333 102.373 45.2045 101.702C45.8757 101.03 46.786 100.653 47.7352 100.653H97.3924C98.3416 100.653 99.2519 101.03 99.923 101.702C100.594 102.373 100.971 103.283 100.971 104.232C100.971 105.181 100.594 106.092 99.923 106.763C99.2519 107.434 98.3416 107.811 97.3924 107.811Z" fill="#1DA1F2"/>
<path d="M143.471 119.89H47.7352C46.786 119.89 45.8757 119.513 45.2045 118.841C44.5333 118.17 44.1563 117.26 44.1562 116.311C44.1563 115.362 44.5333 114.451 45.2045 113.78C45.8757 113.109 46.786 112.732 47.7352 112.732H143.471C144.42 112.732 145.33 113.109 146.001 113.78C146.673 114.451 147.05 115.362 147.05 116.311C147.05 117.26 146.673 118.17 146.001 118.841C145.33 119.513 144.42 119.89 143.471 119.89Z" fill="#1DA1F2"/>
<path d="M23.8427 123.692C31.2549 123.692 37.2636 117.684 37.2636 110.271C37.2636 102.859 31.2549 96.8506 23.8427 96.8506C16.4306 96.8506 10.4219 102.859 10.4219 110.271C10.4219 117.684 16.4306 123.692 23.8427 123.692Z" fill="#1DA1F2"/>
<path d="M143.464 134.429H130.938C129.989 134.429 129.079 134.052 128.408 133.381C127.736 132.71 127.359 131.8 127.359 130.85C127.359 129.901 127.736 128.991 128.408 128.32C129.079 127.649 129.989 127.271 130.938 127.271H143.464C143.934 127.271 144.4 127.364 144.834 127.544C145.268 127.724 145.663 127.987 145.995 128.32C146.327 128.652 146.591 129.047 146.771 129.481C146.951 129.915 147.043 130.38 147.043 130.85C147.043 131.32 146.951 131.786 146.771 132.22C146.591 132.654 146.327 133.049 145.995 133.381C145.663 133.713 145.268 133.977 144.834 134.157C144.4 134.337 143.934 134.429 143.464 134.429Z" fill="white"/>
<path d="M143.464 134.429H130.938C129.989 134.429 129.079 134.052 128.408 133.381C127.736 132.71 127.359 131.8 127.359 130.85C127.359 129.901 127.736 128.991 128.408 128.32C129.079 127.649 129.989 127.271 130.938 127.271H143.464C143.934 127.271 144.4 127.364 144.834 127.544C145.268 127.724 145.663 127.987 145.995 128.32C146.327 128.652 146.591 129.047 146.771 129.481C146.951 129.915 147.043 130.38 147.043 130.85C147.043 131.32 146.951 131.786 146.771 132.22C146.591 132.654 146.327 133.049 145.995 133.381C145.663 133.713 145.268 133.977 144.834 134.157C144.4 134.337 143.934 134.429 143.464 134.429Z" fill="#CCCCCC"/>
<path d="M121.915 68.1519H42.7553C41.6333 68.1506 40.5576 67.7043 39.7643 66.911C38.971 66.1177 38.5247 65.042 38.5234 63.92V38.5292C38.5247 37.4072 38.971 36.3316 39.7643 35.5382C40.5576 34.7449 41.6333 34.2986 42.7552 34.2974H121.915C123.037 34.2986 124.113 34.7449 124.906 35.5382C125.699 36.3316 126.146 37.4072 126.147 38.5292V63.92C126.146 65.042 125.699 66.1176 124.906 66.911C124.113 67.7043 123.037 68.1506 121.915 68.1519ZM42.7553 34.7952C41.7653 34.7963 40.8162 35.1901 40.1162 35.8901C39.4162 36.5901 39.0224 37.5392 39.0213 38.5292V63.92C39.0224 64.91 39.4162 65.8591 40.1162 66.5591C40.8162 67.2591 41.7653 67.6529 42.7553 67.654H121.915C122.905 67.6529 123.854 67.2591 124.554 66.5591C125.254 65.8591 125.648 64.91 125.649 63.92V38.5292C125.648 37.5392 125.254 36.5901 124.554 35.8901C123.854 35.1901 122.905 34.7963 121.915 34.7952H42.7553Z" fill="#CCCCCC"/>
<path d="M92.7177 49.8554H65.0864C64.5587 49.8547 64.0529 49.6446 63.68 49.2712C63.3071 48.8978 63.0977 48.3917 63.0977 47.864C63.0977 47.3363 63.3071 46.8302 63.68 46.4568C64.0529 46.0834 64.5587 45.8733 65.0864 45.8726H92.7177C93.2454 45.8733 93.7512 46.0834 94.1241 46.4568C94.497 46.8302 94.7064 47.3363 94.7064 47.864C94.7064 48.3917 94.497 48.8978 94.1241 49.2712C93.7512 49.6446 93.2454 49.8547 92.7177 49.8554Z" fill="#E6E6E6"/>
<path d="M118.357 56.5766H65.0864C64.5587 56.5759 64.0529 56.3658 63.68 55.9924C63.3071 55.619 63.0977 55.1129 63.0977 54.5852C63.0977 54.0575 63.3071 53.5514 63.68 53.178C64.0529 52.8046 64.5587 52.5945 65.0864 52.5938H118.357C118.619 52.5934 118.878 52.6446 119.12 52.7446C119.362 52.8445 119.582 52.9911 119.767 53.1761C119.953 53.361 120.1 53.5807 120.2 53.8225C120.3 54.0643 120.352 54.3234 120.352 54.5852C120.352 54.8469 120.3 55.1061 120.2 55.3479C120.1 55.5897 119.953 55.8093 119.767 55.9943C119.582 56.1793 119.362 56.3259 119.12 56.4258C118.878 56.5257 118.619 56.577 118.357 56.5766Z" fill="#E6E6E6"/>
<path d="M51.7921 58.6926C55.9165 58.6926 59.26 55.3491 59.26 51.2247C59.26 47.1003 55.9165 43.7568 51.7921 43.7568C47.6677 43.7568 44.3242 47.1003 44.3242 51.2247C44.3242 55.3491 47.6677 58.6926 51.7921 58.6926Z" fill="#E6E6E6"/>
<path d="M118.355 64.667H111.385C111.123 64.6673 110.864 64.6161 110.622 64.5161C110.38 64.4162 110.16 64.2696 109.975 64.0846C109.79 63.8997 109.643 63.68 109.542 63.4382C109.442 63.1964 109.391 62.9373 109.391 62.6755C109.391 62.4138 109.442 62.1546 109.542 61.9128C109.643 61.671 109.79 61.4514 109.975 61.2664C110.16 61.0815 110.38 60.9348 110.622 60.8349C110.864 60.735 111.123 60.6837 111.385 60.6841H118.355C118.882 60.6848 119.388 60.8949 119.761 61.2683C120.134 61.6417 120.344 62.1478 120.344 62.6755C120.344 63.2032 120.134 63.7093 119.761 64.0827C119.388 64.4561 118.882 64.6663 118.355 64.667Z" fill="white"/>
<path d="M118.355 64.667H111.385C111.123 64.6673 110.864 64.6161 110.622 64.5161C110.38 64.4162 110.16 64.2696 109.975 64.0846C109.79 63.8997 109.643 63.68 109.542 63.4382C109.442 63.1964 109.391 62.9373 109.391 62.6755C109.391 62.4138 109.442 62.1546 109.542 61.9128C109.643 61.671 109.79 61.4514 109.975 61.2664C110.16 61.0815 110.38 60.9348 110.622 60.8349C110.864 60.735 111.123 60.6837 111.385 60.6841H118.355C118.882 60.6848 119.388 60.8949 119.761 61.2683C120.134 61.6417 120.344 62.1478 120.344 62.6755C120.344 63.2032 120.134 63.7093 119.761 64.0827C119.388 64.4561 118.882 64.6663 118.355 64.667Z" fill="#CCCCCC"/>
<path d="M121.915 185.525H42.7553C41.6333 185.524 40.5576 185.078 39.7643 184.285C38.971 183.491 38.5247 182.416 38.5234 181.294V155.903C38.5247 154.781 38.971 153.705 39.7643 152.912C40.5576 152.118 41.6333 151.672 42.7552 151.671H121.915C123.037 151.672 124.113 152.118 124.906 152.912C125.699 153.705 126.146 154.781 126.147 155.903V181.294C126.146 182.416 125.699 183.491 124.906 184.285C124.113 185.078 123.037 185.524 121.915 185.525ZM42.7553 152.169C41.7653 152.17 40.8162 152.564 40.1162 153.264C39.4162 153.964 39.0224 154.913 39.0213 155.903V181.294C39.0224 182.284 39.4162 183.233 40.1162 183.933C40.8162 184.633 41.7653 185.026 42.7553 185.028H121.915C122.905 185.026 123.854 184.633 124.554 183.933C125.254 183.233 125.648 182.284 125.649 181.294V155.903C125.648 154.913 125.254 153.964 124.554 153.264C123.854 152.564 122.905 152.17 121.915 152.169H42.7553Z" fill="#CCCCCC"/>
<path d="M92.7164 167.229H65.0852C64.557 167.229 64.0505 167.02 63.677 166.646C63.3036 166.273 63.0938 165.766 63.0938 165.238C63.0938 164.71 63.3036 164.203 63.677 163.83C64.0505 163.456 64.557 163.247 65.0852 163.247H92.7164C93.2441 163.247 93.75 163.457 94.1229 163.831C94.4958 164.204 94.7052 164.71 94.7052 165.238C94.7052 165.766 94.4958 166.272 94.1229 166.645C93.75 167.019 93.2441 167.229 92.7164 167.229Z" fill="#E6E6E6"/>
<path d="M118.357 173.95H65.0864C64.5587 173.949 64.0529 173.739 63.68 173.366C63.3071 172.993 63.0977 172.486 63.0977 171.959C63.0977 171.431 63.3071 170.925 63.68 170.552C64.0529 170.178 64.5587 169.968 65.0864 169.967H118.357C118.886 169.967 119.392 170.177 119.766 170.551C120.139 170.924 120.349 171.431 120.349 171.959C120.349 172.487 120.139 172.993 119.766 173.367C119.392 173.74 118.886 173.95 118.357 173.95Z" fill="#E6E6E6"/>
<path d="M51.7921 176.066C55.9165 176.066 59.26 172.723 59.26 168.598C59.26 164.474 55.9165 161.13 51.7921 161.13C47.6677 161.13 44.3242 164.474 44.3242 168.598C44.3242 172.723 47.6677 176.066 51.7921 176.066Z" fill="#E6E6E6"/>
<path d="M118.352 182.04H111.382C110.854 182.04 110.347 181.831 109.974 181.457C109.6 181.084 109.391 180.577 109.391 180.049C109.391 179.521 109.6 179.014 109.974 178.641C110.347 178.267 110.854 178.058 111.382 178.058H118.352C118.88 178.058 119.386 178.268 119.759 178.642C120.131 179.015 120.341 179.521 120.341 180.049C120.341 180.577 120.131 181.083 119.759 181.456C119.386 181.83 118.88 182.04 118.352 182.04Z" fill="white"/>
<path d="M118.352 182.04H111.382C110.854 182.04 110.347 181.831 109.974 181.457C109.6 181.084 109.391 180.577 109.391 180.049C109.391 179.521 109.6 179.014 109.974 178.641C110.347 178.267 110.854 178.058 111.382 178.058H118.352C118.88 178.058 119.386 178.268 119.759 178.642C120.131 179.015 120.341 179.521 120.341 180.049C120.341 180.577 120.131 181.083 119.759 181.456C119.386 181.83 118.88 182.04 118.352 182.04Z" fill="#CCCCCC"/>
<path d="M121.915 232.691H42.7553C41.6333 232.69 40.5576 232.243 39.7643 231.45C38.971 230.657 38.5247 229.581 38.5234 228.459V203.068C38.5247 201.946 38.971 200.871 39.7643 200.077C40.5576 199.284 41.6333 198.838 42.7552 198.836H121.915C123.037 198.838 124.113 199.284 124.906 200.077C125.699 200.871 126.146 201.946 126.147 203.068V228.459C126.146 229.581 125.699 230.657 124.906 231.45C124.113 232.243 123.037 232.69 121.915 232.691ZM42.7553 199.334C41.7653 199.335 40.8162 199.729 40.1162 200.429C39.4162 201.129 39.0224 202.078 39.0213 203.068V228.459C39.0224 229.449 39.4162 230.398 40.1162 231.098C40.8162 231.798 41.7653 232.192 42.7553 232.193H121.915C122.905 232.192 123.854 231.798 124.554 231.098C125.254 230.398 125.648 229.449 125.649 228.459V203.068C125.648 202.078 125.254 201.129 124.554 200.429C123.854 199.729 122.905 199.335 121.915 199.334H42.7553Z" fill="#CCCCCC"/>
<path d="M92.7164 214.394H65.0852C64.557 214.394 64.0505 214.185 63.677 213.811C63.3036 213.438 63.0938 212.931 63.0938 212.403C63.0938 211.875 63.3036 211.368 63.677 210.995C64.0505 210.621 64.557 210.412 65.0852 210.412H92.7164C93.2441 210.412 93.75 210.622 94.1229 210.996C94.4958 211.369 94.7052 211.875 94.7052 212.403C94.7052 212.931 94.4958 213.437 94.1229 213.81C93.75 214.184 93.2441 214.394 92.7164 214.394Z" fill="#E6E6E6"/>
<path d="M118.357 221.116H65.0864C64.5587 221.115 64.0529 220.905 63.68 220.531C63.3071 220.158 63.0977 219.652 63.0977 219.124C63.0977 218.597 63.3071 218.09 63.68 217.717C64.0529 217.344 64.5587 217.134 65.0864 217.133H118.357C118.886 217.133 119.392 217.343 119.766 217.716C120.139 218.09 120.349 218.596 120.349 219.124C120.349 219.652 120.139 220.159 119.766 220.532C119.392 220.906 118.886 221.116 118.357 221.116Z" fill="#E6E6E6"/>
<path d="M51.7921 223.232C55.9165 223.232 59.26 219.888 59.26 215.764C59.26 211.639 55.9165 208.296 51.7921 208.296C47.6677 208.296 44.3242 211.639 44.3242 215.764C44.3242 219.888 47.6677 223.232 51.7921 223.232Z" fill="#E6E6E6"/>
<path d="M118.352 229.206H111.382C110.854 229.206 110.347 228.996 109.974 228.623C109.6 228.249 109.391 227.743 109.391 227.215C109.391 226.686 109.6 226.18 109.974 225.806C110.347 225.433 110.854 225.223 111.382 225.223H118.352C118.88 225.224 119.386 225.434 119.759 225.807C120.131 226.181 120.341 226.687 120.341 227.215C120.341 227.742 120.131 228.248 119.759 228.622C119.386 228.995 118.88 229.205 118.352 229.206Z" fill="white"/>
<path d="M118.352 229.206H111.382C110.854 229.206 110.347 228.996 109.974 228.623C109.6 228.249 109.391 227.743 109.391 227.215C109.391 226.686 109.6 226.18 109.974 225.806C110.347 225.433 110.854 225.223 111.382 225.223H118.352C118.88 225.224 119.386 225.434 119.759 225.807C120.131 226.181 120.341 226.687 120.341 227.215C120.341 227.742 120.131 228.248 119.759 228.622C119.386 228.995 118.88 229.205 118.352 229.206Z" fill="#CCCCCC"/>
<path d="M72.6062 275.721H77.0203L79.1201 258.695L72.6055 258.696L72.6062 275.721Z" fill="#FFB8B8"/>
<path d="M71.4805 274.28L80.1732 274.28H80.1736C80.9011 274.28 81.6215 274.423 82.2936 274.701C82.9657 274.98 83.5764 275.388 84.0908 275.902C84.6052 276.417 85.0133 277.027 85.2917 277.7C85.5701 278.372 85.7134 279.092 85.7134 279.819V279.999L71.4808 280L71.4805 274.28Z" fill="#2F2E41"/>
<path d="M54.9617 275.721H59.3758L61.4755 258.695L54.9609 258.696L54.9617 275.721Z" fill="#FFB8B8"/>
<path d="M53.8359 274.28L62.5287 274.28H62.5291C63.2566 274.28 63.9769 274.423 64.6491 274.701C65.3212 274.98 65.9319 275.388 66.4463 275.902C66.9607 276.417 67.3688 277.027 67.6472 277.7C67.9256 278.372 68.0689 279.092 68.0689 279.819V279.999L53.8362 280L53.8359 274.28Z" fill="#2F2E41"/>
<path d="M73.4875 157.851C78.3714 157.851 82.3305 153.891 82.3305 149.008C82.3305 144.124 78.3714 140.165 73.4875 140.165C68.6037 140.165 64.6445 144.124 64.6445 149.008C64.6445 153.891 68.6037 157.851 73.4875 157.851Z" fill="#FFB8B8"/>
<path d="M79.4309 272.046H71.2397C71.0253 272.046 70.813 272.004 70.6152 271.921C70.4173 271.838 70.2379 271.717 70.0872 271.565C69.9365 271.412 69.8176 271.231 69.7373 271.032C69.6571 270.834 69.6171 270.621 69.6197 270.406L70.0957 231.511C70.0974 231.373 70.0461 231.239 69.9524 231.137C69.8587 231.036 69.7296 230.974 69.5917 230.965C69.4539 230.956 69.3177 231 69.2113 231.088C69.1048 231.176 69.0362 231.301 69.0195 231.439L64.2523 270.622C64.2042 271.015 64.0141 271.376 63.7179 271.639C63.4216 271.901 63.0397 272.046 62.644 272.046H54.3741C54.1507 272.046 53.9297 272 53.725 271.911C53.5203 271.821 53.3363 271.69 53.1846 271.526C53.0329 271.362 52.9168 271.169 52.8435 270.958C52.7702 270.747 52.7414 270.523 52.7588 270.3L58.2198 200.425L58.3682 200.409L84.5177 197.584L81.0494 270.503C81.03 270.919 80.851 271.312 80.5496 271.599C80.2481 271.887 79.8475 272.047 79.4309 272.046Z" fill="#2F2E41"/>
<path d="M58.5384 204.714C58.1183 204.713 57.715 204.549 57.4138 204.256C57.1125 203.964 56.9369 203.565 56.924 203.145C56.7813 198.727 56.5366 183.439 59.3802 172.216C60.1563 169.15 61.8982 166.415 64.3486 164.415C66.7991 162.416 69.8278 161.258 72.9872 161.112C76.0968 160.943 79.1811 161.756 81.8022 163.438C84.4234 165.12 86.4484 167.584 87.59 170.482C92.3697 182.616 96.8855 197.574 91.2555 199.92C83.8765 202.994 64.424 204.365 58.6378 204.711C58.6045 204.713 58.5714 204.714 58.5384 204.714Z" fill="#1DA1F2"/>
<path d="M92.3369 140.07C92.4759 140.212 92.6259 140.344 92.7855 140.463L91.8573 158.295L87.9961 160.271L90.2178 166.489L97.3934 163.653C97.973 163.424 98.4628 163.013 98.7891 162.482C99.1153 161.951 99.2605 161.329 99.2029 160.708L97.323 140.481C97.9382 140.022 98.399 139.387 98.6442 138.659C98.8895 137.932 98.9075 137.147 98.6958 136.41C98.4842 135.672 98.053 135.016 97.4596 134.529C96.8662 134.043 96.1386 133.748 95.3737 133.685C94.6089 133.622 93.8429 133.793 93.1777 134.176C92.5125 134.559 91.9797 135.135 91.65 135.828C91.3203 136.521 91.2095 137.298 91.3322 138.056C91.4549 138.814 91.8054 139.516 92.3369 140.07H92.3369Z" fill="#FFB8B8"/>
<path d="M91.932 158.958L94.6482 166.677C94.7255 166.897 94.7545 167.131 94.7333 167.362C94.7121 167.594 94.6412 167.819 94.5254 168.021C94.4096 168.223 94.2517 168.397 94.0623 168.533C93.8729 168.668 93.6565 168.761 93.428 168.806L85.4187 170.357C84.2927 170.746 83.0584 170.673 81.9864 170.153C80.9144 169.633 80.0921 168.71 79.7 167.585C79.3078 166.46 79.3778 165.226 79.8945 164.152C80.4112 163.079 81.3325 162.254 82.4564 161.859L89.6478 158.063C89.8537 157.954 90.0806 157.892 90.3131 157.879C90.5456 157.865 90.7781 157.903 90.9948 157.988C91.2116 158.073 91.4075 158.203 91.5693 158.371C91.731 158.538 91.8547 158.739 91.932 158.958V158.958Z" fill="#1DA1F2"/>
<path d="M54.0345 140.07C53.8956 140.212 53.7456 140.344 53.5859 140.463L54.5142 158.295L58.3754 160.271L56.1536 166.489L48.9781 163.653C48.3984 163.424 47.9087 163.013 47.5824 162.482C47.2561 161.951 47.1109 161.329 47.1686 160.708L49.0484 140.481C48.4333 140.022 47.9725 139.387 47.7273 138.659C47.482 137.932 47.464 137.147 47.6756 136.41C47.8872 135.672 48.3184 135.016 48.9119 134.529C49.5053 134.043 50.2328 133.748 50.9977 133.685C51.7626 133.622 52.5286 133.793 53.1938 134.176C53.8589 134.559 54.3918 135.135 54.7215 135.828C55.0512 136.521 55.162 137.298 55.0393 138.056C54.9166 138.814 54.5661 139.516 54.0345 140.07Z" fill="#FFB8B8"/>
<path d="M55.3781 157.988C55.5948 157.903 55.8274 157.865 56.0598 157.879C56.2923 157.892 56.5192 157.955 56.7251 158.063L63.9164 161.859C65.0403 162.254 65.9616 163.079 66.4783 164.152C66.9951 165.226 67.065 166.46 66.6729 167.585C66.2807 168.71 65.4585 169.634 64.3864 170.153C63.3144 170.673 62.0801 170.746 60.9542 170.357L52.9449 168.806C52.7163 168.762 52.5 168.669 52.3106 168.533C52.1212 168.398 51.9632 168.223 51.8474 168.021C51.7316 167.819 51.6607 167.594 51.6395 167.363C51.6184 167.131 51.6474 166.897 51.7247 166.677L54.4409 158.959C54.5181 158.739 54.6418 158.538 54.8035 158.371C54.9652 158.203 55.1612 158.073 55.3781 157.988Z" fill="#1DA1F2"/>
<path d="M76.9218 150.514C76.8754 149.386 77.1584 148.269 77.7365 147.299C78.3145 146.33 79.1625 145.549 80.1768 145.053C82.8648 143.666 84.5534 140.706 83.8135 138.003C82.8664 134.543 78.1578 132.3 74.3426 133.49C73.31 133.857 72.3142 134.319 71.3683 134.872L68.8757 136.208C67.8109 136.742 66.7843 137.348 65.8031 138.022C64.3335 139.105 63.1816 140.563 62.4678 142.243C61.754 143.924 61.5045 145.765 61.7453 147.574C62.2362 151.091 64.5395 154.317 67.6924 156.525C68.8981 157.426 70.2908 158.045 71.7676 158.337C73.2789 158.586 74.9613 158.303 76.0663 157.363C77.7932 155.894 77.6147 153.434 77.0562 151.38C76.9824 151.097 76.9374 150.807 76.9218 150.514Z" fill="#2F2E41"/>
</g>
<defs>
<clipPath id="clip0_2660_36503">
<rect width="157.472" height="280" fill="white"/>
</clipPath>
</defs>
</svg>
